%TF.GenerationSoftware,KiCad,Pcbnew,6.0.4-6f826c9f35~116~ubuntu20.04.1*%
%TF.CreationDate,2022-05-17T19:43:32-03:00*%
%TF.ProjectId,Kicad_Projects,4b696361-645f-4507-926f-6a656374732e,rev?*%
%TF.SameCoordinates,Original*%
%TF.FileFunction,Copper,L1,Top*%
%TF.FilePolarity,Positive*%
%FSLAX46Y46*%
G04 Gerber Fmt 4.6, Leading zero omitted, Abs format (unit mm)*
G04 Created by KiCad (PCBNEW 6.0.4-6f826c9f35~116~ubuntu20.04.1) date 2022-05-17 19:43:32*
%MOMM*%
%LPD*%
G01*
G04 APERTURE LIST*
%TA.AperFunction,ComponentPad*%
%ADD10C,1.600000*%
%TD*%
%TA.AperFunction,ComponentPad*%
%ADD11O,1.600000X1.600000*%
%TD*%
%TA.AperFunction,ComponentPad*%
%ADD12C,2.340000*%
%TD*%
%TA.AperFunction,ComponentPad*%
%ADD13R,1.800000X1.800000*%
%TD*%
%TA.AperFunction,ComponentPad*%
%ADD14O,1.800000X1.800000*%
%TD*%
%TA.AperFunction,ComponentPad*%
%ADD15R,2.400000X2.400000*%
%TD*%
%TA.AperFunction,ComponentPad*%
%ADD16C,2.400000*%
%TD*%
%TA.AperFunction,ComponentPad*%
%ADD17R,2.500000X4.500000*%
%TD*%
%TA.AperFunction,ComponentPad*%
%ADD18O,2.500000X4.500000*%
%TD*%
%TA.AperFunction,ComponentPad*%
%ADD19R,3.200000X3.200000*%
%TD*%
%TA.AperFunction,ComponentPad*%
%ADD20O,3.200000X3.200000*%
%TD*%
%TA.AperFunction,ComponentPad*%
%ADD21R,2.200000X2.200000*%
%TD*%
%TA.AperFunction,ComponentPad*%
%ADD22O,2.200000X2.200000*%
%TD*%
%TA.AperFunction,ComponentPad*%
%ADD23C,6.000000*%
%TD*%
%TA.AperFunction,ComponentPad*%
%ADD24C,1.440000*%
%TD*%
%TA.AperFunction,ComponentPad*%
%ADD25R,3.000000X3.000000*%
%TD*%
%TA.AperFunction,ComponentPad*%
%ADD26C,3.000000*%
%TD*%
%TA.AperFunction,ComponentPad*%
%ADD27R,1.600000X1.600000*%
%TD*%
%TA.AperFunction,ComponentPad*%
%ADD28C,1.800000*%
%TD*%
%TA.AperFunction,ViaPad*%
%ADD29C,5.000000*%
%TD*%
%TA.AperFunction,ViaPad*%
%ADD30C,2.000000*%
%TD*%
%TA.AperFunction,Conductor*%
%ADD31C,1.000000*%
%TD*%
G04 APERTURE END LIST*
D10*
%TO.P,R4,1*%
%TO.N,Net-(C5-Pad1)*%
X136907000Y-95158000D03*
D11*
%TO.P,R4,2*%
%TO.N,GND*%
X147067000Y-95158000D03*
%TD*%
D12*
%TO.P,Regulacion_Corriente1,1,1*%
%TO.N,Net-(R5-Pad1)*%
X134051000Y-83115000D03*
%TO.P,Regulacion_Corriente1,2,2*%
%TO.N,Net-(Regulacion_Corriente1-Pad2)*%
X136551000Y-80615000D03*
%TO.P,Regulacion_Corriente1,3,3*%
%TO.N,TBJ_Out*%
X139051000Y-83115000D03*
%TD*%
D13*
%TO.P,Q1,1,E*%
%TO.N,Net-(Q1-Pad1)*%
X127254000Y-98812000D03*
D14*
%TO.P,Q1,2,C*%
%TO.N,+VDC*%
X124714000Y-98812000D03*
%TO.P,Q1,3,B*%
%TO.N,Net-(Q1-Pad3)*%
X122174000Y-98812000D03*
%TD*%
D15*
%TO.P,C2,1*%
%TO.N,+VDC*%
X99568000Y-101092000D03*
D16*
%TO.P,C2,2*%
%TO.N,GND*%
X92068000Y-101092000D03*
%TD*%
D10*
%TO.P,R3,1*%
%TO.N,Vout*%
X146940000Y-90713000D03*
D11*
%TO.P,R3,2*%
%TO.N,Net-(C5-Pad1)*%
X136780000Y-90713000D03*
%TD*%
D12*
%TO.P,Regulacion_Tension1,3,3*%
%TO.N,Net-(R1-Pad1)*%
X115175000Y-82861000D03*
%TO.P,Regulacion_Tension1,2,2*%
%TO.N,Net-(C3-Pad1)*%
X112675000Y-80361000D03*
%TO.P,Regulacion_Tension1,1,1*%
%TO.N,Net-(Regulacion_Tension1-Pad1)*%
X110175000Y-82861000D03*
%TD*%
D17*
%TO.P,Q2,1,B*%
%TO.N,Net-(Q1-Pad1)*%
X136260000Y-112194000D03*
D18*
%TO.P,Q2,2,C*%
%TO.N,+VDC*%
X130810000Y-112194000D03*
%TO.P,Q2,3,E*%
%TO.N,TBJ_Out*%
X125360000Y-112194000D03*
%TD*%
D19*
%TO.P,D3,1,K*%
%TO.N,AC_N*%
X68834000Y-91948000D03*
D20*
%TO.P,D3,2,A*%
%TO.N,GND*%
X84074000Y-91948000D03*
%TD*%
D15*
%TO.P,C1,1*%
%TO.N,+VDC*%
X99651755Y-82296000D03*
D16*
%TO.P,C1,2*%
%TO.N,GND*%
X92151755Y-82296000D03*
%TD*%
D10*
%TO.P,C3,1*%
%TO.N,Net-(C3-Pad1)*%
X122322000Y-82966000D03*
%TO.P,C3,2*%
%TO.N,GND*%
X124822000Y-82966000D03*
%TD*%
D21*
%TO.P,D6,1,K*%
%TO.N,+VDC*%
X135636000Y-106172000D03*
D22*
%TO.P,D6,2,A*%
%TO.N,TBJ_Out*%
X125476000Y-106172000D03*
%TD*%
D19*
%TO.P,D2,1,K*%
%TO.N,+VDC*%
X84074000Y-99822000D03*
D20*
%TO.P,D2,2,A*%
%TO.N,AC_N*%
X68834000Y-99822000D03*
%TD*%
D19*
%TO.P,D1,1,K*%
%TO.N,+VDC*%
X84074000Y-107442000D03*
D20*
%TO.P,D1,2,A*%
%TO.N,AC_F*%
X68834000Y-107442000D03*
%TD*%
D19*
%TO.P,D7,1,K*%
%TO.N,Vout*%
X151384000Y-95250000D03*
D20*
%TO.P,D7,2,A*%
%TO.N,TBJ_Out*%
X151384000Y-110490000D03*
%TD*%
D23*
%TO.P,HS1,1*%
%TO.N,+VDC*%
X143510000Y-115570000D03*
X118110000Y-115570000D03*
%TD*%
D24*
%TO.P,Ajuste_Iout_max1,1,1*%
%TO.N,Net-(Ajuste_Iout_max1-Pad1)*%
X148464000Y-77199000D03*
%TO.P,Ajuste_Iout_max1,2,2*%
%TO.N,Vout*%
X151004000Y-77199000D03*
%TO.P,Ajuste_Iout_max1,3,3*%
X153544000Y-77199000D03*
%TD*%
D25*
%TO.P,J1,1,Pin_1*%
%TO.N,AC_N*%
X82042000Y-117602000D03*
D26*
%TO.P,J1,2,Pin_2*%
%TO.N,AC_F*%
X76962000Y-117602000D03*
%TD*%
D10*
%TO.P,C7,1*%
%TO.N,Vout*%
X153504000Y-81188000D03*
%TO.P,C7,2*%
%TO.N,GND*%
X151004000Y-81188000D03*
%TD*%
D27*
%TO.P,U1,1,NC*%
%TO.N,unconnected-(U1-Pad1)*%
X132339000Y-87640000D03*
D11*
%TO.P,U1,2,ILIM*%
%TO.N,Net-(Regulacion_Corriente1-Pad2)*%
X129799000Y-87640000D03*
%TO.P,U1,3,CSEN*%
%TO.N,Vout*%
X127259000Y-87640000D03*
%TO.P,U1,4,-*%
%TO.N,Net-(C5-Pad1)*%
X124719000Y-87640000D03*
%TO.P,U1,5,+*%
%TO.N,Net-(C3-Pad1)*%
X122179000Y-87640000D03*
%TO.P,U1,6,VREF*%
%TO.N,Net-(Regulacion_Tension1-Pad1)*%
X119639000Y-87640000D03*
%TO.P,U1,7,V-*%
%TO.N,GND*%
X117099000Y-87640000D03*
%TO.P,U1,8,NC*%
%TO.N,unconnected-(U1-Pad8)*%
X117099000Y-95260000D03*
%TO.P,U1,9,VZ*%
%TO.N,unconnected-(U1-Pad9)*%
X119639000Y-95260000D03*
%TO.P,U1,10,Vout*%
%TO.N,Net-(Q1-Pad3)*%
X122179000Y-95260000D03*
%TO.P,U1,11,VC*%
%TO.N,+VDC*%
X124719000Y-95260000D03*
%TO.P,U1,12,V+*%
X127259000Y-95260000D03*
%TO.P,U1,13,FC*%
%TO.N,Net-(C5-Pad2)*%
X129799000Y-95260000D03*
%TO.P,U1,14,NC*%
%TO.N,unconnected-(U1-Pad14)*%
X132339000Y-95260000D03*
%TD*%
D10*
%TO.P,R5,1*%
%TO.N,Net-(R5-Pad1)*%
X136907000Y-86268000D03*
D11*
%TO.P,R5,2*%
%TO.N,Net-(Ajuste_Iout_max1-Pad1)*%
X147067000Y-86268000D03*
%TD*%
D13*
%TO.P,D5,1,K*%
%TO.N,Net-(D5-Pad1)*%
X107696000Y-105410000D03*
D28*
%TO.P,D5,2,A*%
%TO.N,+VDC*%
X107696000Y-107950000D03*
%TD*%
D27*
%TO.P,C6,1*%
%TO.N,Vout*%
X159386000Y-87792000D03*
D10*
%TO.P,C6,2*%
%TO.N,GND*%
X155886000Y-87792000D03*
%TD*%
D19*
%TO.P,D4,1,K*%
%TO.N,AC_F*%
X68834000Y-84582000D03*
D20*
%TO.P,D4,2,A*%
%TO.N,GND*%
X84074000Y-84582000D03*
%TD*%
D25*
%TO.P,J3,1,Pin_1*%
%TO.N,Vout*%
X159766000Y-95250000D03*
D26*
%TO.P,J3,2,Pin_2*%
%TO.N,Vout_amp*%
X159766000Y-100330000D03*
%TD*%
D25*
%TO.P,J4,1,Pin_1*%
%TO.N,Vout_amp*%
X159766000Y-107188000D03*
D26*
%TO.P,J4,2,Pin_2*%
%TO.N,GND*%
X159766000Y-112268000D03*
%TD*%
D10*
%TO.P,C5,1*%
%TO.N,Net-(C5-Pad1)*%
X133965000Y-97917000D03*
%TO.P,C5,2*%
%TO.N,Net-(C5-Pad2)*%
X131465000Y-97917000D03*
%TD*%
%TO.P,R1,1*%
%TO.N,Net-(R1-Pad1)*%
X119635000Y-84871000D03*
D11*
%TO.P,R1,2*%
%TO.N,GND*%
X119635000Y-74711000D03*
%TD*%
D10*
%TO.P,R2,1*%
%TO.N,Net-(D5-Pad1)*%
X116332000Y-101092000D03*
D11*
%TO.P,R2,2*%
%TO.N,GND*%
X106172000Y-101092000D03*
%TD*%
D10*
%TO.P,C4,1*%
%TO.N,+VDC*%
X112014000Y-92202000D03*
%TO.P,C4,2*%
%TO.N,GND*%
X112014000Y-94702000D03*
%TD*%
D25*
%TO.P,J2,1,Pin_1*%
%TO.N,GND*%
X94996000Y-117602000D03*
D26*
%TO.P,J2,2,Pin_2*%
%TO.N,+VDC*%
X89916000Y-117602000D03*
%TD*%
D29*
%TO.N,*%
X160020000Y-76200000D03*
X67310000Y-119380000D03*
X67310000Y-76200000D03*
X159998022Y-119351386D03*
D30*
%TO.N,Vout*%
X136653000Y-76870000D03*
X145035000Y-76870000D03*
%TD*%
D31*
%TO.N,Vout*%
X145035000Y-76870000D02*
X136653000Y-76870000D01*
%TD*%
M02*
