G04 #@! TF.GenerationSoftware,KiCad,Pcbnew,6.0.4-6f826c9f35~116~ubuntu20.04.1*
G04 #@! TF.CreationDate,2022-06-01T22:01:37-03:00*
G04 #@! TF.ProjectId,Kicad_Projects,4b696361-645f-4507-926f-6a656374732e,rev?*
G04 #@! TF.SameCoordinates,Original*
G04 #@! TF.FileFunction,Copper,L2,Bot*
G04 #@! TF.FilePolarity,Positive*
%FSLAX46Y46*%
G04 Gerber Fmt 4.6, Leading zero omitted, Abs format (unit mm)*
G04 Created by KiCad (PCBNEW 6.0.4-6f826c9f35~116~ubuntu20.04.1) date 2022-06-01 22:01:37*
%MOMM*%
%LPD*%
G01*
G04 APERTURE LIST*
G04 #@! TA.AperFunction,Profile*
%ADD10C,0.100000*%
G04 #@! TD*
%ADD11C,0.300000*%
G04 #@! TA.AperFunction,NonConductor*
%ADD12C,0.300000*%
G04 #@! TD*
G04 #@! TA.AperFunction,ComponentPad*
%ADD13C,1.600000*%
G04 #@! TD*
G04 #@! TA.AperFunction,ComponentPad*
%ADD14O,1.600000X1.600000*%
G04 #@! TD*
G04 #@! TA.AperFunction,ComponentPad*
%ADD15C,2.340000*%
G04 #@! TD*
G04 #@! TA.AperFunction,ComponentPad*
%ADD16R,1.800000X1.800000*%
G04 #@! TD*
G04 #@! TA.AperFunction,ComponentPad*
%ADD17O,1.800000X1.800000*%
G04 #@! TD*
G04 #@! TA.AperFunction,ComponentPad*
%ADD18R,2.400000X2.400000*%
G04 #@! TD*
G04 #@! TA.AperFunction,ComponentPad*
%ADD19C,2.400000*%
G04 #@! TD*
G04 #@! TA.AperFunction,ComponentPad*
%ADD20R,2.500000X4.500000*%
G04 #@! TD*
G04 #@! TA.AperFunction,ComponentPad*
%ADD21O,2.500000X4.500000*%
G04 #@! TD*
G04 #@! TA.AperFunction,ComponentPad*
%ADD22R,3.200000X3.200000*%
G04 #@! TD*
G04 #@! TA.AperFunction,ComponentPad*
%ADD23O,3.200000X3.200000*%
G04 #@! TD*
G04 #@! TA.AperFunction,ComponentPad*
%ADD24R,2.200000X2.200000*%
G04 #@! TD*
G04 #@! TA.AperFunction,ComponentPad*
%ADD25O,2.200000X2.200000*%
G04 #@! TD*
G04 #@! TA.AperFunction,ComponentPad*
%ADD26C,6.000000*%
G04 #@! TD*
G04 #@! TA.AperFunction,ComponentPad*
%ADD27C,1.440000*%
G04 #@! TD*
G04 #@! TA.AperFunction,ComponentPad*
%ADD28R,3.000000X3.000000*%
G04 #@! TD*
G04 #@! TA.AperFunction,ComponentPad*
%ADD29C,3.000000*%
G04 #@! TD*
G04 #@! TA.AperFunction,ComponentPad*
%ADD30R,1.600000X1.600000*%
G04 #@! TD*
G04 #@! TA.AperFunction,ComponentPad*
%ADD31C,1.800000*%
G04 #@! TD*
G04 #@! TA.AperFunction,ViaPad*
%ADD32C,5.000000*%
G04 #@! TD*
G04 #@! TA.AperFunction,Conductor*
%ADD33C,1.000000*%
G04 #@! TD*
G04 #@! TA.AperFunction,Conductor*
%ADD34C,1.250000*%
G04 #@! TD*
G04 #@! TA.AperFunction,Conductor*
%ADD35C,3.000000*%
G04 #@! TD*
G04 #@! TA.AperFunction,Conductor*
%ADD36C,2.500000*%
G04 #@! TD*
G04 APERTURE END LIST*
D10*
X63500000Y-72390000D02*
X63500000Y-123190000D01*
X163830000Y-123190000D02*
X163830000Y-72390000D01*
X63500000Y-123190000D02*
X163830000Y-123190000D01*
X163830000Y-72390000D02*
X63500000Y-72390000D01*
D11*
D12*
X86677571Y-74031357D02*
X87177571Y-74031357D01*
X87177571Y-74817071D02*
X87177571Y-73317071D01*
X86463285Y-73317071D01*
X85249000Y-73817071D02*
X85249000Y-74817071D01*
X85891857Y-73817071D02*
X85891857Y-74602785D01*
X85820428Y-74745642D01*
X85677571Y-74817071D01*
X85463285Y-74817071D01*
X85320428Y-74745642D01*
X85249000Y-74674214D01*
X83963285Y-74745642D02*
X84106142Y-74817071D01*
X84391857Y-74817071D01*
X84534714Y-74745642D01*
X84606142Y-74602785D01*
X84606142Y-74031357D01*
X84534714Y-73888500D01*
X84391857Y-73817071D01*
X84106142Y-73817071D01*
X83963285Y-73888500D01*
X83891857Y-74031357D01*
X83891857Y-74174214D01*
X84606142Y-74317071D01*
X83249000Y-73817071D02*
X83249000Y-74817071D01*
X83249000Y-73959928D02*
X83177571Y-73888500D01*
X83034714Y-73817071D01*
X82820428Y-73817071D01*
X82677571Y-73888500D01*
X82606142Y-74031357D01*
X82606142Y-74817071D01*
X82106142Y-73817071D02*
X81534714Y-73817071D01*
X81891857Y-73317071D02*
X81891857Y-74602785D01*
X81820428Y-74745642D01*
X81677571Y-74817071D01*
X81534714Y-74817071D01*
X80463285Y-74745642D02*
X80606142Y-74817071D01*
X80891857Y-74817071D01*
X81034714Y-74745642D01*
X81106142Y-74602785D01*
X81106142Y-74031357D01*
X81034714Y-73888500D01*
X80891857Y-73817071D01*
X80606142Y-73817071D01*
X80463285Y-73888500D01*
X80391857Y-74031357D01*
X80391857Y-74174214D01*
X81106142Y-74317071D01*
X77820428Y-74817071D02*
X78677571Y-74817071D01*
X78249000Y-74817071D02*
X78249000Y-73317071D01*
X78391857Y-73531357D01*
X78534714Y-73674214D01*
X78677571Y-73745642D01*
X76963285Y-73959928D02*
X77106142Y-73888500D01*
X77177571Y-73817071D01*
X77249000Y-73674214D01*
X77249000Y-73602785D01*
X77177571Y-73459928D01*
X77106142Y-73388500D01*
X76963285Y-73317071D01*
X76677571Y-73317071D01*
X76534714Y-73388500D01*
X76463285Y-73459928D01*
X76391857Y-73602785D01*
X76391857Y-73674214D01*
X76463285Y-73817071D01*
X76534714Y-73888500D01*
X76677571Y-73959928D01*
X76963285Y-73959928D01*
X77106142Y-74031357D01*
X77177571Y-74102785D01*
X77249000Y-74245642D01*
X77249000Y-74531357D01*
X77177571Y-74674214D01*
X77106142Y-74745642D01*
X76963285Y-74817071D01*
X76677571Y-74817071D01*
X76534714Y-74745642D01*
X76463285Y-74674214D01*
X76391857Y-74531357D01*
X76391857Y-74245642D01*
X76463285Y-74102785D01*
X76534714Y-74031357D01*
X76677571Y-73959928D01*
X75963285Y-73317071D02*
X75463285Y-74817071D01*
X74963285Y-73317071D01*
X73463285Y-73317071D02*
X72534714Y-73317071D01*
X73034714Y-73888500D01*
X72820428Y-73888500D01*
X72677571Y-73959928D01*
X72606142Y-74031357D01*
X72534714Y-74174214D01*
X72534714Y-74531357D01*
X72606142Y-74674214D01*
X72677571Y-74745642D01*
X72820428Y-74817071D01*
X73249000Y-74817071D01*
X73391857Y-74745642D01*
X73463285Y-74674214D01*
X71963285Y-74388500D02*
X71249000Y-74388500D01*
X72106142Y-74817071D02*
X71606142Y-73317071D01*
X71106142Y-74817071D01*
X86427571Y-77232071D02*
X86427571Y-75732071D01*
X85927571Y-76803500D01*
X85427571Y-75732071D01*
X85427571Y-77232071D01*
X84141857Y-77160642D02*
X84284714Y-77232071D01*
X84570428Y-77232071D01*
X84713285Y-77160642D01*
X84784714Y-77017785D01*
X84784714Y-76446357D01*
X84713285Y-76303500D01*
X84570428Y-76232071D01*
X84284714Y-76232071D01*
X84141857Y-76303500D01*
X84070428Y-76446357D01*
X84070428Y-76589214D01*
X84784714Y-76732071D01*
X82784714Y-77160642D02*
X82927571Y-77232071D01*
X83213285Y-77232071D01*
X83356142Y-77160642D01*
X83427571Y-77089214D01*
X83499000Y-76946357D01*
X83499000Y-76517785D01*
X83427571Y-76374928D01*
X83356142Y-76303500D01*
X83213285Y-76232071D01*
X82927571Y-76232071D01*
X82784714Y-76303500D01*
X81499000Y-77232071D02*
X81499000Y-76446357D01*
X81570428Y-76303500D01*
X81713285Y-76232071D01*
X81999000Y-76232071D01*
X82141857Y-76303500D01*
X81499000Y-77160642D02*
X81641857Y-77232071D01*
X81999000Y-77232071D01*
X82141857Y-77160642D01*
X82213285Y-77017785D01*
X82213285Y-76874928D01*
X82141857Y-76732071D01*
X81999000Y-76660642D01*
X81641857Y-76660642D01*
X81499000Y-76589214D01*
X79999000Y-77232071D02*
X80856142Y-77232071D01*
X80427571Y-77232071D02*
X80427571Y-75732071D01*
X80570428Y-75946357D01*
X80713285Y-76089214D01*
X80856142Y-76160642D01*
X78284714Y-75874928D02*
X78213285Y-75803500D01*
X78070428Y-75732071D01*
X77713285Y-75732071D01*
X77570428Y-75803500D01*
X77499000Y-75874928D01*
X77427571Y-76017785D01*
X77427571Y-76160642D01*
X77499000Y-76374928D01*
X78356142Y-77232071D01*
X77427571Y-77232071D01*
X76499000Y-75732071D02*
X76356142Y-75732071D01*
X76213285Y-75803500D01*
X76141857Y-75874928D01*
X76070428Y-76017785D01*
X75999000Y-76303500D01*
X75999000Y-76660642D01*
X76070428Y-76946357D01*
X76141857Y-77089214D01*
X76213285Y-77160642D01*
X76356142Y-77232071D01*
X76499000Y-77232071D01*
X76641857Y-77160642D01*
X76713285Y-77089214D01*
X76784714Y-76946357D01*
X76856142Y-76660642D01*
X76856142Y-76303500D01*
X76784714Y-76017785D01*
X76713285Y-75874928D01*
X76641857Y-75803500D01*
X76499000Y-75732071D01*
X75427571Y-75874928D02*
X75356142Y-75803500D01*
X75213285Y-75732071D01*
X74856142Y-75732071D01*
X74713285Y-75803500D01*
X74641857Y-75874928D01*
X74570428Y-76017785D01*
X74570428Y-76160642D01*
X74641857Y-76374928D01*
X75499000Y-77232071D01*
X74570428Y-77232071D01*
X73999000Y-75874928D02*
X73927571Y-75803500D01*
X73784714Y-75732071D01*
X73427571Y-75732071D01*
X73284714Y-75803500D01*
X73213285Y-75874928D01*
X73141857Y-76017785D01*
X73141857Y-76160642D01*
X73213285Y-76374928D01*
X74070428Y-77232071D01*
X73141857Y-77232071D01*
D13*
X145416000Y-76489000D03*
D14*
X135256000Y-76489000D03*
D13*
X136907000Y-95158000D03*
D14*
X147067000Y-95158000D03*
D15*
X134051000Y-83115000D03*
X136551000Y-80615000D03*
X139051000Y-83115000D03*
D16*
X127254000Y-98812000D03*
D17*
X124714000Y-98812000D03*
X122174000Y-98812000D03*
D18*
X99568000Y-101092000D03*
D19*
X92068000Y-101092000D03*
D13*
X146940000Y-90713000D03*
D14*
X136780000Y-90713000D03*
D15*
X110175000Y-82861000D03*
X112675000Y-80361000D03*
X115175000Y-82861000D03*
D20*
X136260000Y-112194000D03*
D21*
X130810000Y-112194000D03*
X125360000Y-112194000D03*
D22*
X68834000Y-91948000D03*
D23*
X84074000Y-91948000D03*
D18*
X99651755Y-82296000D03*
D19*
X92151755Y-82296000D03*
D13*
X122322000Y-82966000D03*
X124822000Y-82966000D03*
D24*
X135636000Y-106172000D03*
D25*
X125476000Y-106172000D03*
D22*
X84074000Y-99822000D03*
D23*
X68834000Y-99822000D03*
D22*
X84074000Y-107442000D03*
D23*
X68834000Y-107442000D03*
D22*
X151384000Y-95250000D03*
D23*
X151384000Y-110490000D03*
D26*
X143510000Y-115570000D03*
X118110000Y-115570000D03*
D27*
X148464000Y-77199000D03*
X151004000Y-77199000D03*
X153544000Y-77199000D03*
D28*
X84583000Y-117637000D03*
D29*
X79503000Y-117637000D03*
D13*
X153504000Y-81188000D03*
X151004000Y-81188000D03*
D30*
X132339000Y-87640000D03*
D14*
X129799000Y-87640000D03*
X127259000Y-87640000D03*
X124719000Y-87640000D03*
X122179000Y-87640000D03*
X119639000Y-87640000D03*
X117099000Y-87640000D03*
X117099000Y-95260000D03*
X119639000Y-95260000D03*
X122179000Y-95260000D03*
X124719000Y-95260000D03*
X127259000Y-95260000D03*
X129799000Y-95260000D03*
X132339000Y-95260000D03*
D13*
X136907000Y-86268000D03*
D14*
X147067000Y-86268000D03*
D16*
X107696000Y-105410000D03*
D31*
X107696000Y-107950000D03*
D30*
X159768651Y-87665000D03*
D13*
X156268651Y-87665000D03*
D22*
X68834000Y-84582000D03*
D23*
X84074000Y-84582000D03*
D28*
X159766000Y-95250000D03*
D29*
X159766000Y-100330000D03*
D28*
X159766000Y-105572000D03*
D29*
X159766000Y-110652000D03*
D13*
X133965000Y-97917000D03*
X131465000Y-97917000D03*
X119635000Y-84871000D03*
D14*
X119635000Y-74711000D03*
D13*
X116332000Y-101092000D03*
D14*
X106172000Y-101092000D03*
D13*
X112014000Y-92202000D03*
X112014000Y-94702000D03*
D28*
X94996000Y-117602000D03*
D29*
X89916000Y-117602000D03*
D32*
X160020000Y-76200000D03*
X67310000Y-119380000D03*
X67310000Y-76200000D03*
X159998022Y-119351386D03*
D33*
X135256000Y-76489000D02*
X129414000Y-76489000D01*
X129414000Y-76489000D02*
X127259000Y-78644000D01*
X151004000Y-77199000D02*
X151004000Y-76108000D01*
X151004000Y-76108000D02*
X150115000Y-75219000D01*
X150115000Y-75219000D02*
X145924000Y-75219000D01*
X145924000Y-75219000D02*
X145416000Y-75727000D01*
X145416000Y-75727000D02*
X145416000Y-76489000D01*
X148464000Y-84871000D02*
X147067000Y-86268000D01*
X148464000Y-77199000D02*
X148464000Y-84871000D01*
D34*
X112675000Y-80361000D02*
X119717000Y-80361000D01*
X119717000Y-80361000D02*
X122322000Y-82966000D01*
X122322000Y-87497000D02*
X122179000Y-87640000D01*
X122322000Y-82966000D02*
X122322000Y-87497000D01*
D33*
X119639000Y-87640000D02*
X117251000Y-85252000D01*
X110110000Y-84363000D02*
X110110000Y-82926000D01*
X117251000Y-85252000D02*
X110999000Y-85252000D01*
X110999000Y-85252000D02*
X110110000Y-84363000D01*
X110110000Y-82926000D02*
X110175000Y-82861000D01*
D34*
X130810000Y-112194000D02*
X130810000Y-115477000D01*
D35*
X84074000Y-99822000D02*
X84074000Y-107442000D01*
X118110000Y-119785980D02*
X118110000Y-115570000D01*
X84074000Y-107442000D02*
X86199000Y-107442000D01*
X86199000Y-107442000D02*
X89916000Y-111159000D01*
X129033000Y-102905000D02*
X130810000Y-104682000D01*
X89916000Y-119541000D02*
X92064980Y-121689980D01*
X92064980Y-121689980D02*
X98437020Y-121689980D01*
X99651755Y-101008245D02*
X99568000Y-101092000D01*
D34*
X124719000Y-95260000D02*
X124719000Y-93130000D01*
X124714000Y-98812000D02*
X124714000Y-102904000D01*
X130810000Y-115477000D02*
X132716000Y-117383000D01*
X127259000Y-95260000D02*
X124719000Y-95260000D01*
D35*
X116206000Y-121689980D02*
X118110000Y-119785980D01*
X118110000Y-105700000D02*
X120905000Y-102905000D01*
X118110000Y-115570000D02*
X118110000Y-105700000D01*
X120905000Y-102905000D02*
X124715000Y-102905000D01*
X130810000Y-104682000D02*
X130810000Y-106208000D01*
D34*
X123791000Y-92202000D02*
X112014000Y-92202000D01*
X124719000Y-98807000D02*
X124714000Y-98812000D01*
X140625000Y-115570000D02*
X143510000Y-115570000D01*
D35*
X89916000Y-111159000D02*
X89916000Y-117602000D01*
X130810000Y-106208000D02*
X130810000Y-112194000D01*
X89916000Y-117602000D02*
X89916000Y-119541000D01*
D34*
X124719000Y-95260000D02*
X124719000Y-98807000D01*
X124714000Y-102904000D02*
X124715000Y-102905000D01*
X102998000Y-106080000D02*
X102998000Y-102016000D01*
X130846000Y-106172000D02*
X130810000Y-106208000D01*
X138812000Y-117383000D02*
X140625000Y-115570000D01*
D35*
X99568000Y-101092000D02*
X99568000Y-120559000D01*
X99651755Y-82296000D02*
X99651755Y-101008245D01*
X99568000Y-120559000D02*
X98437020Y-121689980D01*
D34*
X132716000Y-117383000D02*
X138812000Y-117383000D01*
X107696000Y-107950000D02*
X104868000Y-107950000D01*
X124719000Y-93130000D02*
X123791000Y-92202000D01*
X135636000Y-106172000D02*
X130846000Y-106172000D01*
X102998000Y-102016000D02*
X102074000Y-101092000D01*
X102074000Y-101092000D02*
X99568000Y-101092000D01*
X104868000Y-107950000D02*
X102998000Y-106080000D01*
D35*
X124715000Y-102905000D02*
X129033000Y-102905000D01*
X98437020Y-121689980D02*
X116206000Y-121689980D01*
D33*
X126112000Y-90713000D02*
X124715000Y-89316000D01*
X124719000Y-89312000D02*
X124719000Y-87640000D01*
X135799000Y-97917000D02*
X133965000Y-97917000D01*
X136780000Y-90713000D02*
X126112000Y-90713000D01*
X136780000Y-95031000D02*
X136907000Y-95158000D01*
X136907000Y-95158000D02*
X136907000Y-96809000D01*
X136907000Y-96809000D02*
X135799000Y-97917000D01*
X124715000Y-89316000D02*
X124719000Y-89312000D01*
X136780000Y-90713000D02*
X136780000Y-95031000D01*
X130649000Y-97917000D02*
X131465000Y-97917000D01*
X129799000Y-95260000D02*
X129799000Y-97067000D01*
X129799000Y-97067000D02*
X130649000Y-97917000D01*
D34*
X153504000Y-82799000D02*
X153504000Y-81188000D01*
D35*
X159766000Y-95250000D02*
X151384000Y-95250000D01*
D34*
X157608000Y-83855000D02*
X154560000Y-83855000D01*
D33*
X151384000Y-92490000D02*
X151384000Y-95250000D01*
D34*
X153544000Y-81148000D02*
X153504000Y-81188000D01*
D33*
X149607000Y-90713000D02*
X151384000Y-92490000D01*
D34*
X151004000Y-77199000D02*
X153544000Y-77199000D01*
D36*
X159768651Y-87665000D02*
X159768651Y-95247349D01*
D34*
X153544000Y-77199000D02*
X153544000Y-81148000D01*
X159768651Y-87665000D02*
X159768651Y-86015651D01*
D36*
X159768651Y-95247349D02*
X159766000Y-95250000D01*
D33*
X127259000Y-78644000D02*
X127259000Y-87640000D01*
D34*
X154560000Y-83855000D02*
X153504000Y-82799000D01*
X159768651Y-86015651D02*
X157608000Y-83855000D01*
D33*
X146940000Y-90713000D02*
X149607000Y-90713000D01*
X151384000Y-110490000D02*
X144873000Y-110490000D01*
X144873000Y-110490000D02*
X141987000Y-107604000D01*
D34*
X125476000Y-112078000D02*
X125360000Y-112194000D01*
D35*
X151384000Y-110490000D02*
X151384000Y-119658980D01*
X149353000Y-121689980D02*
X126989980Y-121689980D01*
X125360000Y-120060000D02*
X125360000Y-112194000D01*
D33*
X141987000Y-100492000D02*
X139051000Y-97556000D01*
X141987000Y-107604000D02*
X141987000Y-100492000D01*
X139051000Y-97556000D02*
X139051000Y-83115000D01*
D34*
X125476000Y-106172000D02*
X125476000Y-112078000D01*
D35*
X126989980Y-121689980D02*
X125360000Y-120060000D01*
X151384000Y-119658980D02*
X149353000Y-121689980D01*
D33*
X112939000Y-101092000D02*
X111253000Y-102778000D01*
X110526000Y-105410000D02*
X107696000Y-105410000D01*
X111253000Y-104683000D02*
X110526000Y-105410000D01*
X116332000Y-101092000D02*
X112939000Y-101092000D01*
X111253000Y-102778000D02*
X111253000Y-104683000D01*
D35*
X159766000Y-100330000D02*
X159766000Y-105572000D01*
X65000020Y-110918881D02*
X71718139Y-117637000D01*
X65000020Y-107501980D02*
X65000020Y-110918881D01*
X65060000Y-107442000D02*
X65000020Y-107501980D01*
X65000020Y-88415980D02*
X68834000Y-84582000D01*
X71718139Y-117637000D02*
X79503000Y-117637000D01*
X68834000Y-107442000D02*
X65060000Y-107442000D01*
X65000020Y-88415980D02*
X65000020Y-107501980D01*
D34*
X139955000Y-102143000D02*
X137669000Y-99857000D01*
X138794000Y-112194000D02*
X139955000Y-111033000D01*
X136260000Y-112194000D02*
X138794000Y-112194000D01*
X139955000Y-111033000D02*
X139955000Y-102143000D01*
X128299000Y-99857000D02*
X127254000Y-98812000D01*
X137669000Y-99857000D02*
X128299000Y-99857000D01*
X122179000Y-98807000D02*
X122174000Y-98812000D01*
X122179000Y-95260000D02*
X122179000Y-98807000D01*
D33*
X135637000Y-86268000D02*
X134051000Y-84682000D01*
X136907000Y-86268000D02*
X135637000Y-86268000D01*
X134051000Y-84682000D02*
X134051000Y-83115000D01*
D34*
X119635000Y-83474000D02*
X119000000Y-82839000D01*
X119635000Y-84871000D02*
X119635000Y-83474000D01*
X118978000Y-82861000D02*
X115175000Y-82861000D01*
X119000000Y-82839000D02*
X118978000Y-82861000D01*
D35*
X68834000Y-99822000D02*
X75404000Y-99822000D01*
X77725000Y-110779000D02*
X75566000Y-108620000D01*
X75566000Y-94142000D02*
X73280000Y-91856000D01*
X75566000Y-99984000D02*
X75566000Y-94142000D01*
X84583000Y-117637000D02*
X84583000Y-114970000D01*
X80392000Y-110779000D02*
X77725000Y-110779000D01*
X68926000Y-91856000D02*
X68834000Y-91948000D01*
X75566000Y-108620000D02*
X75566000Y-99984000D01*
X73280000Y-91856000D02*
X68926000Y-91856000D01*
X84583000Y-114970000D02*
X80392000Y-110779000D01*
X75404000Y-99822000D02*
X75566000Y-99984000D01*
D33*
X136551000Y-80615000D02*
X130622000Y-80615000D01*
X130622000Y-80615000D02*
X129795000Y-81442000D01*
X129795000Y-81442000D02*
X129799000Y-81446000D01*
X129799000Y-81446000D02*
X129799000Y-87640000D01*
G04 #@! TA.AperFunction,Conductor*
G36*
X70246907Y-72918502D02*
G01*
X70293400Y-72972158D01*
X70304786Y-73024500D01*
X70304786Y-74936212D01*
X70284784Y-75004333D01*
X70231128Y-75050826D01*
X70160854Y-75060930D01*
X70096274Y-75031436D01*
X70062888Y-74985646D01*
X70010740Y-74863386D01*
X70010738Y-74863383D01*
X70009316Y-74860048D01*
X69959569Y-74772831D01*
X69839208Y-74561816D01*
X69837417Y-74558676D01*
X69830763Y-74549617D01*
X69708532Y-74383221D01*
X69632018Y-74279060D01*
X69611470Y-74256947D01*
X69398309Y-74027559D01*
X69395842Y-74024904D01*
X69132019Y-73799578D01*
X68844047Y-73606069D01*
X68535741Y-73446940D01*
X68211189Y-73324302D01*
X68207668Y-73323418D01*
X68207663Y-73323416D01*
X68046378Y-73282904D01*
X67874692Y-73239780D01*
X67852476Y-73236855D01*
X67534315Y-73194968D01*
X67534307Y-73194967D01*
X67530711Y-73194494D01*
X67386045Y-73192221D01*
X67187446Y-73189101D01*
X67187442Y-73189101D01*
X67183804Y-73189044D01*
X67180190Y-73189405D01*
X67180184Y-73189405D01*
X66936843Y-73213694D01*
X66838569Y-73223503D01*
X66499583Y-73297414D01*
X66496156Y-73298587D01*
X66496150Y-73298589D01*
X66417296Y-73325587D01*
X66171339Y-73409797D01*
X65858188Y-73559163D01*
X65564279Y-73743532D01*
X65561443Y-73745804D01*
X65561436Y-73745809D01*
X65415002Y-73863125D01*
X65293509Y-73960459D01*
X65049466Y-74207071D01*
X65047225Y-74209929D01*
X64863316Y-74444478D01*
X64835386Y-74480098D01*
X64833493Y-74483187D01*
X64833491Y-74483190D01*
X64787233Y-74558676D01*
X64654105Y-74775921D01*
X64652580Y-74779206D01*
X64652578Y-74779210D01*
X64613505Y-74863386D01*
X64508027Y-75090620D01*
X64456942Y-75245086D01*
X64409012Y-75390014D01*
X64399087Y-75420023D01*
X64398351Y-75423578D01*
X64398350Y-75423581D01*
X64329465Y-75756214D01*
X64328730Y-75759764D01*
X64297888Y-76105341D01*
X64297983Y-76108971D01*
X64297983Y-76108972D01*
X64300367Y-76200000D01*
X64306970Y-76452171D01*
X64355856Y-76795660D01*
X64443897Y-77131253D01*
X64569927Y-77454503D01*
X64571624Y-77457708D01*
X64705113Y-77709825D01*
X64732275Y-77761126D01*
X64734325Y-77764109D01*
X64734327Y-77764112D01*
X64926733Y-78044064D01*
X64926739Y-78044071D01*
X64928790Y-78047056D01*
X65013081Y-78143681D01*
X65122665Y-78269299D01*
X65156866Y-78308505D01*
X65159551Y-78310948D01*
X65369268Y-78501775D01*
X65413481Y-78542006D01*
X65695233Y-78744466D01*
X65998388Y-78913200D01*
X66318928Y-79045972D01*
X66322422Y-79046967D01*
X66322424Y-79046968D01*
X66649103Y-79140025D01*
X66649108Y-79140026D01*
X66652604Y-79141022D01*
X66813454Y-79167362D01*
X66991412Y-79196504D01*
X66991419Y-79196505D01*
X66994993Y-79197090D01*
X67168276Y-79205262D01*
X67337931Y-79213263D01*
X67337932Y-79213263D01*
X67341558Y-79213434D01*
X67350415Y-79212830D01*
X67684073Y-79190084D01*
X67684081Y-79190083D01*
X67687704Y-79189836D01*
X67691279Y-79189173D01*
X67691282Y-79189173D01*
X68025279Y-79127270D01*
X68025283Y-79127269D01*
X68028844Y-79126609D01*
X68263700Y-79054358D01*
X68356978Y-79025662D01*
X68360456Y-79024592D01*
X68678145Y-78885136D01*
X68922511Y-78742341D01*
X68974560Y-78711926D01*
X68974562Y-78711925D01*
X68977700Y-78710091D01*
X69012186Y-78684198D01*
X69252244Y-78503958D01*
X69252248Y-78503955D01*
X69255151Y-78501775D01*
X69506819Y-78262950D01*
X69729370Y-77996783D01*
X69732722Y-77991681D01*
X69871034Y-77781119D01*
X69919853Y-77706799D01*
X70066221Y-77415778D01*
X70114698Y-77363908D01*
X70183523Y-77346481D01*
X70250843Y-77369030D01*
X70295286Y-77424396D01*
X70304786Y-77472392D01*
X70304786Y-78494500D01*
X88193215Y-78494500D01*
X88193215Y-74977522D01*
X118352273Y-74977522D01*
X118399764Y-75154761D01*
X118403510Y-75165053D01*
X118495586Y-75362511D01*
X118501069Y-75372007D01*
X118626028Y-75550467D01*
X118633084Y-75558875D01*
X118787125Y-75712916D01*
X118795533Y-75719972D01*
X118973993Y-75844931D01*
X118983489Y-75850414D01*
X119180947Y-75942490D01*
X119191239Y-75946236D01*
X119363503Y-75992394D01*
X119377599Y-75992058D01*
X119381000Y-75984116D01*
X119381000Y-75978967D01*
X119889000Y-75978967D01*
X119892973Y-75992498D01*
X119901522Y-75993727D01*
X120078761Y-75946236D01*
X120089053Y-75942490D01*
X120286511Y-75850414D01*
X120296007Y-75844931D01*
X120474467Y-75719972D01*
X120482875Y-75712916D01*
X120636916Y-75558875D01*
X120643972Y-75550467D01*
X120768931Y-75372007D01*
X120774414Y-75362511D01*
X120866490Y-75165053D01*
X120870236Y-75154761D01*
X120916394Y-74982497D01*
X120916058Y-74968401D01*
X120908116Y-74965000D01*
X119907115Y-74965000D01*
X119891876Y-74969475D01*
X119890671Y-74970865D01*
X119889000Y-74978548D01*
X119889000Y-75978967D01*
X119381000Y-75978967D01*
X119381000Y-74983115D01*
X119376525Y-74967876D01*
X119375135Y-74966671D01*
X119367452Y-74965000D01*
X118367033Y-74965000D01*
X118353502Y-74968973D01*
X118352273Y-74977522D01*
X88193215Y-74977522D01*
X88193215Y-74439503D01*
X118353606Y-74439503D01*
X118353942Y-74453599D01*
X118361884Y-74457000D01*
X119362885Y-74457000D01*
X119378124Y-74452525D01*
X119379329Y-74451135D01*
X119381000Y-74443452D01*
X119381000Y-74438885D01*
X119889000Y-74438885D01*
X119893475Y-74454124D01*
X119894865Y-74455329D01*
X119902548Y-74457000D01*
X120902967Y-74457000D01*
X120916498Y-74453027D01*
X120917727Y-74444478D01*
X120870236Y-74267239D01*
X120866490Y-74256947D01*
X120774414Y-74059489D01*
X120768931Y-74049993D01*
X120643972Y-73871533D01*
X120636916Y-73863125D01*
X120482875Y-73709084D01*
X120474467Y-73702028D01*
X120296007Y-73577069D01*
X120286511Y-73571586D01*
X120089053Y-73479510D01*
X120078761Y-73475764D01*
X119906497Y-73429606D01*
X119892401Y-73429942D01*
X119889000Y-73437884D01*
X119889000Y-74438885D01*
X119381000Y-74438885D01*
X119381000Y-73443033D01*
X119377027Y-73429502D01*
X119368478Y-73428273D01*
X119191239Y-73475764D01*
X119180947Y-73479510D01*
X118983489Y-73571586D01*
X118973993Y-73577069D01*
X118795533Y-73702028D01*
X118787125Y-73709084D01*
X118633084Y-73863125D01*
X118626028Y-73871533D01*
X118501069Y-74049993D01*
X118495586Y-74059489D01*
X118403510Y-74256947D01*
X118399764Y-74267239D01*
X118353606Y-74439503D01*
X88193215Y-74439503D01*
X88193215Y-73024500D01*
X88213217Y-72956379D01*
X88266873Y-72909886D01*
X88319215Y-72898500D01*
X163195500Y-72898500D01*
X163263621Y-72918502D01*
X163310114Y-72972158D01*
X163321500Y-73024500D01*
X163321500Y-122555500D01*
X163301498Y-122623621D01*
X163247842Y-122670114D01*
X163195500Y-122681500D01*
X151506118Y-122681500D01*
X151437997Y-122661498D01*
X151391504Y-122607842D01*
X151381400Y-122537568D01*
X151410894Y-122472988D01*
X151417023Y-122466405D01*
X152764683Y-121118745D01*
X152769467Y-121114204D01*
X152829060Y-121060546D01*
X152832322Y-121057609D01*
X152910640Y-120964275D01*
X152912051Y-120962622D01*
X152924772Y-120947988D01*
X152991977Y-120870677D01*
X152994371Y-120866991D01*
X152994376Y-120866984D01*
X152997368Y-120862377D01*
X153006512Y-120850019D01*
X153010047Y-120845806D01*
X153010052Y-120845799D01*
X153012879Y-120842430D01*
X153077420Y-120739142D01*
X153078602Y-120737286D01*
X153142567Y-120638789D01*
X153144964Y-120635098D01*
X153147842Y-120628927D01*
X153149150Y-120626123D01*
X153156482Y-120612617D01*
X153158683Y-120609094D01*
X153161731Y-120604216D01*
X153163517Y-120600204D01*
X153163521Y-120600197D01*
X153211276Y-120492936D01*
X153212188Y-120490935D01*
X153261816Y-120384508D01*
X153261817Y-120384507D01*
X153263676Y-120380519D01*
X153266568Y-120371059D01*
X153271957Y-120356645D01*
X153274190Y-120351630D01*
X153274191Y-120351629D01*
X153275982Y-120347605D01*
X153309567Y-120230478D01*
X153310192Y-120228368D01*
X153313146Y-120218707D01*
X153345801Y-120111897D01*
X153347350Y-120102115D01*
X153350680Y-120087099D01*
X153352193Y-120081823D01*
X153353407Y-120077590D01*
X153367868Y-119974695D01*
X153370354Y-119957002D01*
X153370679Y-119954825D01*
X153389056Y-119838804D01*
X153389056Y-119838803D01*
X153389744Y-119834460D01*
X153389917Y-119824550D01*
X153391124Y-119809215D01*
X153391887Y-119803788D01*
X153392500Y-119799428D01*
X153392500Y-119677668D01*
X153392519Y-119675469D01*
X153392978Y-119649178D01*
X153394646Y-119553606D01*
X153393439Y-119543774D01*
X153392500Y-119528421D01*
X153392500Y-119256727D01*
X156985910Y-119256727D01*
X156986005Y-119260357D01*
X156986005Y-119260358D01*
X156994834Y-119597511D01*
X156994992Y-119603557D01*
X156995503Y-119607147D01*
X156995503Y-119607148D01*
X156999809Y-119637404D01*
X157043878Y-119947046D01*
X157131919Y-120282639D01*
X157257949Y-120605889D01*
X157266577Y-120622184D01*
X157410743Y-120894467D01*
X157420297Y-120912512D01*
X157422347Y-120915495D01*
X157422349Y-120915498D01*
X157614755Y-121195450D01*
X157614761Y-121195457D01*
X157616812Y-121198442D01*
X157844888Y-121459891D01*
X157879019Y-121490948D01*
X158057290Y-121653161D01*
X158101503Y-121693392D01*
X158383255Y-121895852D01*
X158686410Y-122064586D01*
X159006950Y-122197358D01*
X159010444Y-122198353D01*
X159010446Y-122198354D01*
X159337125Y-122291411D01*
X159337130Y-122291412D01*
X159340626Y-122292408D01*
X159518947Y-122321609D01*
X159679434Y-122347890D01*
X159679441Y-122347891D01*
X159683015Y-122348476D01*
X159856298Y-122356648D01*
X160025953Y-122364649D01*
X160025954Y-122364649D01*
X160029580Y-122364820D01*
X160038437Y-122364216D01*
X160372095Y-122341470D01*
X160372103Y-122341469D01*
X160375726Y-122341222D01*
X160379301Y-122340559D01*
X160379304Y-122340559D01*
X160713301Y-122278656D01*
X160713305Y-122278655D01*
X160716866Y-122277995D01*
X160890488Y-122224582D01*
X161045000Y-122177048D01*
X161048478Y-122175978D01*
X161366167Y-122036522D01*
X161561566Y-121922341D01*
X161662582Y-121863312D01*
X161662584Y-121863311D01*
X161665722Y-121861477D01*
X161854734Y-121719563D01*
X161940266Y-121655344D01*
X161940270Y-121655341D01*
X161943173Y-121653161D01*
X162194841Y-121414336D01*
X162417392Y-121148169D01*
X162421981Y-121141184D01*
X162553393Y-120941126D01*
X162607875Y-120858185D01*
X162685820Y-120703208D01*
X162762139Y-120551466D01*
X162762142Y-120551458D01*
X162763766Y-120548230D01*
X162778664Y-120507519D01*
X162881751Y-120225823D01*
X162881752Y-120225819D01*
X162882999Y-120222412D01*
X162883844Y-120218890D01*
X162883847Y-120218882D01*
X162963146Y-119888577D01*
X162963147Y-119888573D01*
X162963993Y-119885048D01*
X162969589Y-119838804D01*
X163005338Y-119543390D01*
X163005338Y-119543383D01*
X163005674Y-119540611D01*
X163005771Y-119537548D01*
X163010722Y-119380000D01*
X163011621Y-119351386D01*
X163010480Y-119331602D01*
X162991858Y-119008632D01*
X162991857Y-119008627D01*
X162991649Y-119005012D01*
X162973643Y-118901842D01*
X162932622Y-118666801D01*
X162932620Y-118666794D01*
X162931998Y-118663228D01*
X162930113Y-118656862D01*
X162884935Y-118504347D01*
X162833459Y-118330566D01*
X162831459Y-118325876D01*
X162698762Y-118014772D01*
X162698760Y-118014769D01*
X162697338Y-118011434D01*
X162676657Y-117975175D01*
X162527230Y-117713202D01*
X162525439Y-117710062D01*
X162517667Y-117699481D01*
X162427436Y-117576648D01*
X162320040Y-117430446D01*
X162312390Y-117422213D01*
X162159653Y-117257849D01*
X162083864Y-117176290D01*
X161820041Y-116950964D01*
X161532069Y-116757455D01*
X161223763Y-116598326D01*
X160899211Y-116475688D01*
X160895690Y-116474804D01*
X160895685Y-116474802D01*
X160734400Y-116434290D01*
X160562714Y-116391166D01*
X160540498Y-116388241D01*
X160222337Y-116346354D01*
X160222329Y-116346353D01*
X160218733Y-116345880D01*
X160074067Y-116343607D01*
X159875468Y-116340487D01*
X159875464Y-116340487D01*
X159871826Y-116340430D01*
X159868212Y-116340791D01*
X159868206Y-116340791D01*
X159624865Y-116365080D01*
X159526591Y-116374889D01*
X159187605Y-116448800D01*
X159184178Y-116449973D01*
X159184172Y-116449975D01*
X158862787Y-116560010D01*
X158859361Y-116561183D01*
X158546210Y-116710549D01*
X158252301Y-116894918D01*
X158249465Y-116897190D01*
X158249458Y-116897195D01*
X158006841Y-117091568D01*
X157981531Y-117111845D01*
X157953215Y-117140459D01*
X157766217Y-117329426D01*
X157737488Y-117358457D01*
X157735247Y-117361315D01*
X157544579Y-117604484D01*
X157523408Y-117631484D01*
X157521515Y-117634573D01*
X157521513Y-117634576D01*
X157476968Y-117707267D01*
X157342127Y-117927307D01*
X157340602Y-117930592D01*
X157340600Y-117930596D01*
X157301527Y-118014772D01*
X157196049Y-118242006D01*
X157157753Y-118357803D01*
X157102974Y-118523439D01*
X157087109Y-118571409D01*
X157086373Y-118574964D01*
X157086372Y-118574967D01*
X157017487Y-118907600D01*
X157016752Y-118911150D01*
X157011503Y-118969963D01*
X156991998Y-119188518D01*
X156985910Y-119256727D01*
X153392500Y-119256727D01*
X153392500Y-112241654D01*
X158541618Y-112241654D01*
X158548673Y-112251627D01*
X158579679Y-112277551D01*
X158586598Y-112282579D01*
X158811272Y-112423515D01*
X158818807Y-112427556D01*
X159060520Y-112536694D01*
X159068551Y-112539680D01*
X159322832Y-112615002D01*
X159331184Y-112616869D01*
X159593340Y-112656984D01*
X159601874Y-112657700D01*
X159867045Y-112661867D01*
X159875596Y-112661418D01*
X160138883Y-112629557D01*
X160147284Y-112627955D01*
X160403824Y-112560653D01*
X160411926Y-112557926D01*
X160656949Y-112456434D01*
X160664617Y-112452628D01*
X160893598Y-112318822D01*
X160900679Y-112314009D01*
X160980655Y-112251301D01*
X160989125Y-112239442D01*
X160982608Y-112227818D01*
X159778812Y-111024022D01*
X159764868Y-111016408D01*
X159763035Y-111016539D01*
X159756420Y-111020790D01*
X158548910Y-112228300D01*
X158541618Y-112241654D01*
X153392500Y-112241654D01*
X153392500Y-111162828D01*
X153400635Y-111118289D01*
X153405704Y-111104874D01*
X153405706Y-111104867D01*
X153407225Y-111100848D01*
X153462027Y-110861570D01*
X153470449Y-110824797D01*
X153470450Y-110824793D01*
X153471407Y-110820613D01*
X153482474Y-110696616D01*
X153487955Y-110635204D01*
X157753665Y-110635204D01*
X157768932Y-110899969D01*
X157770005Y-110908470D01*
X157821065Y-111168722D01*
X157823276Y-111176974D01*
X157909184Y-111427894D01*
X157912499Y-111435779D01*
X158031664Y-111672713D01*
X158036020Y-111680079D01*
X158165347Y-111868250D01*
X158175601Y-111876594D01*
X158189342Y-111869448D01*
X159393978Y-110664812D01*
X159400356Y-110653132D01*
X160130408Y-110653132D01*
X160130539Y-110654965D01*
X160134790Y-110661580D01*
X161341730Y-111868520D01*
X161353939Y-111875187D01*
X161365439Y-111866497D01*
X161462831Y-111733913D01*
X161467418Y-111726685D01*
X161593962Y-111493621D01*
X161597530Y-111485827D01*
X161691271Y-111237750D01*
X161693748Y-111229544D01*
X161752954Y-110971038D01*
X161754294Y-110962577D01*
X161778031Y-110696616D01*
X161778277Y-110691677D01*
X161778666Y-110654485D01*
X161778523Y-110649519D01*
X161760362Y-110383123D01*
X161759201Y-110374649D01*
X161705419Y-110114944D01*
X161703120Y-110106709D01*
X161614588Y-109856705D01*
X161611191Y-109848854D01*
X161489550Y-109613178D01*
X161485122Y-109605866D01*
X161366031Y-109436417D01*
X161355509Y-109428037D01*
X161342121Y-109435089D01*
X160138022Y-110639188D01*
X160130408Y-110653132D01*
X159400356Y-110653132D01*
X159401592Y-110650868D01*
X159401461Y-110649035D01*
X159397210Y-110642420D01*
X158189814Y-109435024D01*
X158177804Y-109428466D01*
X158166064Y-109437434D01*
X158057935Y-109587911D01*
X158053418Y-109595196D01*
X157929325Y-109829567D01*
X157925839Y-109837395D01*
X157834700Y-110086446D01*
X157832311Y-110094670D01*
X157775812Y-110353795D01*
X157774563Y-110362250D01*
X157753754Y-110626653D01*
X157753665Y-110635204D01*
X153487955Y-110635204D01*
X153496743Y-110536726D01*
X153496743Y-110536724D01*
X153496963Y-110534260D01*
X153497427Y-110490000D01*
X153495150Y-110456601D01*
X153478165Y-110207452D01*
X153478164Y-110207446D01*
X153477873Y-110203175D01*
X153419574Y-109921658D01*
X153323607Y-109650657D01*
X153217251Y-109444595D01*
X153193715Y-109398995D01*
X153193715Y-109398994D01*
X153191750Y-109395188D01*
X153178488Y-109376317D01*
X153073143Y-109226427D01*
X153026441Y-109159977D01*
X152937718Y-109064500D01*
X158542584Y-109064500D01*
X158548980Y-109075770D01*
X159753188Y-110279978D01*
X159767132Y-110287592D01*
X159768965Y-110287461D01*
X159775580Y-110283210D01*
X160982604Y-109076186D01*
X160989795Y-109063017D01*
X160982473Y-109052780D01*
X160935233Y-109014115D01*
X160928261Y-109009160D01*
X160702122Y-108870582D01*
X160694552Y-108866624D01*
X160451704Y-108760022D01*
X160443644Y-108757120D01*
X160188592Y-108684467D01*
X160180214Y-108682685D01*
X159917656Y-108645318D01*
X159909111Y-108644691D01*
X159643908Y-108643302D01*
X159635374Y-108643839D01*
X159372433Y-108678456D01*
X159364035Y-108680149D01*
X159108238Y-108750127D01*
X159100143Y-108752946D01*
X158856199Y-108856997D01*
X158848577Y-108860881D01*
X158621013Y-108997075D01*
X158613981Y-109001962D01*
X158551053Y-109052377D01*
X158542584Y-109064500D01*
X152937718Y-109064500D01*
X152914511Y-109039526D01*
X152833661Y-108952521D01*
X152833658Y-108952519D01*
X152830740Y-108949378D01*
X152608268Y-108767287D01*
X152363142Y-108617073D01*
X152345048Y-108609130D01*
X152103830Y-108503243D01*
X152099898Y-108501517D01*
X152073963Y-108494129D01*
X151827534Y-108423932D01*
X151827535Y-108423932D01*
X151823406Y-108422756D01*
X151610704Y-108392485D01*
X151543036Y-108382854D01*
X151543034Y-108382854D01*
X151538784Y-108382249D01*
X151534495Y-108382227D01*
X151534488Y-108382226D01*
X151255583Y-108380765D01*
X151255576Y-108380765D01*
X151251297Y-108380743D01*
X151247053Y-108381302D01*
X151247049Y-108381302D01*
X151121660Y-108397810D01*
X150966266Y-108418268D01*
X150962126Y-108419401D01*
X150962124Y-108419401D01*
X150896389Y-108437384D01*
X150688964Y-108494129D01*
X150685016Y-108495813D01*
X150428476Y-108605237D01*
X150428472Y-108605239D01*
X150424524Y-108606923D01*
X150343963Y-108655138D01*
X150181521Y-108752357D01*
X150181517Y-108752360D01*
X150177839Y-108754561D01*
X149953472Y-108934313D01*
X149897113Y-108993703D01*
X149786431Y-109110338D01*
X149755577Y-109142851D01*
X149587814Y-109376317D01*
X149585809Y-109380104D01*
X149585807Y-109380107D01*
X149567618Y-109414460D01*
X149518065Y-109465303D01*
X149456264Y-109481500D01*
X145342925Y-109481500D01*
X145274804Y-109461498D01*
X145253830Y-109444595D01*
X143032405Y-107223171D01*
X142998380Y-107160859D01*
X142995500Y-107134076D01*
X142995500Y-100553843D01*
X142996237Y-100540236D01*
X142999659Y-100508738D01*
X142999659Y-100508733D01*
X143000324Y-100502612D01*
X142995950Y-100452612D01*
X142995621Y-100447786D01*
X142995500Y-100445314D01*
X142995500Y-100442231D01*
X142992618Y-100412836D01*
X142991310Y-100399494D01*
X142991188Y-100398181D01*
X142984236Y-100318726D01*
X142983378Y-100308918D01*
X157752917Y-100308918D01*
X157755713Y-100357408D01*
X157757291Y-100384773D01*
X157757500Y-100392026D01*
X157757500Y-107120134D01*
X157764255Y-107182316D01*
X157815385Y-107318705D01*
X157902739Y-107435261D01*
X158019295Y-107522615D01*
X158155684Y-107573745D01*
X158217866Y-107580500D01*
X159654133Y-107580500D01*
X159667303Y-107581190D01*
X159691364Y-107583719D01*
X159691367Y-107583719D01*
X159695733Y-107584178D01*
X159700121Y-107584025D01*
X159700127Y-107584025D01*
X159798854Y-107580577D01*
X159803251Y-107580500D01*
X161314134Y-107580500D01*
X161376316Y-107573745D01*
X161512705Y-107522615D01*
X161629261Y-107435261D01*
X161716615Y-107318705D01*
X161767745Y-107182316D01*
X161774500Y-107120134D01*
X161774500Y-100425403D01*
X161774999Y-100414202D01*
X161778531Y-100374627D01*
X161778531Y-100374625D01*
X161778751Y-100372161D01*
X161778898Y-100358187D01*
X161779167Y-100332484D01*
X161779167Y-100332483D01*
X161779193Y-100330000D01*
X161774577Y-100262285D01*
X161774500Y-100260796D01*
X161774500Y-100259854D01*
X161770953Y-100209129D01*
X161760567Y-100056778D01*
X161760283Y-100055405D01*
X161760262Y-100055202D01*
X161760119Y-100054181D01*
X161759811Y-100049788D01*
X161758897Y-100045489D01*
X161758895Y-100045473D01*
X161732966Y-99923490D01*
X161732830Y-99922844D01*
X161731360Y-99915743D01*
X161714121Y-99832500D01*
X161705904Y-99792821D01*
X161705903Y-99792816D01*
X161705032Y-99788612D01*
X161703747Y-99784983D01*
X161702576Y-99780214D01*
X161702325Y-99779337D01*
X161701409Y-99775030D01*
X161691831Y-99748713D01*
X161657776Y-99655148D01*
X161657404Y-99654114D01*
X161615046Y-99534500D01*
X161615045Y-99534499D01*
X161613617Y-99530465D01*
X161611654Y-99526662D01*
X161609945Y-99522713D01*
X161610121Y-99522637D01*
X161608481Y-99518894D01*
X161606848Y-99515225D01*
X161605337Y-99511074D01*
X161572964Y-99450190D01*
X161546695Y-99400785D01*
X161545980Y-99399421D01*
X161489976Y-99290915D01*
X161489975Y-99290914D01*
X161488013Y-99287112D01*
X161485283Y-99283228D01*
X161477113Y-99269921D01*
X161475531Y-99266945D01*
X161475530Y-99266943D01*
X161473464Y-99263058D01*
X161449156Y-99229600D01*
X161401892Y-99164547D01*
X161400741Y-99162937D01*
X161389224Y-99146550D01*
X161330545Y-99063057D01*
X161324757Y-99056828D01*
X161315130Y-99045128D01*
X161310949Y-99039374D01*
X161310948Y-99039373D01*
X161308358Y-99035808D01*
X161290468Y-99017282D01*
X161226106Y-98950633D01*
X161224443Y-98948877D01*
X161147046Y-98865588D01*
X161147043Y-98865585D01*
X161144125Y-98862445D01*
X161134645Y-98854685D01*
X161123825Y-98844717D01*
X161116300Y-98836925D01*
X161116293Y-98836918D01*
X161113231Y-98833748D01*
X161109027Y-98830463D01*
X161022725Y-98763037D01*
X161020492Y-98761252D01*
X160973976Y-98723179D01*
X160932205Y-98688990D01*
X160928545Y-98686747D01*
X160928542Y-98686745D01*
X160918558Y-98680626D01*
X160906832Y-98672492D01*
X160891882Y-98660812D01*
X160795473Y-98605150D01*
X160792639Y-98603464D01*
X160739200Y-98570717D01*
X160698704Y-98545901D01*
X160680630Y-98537967D01*
X160668276Y-98531713D01*
X160652439Y-98522569D01*
X160652434Y-98522566D01*
X160648619Y-98520364D01*
X160644535Y-98518714D01*
X160644529Y-98518711D01*
X160563199Y-98485852D01*
X160548722Y-98480003D01*
X160545288Y-98478556D01*
X160514715Y-98465135D01*
X160447945Y-98435825D01*
X160443824Y-98434651D01*
X160443821Y-98434650D01*
X160425359Y-98429391D01*
X160412680Y-98425038D01*
X160388176Y-98415138D01*
X160383903Y-98414073D01*
X160383898Y-98414071D01*
X160287141Y-98389947D01*
X160283104Y-98388869D01*
X160188694Y-98361976D01*
X160188696Y-98361976D01*
X160184566Y-98360800D01*
X160157611Y-98356964D01*
X160144882Y-98354478D01*
X160115624Y-98347183D01*
X160091428Y-98344640D01*
X160015692Y-98336680D01*
X160011108Y-98336113D01*
X159917694Y-98322818D01*
X159913443Y-98322213D01*
X159882465Y-98322051D01*
X159869962Y-98321363D01*
X159846581Y-98318906D01*
X159840635Y-98318281D01*
X159840634Y-98318281D01*
X159836267Y-98317822D01*
X159831880Y-98317975D01*
X159831873Y-98317975D01*
X159772458Y-98320051D01*
X159739482Y-98321202D01*
X159734450Y-98321277D01*
X159639591Y-98320780D01*
X159635333Y-98321341D01*
X159635327Y-98321341D01*
X159605165Y-98325312D01*
X159593116Y-98326313D01*
X159559940Y-98327471D01*
X159559933Y-98327472D01*
X159555542Y-98327625D01*
X159463779Y-98343805D01*
X159458351Y-98344640D01*
X159368078Y-98356525D01*
X159330965Y-98366678D01*
X159319611Y-98369226D01*
X159304435Y-98371902D01*
X159283250Y-98375637D01*
X159283246Y-98375638D01*
X159278913Y-98376402D01*
X159193766Y-98404068D01*
X159188152Y-98405747D01*
X159103928Y-98428788D01*
X159099977Y-98430473D01*
X159099975Y-98430474D01*
X159065104Y-98445348D01*
X159054611Y-98449282D01*
X159011765Y-98463203D01*
X158934610Y-98500834D01*
X158928854Y-98503463D01*
X158852030Y-98536232D01*
X158812585Y-98559839D01*
X158803129Y-98564962D01*
X158763255Y-98584410D01*
X158759298Y-98586340D01*
X158755649Y-98588801D01*
X158755646Y-98588803D01*
X158691218Y-98632259D01*
X158685468Y-98635916D01*
X158617043Y-98676868D01*
X158613698Y-98679548D01*
X158613695Y-98679550D01*
X158578252Y-98707946D01*
X158569939Y-98714064D01*
X158526424Y-98743415D01*
X158523155Y-98746358D01*
X158523153Y-98746360D01*
X158468131Y-98795902D01*
X158462605Y-98800596D01*
X158403318Y-98848094D01*
X158370956Y-98882197D01*
X158366522Y-98886869D01*
X158359435Y-98893772D01*
X158320947Y-98928427D01*
X158320943Y-98928431D01*
X158317678Y-98931371D01*
X158314857Y-98934733D01*
X158314854Y-98934736D01*
X158269643Y-98988616D01*
X158264520Y-98994356D01*
X158240742Y-99019413D01*
X158214808Y-99046742D01*
X158181414Y-99093215D01*
X158175646Y-99100639D01*
X158137121Y-99146550D01*
X158134792Y-99150278D01*
X158134790Y-99150280D01*
X158099483Y-99206783D01*
X158094952Y-99213539D01*
X158055002Y-99269136D01*
X158052999Y-99272918D01*
X158052994Y-99272927D01*
X158026477Y-99323009D01*
X158021978Y-99330818D01*
X157988269Y-99384764D01*
X157970006Y-99425785D01*
X157960886Y-99446269D01*
X157957136Y-99453975D01*
X157926857Y-99511161D01*
X157925383Y-99515188D01*
X157925382Y-99515191D01*
X157904622Y-99571920D01*
X157901406Y-99579861D01*
X157893987Y-99596524D01*
X157884037Y-99618873D01*
X157874018Y-99641375D01*
X157872805Y-99645605D01*
X157872804Y-99645608D01*
X157856484Y-99702526D01*
X157853695Y-99711083D01*
X157832743Y-99768337D01*
X157831831Y-99772521D01*
X157831829Y-99772527D01*
X157818157Y-99835235D01*
X157816169Y-99843119D01*
X157796593Y-99911390D01*
X157795982Y-99915740D01*
X157795981Y-99915743D01*
X157788256Y-99970711D01*
X157786590Y-99980016D01*
X157783929Y-99992223D01*
X157774404Y-100035907D01*
X157768738Y-100107904D01*
X157767900Y-100115554D01*
X157757500Y-100189552D01*
X157757500Y-100245731D01*
X157757112Y-100255617D01*
X157752917Y-100308918D01*
X142983378Y-100308918D01*
X142983087Y-100305587D01*
X142981600Y-100300468D01*
X142981080Y-100295167D01*
X142954209Y-100206166D01*
X142953874Y-100205033D01*
X142929630Y-100121586D01*
X142929628Y-100121582D01*
X142927909Y-100115664D01*
X142925456Y-100110932D01*
X142923916Y-100105831D01*
X142919710Y-100097920D01*
X142880269Y-100023740D01*
X142879657Y-100022574D01*
X142839729Y-99945547D01*
X142836892Y-99940074D01*
X142833569Y-99935911D01*
X142831066Y-99931204D01*
X142772245Y-99859082D01*
X142771554Y-99858226D01*
X142740262Y-99819027D01*
X142737758Y-99816523D01*
X142737116Y-99815805D01*
X142733415Y-99811472D01*
X142706065Y-99777938D01*
X142699525Y-99772527D01*
X142670738Y-99748713D01*
X142661958Y-99740723D01*
X141383077Y-98461842D01*
X140096405Y-97175171D01*
X140062380Y-97112859D01*
X140059500Y-97086076D01*
X140059500Y-95424522D01*
X145784273Y-95424522D01*
X145831764Y-95601761D01*
X145835510Y-95612053D01*
X145927586Y-95809511D01*
X145933069Y-95819007D01*
X146058028Y-95997467D01*
X146065084Y-96005875D01*
X146219125Y-96159916D01*
X146227533Y-96166972D01*
X146405993Y-96291931D01*
X146415489Y-96297414D01*
X146612947Y-96389490D01*
X146623239Y-96393236D01*
X146795503Y-96439394D01*
X146809599Y-96439058D01*
X146813000Y-96431116D01*
X146813000Y-96425967D01*
X147321000Y-96425967D01*
X147324973Y-96439498D01*
X147333522Y-96440727D01*
X147510761Y-96393236D01*
X147521053Y-96389490D01*
X147718511Y-96297414D01*
X147728007Y-96291931D01*
X147906467Y-96166972D01*
X147914875Y-96159916D01*
X148068916Y-96005875D01*
X148075972Y-95997467D01*
X148200931Y-95819007D01*
X148206414Y-95809511D01*
X148298490Y-95612053D01*
X148302236Y-95601761D01*
X148348394Y-95429497D01*
X148348058Y-95415401D01*
X148340116Y-95412000D01*
X147339115Y-95412000D01*
X147323876Y-95416475D01*
X147322671Y-95417865D01*
X147321000Y-95425548D01*
X147321000Y-96425967D01*
X146813000Y-96425967D01*
X146813000Y-95430115D01*
X146808525Y-95414876D01*
X146807135Y-95413671D01*
X146799452Y-95412000D01*
X145799033Y-95412000D01*
X145785502Y-95415973D01*
X145784273Y-95424522D01*
X140059500Y-95424522D01*
X140059500Y-94886503D01*
X145785606Y-94886503D01*
X145785942Y-94900599D01*
X145793884Y-94904000D01*
X146794885Y-94904000D01*
X146810124Y-94899525D01*
X146811329Y-94898135D01*
X146813000Y-94890452D01*
X146813000Y-94885885D01*
X147321000Y-94885885D01*
X147325475Y-94901124D01*
X147326865Y-94902329D01*
X147334548Y-94904000D01*
X148334967Y-94904000D01*
X148348498Y-94900027D01*
X148349727Y-94891478D01*
X148302236Y-94714239D01*
X148298490Y-94703947D01*
X148206414Y-94506489D01*
X148200931Y-94496993D01*
X148075972Y-94318533D01*
X148068916Y-94310125D01*
X147914875Y-94156084D01*
X147906467Y-94149028D01*
X147728007Y-94024069D01*
X147718511Y-94018586D01*
X147521053Y-93926510D01*
X147510761Y-93922764D01*
X147338497Y-93876606D01*
X147324401Y-93876942D01*
X147321000Y-93884884D01*
X147321000Y-94885885D01*
X146813000Y-94885885D01*
X146813000Y-93890033D01*
X146809027Y-93876502D01*
X146800478Y-93875273D01*
X146623239Y-93922764D01*
X146612947Y-93926510D01*
X146415489Y-94018586D01*
X146405993Y-94024069D01*
X146227533Y-94149028D01*
X146219125Y-94156084D01*
X146065084Y-94310125D01*
X146058028Y-94318533D01*
X145933069Y-94496993D01*
X145927586Y-94506489D01*
X145835510Y-94703947D01*
X145831764Y-94714239D01*
X145785606Y-94886503D01*
X140059500Y-94886503D01*
X140059500Y-88751062D01*
X155547144Y-88751062D01*
X155556440Y-88763077D01*
X155607645Y-88798931D01*
X155617140Y-88804414D01*
X155814598Y-88896490D01*
X155824890Y-88900236D01*
X156035339Y-88956625D01*
X156046132Y-88958528D01*
X156263176Y-88977517D01*
X156274126Y-88977517D01*
X156491170Y-88958528D01*
X156501963Y-88956625D01*
X156712412Y-88900236D01*
X156722704Y-88896490D01*
X156920162Y-88804414D01*
X156929657Y-88798931D01*
X156981699Y-88762491D01*
X156990075Y-88752012D01*
X156983007Y-88738566D01*
X156281463Y-88037022D01*
X156267519Y-88029408D01*
X156265686Y-88029539D01*
X156259071Y-88033790D01*
X155553574Y-88739287D01*
X155547144Y-88751062D01*
X140059500Y-88751062D01*
X140059500Y-87670475D01*
X154956134Y-87670475D01*
X154975123Y-87887519D01*
X154977026Y-87898312D01*
X155033415Y-88108761D01*
X155037161Y-88119053D01*
X155129237Y-88316511D01*
X155134720Y-88326006D01*
X155171160Y-88378048D01*
X155181639Y-88386424D01*
X155195085Y-88379356D01*
X155896629Y-87677812D01*
X155903007Y-87666132D01*
X156633059Y-87666132D01*
X156633190Y-87667965D01*
X156637441Y-87674580D01*
X157342938Y-88380077D01*
X157354713Y-88386507D01*
X157366728Y-88377211D01*
X157402582Y-88326006D01*
X157408065Y-88316511D01*
X157500141Y-88119053D01*
X157503887Y-88108761D01*
X157560276Y-87898312D01*
X157562179Y-87887519D01*
X157581168Y-87670475D01*
X157581168Y-87659525D01*
X157562179Y-87442481D01*
X157560276Y-87431688D01*
X157503887Y-87221239D01*
X157500141Y-87210947D01*
X157408065Y-87013489D01*
X157402582Y-87003994D01*
X157366142Y-86951952D01*
X157355663Y-86943576D01*
X157342217Y-86950644D01*
X156640673Y-87652188D01*
X156633059Y-87666132D01*
X155903007Y-87666132D01*
X155904243Y-87663868D01*
X155904112Y-87662035D01*
X155899861Y-87655420D01*
X155194364Y-86949923D01*
X155182589Y-86943493D01*
X155170574Y-86952789D01*
X155134720Y-87003994D01*
X155129237Y-87013489D01*
X155037161Y-87210947D01*
X155033415Y-87221239D01*
X154977026Y-87431688D01*
X154975123Y-87442481D01*
X154956134Y-87659525D01*
X154956134Y-87670475D01*
X140059500Y-87670475D01*
X140059500Y-84518963D01*
X140079502Y-84450842D01*
X140104089Y-84422796D01*
X140227203Y-84318573D01*
X140227211Y-84318565D01*
X140230775Y-84315548D01*
X140279151Y-84260386D01*
X140392187Y-84131494D01*
X140392191Y-84131489D01*
X140395269Y-84127979D01*
X140419582Y-84090181D01*
X140497805Y-83968569D01*
X140530231Y-83918157D01*
X140632697Y-83690691D01*
X140650856Y-83626303D01*
X140699146Y-83455082D01*
X140699147Y-83455079D01*
X140700416Y-83450578D01*
X140706456Y-83403099D01*
X140731502Y-83206222D01*
X140731502Y-83206218D01*
X140731900Y-83203092D01*
X140732118Y-83194794D01*
X140733466Y-83143295D01*
X140734207Y-83115000D01*
X140728966Y-83044476D01*
X140716064Y-82870858D01*
X140716063Y-82870854D01*
X140715718Y-82866206D01*
X140660659Y-82622878D01*
X140654738Y-82607652D01*
X140571931Y-82394714D01*
X140571930Y-82394712D01*
X140570238Y-82390361D01*
X140565736Y-82382483D01*
X140510300Y-82285491D01*
X140446442Y-82173763D01*
X140291990Y-81977842D01*
X140110276Y-81806902D01*
X139977828Y-81715020D01*
X139909130Y-81667362D01*
X139909125Y-81667359D01*
X139905292Y-81664700D01*
X139901110Y-81662637D01*
X139901102Y-81662633D01*
X139685728Y-81556423D01*
X139685725Y-81556422D01*
X139681540Y-81554358D01*
X139676992Y-81552902D01*
X139631319Y-81538282D01*
X139443937Y-81478300D01*
X139439330Y-81477550D01*
X139439327Y-81477549D01*
X139202312Y-81438949D01*
X139202313Y-81438949D01*
X139197701Y-81438198D01*
X139076753Y-81436615D01*
X138952920Y-81434994D01*
X138952917Y-81434994D01*
X138948243Y-81434933D01*
X138701042Y-81468575D01*
X138696556Y-81469883D01*
X138696554Y-81469883D01*
X138667677Y-81478300D01*
X138461528Y-81538387D01*
X138457275Y-81540347D01*
X138457274Y-81540348D01*
X138429971Y-81552935D01*
X138234965Y-81642834D01*
X138231056Y-81645397D01*
X138126759Y-81713777D01*
X138058824Y-81734400D01*
X137990523Y-81715020D01*
X137943543Y-81661791D01*
X137932798Y-81591612D01*
X137951703Y-81540242D01*
X137953740Y-81537076D01*
X138030231Y-81418157D01*
X138132697Y-81190691D01*
X138145853Y-81144043D01*
X138199146Y-80955082D01*
X138199147Y-80955079D01*
X138200416Y-80950578D01*
X138217539Y-80815978D01*
X138231502Y-80706222D01*
X138231502Y-80706218D01*
X138231900Y-80703092D01*
X138232234Y-80690367D01*
X138234124Y-80618160D01*
X138234207Y-80615000D01*
X138233163Y-80600957D01*
X138216064Y-80370858D01*
X138216063Y-80370854D01*
X138215718Y-80366206D01*
X138160659Y-80122878D01*
X138152516Y-80101938D01*
X138071931Y-79894714D01*
X138071930Y-79894712D01*
X138070238Y-79890361D01*
X137946442Y-79673763D01*
X137791990Y-79477842D01*
X137610276Y-79306902D01*
X137452229Y-79197261D01*
X137409130Y-79167362D01*
X137409125Y-79167359D01*
X137405292Y-79164700D01*
X137401110Y-79162637D01*
X137401102Y-79162633D01*
X137185728Y-79056423D01*
X137185725Y-79056422D01*
X137181540Y-79054358D01*
X137176992Y-79052902D01*
X137131647Y-79038387D01*
X136943937Y-78978300D01*
X136939330Y-78977550D01*
X136939327Y-78977549D01*
X136702312Y-78938949D01*
X136702313Y-78938949D01*
X136697701Y-78938198D01*
X136576753Y-78936615D01*
X136452920Y-78934994D01*
X136452917Y-78934994D01*
X136448243Y-78934933D01*
X136201042Y-78968575D01*
X136196556Y-78969883D01*
X136196554Y-78969883D01*
X136167677Y-78978300D01*
X135961528Y-79038387D01*
X135957275Y-79040347D01*
X135957274Y-79040348D01*
X135929971Y-79052935D01*
X135734965Y-79142834D01*
X135731056Y-79145397D01*
X135530242Y-79277056D01*
X135530237Y-79277060D01*
X135526329Y-79279622D01*
X135433266Y-79362684D01*
X135374367Y-79415253D01*
X135340202Y-79445746D01*
X135337209Y-79449345D01*
X135244289Y-79561069D01*
X135185352Y-79600653D01*
X135147415Y-79606500D01*
X130683850Y-79606500D01*
X130670242Y-79605763D01*
X130669662Y-79605700D01*
X130632612Y-79601675D01*
X130582570Y-79606053D01*
X130577788Y-79606379D01*
X130575310Y-79606500D01*
X130572231Y-79606500D01*
X130569177Y-79606799D01*
X130569166Y-79606800D01*
X130529529Y-79610687D01*
X130528215Y-79610809D01*
X130492688Y-79613917D01*
X130435587Y-79618913D01*
X130430468Y-79620400D01*
X130425167Y-79620920D01*
X130336166Y-79647791D01*
X130335033Y-79648126D01*
X130251586Y-79672370D01*
X130251582Y-79672372D01*
X130245664Y-79674091D01*
X130240932Y-79676544D01*
X130235831Y-79678084D01*
X130230388Y-79680978D01*
X130153740Y-79721731D01*
X130152574Y-79722343D01*
X130075547Y-79762271D01*
X130070074Y-79765108D01*
X130065911Y-79768431D01*
X130061204Y-79770934D01*
X130056429Y-79774828D01*
X130056428Y-79774829D01*
X129989102Y-79829739D01*
X129988075Y-79830567D01*
X129951792Y-79859531D01*
X129951787Y-79859536D01*
X129949028Y-79861738D01*
X129946527Y-79864239D01*
X129945809Y-79864881D01*
X129941461Y-79868594D01*
X129907938Y-79895935D01*
X129904015Y-79900677D01*
X129904013Y-79900679D01*
X129878703Y-79931273D01*
X129870713Y-79940053D01*
X129124219Y-80686547D01*
X129114418Y-80695372D01*
X129083453Y-80720447D01*
X129051157Y-80759210D01*
X129048500Y-80762266D01*
X129046691Y-80764075D01*
X129044744Y-80766445D01*
X129044737Y-80766453D01*
X129018061Y-80798930D01*
X129017634Y-80799446D01*
X128956854Y-80872396D01*
X128955155Y-80875512D01*
X128952897Y-80878261D01*
X128930025Y-80920917D01*
X128908055Y-80961890D01*
X128907637Y-80962663D01*
X128862178Y-81046041D01*
X128861113Y-81049439D01*
X128859438Y-81052563D01*
X128857637Y-81058454D01*
X128831726Y-81143204D01*
X128831466Y-81144043D01*
X128815640Y-81194547D01*
X128803035Y-81234768D01*
X128802651Y-81238303D01*
X128801613Y-81241698D01*
X128795145Y-81305373D01*
X128792015Y-81336185D01*
X128791928Y-81337008D01*
X128781676Y-81431388D01*
X128781985Y-81434924D01*
X128781626Y-81438462D01*
X128782205Y-81444587D01*
X128782205Y-81444588D01*
X128789941Y-81526424D01*
X128790500Y-81538282D01*
X128790500Y-86759260D01*
X128767713Y-86831531D01*
X128661477Y-86983251D01*
X128659154Y-86988233D01*
X128659151Y-86988238D01*
X128643195Y-87022457D01*
X128596278Y-87075742D01*
X128528001Y-87095203D01*
X128460041Y-87074661D01*
X128414805Y-87022457D01*
X128398849Y-86988238D01*
X128398846Y-86988233D01*
X128396523Y-86983251D01*
X128290287Y-86831531D01*
X128267500Y-86759260D01*
X128267500Y-79113925D01*
X128287502Y-79045804D01*
X128304405Y-79024830D01*
X129794829Y-77534405D01*
X129857141Y-77500380D01*
X129883924Y-77497500D01*
X134375260Y-77497500D01*
X134447531Y-77520287D01*
X134599251Y-77626523D01*
X134604233Y-77628846D01*
X134604238Y-77628849D01*
X134777894Y-77709825D01*
X134806757Y-77723284D01*
X134812065Y-77724706D01*
X134812067Y-77724707D01*
X135022598Y-77781119D01*
X135022600Y-77781119D01*
X135027913Y-77782543D01*
X135256000Y-77802498D01*
X135484087Y-77782543D01*
X135489400Y-77781119D01*
X135489402Y-77781119D01*
X135699933Y-77724707D01*
X135699935Y-77724706D01*
X135705243Y-77723284D01*
X135734106Y-77709825D01*
X135907762Y-77628849D01*
X135907767Y-77628846D01*
X135912749Y-77626523D01*
X136044307Y-77534405D01*
X136095789Y-77498357D01*
X136095792Y-77498355D01*
X136100300Y-77495198D01*
X136262198Y-77333300D01*
X136393523Y-77145749D01*
X136395846Y-77140767D01*
X136395849Y-77140762D01*
X136487961Y-76943225D01*
X136487961Y-76943224D01*
X136490284Y-76938243D01*
X136520886Y-76824038D01*
X136548119Y-76722402D01*
X136548119Y-76722400D01*
X136549543Y-76717087D01*
X136569498Y-76489000D01*
X144102502Y-76489000D01*
X144122457Y-76717087D01*
X144123881Y-76722400D01*
X144123881Y-76722402D01*
X144151115Y-76824038D01*
X144181716Y-76938243D01*
X144184039Y-76943224D01*
X144184039Y-76943225D01*
X144276151Y-77140762D01*
X144276154Y-77140767D01*
X144278477Y-77145749D01*
X144409802Y-77333300D01*
X144571700Y-77495198D01*
X144576208Y-77498355D01*
X144576211Y-77498357D01*
X144627693Y-77534405D01*
X144759251Y-77626523D01*
X144764233Y-77628846D01*
X144764238Y-77628849D01*
X144937894Y-77709825D01*
X144966757Y-77723284D01*
X144972065Y-77724706D01*
X144972067Y-77724707D01*
X145182598Y-77781119D01*
X145182600Y-77781119D01*
X145187913Y-77782543D01*
X145416000Y-77802498D01*
X145644087Y-77782543D01*
X145649400Y-77781119D01*
X145649402Y-77781119D01*
X145859933Y-77724707D01*
X145859935Y-77724706D01*
X145865243Y-77723284D01*
X145894106Y-77709825D01*
X146067762Y-77628849D01*
X146067767Y-77628846D01*
X146072749Y-77626523D01*
X146204307Y-77534405D01*
X146255789Y-77498357D01*
X146255792Y-77498355D01*
X146260300Y-77495198D01*
X146422198Y-77333300D01*
X146553523Y-77145749D01*
X146555846Y-77140767D01*
X146555849Y-77140762D01*
X146647961Y-76943225D01*
X146647961Y-76943224D01*
X146650284Y-76938243D01*
X146680886Y-76824038D01*
X146708119Y-76722402D01*
X146708119Y-76722400D01*
X146709543Y-76717087D01*
X146729498Y-76489000D01*
X146718604Y-76364482D01*
X146732593Y-76294877D01*
X146781993Y-76243884D01*
X146844125Y-76227500D01*
X147402486Y-76227500D01*
X147470607Y-76247502D01*
X147517100Y-76301158D01*
X147527204Y-76371432D01*
X147505701Y-76425768D01*
X147396024Y-76582404D01*
X147393703Y-76587382D01*
X147393701Y-76587385D01*
X147327174Y-76730052D01*
X147305178Y-76777223D01*
X147303756Y-76782531D01*
X147303755Y-76782533D01*
X147250966Y-76979543D01*
X147249542Y-76984858D01*
X147230807Y-77199000D01*
X147249542Y-77413142D01*
X147250966Y-77418455D01*
X147250966Y-77418457D01*
X147292924Y-77575043D01*
X147305178Y-77620777D01*
X147307500Y-77625757D01*
X147307501Y-77625759D01*
X147372017Y-77764112D01*
X147396024Y-77815596D01*
X147432715Y-77867996D01*
X147455500Y-77940264D01*
X147455500Y-84401074D01*
X147435498Y-84469195D01*
X147418596Y-84490169D01*
X146975884Y-84932882D01*
X146913571Y-84966907D01*
X146897771Y-84969308D01*
X146838913Y-84974457D01*
X146733648Y-85002663D01*
X146623067Y-85032293D01*
X146623065Y-85032294D01*
X146617757Y-85033716D01*
X146612776Y-85036039D01*
X146612775Y-85036039D01*
X146415238Y-85128151D01*
X146415233Y-85128154D01*
X146410251Y-85130477D01*
X146327197Y-85188632D01*
X146227211Y-85258643D01*
X146227208Y-85258645D01*
X146222700Y-85261802D01*
X146060802Y-85423700D01*
X146057645Y-85428208D01*
X146057643Y-85428211D01*
X146046747Y-85443772D01*
X145929477Y-85611251D01*
X145927154Y-85616233D01*
X145927151Y-85616238D01*
X145883062Y-85710789D01*
X145832716Y-85818757D01*
X145831294Y-85824065D01*
X145831293Y-85824067D01*
X145782714Y-86005366D01*
X145773457Y-86039913D01*
X145753502Y-86268000D01*
X145773457Y-86496087D01*
X145774881Y-86501400D01*
X145774881Y-86501402D01*
X145826322Y-86693379D01*
X145832716Y-86717243D01*
X145835039Y-86722224D01*
X145835039Y-86722225D01*
X145927151Y-86919762D01*
X145927154Y-86919767D01*
X145929477Y-86924749D01*
X145990997Y-87012608D01*
X146054836Y-87103779D01*
X146060802Y-87112300D01*
X146222700Y-87274198D01*
X146227208Y-87277355D01*
X146227211Y-87277357D01*
X146259252Y-87299792D01*
X146410251Y-87405523D01*
X146415233Y-87407846D01*
X146415238Y-87407849D01*
X146612775Y-87499961D01*
X146617757Y-87502284D01*
X146623065Y-87503706D01*
X146623067Y-87503707D01*
X146833598Y-87560119D01*
X146833600Y-87560119D01*
X146838913Y-87561543D01*
X147067000Y-87581498D01*
X147295087Y-87561543D01*
X147300400Y-87560119D01*
X147300402Y-87560119D01*
X147510933Y-87503707D01*
X147510935Y-87503706D01*
X147516243Y-87502284D01*
X147521225Y-87499961D01*
X147718762Y-87407849D01*
X147718767Y-87407846D01*
X147723749Y-87405523D01*
X147874748Y-87299792D01*
X147906789Y-87277357D01*
X147906792Y-87277355D01*
X147911300Y-87274198D01*
X148073198Y-87112300D01*
X148079165Y-87103779D01*
X148143003Y-87012608D01*
X148204523Y-86924749D01*
X148206846Y-86919767D01*
X148206849Y-86919762D01*
X148298961Y-86722225D01*
X148298961Y-86722224D01*
X148301284Y-86717243D01*
X148307679Y-86693379D01*
X148325403Y-86627229D01*
X148338597Y-86577988D01*
X155547227Y-86577988D01*
X155554295Y-86591434D01*
X156255839Y-87292978D01*
X156269783Y-87300592D01*
X156271616Y-87300461D01*
X156278231Y-87296210D01*
X156983728Y-86590713D01*
X156990158Y-86578938D01*
X156980862Y-86566923D01*
X156929657Y-86531069D01*
X156920162Y-86525586D01*
X156722704Y-86433510D01*
X156712412Y-86429764D01*
X156501963Y-86373375D01*
X156491170Y-86371472D01*
X156274126Y-86352483D01*
X156263176Y-86352483D01*
X156046132Y-86371472D01*
X156035339Y-86373375D01*
X155824890Y-86429764D01*
X155814598Y-86433510D01*
X155617140Y-86525586D01*
X155607645Y-86531069D01*
X155555603Y-86567509D01*
X155547227Y-86577988D01*
X148338597Y-86577988D01*
X148360543Y-86496087D01*
X148365692Y-86437229D01*
X148391555Y-86371112D01*
X148402118Y-86359116D01*
X149133379Y-85627855D01*
X149143522Y-85618753D01*
X149168218Y-85598897D01*
X149173025Y-85595032D01*
X149205320Y-85556544D01*
X149208478Y-85552925D01*
X149210124Y-85551110D01*
X149212309Y-85548925D01*
X149214264Y-85546545D01*
X149214273Y-85546535D01*
X149239549Y-85515764D01*
X149240391Y-85514749D01*
X149296194Y-85448245D01*
X149300154Y-85443526D01*
X149302723Y-85438852D01*
X149306102Y-85434739D01*
X149349975Y-85352915D01*
X149350584Y-85351793D01*
X149352588Y-85348149D01*
X149384761Y-85289626D01*
X149392464Y-85275614D01*
X149392465Y-85275612D01*
X149395433Y-85270213D01*
X149397045Y-85265131D01*
X149399562Y-85260437D01*
X149426762Y-85171469D01*
X149427108Y-85170358D01*
X149433304Y-85150829D01*
X149455235Y-85081694D01*
X149455829Y-85076398D01*
X149457387Y-85071302D01*
X149466790Y-84978743D01*
X149466911Y-84977607D01*
X149472500Y-84927773D01*
X149472500Y-84924246D01*
X149472555Y-84923261D01*
X149473002Y-84917581D01*
X149475989Y-84888175D01*
X149476752Y-84880663D01*
X149476752Y-84880661D01*
X149477374Y-84874538D01*
X149473059Y-84828891D01*
X149472500Y-84817033D01*
X149472500Y-82274062D01*
X150282493Y-82274062D01*
X150291789Y-82286077D01*
X150342994Y-82321931D01*
X150352489Y-82327414D01*
X150549947Y-82419490D01*
X150560239Y-82423236D01*
X150770688Y-82479625D01*
X150781481Y-82481528D01*
X150998525Y-82500517D01*
X151009475Y-82500517D01*
X151226519Y-82481528D01*
X151237312Y-82479625D01*
X151447761Y-82423236D01*
X151458053Y-82419490D01*
X151655511Y-82327414D01*
X151665006Y-82321931D01*
X151717048Y-82285491D01*
X151725424Y-82275012D01*
X151718356Y-82261566D01*
X151016812Y-81560022D01*
X151002868Y-81552408D01*
X151001035Y-81552539D01*
X150994420Y-81556790D01*
X150288923Y-82262287D01*
X150282493Y-82274062D01*
X149472500Y-82274062D01*
X149472500Y-81483154D01*
X149492502Y-81415033D01*
X149546158Y-81368540D01*
X149616432Y-81358436D01*
X149681012Y-81387930D01*
X149720207Y-81450543D01*
X149768764Y-81631761D01*
X149772510Y-81642053D01*
X149864586Y-81839511D01*
X149870069Y-81849006D01*
X149906509Y-81901048D01*
X149916988Y-81909424D01*
X149930434Y-81902356D01*
X150631978Y-81200812D01*
X150639592Y-81186868D01*
X150639461Y-81185035D01*
X150635210Y-81178420D01*
X149929713Y-80472923D01*
X149917938Y-80466493D01*
X149905923Y-80475789D01*
X149870069Y-80526994D01*
X149864586Y-80536489D01*
X149772510Y-80733947D01*
X149768764Y-80744239D01*
X149720207Y-80925457D01*
X149683255Y-80986080D01*
X149619395Y-81017101D01*
X149548900Y-81008673D01*
X149494153Y-80963470D01*
X149472500Y-80892846D01*
X149472500Y-80100988D01*
X150282576Y-80100988D01*
X150289644Y-80114434D01*
X150991188Y-80815978D01*
X151005132Y-80823592D01*
X151006965Y-80823461D01*
X151013580Y-80819210D01*
X151719077Y-80113713D01*
X151725507Y-80101938D01*
X151716211Y-80089923D01*
X151665006Y-80054069D01*
X151655511Y-80048586D01*
X151458053Y-79956510D01*
X151447761Y-79952764D01*
X151237312Y-79896375D01*
X151226519Y-79894472D01*
X151009475Y-79875483D01*
X150998525Y-79875483D01*
X150781481Y-79894472D01*
X150770688Y-79896375D01*
X150560239Y-79952764D01*
X150549947Y-79956510D01*
X150352489Y-80048586D01*
X150342994Y-80054069D01*
X150290952Y-80090509D01*
X150282576Y-80100988D01*
X149472500Y-80100988D01*
X149472500Y-77940264D01*
X149495285Y-77867996D01*
X149531976Y-77815596D01*
X149555984Y-77764112D01*
X149619805Y-77627247D01*
X149666723Y-77573962D01*
X149735000Y-77554501D01*
X149802960Y-77575043D01*
X149848195Y-77627247D01*
X149912017Y-77764112D01*
X149936024Y-77815596D01*
X150059319Y-77991681D01*
X150211319Y-78143681D01*
X150387403Y-78266976D01*
X150392381Y-78269297D01*
X150392384Y-78269299D01*
X150553958Y-78344642D01*
X150582223Y-78357822D01*
X150587531Y-78359244D01*
X150587533Y-78359245D01*
X150784543Y-78412034D01*
X150784545Y-78412034D01*
X150789858Y-78413458D01*
X151004000Y-78432193D01*
X151218142Y-78413458D01*
X151223455Y-78412034D01*
X151223457Y-78412034D01*
X151420467Y-78359245D01*
X151420469Y-78359244D01*
X151425777Y-78357822D01*
X151454764Y-78344305D01*
X151508014Y-78332500D01*
X152284500Y-78332500D01*
X152352621Y-78352502D01*
X152399114Y-78406158D01*
X152410500Y-78458500D01*
X152410500Y-80428652D01*
X152387713Y-80500923D01*
X152366477Y-80531251D01*
X152364153Y-80536235D01*
X152362829Y-80538528D01*
X152311447Y-80587521D01*
X152241733Y-80600957D01*
X152175822Y-80574571D01*
X152144591Y-80538528D01*
X152137934Y-80526998D01*
X152101491Y-80474952D01*
X152091012Y-80466576D01*
X152077566Y-80473644D01*
X151376022Y-81175188D01*
X151368408Y-81189132D01*
X151368539Y-81190965D01*
X151372790Y-81197580D01*
X152078287Y-81903077D01*
X152090062Y-81909507D01*
X152102077Y-81900211D01*
X152141088Y-81844498D01*
X152143203Y-81845979D01*
X152186718Y-81804454D01*
X152256426Y-81790990D01*
X152322348Y-81817350D01*
X152363553Y-81875165D01*
X152370500Y-81916424D01*
X152370500Y-82692633D01*
X152369567Y-82703694D01*
X152369847Y-82703715D01*
X152369408Y-82709688D01*
X152368402Y-82715607D01*
X152369267Y-82755223D01*
X152370470Y-82810370D01*
X152370500Y-82813119D01*
X152370500Y-82853041D01*
X152371231Y-82860705D01*
X152371769Y-82869901D01*
X152373121Y-82931848D01*
X152380230Y-82964868D01*
X152380365Y-82965494D01*
X152382617Y-82980044D01*
X152385887Y-83014315D01*
X152387577Y-83020075D01*
X152387577Y-83020076D01*
X152403329Y-83073768D01*
X152405603Y-83082717D01*
X152418644Y-83143295D01*
X152420992Y-83148814D01*
X152420993Y-83148816D01*
X152432120Y-83174966D01*
X152437083Y-83188827D01*
X152446774Y-83221860D01*
X152449518Y-83227187D01*
X152449518Y-83227188D01*
X152475139Y-83276934D01*
X152479061Y-83285286D01*
X152503329Y-83342320D01*
X152506680Y-83347297D01*
X152522556Y-83370879D01*
X152530052Y-83383554D01*
X152545809Y-83414148D01*
X152584083Y-83462874D01*
X152589506Y-83470324D01*
X152619236Y-83514482D01*
X152624122Y-83521740D01*
X152627945Y-83525956D01*
X152649138Y-83547149D01*
X152659128Y-83558410D01*
X152679417Y-83584239D01*
X152683947Y-83588170D01*
X152683948Y-83588171D01*
X152727564Y-83626019D01*
X152734078Y-83632089D01*
X153683280Y-84581291D01*
X153690444Y-84589776D01*
X153690657Y-84589592D01*
X153694572Y-84594128D01*
X153698043Y-84599021D01*
X153702374Y-84603167D01*
X153766553Y-84664605D01*
X153768517Y-84666528D01*
X153796708Y-84694719D01*
X153799020Y-84696628D01*
X153799023Y-84696631D01*
X153802625Y-84699605D01*
X153809522Y-84705740D01*
X153849946Y-84744437D01*
X153849950Y-84744440D01*
X153854285Y-84748590D01*
X153883197Y-84767258D01*
X153895081Y-84775955D01*
X153921626Y-84797876D01*
X153967571Y-84822978D01*
X153976005Y-84827586D01*
X153983924Y-84832297D01*
X154035991Y-84865916D01*
X154067928Y-84878787D01*
X154081224Y-84885073D01*
X154111436Y-84901579D01*
X154117152Y-84903409D01*
X154117155Y-84903410D01*
X154170446Y-84920468D01*
X154179133Y-84923604D01*
X154181103Y-84924398D01*
X154236604Y-84946766D01*
X154242482Y-84947914D01*
X154242486Y-84947915D01*
X154260682Y-84951468D01*
X154270385Y-84953363D01*
X154284647Y-84957025D01*
X154311712Y-84965689D01*
X154311722Y-84965691D01*
X154317432Y-84967519D01*
X154323388Y-84968235D01*
X154323395Y-84968236D01*
X154378955Y-84974911D01*
X154388075Y-84976347D01*
X154431435Y-84984814D01*
X154448887Y-84988222D01*
X154454571Y-84988500D01*
X154484545Y-84988500D01*
X154499573Y-84989399D01*
X154526233Y-84992602D01*
X154526237Y-84992602D01*
X154532180Y-84993316D01*
X154538156Y-84992893D01*
X154538159Y-84992893D01*
X154595755Y-84988815D01*
X154604653Y-84988500D01*
X157086299Y-84988500D01*
X157154420Y-85008502D01*
X157175394Y-85025405D01*
X158459663Y-86309674D01*
X158493689Y-86371986D01*
X158488624Y-86442801D01*
X158467442Y-86479339D01*
X158333014Y-86640970D01*
X158330585Y-86644973D01*
X158239122Y-86795700D01*
X158197422Y-86864419D01*
X158096348Y-87105455D01*
X158032010Y-87358783D01*
X158031542Y-87363434D01*
X158031541Y-87363438D01*
X158017794Y-87499961D01*
X158010151Y-87575867D01*
X158010151Y-93115500D01*
X157990149Y-93183621D01*
X157936493Y-93230114D01*
X157884151Y-93241500D01*
X153328874Y-93241500D01*
X153260753Y-93221498D01*
X153253327Y-93216339D01*
X153230705Y-93199385D01*
X153094316Y-93148255D01*
X153032134Y-93141500D01*
X152518500Y-93141500D01*
X152450379Y-93121498D01*
X152403886Y-93067842D01*
X152392500Y-93015500D01*
X152392500Y-92551850D01*
X152393237Y-92538242D01*
X152396660Y-92506737D01*
X152396660Y-92506733D01*
X152397325Y-92500612D01*
X152394310Y-92466140D01*
X152392949Y-92450589D01*
X152392619Y-92445752D01*
X152392500Y-92443314D01*
X152392500Y-92440231D01*
X152392200Y-92437169D01*
X152388318Y-92397580D01*
X152388196Y-92396265D01*
X152380625Y-92309723D01*
X152380625Y-92309721D01*
X152380088Y-92303587D01*
X152378599Y-92298463D01*
X152378080Y-92293167D01*
X152351211Y-92204172D01*
X152350870Y-92203022D01*
X152350573Y-92202000D01*
X152324909Y-92113664D01*
X152322456Y-92108932D01*
X152320916Y-92103831D01*
X152318028Y-92098400D01*
X152318025Y-92098392D01*
X152277237Y-92021680D01*
X152276625Y-92020514D01*
X152236729Y-91943548D01*
X152233892Y-91938075D01*
X152230570Y-91933914D01*
X152228066Y-91929204D01*
X152169312Y-91857165D01*
X152168483Y-91856139D01*
X152139457Y-91819778D01*
X152137262Y-91817028D01*
X152134771Y-91814537D01*
X152134121Y-91813810D01*
X152130406Y-91809461D01*
X152118740Y-91795158D01*
X152103065Y-91775938D01*
X152098323Y-91772015D01*
X152098321Y-91772013D01*
X152067727Y-91746703D01*
X152058947Y-91738713D01*
X150363855Y-90043621D01*
X150354753Y-90033478D01*
X150334897Y-90008782D01*
X150331032Y-90003975D01*
X150292578Y-89971708D01*
X150288931Y-89968528D01*
X150287119Y-89966885D01*
X150284925Y-89964691D01*
X150251651Y-89937358D01*
X150250853Y-89936696D01*
X150179526Y-89876846D01*
X150174856Y-89874278D01*
X150170739Y-89870897D01*
X150088914Y-89827023D01*
X150087755Y-89826394D01*
X150011619Y-89784538D01*
X150011611Y-89784535D01*
X150006213Y-89781567D01*
X150001131Y-89779955D01*
X149996437Y-89777438D01*
X149907469Y-89750238D01*
X149906441Y-89749918D01*
X149817694Y-89721765D01*
X149812398Y-89721171D01*
X149807302Y-89719613D01*
X149714743Y-89710210D01*
X149713607Y-89710089D01*
X149679992Y-89706319D01*
X149667270Y-89704892D01*
X149667266Y-89704892D01*
X149663773Y-89704500D01*
X149660246Y-89704500D01*
X149659261Y-89704445D01*
X149653581Y-89703998D01*
X149624175Y-89701011D01*
X149616663Y-89700248D01*
X149616661Y-89700248D01*
X149610538Y-89699626D01*
X149571937Y-89703275D01*
X149564891Y-89703941D01*
X149553033Y-89704500D01*
X147820740Y-89704500D01*
X147748469Y-89681713D01*
X147728308Y-89667596D01*
X147596749Y-89575477D01*
X147591767Y-89573154D01*
X147591762Y-89573151D01*
X147394225Y-89481039D01*
X147394224Y-89481039D01*
X147389243Y-89478716D01*
X147383935Y-89477294D01*
X147383933Y-89477293D01*
X147173402Y-89420881D01*
X147173400Y-89420881D01*
X147168087Y-89419457D01*
X146940000Y-89399502D01*
X146711913Y-89419457D01*
X146706600Y-89420881D01*
X146706598Y-89420881D01*
X146496067Y-89477293D01*
X146496065Y-89477294D01*
X146490757Y-89478716D01*
X146485776Y-89481039D01*
X146485775Y-89481039D01*
X146288238Y-89573151D01*
X146288233Y-89573154D01*
X146283251Y-89575477D01*
X146247159Y-89600749D01*
X146100211Y-89703643D01*
X146100208Y-89703645D01*
X146095700Y-89706802D01*
X145933802Y-89868700D01*
X145930645Y-89873208D01*
X145930643Y-89873211D01*
X145886221Y-89936652D01*
X145802477Y-90056251D01*
X145800154Y-90061233D01*
X145800151Y-90061238D01*
X145713053Y-90248023D01*
X145705716Y-90263757D01*
X145704294Y-90269065D01*
X145704293Y-90269067D01*
X145666278Y-90410940D01*
X145646457Y-90484913D01*
X145626502Y-90713000D01*
X145646457Y-90941087D01*
X145647881Y-90946400D01*
X145647881Y-90946402D01*
X145689634Y-91102223D01*
X145705716Y-91162243D01*
X145708039Y-91167224D01*
X145708039Y-91167225D01*
X145800151Y-91364762D01*
X145800154Y-91364767D01*
X145802477Y-91369749D01*
X145866588Y-91461309D01*
X145927815Y-91548749D01*
X145933802Y-91557300D01*
X146095700Y-91719198D01*
X146100208Y-91722355D01*
X146100211Y-91722357D01*
X146151693Y-91758405D01*
X146283251Y-91850523D01*
X146288233Y-91852846D01*
X146288238Y-91852849D01*
X146482745Y-91943548D01*
X146490757Y-91947284D01*
X146496065Y-91948706D01*
X146496067Y-91948707D01*
X146706598Y-92005119D01*
X146706600Y-92005119D01*
X146711913Y-92006543D01*
X146940000Y-92026498D01*
X147168087Y-92006543D01*
X147173400Y-92005119D01*
X147173402Y-92005119D01*
X147383933Y-91948707D01*
X147383935Y-91948706D01*
X147389243Y-91947284D01*
X147397255Y-91943548D01*
X147591762Y-91852849D01*
X147591767Y-91852846D01*
X147596749Y-91850523D01*
X147748469Y-91744287D01*
X147820740Y-91721500D01*
X149137075Y-91721500D01*
X149205196Y-91741502D01*
X149226170Y-91758405D01*
X150338595Y-92870830D01*
X150372621Y-92933142D01*
X150375500Y-92959925D01*
X150375500Y-93015500D01*
X150355498Y-93083621D01*
X150301842Y-93130114D01*
X150249500Y-93141500D01*
X149735866Y-93141500D01*
X149673684Y-93148255D01*
X149537295Y-93199385D01*
X149420739Y-93286739D01*
X149333385Y-93403295D01*
X149282255Y-93539684D01*
X149275500Y-93601866D01*
X149275500Y-96898134D01*
X149282255Y-96960316D01*
X149333385Y-97096705D01*
X149420739Y-97213261D01*
X149537295Y-97300615D01*
X149673684Y-97351745D01*
X149735866Y-97358500D01*
X153032134Y-97358500D01*
X153094316Y-97351745D01*
X153230705Y-97300615D01*
X153253311Y-97283673D01*
X153319815Y-97258826D01*
X153328874Y-97258500D01*
X161314134Y-97258500D01*
X161376316Y-97251745D01*
X161512705Y-97200615D01*
X161629261Y-97113261D01*
X161716615Y-96996705D01*
X161767745Y-96860316D01*
X161774500Y-96798134D01*
X161774500Y-95361867D01*
X161775190Y-95348697D01*
X161777719Y-95324636D01*
X161777719Y-95324633D01*
X161778178Y-95320267D01*
X161776074Y-95260000D01*
X161774577Y-95217146D01*
X161774500Y-95212749D01*
X161774500Y-93701866D01*
X161767745Y-93639684D01*
X161716615Y-93503295D01*
X161629261Y-93386739D01*
X161577586Y-93348011D01*
X161535071Y-93291152D01*
X161527151Y-93247185D01*
X161527151Y-87598646D01*
X161525225Y-87572729D01*
X161513058Y-87409000D01*
X161513057Y-87408996D01*
X161512712Y-87404348D01*
X161508561Y-87386000D01*
X161459488Y-87169132D01*
X161455028Y-87149423D01*
X161442107Y-87116197D01*
X161361991Y-86910176D01*
X161361990Y-86910173D01*
X161360298Y-86905823D01*
X161230602Y-86678902D01*
X161068789Y-86473643D01*
X160941818Y-86354201D01*
X160905906Y-86292957D01*
X160902151Y-86262426D01*
X160902151Y-86122018D01*
X160903084Y-86110957D01*
X160902804Y-86110936D01*
X160903243Y-86104963D01*
X160904249Y-86099044D01*
X160902181Y-86004280D01*
X160902151Y-86001532D01*
X160902151Y-85961610D01*
X160901420Y-85953946D01*
X160900882Y-85944745D01*
X160900478Y-85926210D01*
X160899530Y-85882803D01*
X160892286Y-85849156D01*
X160890034Y-85834607D01*
X160887334Y-85806312D01*
X160886764Y-85800336D01*
X160869322Y-85740883D01*
X160867048Y-85731932D01*
X160855269Y-85677220D01*
X160854007Y-85671356D01*
X160840531Y-85639685D01*
X160835567Y-85625822D01*
X160833493Y-85618753D01*
X160825877Y-85592791D01*
X160797509Y-85537710D01*
X160793587Y-85529358D01*
X160792903Y-85527749D01*
X160769322Y-85472331D01*
X160750095Y-85443772D01*
X160742599Y-85431097D01*
X160729592Y-85405843D01*
X160726842Y-85400503D01*
X160688568Y-85351777D01*
X160683145Y-85344327D01*
X160651060Y-85296670D01*
X160651058Y-85296668D01*
X160648529Y-85292911D01*
X160644706Y-85288695D01*
X160623513Y-85267502D01*
X160613522Y-85256240D01*
X160606714Y-85247573D01*
X160593234Y-85230412D01*
X160545086Y-85188631D01*
X160538573Y-85182562D01*
X158484720Y-83128709D01*
X158477556Y-83120224D01*
X158477343Y-83120408D01*
X158473428Y-83115872D01*
X158469957Y-83110979D01*
X158401447Y-83045395D01*
X158399483Y-83043472D01*
X158371293Y-83015282D01*
X158365373Y-83010393D01*
X158358479Y-83004261D01*
X158318054Y-82965563D01*
X158318050Y-82965560D01*
X158313715Y-82961410D01*
X158308676Y-82958157D01*
X158308673Y-82958154D01*
X158284800Y-82942740D01*
X158272916Y-82934042D01*
X158250997Y-82915941D01*
X158250998Y-82915941D01*
X158246375Y-82912124D01*
X158191981Y-82882406D01*
X158184061Y-82877693D01*
X158137054Y-82847341D01*
X158137050Y-82847339D01*
X158132009Y-82844084D01*
X158100080Y-82831216D01*
X158086778Y-82824928D01*
X158061829Y-82811297D01*
X158056565Y-82808421D01*
X158050860Y-82806595D01*
X158050858Y-82806594D01*
X158027018Y-82798963D01*
X157997545Y-82789529D01*
X157988865Y-82786395D01*
X157936959Y-82765476D01*
X157931396Y-82763234D01*
X157925510Y-82762084D01*
X157925508Y-82762084D01*
X157897615Y-82756637D01*
X157883351Y-82752975D01*
X157856273Y-82744307D01*
X157856271Y-82744307D01*
X157850568Y-82742481D01*
X157844619Y-82741766D01*
X157844613Y-82741765D01*
X157789045Y-82735089D01*
X157779925Y-82733653D01*
X157736565Y-82725186D01*
X157719113Y-82721778D01*
X157713429Y-82721500D01*
X157683455Y-82721500D01*
X157668427Y-82720601D01*
X157641767Y-82717398D01*
X157641763Y-82717398D01*
X157635820Y-82716684D01*
X157629844Y-82717107D01*
X157629841Y-82717107D01*
X157572249Y-82721185D01*
X157563350Y-82721500D01*
X155081701Y-82721500D01*
X155013580Y-82701498D01*
X154992606Y-82684595D01*
X154674405Y-82366394D01*
X154640379Y-82304082D01*
X154637500Y-82277299D01*
X154637500Y-81881310D01*
X154649305Y-81828060D01*
X154655140Y-81815548D01*
X154712869Y-81691746D01*
X154735961Y-81642225D01*
X154735961Y-81642224D01*
X154738284Y-81637243D01*
X154741967Y-81623500D01*
X154796119Y-81421402D01*
X154796119Y-81421400D01*
X154797543Y-81416087D01*
X154817498Y-81188000D01*
X154797543Y-80959913D01*
X154789714Y-80930693D01*
X154761016Y-80823592D01*
X154738284Y-80738757D01*
X154724873Y-80709995D01*
X154689305Y-80633720D01*
X154677500Y-80580471D01*
X154677500Y-77703014D01*
X154689305Y-77649764D01*
X154700499Y-77625759D01*
X154700500Y-77625758D01*
X154702822Y-77620777D01*
X154715077Y-77575043D01*
X154757034Y-77418457D01*
X154757034Y-77418455D01*
X154758458Y-77413142D01*
X154777193Y-77199000D01*
X154758458Y-76984858D01*
X154757034Y-76979543D01*
X154704245Y-76782533D01*
X154704244Y-76782531D01*
X154702822Y-76777223D01*
X154680826Y-76730052D01*
X154614299Y-76587385D01*
X154614297Y-76587382D01*
X154611976Y-76582404D01*
X154488681Y-76406319D01*
X154336681Y-76254319D01*
X154160597Y-76131024D01*
X154155619Y-76128703D01*
X154155616Y-76128701D01*
X154105520Y-76105341D01*
X157007888Y-76105341D01*
X157007983Y-76108971D01*
X157007983Y-76108972D01*
X157010367Y-76200000D01*
X157016970Y-76452171D01*
X157065856Y-76795660D01*
X157153897Y-77131253D01*
X157279927Y-77454503D01*
X157281624Y-77457708D01*
X157415113Y-77709825D01*
X157442275Y-77761126D01*
X157444325Y-77764109D01*
X157444327Y-77764112D01*
X157636733Y-78044064D01*
X157636739Y-78044071D01*
X157638790Y-78047056D01*
X157723081Y-78143681D01*
X157832665Y-78269299D01*
X157866866Y-78308505D01*
X157869551Y-78310948D01*
X158079268Y-78501775D01*
X158123481Y-78542006D01*
X158405233Y-78744466D01*
X158708388Y-78913200D01*
X159028928Y-79045972D01*
X159032422Y-79046967D01*
X159032424Y-79046968D01*
X159359103Y-79140025D01*
X159359108Y-79140026D01*
X159362604Y-79141022D01*
X159523454Y-79167362D01*
X159701412Y-79196504D01*
X159701419Y-79196505D01*
X159704993Y-79197090D01*
X159878276Y-79205262D01*
X160047931Y-79213263D01*
X160047932Y-79213263D01*
X160051558Y-79213434D01*
X160060415Y-79212830D01*
X160394073Y-79190084D01*
X160394081Y-79190083D01*
X160397704Y-79189836D01*
X160401279Y-79189173D01*
X160401282Y-79189173D01*
X160735279Y-79127270D01*
X160735283Y-79127269D01*
X160738844Y-79126609D01*
X160973700Y-79054358D01*
X161066978Y-79025662D01*
X161070456Y-79024592D01*
X161388145Y-78885136D01*
X161632511Y-78742341D01*
X161684560Y-78711926D01*
X161684562Y-78711925D01*
X161687700Y-78710091D01*
X161722186Y-78684198D01*
X161962244Y-78503958D01*
X161962248Y-78503955D01*
X161965151Y-78501775D01*
X162216819Y-78262950D01*
X162439370Y-77996783D01*
X162442722Y-77991681D01*
X162581034Y-77781119D01*
X162629853Y-77706799D01*
X162733671Y-77500380D01*
X162784117Y-77400080D01*
X162784120Y-77400072D01*
X162785744Y-77396844D01*
X162810649Y-77328789D01*
X162903729Y-77074437D01*
X162903730Y-77074433D01*
X162904977Y-77071026D01*
X162905822Y-77067504D01*
X162905825Y-77067496D01*
X162985124Y-76737191D01*
X162985125Y-76737187D01*
X162985971Y-76733662D01*
X163012542Y-76514091D01*
X163027316Y-76392004D01*
X163027316Y-76391997D01*
X163027652Y-76389225D01*
X163033599Y-76200000D01*
X163029488Y-76128701D01*
X163013836Y-75857246D01*
X163013835Y-75857241D01*
X163013627Y-75853626D01*
X162989069Y-75712916D01*
X162954600Y-75515415D01*
X162954598Y-75515408D01*
X162953976Y-75511842D01*
X162949204Y-75495730D01*
X162909742Y-75362511D01*
X162855437Y-75179180D01*
X162850963Y-75168691D01*
X162720740Y-74863386D01*
X162720738Y-74863383D01*
X162719316Y-74860048D01*
X162669569Y-74772831D01*
X162549208Y-74561816D01*
X162547417Y-74558676D01*
X162540763Y-74549617D01*
X162418532Y-74383221D01*
X162342018Y-74279060D01*
X162321470Y-74256947D01*
X162108309Y-74027559D01*
X162105842Y-74024904D01*
X161842019Y-73799578D01*
X161554047Y-73606069D01*
X161245741Y-73446940D01*
X160921189Y-73324302D01*
X160917668Y-73323418D01*
X160917663Y-73323416D01*
X160756378Y-73282904D01*
X160584692Y-73239780D01*
X160562476Y-73236855D01*
X160244315Y-73194968D01*
X160244307Y-73194967D01*
X160240711Y-73194494D01*
X160096045Y-73192221D01*
X159897446Y-73189101D01*
X159897442Y-73189101D01*
X159893804Y-73189044D01*
X159890190Y-73189405D01*
X159890184Y-73189405D01*
X159646843Y-73213694D01*
X159548569Y-73223503D01*
X159209583Y-73297414D01*
X159206156Y-73298587D01*
X159206150Y-73298589D01*
X159127296Y-73325587D01*
X158881339Y-73409797D01*
X158568188Y-73559163D01*
X158274279Y-73743532D01*
X158271443Y-73745804D01*
X158271436Y-73745809D01*
X158125002Y-73863125D01*
X158003509Y-73960459D01*
X157759466Y-74207071D01*
X157757225Y-74209929D01*
X157573316Y-74444478D01*
X157545386Y-74480098D01*
X157543493Y-74483187D01*
X157543491Y-74483190D01*
X157497233Y-74558676D01*
X157364105Y-74775921D01*
X157362580Y-74779206D01*
X157362578Y-74779210D01*
X157323505Y-74863386D01*
X157218027Y-75090620D01*
X157166942Y-75245086D01*
X157119012Y-75390014D01*
X157109087Y-75420023D01*
X157108351Y-75423578D01*
X157108350Y-75423581D01*
X157039465Y-75756214D01*
X157038730Y-75759764D01*
X157007888Y-76105341D01*
X154105520Y-76105341D01*
X153970759Y-76042501D01*
X153970758Y-76042500D01*
X153965777Y-76040178D01*
X153960469Y-76038756D01*
X153960467Y-76038755D01*
X153763457Y-75985966D01*
X153763455Y-75985966D01*
X153758142Y-75984542D01*
X153544000Y-75965807D01*
X153329858Y-75984542D01*
X153324545Y-75985966D01*
X153324543Y-75985966D01*
X153127533Y-76038755D01*
X153127531Y-76038756D01*
X153122223Y-76040178D01*
X153117242Y-76042500D01*
X153117241Y-76042501D01*
X153093236Y-76053695D01*
X153039986Y-76065500D01*
X152128136Y-76065500D01*
X152060015Y-76045498D01*
X152013522Y-75991842D01*
X152002616Y-75950482D01*
X152000625Y-75927728D01*
X152000624Y-75927720D01*
X152000087Y-75921587D01*
X151998600Y-75916468D01*
X151998080Y-75911167D01*
X151971209Y-75822166D01*
X151970874Y-75821033D01*
X151946630Y-75737586D01*
X151946628Y-75737582D01*
X151944909Y-75731664D01*
X151942456Y-75726932D01*
X151940916Y-75721831D01*
X151913469Y-75670209D01*
X151897269Y-75639740D01*
X151896657Y-75638574D01*
X151856729Y-75561547D01*
X151853892Y-75556074D01*
X151850569Y-75551911D01*
X151848066Y-75547204D01*
X151789245Y-75475082D01*
X151788554Y-75474226D01*
X151757262Y-75435027D01*
X151754758Y-75432523D01*
X151754116Y-75431805D01*
X151750415Y-75427472D01*
X151723065Y-75393938D01*
X151687733Y-75364709D01*
X151678963Y-75356728D01*
X150871851Y-74549617D01*
X150862749Y-74539473D01*
X150842897Y-74514782D01*
X150839032Y-74509975D01*
X150800578Y-74477708D01*
X150796931Y-74474528D01*
X150795119Y-74472885D01*
X150792925Y-74470691D01*
X150759651Y-74443358D01*
X150758853Y-74442696D01*
X150687526Y-74382846D01*
X150682856Y-74380278D01*
X150678739Y-74376897D01*
X150596914Y-74333023D01*
X150595755Y-74332394D01*
X150519619Y-74290538D01*
X150519611Y-74290535D01*
X150514213Y-74287567D01*
X150509131Y-74285955D01*
X150504437Y-74283438D01*
X150415469Y-74256238D01*
X150414441Y-74255918D01*
X150325694Y-74227765D01*
X150320398Y-74227171D01*
X150315302Y-74225613D01*
X150222743Y-74216210D01*
X150221607Y-74216089D01*
X150187992Y-74212319D01*
X150175270Y-74210892D01*
X150175266Y-74210892D01*
X150171773Y-74210500D01*
X150168246Y-74210500D01*
X150167261Y-74210445D01*
X150161581Y-74209998D01*
X150132175Y-74207011D01*
X150124663Y-74206248D01*
X150124661Y-74206248D01*
X150118538Y-74205626D01*
X150076259Y-74209623D01*
X150072891Y-74209941D01*
X150061033Y-74210500D01*
X145985840Y-74210500D01*
X145972232Y-74209763D01*
X145940736Y-74206341D01*
X145940732Y-74206341D01*
X145934611Y-74205676D01*
X145918666Y-74207071D01*
X145884609Y-74210050D01*
X145879784Y-74210379D01*
X145877313Y-74210500D01*
X145874231Y-74210500D01*
X145851763Y-74212703D01*
X145831489Y-74214691D01*
X145830174Y-74214813D01*
X145797913Y-74217636D01*
X145737587Y-74222913D01*
X145732468Y-74224400D01*
X145727167Y-74224920D01*
X145638133Y-74251801D01*
X145637000Y-74252136D01*
X145553578Y-74276373D01*
X145553574Y-74276375D01*
X145547663Y-74278092D01*
X145542934Y-74280543D01*
X145537831Y-74282084D01*
X145455669Y-74325770D01*
X145454627Y-74326317D01*
X145441690Y-74333023D01*
X145372074Y-74369108D01*
X145367911Y-74372431D01*
X145363204Y-74374934D01*
X145358430Y-74378828D01*
X145358428Y-74378829D01*
X145291105Y-74433737D01*
X145290160Y-74434500D01*
X145251027Y-74465739D01*
X145248536Y-74468230D01*
X145247809Y-74468880D01*
X145243463Y-74472592D01*
X145230469Y-74483190D01*
X145209938Y-74499935D01*
X145206015Y-74504677D01*
X145206013Y-74504679D01*
X145180703Y-74535273D01*
X145172713Y-74544053D01*
X144746621Y-74970145D01*
X144736478Y-74979247D01*
X144706975Y-75002968D01*
X144674709Y-75041421D01*
X144671528Y-75045069D01*
X144669885Y-75046881D01*
X144667691Y-75049075D01*
X144640358Y-75082349D01*
X144639696Y-75083147D01*
X144579846Y-75154474D01*
X144577278Y-75159144D01*
X144573897Y-75163261D01*
X144542860Y-75221145D01*
X144530023Y-75245086D01*
X144529394Y-75246245D01*
X144487538Y-75322381D01*
X144487535Y-75322389D01*
X144484567Y-75327787D01*
X144482955Y-75332869D01*
X144480438Y-75337563D01*
X144453238Y-75426531D01*
X144452952Y-75427450D01*
X144424765Y-75516306D01*
X144424171Y-75521602D01*
X144422613Y-75526698D01*
X144419073Y-75561547D01*
X144414083Y-75610671D01*
X144391942Y-75670207D01*
X144278477Y-75832251D01*
X144276154Y-75837233D01*
X144276151Y-75837238D01*
X144203753Y-75992498D01*
X144181716Y-76039757D01*
X144180294Y-76045065D01*
X144180293Y-76045067D01*
X144139528Y-76197204D01*
X144122457Y-76260913D01*
X144102502Y-76489000D01*
X136569498Y-76489000D01*
X136549543Y-76260913D01*
X136532472Y-76197204D01*
X136491707Y-76045067D01*
X136491706Y-76045065D01*
X136490284Y-76039757D01*
X136468247Y-75992498D01*
X136395849Y-75837238D01*
X136395846Y-75837233D01*
X136393523Y-75832251D01*
X136312395Y-75716388D01*
X136265357Y-75649211D01*
X136265355Y-75649208D01*
X136262198Y-75644700D01*
X136100300Y-75482802D01*
X136095792Y-75479645D01*
X136095789Y-75479643D01*
X135967785Y-75390014D01*
X135912749Y-75351477D01*
X135907767Y-75349154D01*
X135907762Y-75349151D01*
X135710225Y-75257039D01*
X135710224Y-75257039D01*
X135705243Y-75254716D01*
X135699935Y-75253294D01*
X135699933Y-75253293D01*
X135489402Y-75196881D01*
X135489400Y-75196881D01*
X135484087Y-75195457D01*
X135256000Y-75175502D01*
X135027913Y-75195457D01*
X135022600Y-75196881D01*
X135022598Y-75196881D01*
X134812067Y-75253293D01*
X134812065Y-75253294D01*
X134806757Y-75254716D01*
X134801776Y-75257039D01*
X134801775Y-75257039D01*
X134604238Y-75349151D01*
X134604233Y-75349154D01*
X134599251Y-75351477D01*
X134456708Y-75451287D01*
X134447531Y-75457713D01*
X134375260Y-75480500D01*
X129475842Y-75480500D01*
X129462235Y-75479763D01*
X129430737Y-75476341D01*
X129430732Y-75476341D01*
X129424611Y-75475676D01*
X129406611Y-75477251D01*
X129374609Y-75480050D01*
X129369784Y-75480379D01*
X129367313Y-75480500D01*
X129364231Y-75480500D01*
X129341763Y-75482703D01*
X129321489Y-75484691D01*
X129320174Y-75484813D01*
X129287913Y-75487636D01*
X129227587Y-75492913D01*
X129222468Y-75494400D01*
X129217167Y-75494920D01*
X129128194Y-75521782D01*
X129127054Y-75522120D01*
X129037663Y-75548091D01*
X129032929Y-75550545D01*
X129027831Y-75552084D01*
X129022387Y-75554978D01*
X129022386Y-75554979D01*
X128945831Y-75595684D01*
X128944663Y-75596298D01*
X128862074Y-75639108D01*
X128857911Y-75642431D01*
X128853204Y-75644934D01*
X128781082Y-75703755D01*
X128780226Y-75704446D01*
X128741027Y-75735738D01*
X128738523Y-75738242D01*
X128737805Y-75738884D01*
X128733472Y-75742585D01*
X128699938Y-75769935D01*
X128696011Y-75774682D01*
X128696009Y-75774684D01*
X128670713Y-75805262D01*
X128662723Y-75814042D01*
X126589621Y-77887145D01*
X126579478Y-77896247D01*
X126549975Y-77919968D01*
X126546008Y-77924696D01*
X126517709Y-77958421D01*
X126514528Y-77962069D01*
X126512885Y-77963881D01*
X126510691Y-77966075D01*
X126483358Y-77999349D01*
X126482696Y-78000147D01*
X126422846Y-78071474D01*
X126420278Y-78076144D01*
X126416897Y-78080261D01*
X126385860Y-78138145D01*
X126373023Y-78162086D01*
X126372394Y-78163245D01*
X126330538Y-78239381D01*
X126330535Y-78239389D01*
X126327567Y-78244787D01*
X126325955Y-78249869D01*
X126323438Y-78254563D01*
X126296238Y-78343531D01*
X126295918Y-78344559D01*
X126267765Y-78433306D01*
X126267171Y-78438602D01*
X126265613Y-78443698D01*
X126259714Y-78501775D01*
X126256218Y-78536187D01*
X126256089Y-78537393D01*
X126250500Y-78587227D01*
X126250500Y-78590754D01*
X126250445Y-78591739D01*
X126249998Y-78597419D01*
X126245626Y-78640462D01*
X126246206Y-78646593D01*
X126249941Y-78686109D01*
X126250500Y-78697967D01*
X126250500Y-82366087D01*
X126230498Y-82434208D01*
X126176842Y-82480701D01*
X126106568Y-82490805D01*
X126041988Y-82461311D01*
X126010305Y-82419337D01*
X125961414Y-82314489D01*
X125955931Y-82304994D01*
X125919491Y-82252952D01*
X125909012Y-82244576D01*
X125895566Y-82251644D01*
X125194022Y-82953188D01*
X125186408Y-82967132D01*
X125186539Y-82968965D01*
X125190790Y-82975580D01*
X125896287Y-83681077D01*
X125908062Y-83687507D01*
X125920077Y-83678211D01*
X125955931Y-83627006D01*
X125961414Y-83617511D01*
X126010305Y-83512663D01*
X126057222Y-83459378D01*
X126125500Y-83439917D01*
X126193460Y-83460459D01*
X126239525Y-83514482D01*
X126250500Y-83565913D01*
X126250500Y-86759260D01*
X126227713Y-86831531D01*
X126121477Y-86983251D01*
X126119154Y-86988233D01*
X126119151Y-86988238D01*
X126103195Y-87022457D01*
X126056278Y-87075742D01*
X125988001Y-87095203D01*
X125920041Y-87074661D01*
X125874805Y-87022457D01*
X125858849Y-86988238D01*
X125858846Y-86988233D01*
X125856523Y-86983251D01*
X125725198Y-86795700D01*
X125563300Y-86633802D01*
X125558792Y-86630645D01*
X125558789Y-86630643D01*
X125458814Y-86560640D01*
X125375749Y-86502477D01*
X125370767Y-86500154D01*
X125370762Y-86500151D01*
X125173225Y-86408039D01*
X125173224Y-86408039D01*
X125168243Y-86405716D01*
X125162935Y-86404294D01*
X125162933Y-86404293D01*
X124952402Y-86347881D01*
X124952400Y-86347881D01*
X124947087Y-86346457D01*
X124719000Y-86326502D01*
X124490913Y-86346457D01*
X124485600Y-86347881D01*
X124485598Y-86347881D01*
X124275067Y-86404293D01*
X124275065Y-86404294D01*
X124269757Y-86405716D01*
X124264776Y-86408039D01*
X124264775Y-86408039D01*
X124067238Y-86500151D01*
X124067233Y-86500154D01*
X124062251Y-86502477D01*
X123979186Y-86560640D01*
X123879211Y-86630643D01*
X123879208Y-86630645D01*
X123874700Y-86633802D01*
X123712802Y-86795700D01*
X123709645Y-86800208D01*
X123709643Y-86800211D01*
X123684713Y-86835815D01*
X123629256Y-86880143D01*
X123558636Y-86887452D01*
X123495276Y-86855421D01*
X123459291Y-86794220D01*
X123455500Y-86763544D01*
X123455500Y-84052062D01*
X124100493Y-84052062D01*
X124109789Y-84064077D01*
X124160994Y-84099931D01*
X124170489Y-84105414D01*
X124367947Y-84197490D01*
X124378239Y-84201236D01*
X124588688Y-84257625D01*
X124599481Y-84259528D01*
X124816525Y-84278517D01*
X124827475Y-84278517D01*
X125044519Y-84259528D01*
X125055312Y-84257625D01*
X125265761Y-84201236D01*
X125276053Y-84197490D01*
X125473511Y-84105414D01*
X125483006Y-84099931D01*
X125535048Y-84063491D01*
X125543424Y-84053012D01*
X125536356Y-84039566D01*
X124834812Y-83338022D01*
X124820868Y-83330408D01*
X124819035Y-83330539D01*
X124812420Y-83334790D01*
X124106923Y-84040287D01*
X124100493Y-84052062D01*
X123455500Y-84052062D01*
X123455500Y-83694424D01*
X123475502Y-83626303D01*
X123529158Y-83579810D01*
X123599432Y-83569706D01*
X123664012Y-83599200D01*
X123683853Y-83623239D01*
X123684912Y-83622498D01*
X123724509Y-83679048D01*
X123734988Y-83687424D01*
X123748434Y-83680356D01*
X124449978Y-82978812D01*
X124457592Y-82964868D01*
X124457461Y-82963035D01*
X124453210Y-82956420D01*
X123747713Y-82250923D01*
X123735938Y-82244493D01*
X123723923Y-82253789D01*
X123688066Y-82304998D01*
X123681409Y-82316528D01*
X123630027Y-82365521D01*
X123560313Y-82378958D01*
X123494402Y-82352571D01*
X123463171Y-82316528D01*
X123461847Y-82314235D01*
X123459523Y-82309251D01*
X123375805Y-82189690D01*
X123331357Y-82126211D01*
X123331355Y-82126208D01*
X123328198Y-82121700D01*
X123166300Y-81959802D01*
X123161792Y-81956645D01*
X123161789Y-81956643D01*
X123057411Y-81883557D01*
X123050886Y-81878988D01*
X124100576Y-81878988D01*
X124107644Y-81892434D01*
X124809188Y-82593978D01*
X124823132Y-82601592D01*
X124824965Y-82601461D01*
X124831580Y-82597210D01*
X125537077Y-81891713D01*
X125543507Y-81879938D01*
X125534211Y-81867923D01*
X125483006Y-81832069D01*
X125473511Y-81826586D01*
X125276053Y-81734510D01*
X125265761Y-81730764D01*
X125055312Y-81674375D01*
X125044519Y-81672472D01*
X124827475Y-81653483D01*
X124816525Y-81653483D01*
X124599481Y-81672472D01*
X124588688Y-81674375D01*
X124378239Y-81730764D01*
X124367947Y-81734510D01*
X124170489Y-81826586D01*
X124160994Y-81832069D01*
X124108952Y-81868509D01*
X124100576Y-81878988D01*
X123050886Y-81878988D01*
X122978749Y-81828477D01*
X122973767Y-81826154D01*
X122973762Y-81826151D01*
X122776225Y-81734039D01*
X122776224Y-81734039D01*
X122771243Y-81731716D01*
X122765935Y-81730294D01*
X122765933Y-81730293D01*
X122726645Y-81719766D01*
X122693865Y-81710983D01*
X122637382Y-81678371D01*
X120593720Y-79634709D01*
X120586556Y-79626224D01*
X120586343Y-79626408D01*
X120582428Y-79621872D01*
X120578957Y-79616979D01*
X120510447Y-79551395D01*
X120508483Y-79549472D01*
X120480293Y-79521282D01*
X120474373Y-79516393D01*
X120467479Y-79510261D01*
X120427054Y-79471563D01*
X120427050Y-79471560D01*
X120422715Y-79467410D01*
X120417676Y-79464157D01*
X120417673Y-79464154D01*
X120393800Y-79448740D01*
X120381916Y-79440042D01*
X120359997Y-79421941D01*
X120359998Y-79421941D01*
X120355375Y-79418124D01*
X120300981Y-79388406D01*
X120293061Y-79383693D01*
X120246054Y-79353341D01*
X120246050Y-79353339D01*
X120241009Y-79350084D01*
X120209080Y-79337216D01*
X120195778Y-79330928D01*
X120170829Y-79317297D01*
X120165565Y-79314421D01*
X120159860Y-79312595D01*
X120159858Y-79312594D01*
X120133747Y-79304236D01*
X120106545Y-79295529D01*
X120097865Y-79292395D01*
X120045959Y-79271476D01*
X120040396Y-79269234D01*
X120034510Y-79268084D01*
X120034508Y-79268084D01*
X120006615Y-79262637D01*
X119992351Y-79258975D01*
X119965273Y-79250307D01*
X119965271Y-79250307D01*
X119959568Y-79248481D01*
X119953619Y-79247766D01*
X119953613Y-79247765D01*
X119898045Y-79241089D01*
X119888925Y-79239653D01*
X119845565Y-79231186D01*
X119828113Y-79227778D01*
X119822429Y-79227500D01*
X119792455Y-79227500D01*
X119777427Y-79226601D01*
X119750767Y-79223398D01*
X119750763Y-79223398D01*
X119744820Y-79222684D01*
X119738844Y-79223107D01*
X119738841Y-79223107D01*
X119681249Y-79227185D01*
X119672350Y-79227500D01*
X113969829Y-79227500D01*
X113901708Y-79207498D01*
X113883496Y-79193274D01*
X113737690Y-79056113D01*
X113737686Y-79056109D01*
X113734276Y-79052902D01*
X113570013Y-78938949D01*
X113533130Y-78913362D01*
X113533125Y-78913359D01*
X113529292Y-78910700D01*
X113525110Y-78908637D01*
X113525102Y-78908633D01*
X113309728Y-78802423D01*
X113309725Y-78802422D01*
X113305540Y-78800358D01*
X113067937Y-78724300D01*
X113063330Y-78723550D01*
X113063327Y-78723549D01*
X112826312Y-78684949D01*
X112826313Y-78684949D01*
X112821701Y-78684198D01*
X112700753Y-78682615D01*
X112576920Y-78680994D01*
X112576917Y-78680994D01*
X112572243Y-78680933D01*
X112325042Y-78714575D01*
X112320556Y-78715883D01*
X112320554Y-78715883D01*
X112291677Y-78724300D01*
X112085528Y-78784387D01*
X111858965Y-78888834D01*
X111855056Y-78891397D01*
X111654242Y-79023056D01*
X111654237Y-79023060D01*
X111650329Y-79025622D01*
X111646837Y-79028739D01*
X111494505Y-79164700D01*
X111464202Y-79191746D01*
X111304675Y-79383557D01*
X111175252Y-79596840D01*
X111173443Y-79601154D01*
X111173442Y-79601156D01*
X111100615Y-79774829D01*
X111078775Y-79826911D01*
X111077624Y-79831443D01*
X111077623Y-79831446D01*
X111069930Y-79861738D01*
X111017365Y-80068714D01*
X110992370Y-80316939D01*
X110992594Y-80321606D01*
X110992594Y-80321611D01*
X110995533Y-80382788D01*
X111004339Y-80566131D01*
X111053010Y-80810818D01*
X111137314Y-81045622D01*
X111255398Y-81265386D01*
X111258194Y-81269130D01*
X111258197Y-81269135D01*
X111260656Y-81272428D01*
X111285386Y-81338978D01*
X111270210Y-81408334D01*
X111219947Y-81458475D01*
X111150555Y-81473482D01*
X111087876Y-81451341D01*
X111033132Y-81413364D01*
X111029292Y-81410700D01*
X111025110Y-81408637D01*
X111025102Y-81408633D01*
X110809728Y-81302423D01*
X110809725Y-81302422D01*
X110805540Y-81300358D01*
X110567937Y-81224300D01*
X110563330Y-81223550D01*
X110563327Y-81223549D01*
X110326312Y-81184949D01*
X110326313Y-81184949D01*
X110321701Y-81184198D01*
X110200753Y-81182615D01*
X110076920Y-81180994D01*
X110076917Y-81180994D01*
X110072243Y-81180933D01*
X109825042Y-81214575D01*
X109820556Y-81215883D01*
X109820554Y-81215883D01*
X109791677Y-81224300D01*
X109585528Y-81284387D01*
X109358965Y-81388834D01*
X109355056Y-81391397D01*
X109154242Y-81523056D01*
X109154237Y-81523060D01*
X109150329Y-81525622D01*
X109076393Y-81591612D01*
X108983665Y-81674375D01*
X108964202Y-81691746D01*
X108804675Y-81883557D01*
X108675252Y-82096840D01*
X108673443Y-82101154D01*
X108673442Y-82101156D01*
X108586365Y-82308812D01*
X108578775Y-82326911D01*
X108577624Y-82331443D01*
X108577623Y-82331446D01*
X108563691Y-82386305D01*
X108517365Y-82568714D01*
X108492370Y-82816939D01*
X108492594Y-82821606D01*
X108492594Y-82821611D01*
X108494554Y-82862411D01*
X108504339Y-83066131D01*
X108553010Y-83310818D01*
X108637314Y-83545622D01*
X108755398Y-83765386D01*
X108758193Y-83769130D01*
X108758195Y-83769132D01*
X108779649Y-83797862D01*
X108904668Y-83965283D01*
X109030660Y-84090181D01*
X109064206Y-84123436D01*
X109098503Y-84185599D01*
X109101500Y-84212919D01*
X109101500Y-84301157D01*
X109100763Y-84314764D01*
X109099638Y-84325124D01*
X109096676Y-84352388D01*
X109097213Y-84358523D01*
X109101050Y-84402388D01*
X109101379Y-84407214D01*
X109101500Y-84409686D01*
X109101500Y-84412769D01*
X109101893Y-84416775D01*
X109105690Y-84455506D01*
X109105812Y-84456819D01*
X109108730Y-84490169D01*
X109113913Y-84549413D01*
X109115400Y-84554532D01*
X109115920Y-84559833D01*
X109142791Y-84648834D01*
X109143126Y-84649967D01*
X109166893Y-84731769D01*
X109169091Y-84739336D01*
X109171544Y-84744068D01*
X109173084Y-84749169D01*
X109175978Y-84754612D01*
X109216731Y-84831260D01*
X109217343Y-84832426D01*
X109249730Y-84894906D01*
X109260108Y-84914926D01*
X109263431Y-84919089D01*
X109265934Y-84923796D01*
X109324755Y-84995918D01*
X109325446Y-84996774D01*
X109356738Y-85035973D01*
X109359242Y-85038477D01*
X109359884Y-85039195D01*
X109363585Y-85043528D01*
X109390935Y-85077062D01*
X109426267Y-85106291D01*
X109435037Y-85114272D01*
X110242149Y-85921383D01*
X110251251Y-85931527D01*
X110265592Y-85949363D01*
X110274968Y-85961025D01*
X110279696Y-85964992D01*
X110313421Y-85993291D01*
X110317069Y-85996472D01*
X110318881Y-85998115D01*
X110321075Y-86000309D01*
X110354349Y-86027642D01*
X110355147Y-86028304D01*
X110426474Y-86088154D01*
X110431144Y-86090722D01*
X110435261Y-86094103D01*
X110487323Y-86122018D01*
X110517086Y-86137977D01*
X110518245Y-86138606D01*
X110594381Y-86180462D01*
X110594389Y-86180465D01*
X110599787Y-86183433D01*
X110604869Y-86185045D01*
X110609563Y-86187562D01*
X110615454Y-86189363D01*
X110698477Y-86214747D01*
X110699735Y-86215139D01*
X110788306Y-86243235D01*
X110793597Y-86243829D01*
X110798698Y-86245388D01*
X110891263Y-86254790D01*
X110892450Y-86254916D01*
X110921838Y-86258213D01*
X110938730Y-86260108D01*
X110938735Y-86260108D01*
X110942227Y-86260500D01*
X110945752Y-86260500D01*
X110946737Y-86260555D01*
X110952432Y-86261003D01*
X110964342Y-86262213D01*
X110989334Y-86264752D01*
X110989339Y-86264752D01*
X110995462Y-86265374D01*
X111041108Y-86261059D01*
X111052967Y-86260500D01*
X116394006Y-86260500D01*
X116462127Y-86280502D01*
X116508620Y-86334158D01*
X116518724Y-86404432D01*
X116489230Y-86469012D01*
X116451886Y-86497200D01*
X116452253Y-86497836D01*
X116437993Y-86506069D01*
X116259533Y-86631028D01*
X116251125Y-86638084D01*
X116097084Y-86792125D01*
X116090028Y-86800533D01*
X115965069Y-86978993D01*
X115959586Y-86988489D01*
X115867510Y-87185947D01*
X115863764Y-87196239D01*
X115817606Y-87368503D01*
X115817942Y-87382599D01*
X115825884Y-87386000D01*
X117227000Y-87386000D01*
X117295121Y-87406002D01*
X117341614Y-87459658D01*
X117353000Y-87512000D01*
X117353000Y-88907967D01*
X117356973Y-88921498D01*
X117365522Y-88922727D01*
X117542761Y-88875236D01*
X117553053Y-88871490D01*
X117750511Y-88779414D01*
X117760007Y-88773931D01*
X117938467Y-88648972D01*
X117946875Y-88641916D01*
X118100916Y-88487875D01*
X118107972Y-88479467D01*
X118232931Y-88301007D01*
X118238414Y-88291511D01*
X118254529Y-88256951D01*
X118301446Y-88203666D01*
X118369723Y-88184205D01*
X118437683Y-88204747D01*
X118482919Y-88256951D01*
X118499151Y-88291762D01*
X118499154Y-88291767D01*
X118501477Y-88296749D01*
X118632802Y-88484300D01*
X118794700Y-88646198D01*
X118799208Y-88649355D01*
X118799211Y-88649357D01*
X118840542Y-88678297D01*
X118982251Y-88777523D01*
X118987233Y-88779846D01*
X118987238Y-88779849D01*
X119137840Y-88850075D01*
X119189757Y-88874284D01*
X119195065Y-88875706D01*
X119195067Y-88875707D01*
X119405598Y-88932119D01*
X119405600Y-88932119D01*
X119410913Y-88933543D01*
X119639000Y-88953498D01*
X119867087Y-88933543D01*
X119872400Y-88932119D01*
X119872402Y-88932119D01*
X120082933Y-88875707D01*
X120082935Y-88875706D01*
X120088243Y-88874284D01*
X120140160Y-88850075D01*
X120290762Y-88779849D01*
X120290767Y-88779846D01*
X120295749Y-88777523D01*
X120437458Y-88678297D01*
X120478789Y-88649357D01*
X120478792Y-88649355D01*
X120483300Y-88646198D01*
X120645198Y-88484300D01*
X120776523Y-88296749D01*
X120778846Y-88291767D01*
X120778849Y-88291762D01*
X120794805Y-88257543D01*
X120841722Y-88204258D01*
X120909999Y-88184797D01*
X120977959Y-88205339D01*
X121023195Y-88257543D01*
X121039151Y-88291762D01*
X121039154Y-88291767D01*
X121041477Y-88296749D01*
X121172802Y-88484300D01*
X121334700Y-88646198D01*
X121339208Y-88649355D01*
X121339211Y-88649357D01*
X121380542Y-88678297D01*
X121522251Y-88777523D01*
X121527233Y-88779846D01*
X121527238Y-88779849D01*
X121677840Y-88850075D01*
X121729757Y-88874284D01*
X121735065Y-88875706D01*
X121735067Y-88875707D01*
X121945598Y-88932119D01*
X121945600Y-88932119D01*
X121950913Y-88933543D01*
X122179000Y-88953498D01*
X122407087Y-88933543D01*
X122412400Y-88932119D01*
X122412402Y-88932119D01*
X122622933Y-88875707D01*
X122622935Y-88875706D01*
X122628243Y-88874284D01*
X122680160Y-88850075D01*
X122830762Y-88779849D01*
X122830767Y-88779846D01*
X122835749Y-88777523D01*
X122977458Y-88678297D01*
X123018789Y-88649357D01*
X123018792Y-88649355D01*
X123023300Y-88646198D01*
X123185198Y-88484300D01*
X123316523Y-88296749D01*
X123318846Y-88291767D01*
X123318849Y-88291762D01*
X123334805Y-88257543D01*
X123381722Y-88204258D01*
X123449999Y-88184797D01*
X123517959Y-88205339D01*
X123563195Y-88257543D01*
X123579151Y-88291762D01*
X123579154Y-88291767D01*
X123581477Y-88296749D01*
X123644327Y-88386507D01*
X123687713Y-88448469D01*
X123710500Y-88520740D01*
X123710500Y-89217336D01*
X123709763Y-89230943D01*
X123701676Y-89305388D01*
X123701985Y-89308924D01*
X123701626Y-89312462D01*
X123702205Y-89318587D01*
X123702205Y-89318588D01*
X123710560Y-89406970D01*
X123710640Y-89407847D01*
X123718913Y-89502413D01*
X123719905Y-89505827D01*
X123720239Y-89509362D01*
X123722001Y-89515272D01*
X123722001Y-89515273D01*
X123747349Y-89600304D01*
X123747597Y-89601146D01*
X123774091Y-89692336D01*
X123775725Y-89695489D01*
X123776741Y-89698896D01*
X123779617Y-89704350D01*
X123779619Y-89704356D01*
X123821012Y-89782865D01*
X123821392Y-89783590D01*
X123865108Y-89867926D01*
X123867325Y-89870703D01*
X123868982Y-89873846D01*
X123928749Y-89947652D01*
X123929146Y-89948146D01*
X123959536Y-89986215D01*
X123961738Y-89988973D01*
X123963558Y-89990793D01*
X123966150Y-89993839D01*
X123978251Y-90008782D01*
X123993447Y-90027547D01*
X123998182Y-90031492D01*
X124030208Y-90058175D01*
X124038649Y-90065884D01*
X125355145Y-91382379D01*
X125364247Y-91392522D01*
X125387968Y-91422025D01*
X125426456Y-91454320D01*
X125430075Y-91457478D01*
X125431890Y-91459124D01*
X125434075Y-91461309D01*
X125436455Y-91463264D01*
X125436465Y-91463273D01*
X125467236Y-91488549D01*
X125468251Y-91489391D01*
X125539474Y-91549154D01*
X125544148Y-91551723D01*
X125548261Y-91555102D01*
X125553698Y-91558017D01*
X125553699Y-91558018D01*
X125630047Y-91598955D01*
X125631177Y-91599568D01*
X125712787Y-91644433D01*
X125717869Y-91646045D01*
X125722563Y-91648562D01*
X125811531Y-91675762D01*
X125812559Y-91676082D01*
X125901306Y-91704235D01*
X125906602Y-91704829D01*
X125911698Y-91706387D01*
X126004257Y-91715790D01*
X126005393Y-91715911D01*
X126039008Y-91719681D01*
X126051730Y-91721108D01*
X126051734Y-91721108D01*
X126055227Y-91721500D01*
X126058754Y-91721500D01*
X126059739Y-91721555D01*
X126065419Y-91722002D01*
X126094825Y-91724989D01*
X126102337Y-91725752D01*
X126102339Y-91725752D01*
X126108462Y-91726374D01*
X126154108Y-91722059D01*
X126165967Y-91721500D01*
X135645500Y-91721500D01*
X135713621Y-91741502D01*
X135760114Y-91795158D01*
X135771500Y-91847500D01*
X135771500Y-94468979D01*
X135759695Y-94522228D01*
X135724593Y-94597506D01*
X135703632Y-94642458D01*
X135672716Y-94708757D01*
X135671294Y-94714065D01*
X135671293Y-94714067D01*
X135623756Y-94891478D01*
X135613457Y-94929913D01*
X135593502Y-95158000D01*
X135613457Y-95386087D01*
X135614881Y-95391400D01*
X135614881Y-95391402D01*
X135639320Y-95482607D01*
X135672716Y-95607243D01*
X135675039Y-95612224D01*
X135675039Y-95612225D01*
X135767151Y-95809762D01*
X135767154Y-95809767D01*
X135769477Y-95814749D01*
X135813446Y-95877543D01*
X135875713Y-95966469D01*
X135898500Y-96038740D01*
X135898500Y-96339076D01*
X135878498Y-96407197D01*
X135861595Y-96428171D01*
X135418171Y-96871595D01*
X135355859Y-96905621D01*
X135329076Y-96908500D01*
X134845740Y-96908500D01*
X134773469Y-96885713D01*
X134653245Y-96801531D01*
X134621749Y-96779477D01*
X134616767Y-96777154D01*
X134616762Y-96777151D01*
X134419225Y-96685039D01*
X134419224Y-96685039D01*
X134414243Y-96682716D01*
X134408935Y-96681294D01*
X134408933Y-96681293D01*
X134198402Y-96624881D01*
X134198400Y-96624881D01*
X134193087Y-96623457D01*
X133965000Y-96603502D01*
X133736913Y-96623457D01*
X133731600Y-96624881D01*
X133731598Y-96624881D01*
X133521067Y-96681293D01*
X133521065Y-96681294D01*
X133515757Y-96682716D01*
X133510776Y-96685039D01*
X133510775Y-96685039D01*
X133313238Y-96777151D01*
X133313233Y-96777154D01*
X133308251Y-96779477D01*
X133276755Y-96801531D01*
X133125211Y-96907643D01*
X133125208Y-96907645D01*
X133120700Y-96910802D01*
X132958802Y-97072700D01*
X132827477Y-97260251D01*
X132825154Y-97265233D01*
X132824118Y-97267027D01*
X132772734Y-97316019D01*
X132703021Y-97329454D01*
X132637110Y-97303066D01*
X132605882Y-97267027D01*
X132604846Y-97265233D01*
X132602523Y-97260251D01*
X132471198Y-97072700D01*
X132309300Y-96910802D01*
X132304792Y-96907645D01*
X132304789Y-96907643D01*
X132153245Y-96801531D01*
X132139752Y-96792083D01*
X132095425Y-96736627D01*
X132088116Y-96666008D01*
X132120147Y-96602647D01*
X132181348Y-96566662D01*
X132223005Y-96563350D01*
X132333524Y-96573019D01*
X132333525Y-96573019D01*
X132339000Y-96573498D01*
X132567087Y-96553543D01*
X132572400Y-96552119D01*
X132572402Y-96552119D01*
X132782933Y-96495707D01*
X132782935Y-96495706D01*
X132788243Y-96494284D01*
X132880254Y-96451379D01*
X132990762Y-96399849D01*
X132990767Y-96399846D01*
X132995749Y-96397523D01*
X133146550Y-96291931D01*
X133178789Y-96269357D01*
X133178792Y-96269355D01*
X133183300Y-96266198D01*
X133345198Y-96104300D01*
X133476523Y-95916749D01*
X133478846Y-95911767D01*
X133478849Y-95911762D01*
X133570961Y-95714225D01*
X133570961Y-95714224D01*
X133573284Y-95709243D01*
X133632543Y-95488087D01*
X133652498Y-95260000D01*
X133632543Y-95031913D01*
X133609000Y-94944050D01*
X133574707Y-94816067D01*
X133574706Y-94816065D01*
X133573284Y-94810757D01*
X133528727Y-94715203D01*
X133478849Y-94608238D01*
X133478846Y-94608233D01*
X133476523Y-94603251D01*
X133389858Y-94479481D01*
X133348357Y-94420211D01*
X133348355Y-94420208D01*
X133345198Y-94415700D01*
X133183300Y-94253802D01*
X133178792Y-94250645D01*
X133178789Y-94250643D01*
X133090756Y-94189002D01*
X132995749Y-94122477D01*
X132990767Y-94120154D01*
X132990762Y-94120151D01*
X132793225Y-94028039D01*
X132793224Y-94028039D01*
X132788243Y-94025716D01*
X132782935Y-94024294D01*
X132782933Y-94024293D01*
X132572402Y-93967881D01*
X132572400Y-93967881D01*
X132567087Y-93966457D01*
X132339000Y-93946502D01*
X132110913Y-93966457D01*
X132105600Y-93967881D01*
X132105598Y-93967881D01*
X131895067Y-94024293D01*
X131895065Y-94024294D01*
X131889757Y-94025716D01*
X131884776Y-94028039D01*
X131884775Y-94028039D01*
X131687238Y-94120151D01*
X131687233Y-94120154D01*
X131682251Y-94122477D01*
X131587244Y-94189002D01*
X131499211Y-94250643D01*
X131499208Y-94250645D01*
X131494700Y-94253802D01*
X131332802Y-94415700D01*
X131329645Y-94420208D01*
X131329643Y-94420211D01*
X131288142Y-94479481D01*
X131201477Y-94603251D01*
X131199154Y-94608233D01*
X131199151Y-94608238D01*
X131183195Y-94642457D01*
X131136278Y-94695742D01*
X131068001Y-94715203D01*
X131000041Y-94694661D01*
X130954805Y-94642457D01*
X130938849Y-94608238D01*
X130938846Y-94608233D01*
X130936523Y-94603251D01*
X130849858Y-94479481D01*
X130808357Y-94420211D01*
X130808355Y-94420208D01*
X130805198Y-94415700D01*
X130643300Y-94253802D01*
X130638792Y-94250645D01*
X130638789Y-94250643D01*
X130550756Y-94189002D01*
X130455749Y-94122477D01*
X130450767Y-94120154D01*
X130450762Y-94120151D01*
X130253225Y-94028039D01*
X130253224Y-94028039D01*
X130248243Y-94025716D01*
X130242935Y-94024294D01*
X130242933Y-94024293D01*
X130032402Y-93967881D01*
X130032400Y-93967881D01*
X130027087Y-93966457D01*
X129799000Y-93946502D01*
X129570913Y-93966457D01*
X129565600Y-93967881D01*
X129565598Y-93967881D01*
X129355067Y-94024293D01*
X129355065Y-94024294D01*
X129349757Y-94025716D01*
X129344776Y-94028039D01*
X129344775Y-94028039D01*
X129147238Y-94120151D01*
X129147233Y-94120154D01*
X129142251Y-94122477D01*
X129047244Y-94189002D01*
X128959211Y-94250643D01*
X128959208Y-94250645D01*
X128954700Y-94253802D01*
X128792802Y-94415700D01*
X128789645Y-94420208D01*
X128789643Y-94420211D01*
X128748142Y-94479481D01*
X128661477Y-94603251D01*
X128659154Y-94608233D01*
X128659151Y-94608238D01*
X128643195Y-94642457D01*
X128596278Y-94695742D01*
X128528001Y-94715203D01*
X128460041Y-94694661D01*
X128414805Y-94642457D01*
X128398849Y-94608238D01*
X128398846Y-94608233D01*
X128396523Y-94603251D01*
X128309858Y-94479481D01*
X128268357Y-94420211D01*
X128268355Y-94420208D01*
X128265198Y-94415700D01*
X128103300Y-94253802D01*
X128098792Y-94250645D01*
X128098789Y-94250643D01*
X128010756Y-94189002D01*
X127915749Y-94122477D01*
X127910767Y-94120154D01*
X127910762Y-94120151D01*
X127713225Y-94028039D01*
X127713224Y-94028039D01*
X127708243Y-94025716D01*
X127702935Y-94024294D01*
X127702933Y-94024293D01*
X127492402Y-93967881D01*
X127492400Y-93967881D01*
X127487087Y-93966457D01*
X127259000Y-93946502D01*
X127030913Y-93966457D01*
X127025600Y-93967881D01*
X127025598Y-93967881D01*
X126815067Y-94024293D01*
X126815065Y-94024294D01*
X126809757Y-94025716D01*
X126804776Y-94028039D01*
X126804775Y-94028039D01*
X126751585Y-94052842D01*
X126626309Y-94111259D01*
X126618940Y-94114695D01*
X126565690Y-94126500D01*
X125978500Y-94126500D01*
X125910379Y-94106498D01*
X125863886Y-94052842D01*
X125852500Y-94000500D01*
X125852500Y-93236367D01*
X125853433Y-93225306D01*
X125853153Y-93225285D01*
X125853592Y-93219312D01*
X125854598Y-93213393D01*
X125852530Y-93118629D01*
X125852500Y-93115881D01*
X125852500Y-93075959D01*
X125851769Y-93068295D01*
X125851231Y-93059094D01*
X125851122Y-93054073D01*
X125849879Y-92997152D01*
X125842635Y-92963505D01*
X125840383Y-92948956D01*
X125837683Y-92920661D01*
X125837113Y-92914685D01*
X125819671Y-92855232D01*
X125817397Y-92846281D01*
X125804356Y-92785705D01*
X125790880Y-92754034D01*
X125785916Y-92740171D01*
X125776226Y-92707140D01*
X125747858Y-92652059D01*
X125743936Y-92643707D01*
X125742209Y-92639647D01*
X125719671Y-92586680D01*
X125700444Y-92558121D01*
X125692948Y-92545446D01*
X125679941Y-92520192D01*
X125677191Y-92514852D01*
X125638917Y-92466126D01*
X125633494Y-92458676D01*
X125601409Y-92411019D01*
X125601407Y-92411017D01*
X125598878Y-92407260D01*
X125595055Y-92403044D01*
X125573862Y-92381851D01*
X125563871Y-92370589D01*
X125547288Y-92349478D01*
X125543583Y-92344761D01*
X125495435Y-92302980D01*
X125488922Y-92296911D01*
X124667720Y-91475709D01*
X124660556Y-91467224D01*
X124660343Y-91467408D01*
X124656428Y-91462872D01*
X124652957Y-91457979D01*
X124584447Y-91392395D01*
X124582483Y-91390472D01*
X124554293Y-91362282D01*
X124548373Y-91357393D01*
X124541479Y-91351261D01*
X124501054Y-91312563D01*
X124501050Y-91312560D01*
X124496715Y-91308410D01*
X124491676Y-91305157D01*
X124491673Y-91305154D01*
X124467800Y-91289740D01*
X124455916Y-91281042D01*
X124433997Y-91262941D01*
X124433998Y-91262941D01*
X124429375Y-91259124D01*
X124374981Y-91229406D01*
X124367061Y-91224693D01*
X124320054Y-91194341D01*
X124320050Y-91194339D01*
X124315009Y-91191084D01*
X124283080Y-91178216D01*
X124269778Y-91171928D01*
X124244829Y-91158297D01*
X124239565Y-91155421D01*
X124233860Y-91153595D01*
X124233858Y-91153594D01*
X124210018Y-91145963D01*
X124180545Y-91136529D01*
X124171865Y-91133395D01*
X124119959Y-91112476D01*
X124114396Y-91110234D01*
X124108510Y-91109084D01*
X124108508Y-91109084D01*
X124080615Y-91103637D01*
X124066351Y-91099975D01*
X124039273Y-91091307D01*
X124039271Y-91091307D01*
X124033568Y-91089481D01*
X124027619Y-91088766D01*
X124027613Y-91088765D01*
X123972045Y-91082089D01*
X123962925Y-91080653D01*
X123919565Y-91072186D01*
X123902113Y-91068778D01*
X123896429Y-91068500D01*
X123866455Y-91068500D01*
X123851427Y-91067601D01*
X123824767Y-91064398D01*
X123824763Y-91064398D01*
X123818820Y-91063684D01*
X123812844Y-91064107D01*
X123812841Y-91064107D01*
X123755249Y-91068185D01*
X123746350Y-91068500D01*
X112707310Y-91068500D01*
X112654060Y-91056695D01*
X112468225Y-90970039D01*
X112468224Y-90970039D01*
X112463243Y-90967716D01*
X112457935Y-90966294D01*
X112457933Y-90966293D01*
X112247402Y-90909881D01*
X112247400Y-90909881D01*
X112242087Y-90908457D01*
X112014000Y-90888502D01*
X111785913Y-90908457D01*
X111780600Y-90909881D01*
X111780598Y-90909881D01*
X111570067Y-90966293D01*
X111570065Y-90966294D01*
X111564757Y-90967716D01*
X111559776Y-90970039D01*
X111559775Y-90970039D01*
X111362238Y-91062151D01*
X111362233Y-91062154D01*
X111357251Y-91064477D01*
X111258826Y-91133395D01*
X111174211Y-91192643D01*
X111174208Y-91192645D01*
X111169700Y-91195802D01*
X111007802Y-91357700D01*
X111004645Y-91362208D01*
X111004643Y-91362211D01*
X110989388Y-91383998D01*
X110876477Y-91545251D01*
X110874154Y-91550233D01*
X110874151Y-91550238D01*
X110782539Y-91746703D01*
X110779716Y-91752757D01*
X110778294Y-91758065D01*
X110778293Y-91758067D01*
X110732597Y-91928605D01*
X110720457Y-91973913D01*
X110700502Y-92202000D01*
X110720457Y-92430087D01*
X110721881Y-92435400D01*
X110721881Y-92435402D01*
X110778244Y-92645748D01*
X110779716Y-92651243D01*
X110782039Y-92656224D01*
X110782039Y-92656225D01*
X110874151Y-92853762D01*
X110874154Y-92853767D01*
X110876477Y-92858749D01*
X110938462Y-92947273D01*
X110989202Y-93019736D01*
X111007802Y-93046300D01*
X111169700Y-93208198D01*
X111174208Y-93211355D01*
X111174211Y-93211357D01*
X111194741Y-93225732D01*
X111357251Y-93339523D01*
X111362235Y-93341847D01*
X111364528Y-93343171D01*
X111413521Y-93394553D01*
X111426957Y-93464267D01*
X111400571Y-93530178D01*
X111364528Y-93561409D01*
X111352998Y-93568066D01*
X111300952Y-93604509D01*
X111292576Y-93614988D01*
X111299644Y-93628434D01*
X112001188Y-94329978D01*
X112015132Y-94337592D01*
X112016965Y-94337461D01*
X112023580Y-94333210D01*
X112729077Y-93627713D01*
X112735507Y-93615938D01*
X112726211Y-93603923D01*
X112670498Y-93564912D01*
X112671979Y-93562797D01*
X112630454Y-93519282D01*
X112616990Y-93449574D01*
X112643350Y-93383652D01*
X112701165Y-93342447D01*
X112742424Y-93335500D01*
X123269299Y-93335500D01*
X123337420Y-93355502D01*
X123358394Y-93372405D01*
X123548595Y-93562606D01*
X123582621Y-93624918D01*
X123585500Y-93651701D01*
X123585500Y-94566690D01*
X123573694Y-94619941D01*
X123563194Y-94642458D01*
X123516277Y-94695742D01*
X123448000Y-94715203D01*
X123380040Y-94694661D01*
X123334805Y-94642457D01*
X123318849Y-94608238D01*
X123318846Y-94608233D01*
X123316523Y-94603251D01*
X123229858Y-94479481D01*
X123188357Y-94420211D01*
X123188355Y-94420208D01*
X123185198Y-94415700D01*
X123023300Y-94253802D01*
X123018792Y-94250645D01*
X123018789Y-94250643D01*
X122930756Y-94189002D01*
X122835749Y-94122477D01*
X122830767Y-94120154D01*
X122830762Y-94120151D01*
X122633225Y-94028039D01*
X122633224Y-94028039D01*
X122628243Y-94025716D01*
X122622935Y-94024294D01*
X122622933Y-94024293D01*
X122412402Y-93967881D01*
X122412400Y-93967881D01*
X122407087Y-93966457D01*
X122179000Y-93946502D01*
X121950913Y-93966457D01*
X121945600Y-93967881D01*
X121945598Y-93967881D01*
X121735067Y-94024293D01*
X121735065Y-94024294D01*
X121729757Y-94025716D01*
X121724776Y-94028039D01*
X121724775Y-94028039D01*
X121527238Y-94120151D01*
X121527233Y-94120154D01*
X121522251Y-94122477D01*
X121427244Y-94189002D01*
X121339211Y-94250643D01*
X121339208Y-94250645D01*
X121334700Y-94253802D01*
X121172802Y-94415700D01*
X121169645Y-94420208D01*
X121169643Y-94420211D01*
X121128142Y-94479481D01*
X121041477Y-94603251D01*
X121039154Y-94608233D01*
X121039151Y-94608238D01*
X121023195Y-94642457D01*
X120976278Y-94695742D01*
X120908001Y-94715203D01*
X120840041Y-94694661D01*
X120794805Y-94642457D01*
X120778849Y-94608238D01*
X120778846Y-94608233D01*
X120776523Y-94603251D01*
X120689858Y-94479481D01*
X120648357Y-94420211D01*
X120648355Y-94420208D01*
X120645198Y-94415700D01*
X120483300Y-94253802D01*
X120478792Y-94250645D01*
X120478789Y-94250643D01*
X120390756Y-94189002D01*
X120295749Y-94122477D01*
X120290767Y-94120154D01*
X120290762Y-94120151D01*
X120093225Y-94028039D01*
X120093224Y-94028039D01*
X120088243Y-94025716D01*
X120082935Y-94024294D01*
X120082933Y-94024293D01*
X119872402Y-93967881D01*
X119872400Y-93967881D01*
X119867087Y-93966457D01*
X119639000Y-93946502D01*
X119410913Y-93966457D01*
X119405600Y-93967881D01*
X119405598Y-93967881D01*
X119195067Y-94024293D01*
X119195065Y-94024294D01*
X119189757Y-94025716D01*
X119184776Y-94028039D01*
X119184775Y-94028039D01*
X118987238Y-94120151D01*
X118987233Y-94120154D01*
X118982251Y-94122477D01*
X118887244Y-94189002D01*
X118799211Y-94250643D01*
X118799208Y-94250645D01*
X118794700Y-94253802D01*
X118632802Y-94415700D01*
X118629645Y-94420208D01*
X118629643Y-94420211D01*
X118588142Y-94479481D01*
X118501477Y-94603251D01*
X118499154Y-94608233D01*
X118499151Y-94608238D01*
X118483195Y-94642457D01*
X118436278Y-94695742D01*
X118368001Y-94715203D01*
X118300041Y-94694661D01*
X118254805Y-94642457D01*
X118238849Y-94608238D01*
X118238846Y-94608233D01*
X118236523Y-94603251D01*
X118149858Y-94479481D01*
X118108357Y-94420211D01*
X118108355Y-94420208D01*
X118105198Y-94415700D01*
X117943300Y-94253802D01*
X117938792Y-94250645D01*
X117938789Y-94250643D01*
X117850756Y-94189002D01*
X117755749Y-94122477D01*
X117750767Y-94120154D01*
X117750762Y-94120151D01*
X117553225Y-94028039D01*
X117553224Y-94028039D01*
X117548243Y-94025716D01*
X117542935Y-94024294D01*
X117542933Y-94024293D01*
X117332402Y-93967881D01*
X117332400Y-93967881D01*
X117327087Y-93966457D01*
X117099000Y-93946502D01*
X116870913Y-93966457D01*
X116865600Y-93967881D01*
X116865598Y-93967881D01*
X116655067Y-94024293D01*
X116655065Y-94024294D01*
X116649757Y-94025716D01*
X116644776Y-94028039D01*
X116644775Y-94028039D01*
X116447238Y-94120151D01*
X116447233Y-94120154D01*
X116442251Y-94122477D01*
X116347244Y-94189002D01*
X116259211Y-94250643D01*
X116259208Y-94250645D01*
X116254700Y-94253802D01*
X116092802Y-94415700D01*
X116089645Y-94420208D01*
X116089643Y-94420211D01*
X116048142Y-94479481D01*
X115961477Y-94603251D01*
X115959154Y-94608233D01*
X115959151Y-94608238D01*
X115909273Y-94715203D01*
X115864716Y-94810757D01*
X115863294Y-94816065D01*
X115863293Y-94816067D01*
X115829000Y-94944050D01*
X115805457Y-95031913D01*
X115785502Y-95260000D01*
X115805457Y-95488087D01*
X115864716Y-95709243D01*
X115867039Y-95714224D01*
X115867039Y-95714225D01*
X115959151Y-95911762D01*
X115959154Y-95911767D01*
X115961477Y-95916749D01*
X116092802Y-96104300D01*
X116254700Y-96266198D01*
X116259208Y-96269355D01*
X116259211Y-96269357D01*
X116291450Y-96291931D01*
X116442251Y-96397523D01*
X116447233Y-96399846D01*
X116447238Y-96399849D01*
X116557746Y-96451379D01*
X116649757Y-96494284D01*
X116655065Y-96495706D01*
X116655067Y-96495707D01*
X116865598Y-96552119D01*
X116865600Y-96552119D01*
X116870913Y-96553543D01*
X117099000Y-96573498D01*
X117327087Y-96553543D01*
X117332400Y-96552119D01*
X117332402Y-96552119D01*
X117542933Y-96495707D01*
X117542935Y-96495706D01*
X117548243Y-96494284D01*
X117640254Y-96451379D01*
X117750762Y-96399849D01*
X117750767Y-96399846D01*
X117755749Y-96397523D01*
X117906550Y-96291931D01*
X117938789Y-96269357D01*
X117938792Y-96269355D01*
X117943300Y-96266198D01*
X118105198Y-96104300D01*
X118236523Y-95916749D01*
X118238846Y-95911767D01*
X118238849Y-95911762D01*
X118254805Y-95877543D01*
X118301722Y-95824258D01*
X118369999Y-95804797D01*
X118437959Y-95825339D01*
X118483195Y-95877543D01*
X118499151Y-95911762D01*
X118499154Y-95911767D01*
X118501477Y-95916749D01*
X118632802Y-96104300D01*
X118794700Y-96266198D01*
X118799208Y-96269355D01*
X118799211Y-96269357D01*
X118831450Y-96291931D01*
X118982251Y-96397523D01*
X118987233Y-96399846D01*
X118987238Y-96399849D01*
X119097746Y-96451379D01*
X119189757Y-96494284D01*
X119195065Y-96495706D01*
X119195067Y-96495707D01*
X119405598Y-96552119D01*
X119405600Y-96552119D01*
X119410913Y-96553543D01*
X119639000Y-96573498D01*
X119867087Y-96553543D01*
X119872400Y-96552119D01*
X119872402Y-96552119D01*
X120082933Y-96495707D01*
X120082935Y-96495706D01*
X120088243Y-96494284D01*
X120180254Y-96451379D01*
X120290762Y-96399849D01*
X120290767Y-96399846D01*
X120295749Y-96397523D01*
X120446550Y-96291931D01*
X120478789Y-96269357D01*
X120478792Y-96269355D01*
X120483300Y-96266198D01*
X120645198Y-96104300D01*
X120776523Y-95916749D01*
X120778846Y-95911767D01*
X120778849Y-95911762D01*
X120794805Y-95877543D01*
X120841722Y-95824258D01*
X120909999Y-95804797D01*
X120977959Y-95825339D01*
X121023194Y-95877542D01*
X121033694Y-95900059D01*
X121045500Y-95953310D01*
X121045500Y-97927864D01*
X121023588Y-97998868D01*
X120945119Y-98113899D01*
X120847602Y-98323981D01*
X120785707Y-98547169D01*
X120761095Y-98777469D01*
X120761392Y-98782622D01*
X120761392Y-98782625D01*
X120770238Y-98936042D01*
X120774427Y-99008697D01*
X120775564Y-99013743D01*
X120775565Y-99013749D01*
X120797928Y-99112979D01*
X120825346Y-99234642D01*
X120827288Y-99239424D01*
X120827289Y-99239428D01*
X120898992Y-99416010D01*
X120912484Y-99449237D01*
X121033501Y-99646719D01*
X121185147Y-99821784D01*
X121321959Y-99935367D01*
X121348740Y-99957601D01*
X121363349Y-99969730D01*
X121563322Y-100086584D01*
X121568147Y-100088426D01*
X121568148Y-100088427D01*
X121614544Y-100106144D01*
X121779694Y-100169209D01*
X121784760Y-100170240D01*
X121784761Y-100170240D01*
X121788703Y-100171042D01*
X122006656Y-100215385D01*
X122136089Y-100220131D01*
X122232949Y-100223683D01*
X122232953Y-100223683D01*
X122238113Y-100223872D01*
X122243233Y-100223216D01*
X122243235Y-100223216D01*
X122317166Y-100213745D01*
X122467847Y-100194442D01*
X122472795Y-100192957D01*
X122472802Y-100192956D01*
X122684747Y-100129369D01*
X122689690Y-100127886D01*
X122695653Y-100124965D01*
X122893049Y-100028262D01*
X122893052Y-100028260D01*
X122897684Y-100025991D01*
X123086243Y-99891494D01*
X123250303Y-99728005D01*
X123253317Y-99723811D01*
X123253326Y-99723800D01*
X123340960Y-99601844D01*
X123396954Y-99558196D01*
X123467658Y-99551750D01*
X123530622Y-99584553D01*
X123550716Y-99609538D01*
X123561934Y-99627845D01*
X123580500Y-99693677D01*
X123580500Y-100770500D01*
X123560498Y-100838621D01*
X123506842Y-100885114D01*
X123454500Y-100896500D01*
X120960895Y-100896500D01*
X120954301Y-100896327D01*
X120874259Y-100892132D01*
X120874253Y-100892132D01*
X120869862Y-100891902D01*
X120865485Y-100892285D01*
X120865481Y-100892285D01*
X120748486Y-100902521D01*
X120746293Y-100902693D01*
X120629173Y-100910882D01*
X120629167Y-100910883D01*
X120624788Y-100911189D01*
X120615107Y-100913247D01*
X120599900Y-100915519D01*
X120594425Y-100915998D01*
X120594412Y-100916000D01*
X120590034Y-100916383D01*
X120585755Y-100917371D01*
X120585748Y-100917372D01*
X120471305Y-100943793D01*
X120469160Y-100944268D01*
X120354337Y-100968675D01*
X120354330Y-100968677D01*
X120350030Y-100969591D01*
X120340719Y-100972980D01*
X120325981Y-100977345D01*
X120316337Y-100979572D01*
X120202600Y-101023231D01*
X120200569Y-101023990D01*
X120090218Y-101064154D01*
X120090209Y-101064158D01*
X120086074Y-101065663D01*
X120077338Y-101070308D01*
X120063348Y-101076683D01*
X120058214Y-101078654D01*
X120058202Y-101078659D01*
X120054098Y-101080235D01*
X119947479Y-101139336D01*
X119945612Y-101140348D01*
X119841942Y-101195470D01*
X119841933Y-101195476D01*
X119838058Y-101197536D01*
X119834501Y-101200121D01*
X119834495Y-101200124D01*
X119830047Y-101203355D01*
X119817074Y-101211620D01*
X119808421Y-101216417D01*
X119712041Y-101289044D01*
X119711169Y-101289701D01*
X119709415Y-101290999D01*
X119706304Y-101293260D01*
X119616479Y-101358522D01*
X119610808Y-101362642D01*
X119604847Y-101368398D01*
X119603680Y-101369525D01*
X119591988Y-101379510D01*
X119587607Y-101382812D01*
X119584088Y-101385464D01*
X119498012Y-101471540D01*
X119496444Y-101473082D01*
X119408748Y-101557769D01*
X119403096Y-101565003D01*
X119402647Y-101565578D01*
X119392452Y-101577100D01*
X116729317Y-104240235D01*
X116724533Y-104244776D01*
X116661678Y-104301371D01*
X116583376Y-104394687D01*
X116581965Y-104396339D01*
X116502023Y-104488303D01*
X116499629Y-104491989D01*
X116499624Y-104491996D01*
X116496632Y-104496603D01*
X116487488Y-104508961D01*
X116483953Y-104513174D01*
X116483948Y-104513181D01*
X116481121Y-104516550D01*
X116417583Y-104618233D01*
X116416580Y-104619838D01*
X116415399Y-104621693D01*
X116349036Y-104723882D01*
X116347173Y-104727876D01*
X116347173Y-104727877D01*
X116344850Y-104732857D01*
X116337518Y-104746363D01*
X116332269Y-104754764D01*
X116330483Y-104758776D01*
X116330479Y-104758783D01*
X116282729Y-104866032D01*
X116281817Y-104868033D01*
X116251514Y-104933019D01*
X116230324Y-104978460D01*
X116229039Y-104982662D01*
X116229039Y-104982663D01*
X116227430Y-104987927D01*
X116222042Y-105002337D01*
X116218018Y-105011375D01*
X116210328Y-105038194D01*
X116184435Y-105128495D01*
X116183817Y-105130583D01*
X116148199Y-105247083D01*
X116146650Y-105256865D01*
X116143320Y-105271879D01*
X116140593Y-105281390D01*
X116139981Y-105285743D01*
X116139980Y-105285749D01*
X116123646Y-105401978D01*
X116123321Y-105404155D01*
X116105931Y-105513948D01*
X116104256Y-105524520D01*
X116104179Y-105528916D01*
X116104179Y-105528920D01*
X116104083Y-105534430D01*
X116102876Y-105549760D01*
X116101500Y-105559552D01*
X116101500Y-105681312D01*
X116101482Y-105683433D01*
X116099354Y-105805374D01*
X116099889Y-105809730D01*
X116099889Y-105809733D01*
X116100561Y-105815204D01*
X116101500Y-105830560D01*
X116101500Y-112622577D01*
X116081498Y-112690698D01*
X116049566Y-112724509D01*
X116047686Y-112725875D01*
X116044925Y-112727668D01*
X116042364Y-112729741D01*
X116042361Y-112729744D01*
X115946338Y-112807502D01*
X115759133Y-112959098D01*
X115499098Y-113219133D01*
X115267668Y-113504925D01*
X115265866Y-113507700D01*
X115109152Y-113749020D01*
X115067380Y-113813343D01*
X115065885Y-113816277D01*
X115065881Y-113816284D01*
X114975034Y-113994581D01*
X114900427Y-114141006D01*
X114768639Y-114484326D01*
X114673459Y-114839541D01*
X114656638Y-114945745D01*
X114641014Y-115044394D01*
X114615931Y-115202759D01*
X114596685Y-115570000D01*
X114615931Y-115937241D01*
X114616444Y-115940481D01*
X114616445Y-115940489D01*
X114633613Y-116048879D01*
X114673459Y-116300459D01*
X114768639Y-116655674D01*
X114769824Y-116658762D01*
X114769825Y-116658764D01*
X114790445Y-116712481D01*
X114900427Y-116998994D01*
X114901925Y-117001934D01*
X115033260Y-117259692D01*
X115067380Y-117326657D01*
X115069176Y-117329423D01*
X115069178Y-117329426D01*
X115094263Y-117368054D01*
X115267668Y-117635075D01*
X115499098Y-117920867D01*
X115759133Y-118180902D01*
X115810979Y-118222886D01*
X116041728Y-118409743D01*
X116044925Y-118412332D01*
X116047686Y-118414125D01*
X116049566Y-118415491D01*
X116092917Y-118471715D01*
X116101500Y-118517423D01*
X116101500Y-118901842D01*
X116081498Y-118969963D01*
X116064595Y-118990937D01*
X115410957Y-119644575D01*
X115348645Y-119678601D01*
X115321862Y-119681480D01*
X101702500Y-119681480D01*
X101634379Y-119661478D01*
X101587886Y-119607822D01*
X101576500Y-119555480D01*
X101576500Y-102501701D01*
X101596502Y-102433580D01*
X101650158Y-102387087D01*
X101720432Y-102376983D01*
X101785012Y-102406477D01*
X101791595Y-102412606D01*
X101827595Y-102448606D01*
X101861621Y-102510918D01*
X101864500Y-102537701D01*
X101864500Y-105973633D01*
X101863567Y-105984694D01*
X101863847Y-105984715D01*
X101863408Y-105990688D01*
X101862402Y-105996607D01*
X101862533Y-106002608D01*
X101864470Y-106091370D01*
X101864500Y-106094119D01*
X101864500Y-106134041D01*
X101865231Y-106141705D01*
X101865769Y-106150901D01*
X101867121Y-106212848D01*
X101868383Y-106218708D01*
X101874365Y-106246494D01*
X101876617Y-106261044D01*
X101879887Y-106295315D01*
X101881577Y-106301075D01*
X101881577Y-106301076D01*
X101897329Y-106354768D01*
X101899603Y-106363717D01*
X101912644Y-106424295D01*
X101914992Y-106429814D01*
X101914993Y-106429816D01*
X101926120Y-106455966D01*
X101931083Y-106469827D01*
X101940774Y-106502860D01*
X101964176Y-106548297D01*
X101969139Y-106557934D01*
X101973061Y-106566286D01*
X101997329Y-106623320D01*
X102000680Y-106628297D01*
X102016556Y-106651879D01*
X102024052Y-106664554D01*
X102026760Y-106669812D01*
X102039809Y-106695148D01*
X102078083Y-106743874D01*
X102083506Y-106751324D01*
X102113920Y-106796498D01*
X102118122Y-106802740D01*
X102121945Y-106806956D01*
X102143138Y-106828149D01*
X102153128Y-106839410D01*
X102173417Y-106865239D01*
X102177947Y-106869170D01*
X102177948Y-106869171D01*
X102221564Y-106907019D01*
X102228078Y-106913089D01*
X103991280Y-108676291D01*
X103998444Y-108684776D01*
X103998657Y-108684592D01*
X104002572Y-108689128D01*
X104006043Y-108694021D01*
X104010374Y-108698167D01*
X104074553Y-108759605D01*
X104076517Y-108761528D01*
X104104707Y-108789718D01*
X104107019Y-108791627D01*
X104107022Y-108791630D01*
X104110624Y-108794604D01*
X104117521Y-108800739D01*
X104157946Y-108839437D01*
X104157950Y-108839440D01*
X104162285Y-108843590D01*
X104167324Y-108846843D01*
X104167327Y-108846846D01*
X104191200Y-108862260D01*
X104203083Y-108870958D01*
X104229625Y-108892876D01*
X104284019Y-108922594D01*
X104291939Y-108927307D01*
X104338946Y-108957659D01*
X104338950Y-108957661D01*
X104343991Y-108960916D01*
X104375920Y-108973784D01*
X104389223Y-108980072D01*
X104419435Y-108996579D01*
X104425143Y-108998406D01*
X104425145Y-108998407D01*
X104478445Y-109015468D01*
X104487132Y-109018604D01*
X104539045Y-109039526D01*
X104539048Y-109039527D01*
X104544604Y-109041766D01*
X104550488Y-109042915D01*
X104578387Y-109048363D01*
X104592653Y-109052026D01*
X104619712Y-109060688D01*
X104619722Y-109060690D01*
X104625432Y-109062518D01*
X104686953Y-109069908D01*
X104696052Y-109071341D01*
X104756887Y-109083222D01*
X104762571Y-109083500D01*
X104792544Y-109083500D01*
X104807572Y-109084399D01*
X104834231Y-109087602D01*
X104834237Y-109087602D01*
X104840179Y-109088316D01*
X104846155Y-109087893D01*
X104846158Y-109087893D01*
X104903750Y-109083815D01*
X104912649Y-109083500D01*
X106811756Y-109083500D01*
X106883355Y-109106075D01*
X106885349Y-109107730D01*
X107085322Y-109224584D01*
X107301694Y-109307209D01*
X107306760Y-109308240D01*
X107306761Y-109308240D01*
X107359846Y-109319040D01*
X107528656Y-109353385D01*
X107659324Y-109358176D01*
X107754949Y-109361683D01*
X107754953Y-109361683D01*
X107760113Y-109361872D01*
X107765233Y-109361216D01*
X107765235Y-109361216D01*
X107865987Y-109348309D01*
X107989847Y-109332442D01*
X107994795Y-109330957D01*
X107994802Y-109330956D01*
X108206747Y-109267369D01*
X108211690Y-109265886D01*
X108230325Y-109256757D01*
X108415049Y-109166262D01*
X108415052Y-109166260D01*
X108419684Y-109163991D01*
X108608243Y-109029494D01*
X108772303Y-108866005D01*
X108781336Y-108853435D01*
X108819201Y-108800739D01*
X108907458Y-108677917D01*
X108923570Y-108645318D01*
X109007784Y-108474922D01*
X109007785Y-108474920D01*
X109010078Y-108470280D01*
X109077408Y-108248671D01*
X109107640Y-108019041D01*
X109109327Y-107950000D01*
X109099047Y-107824957D01*
X109090773Y-107724318D01*
X109090772Y-107724312D01*
X109090349Y-107719167D01*
X109041802Y-107525891D01*
X109035184Y-107499544D01*
X109035183Y-107499540D01*
X109033925Y-107494533D01*
X109008153Y-107435261D01*
X108943630Y-107286868D01*
X108943628Y-107286865D01*
X108941570Y-107282131D01*
X108815764Y-107087665D01*
X108725848Y-106988848D01*
X108694796Y-106925002D01*
X108703192Y-106854504D01*
X108748369Y-106799736D01*
X108774812Y-106786067D01*
X108834297Y-106763767D01*
X108842705Y-106760615D01*
X108959261Y-106673261D01*
X109046615Y-106556705D01*
X109055896Y-106531948D01*
X109067772Y-106500270D01*
X109110414Y-106443505D01*
X109176976Y-106418806D01*
X109185754Y-106418500D01*
X110464157Y-106418500D01*
X110477764Y-106419237D01*
X110509262Y-106422659D01*
X110509267Y-106422659D01*
X110515388Y-106423324D01*
X110541638Y-106421027D01*
X110565388Y-106418950D01*
X110570214Y-106418621D01*
X110572686Y-106418500D01*
X110575769Y-106418500D01*
X110587738Y-106417326D01*
X110618506Y-106414310D01*
X110619819Y-106414188D01*
X110664084Y-106410315D01*
X110712413Y-106406087D01*
X110717532Y-106404600D01*
X110722833Y-106404080D01*
X110811834Y-106377209D01*
X110812967Y-106376874D01*
X110896414Y-106352630D01*
X110896418Y-106352628D01*
X110902336Y-106350909D01*
X110907068Y-106348456D01*
X110912169Y-106346916D01*
X110918250Y-106343683D01*
X110994260Y-106303269D01*
X110995426Y-106302657D01*
X111072453Y-106262729D01*
X111077926Y-106259892D01*
X111082089Y-106256569D01*
X111086796Y-106254066D01*
X111158918Y-106195245D01*
X111159774Y-106194554D01*
X111198973Y-106163262D01*
X111201477Y-106160758D01*
X111202195Y-106160116D01*
X111206528Y-106156415D01*
X111240062Y-106129065D01*
X111269291Y-106093733D01*
X111277272Y-106084963D01*
X111922383Y-105439851D01*
X111932527Y-105430749D01*
X111957218Y-105410897D01*
X111962025Y-105407032D01*
X111994320Y-105368544D01*
X111997478Y-105364925D01*
X111999124Y-105363110D01*
X112001309Y-105360925D01*
X112003264Y-105358545D01*
X112003273Y-105358535D01*
X112028549Y-105327764D01*
X112029391Y-105326749D01*
X112075430Y-105271881D01*
X112089154Y-105255526D01*
X112091723Y-105250852D01*
X112095102Y-105246739D01*
X112138975Y-105164915D01*
X112139584Y-105163793D01*
X112181464Y-105087614D01*
X112181465Y-105087612D01*
X112184433Y-105082213D01*
X112186045Y-105077131D01*
X112188562Y-105072437D01*
X112215762Y-104983469D01*
X112216108Y-104982358D01*
X112220175Y-104969540D01*
X112244235Y-104893694D01*
X112244829Y-104888398D01*
X112246387Y-104883302D01*
X112255790Y-104790743D01*
X112255911Y-104789607D01*
X112261500Y-104739773D01*
X112261500Y-104736246D01*
X112261555Y-104735261D01*
X112262002Y-104729581D01*
X112266374Y-104686538D01*
X112262059Y-104640891D01*
X112261500Y-104629033D01*
X112261500Y-103247925D01*
X112281502Y-103179804D01*
X112298405Y-103158830D01*
X113319829Y-102137405D01*
X113382141Y-102103380D01*
X113408924Y-102100500D01*
X115451260Y-102100500D01*
X115523531Y-102123287D01*
X115675251Y-102229523D01*
X115680233Y-102231846D01*
X115680238Y-102231849D01*
X115820482Y-102297245D01*
X115882757Y-102326284D01*
X115888065Y-102327706D01*
X115888067Y-102327707D01*
X116098598Y-102384119D01*
X116098600Y-102384119D01*
X116103913Y-102385543D01*
X116332000Y-102405498D01*
X116560087Y-102385543D01*
X116565400Y-102384119D01*
X116565402Y-102384119D01*
X116775933Y-102327707D01*
X116775935Y-102327706D01*
X116781243Y-102326284D01*
X116843518Y-102297245D01*
X116983762Y-102231849D01*
X116983767Y-102231846D01*
X116988749Y-102229523D01*
X117126332Y-102133186D01*
X117171789Y-102101357D01*
X117171792Y-102101355D01*
X117176300Y-102098198D01*
X117338198Y-101936300D01*
X117343953Y-101928082D01*
X117409160Y-101834956D01*
X117469523Y-101748749D01*
X117471846Y-101743767D01*
X117471849Y-101743762D01*
X117563961Y-101546225D01*
X117563961Y-101546224D01*
X117566284Y-101541243D01*
X117570820Y-101524317D01*
X117624119Y-101325402D01*
X117624119Y-101325400D01*
X117625543Y-101320087D01*
X117645498Y-101092000D01*
X117625543Y-100863913D01*
X117615244Y-100825478D01*
X117567707Y-100648067D01*
X117567706Y-100648065D01*
X117566284Y-100642757D01*
X117548756Y-100605167D01*
X117471849Y-100440238D01*
X117471846Y-100440233D01*
X117469523Y-100435251D01*
X117383024Y-100311718D01*
X117341357Y-100252211D01*
X117341355Y-100252208D01*
X117338198Y-100247700D01*
X117176300Y-100085802D01*
X117171792Y-100082645D01*
X117171789Y-100082643D01*
X117089640Y-100025122D01*
X116988749Y-99954477D01*
X116983767Y-99952154D01*
X116983762Y-99952151D01*
X116786225Y-99860039D01*
X116786224Y-99860039D01*
X116781243Y-99857716D01*
X116775935Y-99856294D01*
X116775933Y-99856293D01*
X116565402Y-99799881D01*
X116565400Y-99799881D01*
X116560087Y-99798457D01*
X116332000Y-99778502D01*
X116103913Y-99798457D01*
X116098600Y-99799881D01*
X116098598Y-99799881D01*
X115888067Y-99856293D01*
X115888065Y-99856294D01*
X115882757Y-99857716D01*
X115877776Y-99860039D01*
X115877775Y-99860039D01*
X115680238Y-99952151D01*
X115680233Y-99952154D01*
X115675251Y-99954477D01*
X115532708Y-100054287D01*
X115523531Y-100060713D01*
X115451260Y-100083500D01*
X113000843Y-100083500D01*
X112987236Y-100082763D01*
X112955738Y-100079341D01*
X112955733Y-100079341D01*
X112949612Y-100078676D01*
X112923362Y-100080973D01*
X112899612Y-100083050D01*
X112894786Y-100083379D01*
X112892314Y-100083500D01*
X112889231Y-100083500D01*
X112877262Y-100084674D01*
X112846494Y-100087690D01*
X112845181Y-100087812D01*
X112800916Y-100091685D01*
X112752587Y-100095913D01*
X112747468Y-100097400D01*
X112742167Y-100097920D01*
X112653166Y-100124791D01*
X112652033Y-100125126D01*
X112568586Y-100149370D01*
X112568582Y-100149372D01*
X112562664Y-100151091D01*
X112557932Y-100153544D01*
X112552831Y-100155084D01*
X112547388Y-100157978D01*
X112470740Y-100198731D01*
X112469574Y-100199343D01*
X112422619Y-100223683D01*
X112387074Y-100242108D01*
X112382911Y-100245431D01*
X112378204Y-100247934D01*
X112306082Y-100306755D01*
X112305226Y-100307446D01*
X112266027Y-100338738D01*
X112263523Y-100341242D01*
X112262805Y-100341884D01*
X112258472Y-100345585D01*
X112224938Y-100372935D01*
X112221011Y-100377682D01*
X112221009Y-100377684D01*
X112195713Y-100408262D01*
X112187723Y-100417042D01*
X110583621Y-102021145D01*
X110573478Y-102030247D01*
X110543975Y-102053968D01*
X110540008Y-102058696D01*
X110511709Y-102092421D01*
X110508528Y-102096069D01*
X110506885Y-102097881D01*
X110504691Y-102100075D01*
X110477358Y-102133349D01*
X110476696Y-102134147D01*
X110416846Y-102205474D01*
X110414278Y-102210144D01*
X110410897Y-102214261D01*
X110379860Y-102272145D01*
X110367023Y-102296086D01*
X110366394Y-102297245D01*
X110324538Y-102373381D01*
X110324535Y-102373389D01*
X110321567Y-102378787D01*
X110319955Y-102383869D01*
X110317438Y-102388563D01*
X110290238Y-102477531D01*
X110289918Y-102478559D01*
X110261765Y-102567306D01*
X110261171Y-102572602D01*
X110259613Y-102577698D01*
X110250819Y-102664275D01*
X110250218Y-102670187D01*
X110250089Y-102671393D01*
X110244500Y-102721227D01*
X110244500Y-102724754D01*
X110244445Y-102725739D01*
X110243998Y-102731419D01*
X110239626Y-102774462D01*
X110242346Y-102803237D01*
X110243941Y-102820109D01*
X110244500Y-102831967D01*
X110244500Y-104213074D01*
X110224498Y-104281195D01*
X110207596Y-104302169D01*
X110145171Y-104364595D01*
X110082859Y-104398620D01*
X110056075Y-104401500D01*
X109185754Y-104401500D01*
X109117633Y-104381498D01*
X109071140Y-104327842D01*
X109067772Y-104319730D01*
X109049767Y-104271703D01*
X109046615Y-104263295D01*
X108959261Y-104146739D01*
X108842705Y-104059385D01*
X108706316Y-104008255D01*
X108644134Y-104001500D01*
X106747866Y-104001500D01*
X106685684Y-104008255D01*
X106549295Y-104059385D01*
X106432739Y-104146739D01*
X106345385Y-104263295D01*
X106294255Y-104399684D01*
X106287500Y-104461866D01*
X106287500Y-106358134D01*
X106294255Y-106420316D01*
X106345385Y-106556705D01*
X106379824Y-106602657D01*
X106389026Y-106614935D01*
X106413874Y-106681441D01*
X106398821Y-106750824D01*
X106348647Y-106801054D01*
X106288200Y-106816500D01*
X105389701Y-106816500D01*
X105321580Y-106796498D01*
X105300606Y-106779595D01*
X104168405Y-105647394D01*
X104134379Y-105585082D01*
X104131500Y-105558299D01*
X104131500Y-102122367D01*
X104132433Y-102111306D01*
X104132153Y-102111285D01*
X104132592Y-102105312D01*
X104133598Y-102099393D01*
X104131530Y-102004629D01*
X104131500Y-102001881D01*
X104131500Y-101961959D01*
X104130769Y-101954295D01*
X104130231Y-101945094D01*
X104129010Y-101889148D01*
X104129010Y-101889147D01*
X104128879Y-101883152D01*
X104121635Y-101849505D01*
X104119383Y-101834956D01*
X104116683Y-101806661D01*
X104116113Y-101800685D01*
X104102126Y-101753007D01*
X104098671Y-101741232D01*
X104096397Y-101732281D01*
X104084619Y-101677571D01*
X104084619Y-101677570D01*
X104083356Y-101671705D01*
X104069877Y-101640029D01*
X104064916Y-101626172D01*
X104057145Y-101599680D01*
X104055226Y-101593140D01*
X104026848Y-101538040D01*
X104022945Y-101529728D01*
X103998670Y-101472680D01*
X103987897Y-101456678D01*
X103979449Y-101444131D01*
X103971951Y-101431453D01*
X103964015Y-101416044D01*
X103956191Y-101400852D01*
X103952488Y-101396138D01*
X103952483Y-101396130D01*
X103922942Y-101358522D01*
X104889273Y-101358522D01*
X104936764Y-101535761D01*
X104940510Y-101546053D01*
X105032586Y-101743511D01*
X105038069Y-101753007D01*
X105163028Y-101931467D01*
X105170084Y-101939875D01*
X105324125Y-102093916D01*
X105332533Y-102100972D01*
X105510993Y-102225931D01*
X105520489Y-102231414D01*
X105717947Y-102323490D01*
X105728239Y-102327236D01*
X105900503Y-102373394D01*
X105914599Y-102373058D01*
X105918000Y-102365116D01*
X105918000Y-102359967D01*
X106426000Y-102359967D01*
X106429973Y-102373498D01*
X106438522Y-102374727D01*
X106615761Y-102327236D01*
X106626053Y-102323490D01*
X106823511Y-102231414D01*
X106833007Y-102225931D01*
X107011467Y-102100972D01*
X107019875Y-102093916D01*
X107173916Y-101939875D01*
X107180972Y-101931467D01*
X107305931Y-101753007D01*
X107311414Y-101743511D01*
X107403490Y-101546053D01*
X107407236Y-101535761D01*
X107453394Y-101363497D01*
X107453058Y-101349401D01*
X107445116Y-101346000D01*
X106444115Y-101346000D01*
X106428876Y-101350475D01*
X106427671Y-101351865D01*
X106426000Y-101359548D01*
X106426000Y-102359967D01*
X105918000Y-102359967D01*
X105918000Y-101364115D01*
X105913525Y-101348876D01*
X105912135Y-101347671D01*
X105904452Y-101346000D01*
X104904033Y-101346000D01*
X104890502Y-101349973D01*
X104889273Y-101358522D01*
X103922942Y-101358522D01*
X103917912Y-101352119D01*
X103912478Y-101344655D01*
X103899516Y-101325402D01*
X103877877Y-101293260D01*
X103874055Y-101289044D01*
X103852862Y-101267851D01*
X103842871Y-101256589D01*
X103826288Y-101235478D01*
X103822583Y-101230761D01*
X103804249Y-101214851D01*
X103774436Y-101188981D01*
X103767922Y-101182911D01*
X103405514Y-100820503D01*
X104890606Y-100820503D01*
X104890942Y-100834599D01*
X104898884Y-100838000D01*
X105899885Y-100838000D01*
X105915124Y-100833525D01*
X105916329Y-100832135D01*
X105918000Y-100824452D01*
X105918000Y-100819885D01*
X106426000Y-100819885D01*
X106430475Y-100835124D01*
X106431865Y-100836329D01*
X106439548Y-100838000D01*
X107439967Y-100838000D01*
X107453498Y-100834027D01*
X107454727Y-100825478D01*
X107407236Y-100648239D01*
X107403490Y-100637947D01*
X107311414Y-100440489D01*
X107305931Y-100430993D01*
X107180972Y-100252533D01*
X107173916Y-100244125D01*
X107019875Y-100090084D01*
X107011467Y-100083028D01*
X106833007Y-99958069D01*
X106823511Y-99952586D01*
X106626053Y-99860510D01*
X106615761Y-99856764D01*
X106443497Y-99810606D01*
X106429401Y-99810942D01*
X106426000Y-99818884D01*
X106426000Y-100819885D01*
X105918000Y-100819885D01*
X105918000Y-99824033D01*
X105914027Y-99810502D01*
X105905478Y-99809273D01*
X105728239Y-99856764D01*
X105717947Y-99860510D01*
X105520489Y-99952586D01*
X105510993Y-99958069D01*
X105332533Y-100083028D01*
X105324125Y-100090084D01*
X105170084Y-100244125D01*
X105163028Y-100252533D01*
X105038069Y-100430993D01*
X105032586Y-100440489D01*
X104940510Y-100637947D01*
X104936764Y-100648239D01*
X104890606Y-100820503D01*
X103405514Y-100820503D01*
X102950720Y-100365709D01*
X102943556Y-100357224D01*
X102943343Y-100357408D01*
X102939428Y-100352872D01*
X102935957Y-100347979D01*
X102867447Y-100282395D01*
X102865483Y-100280472D01*
X102837293Y-100252282D01*
X102833387Y-100249056D01*
X102832937Y-100248685D01*
X102831373Y-100247393D01*
X102824479Y-100241261D01*
X102784054Y-100202563D01*
X102784050Y-100202560D01*
X102779715Y-100198410D01*
X102774676Y-100195157D01*
X102774673Y-100195154D01*
X102750800Y-100179740D01*
X102738916Y-100171042D01*
X102728712Y-100162615D01*
X102712375Y-100149124D01*
X102657981Y-100119406D01*
X102650061Y-100114693D01*
X102603054Y-100084341D01*
X102603050Y-100084339D01*
X102598009Y-100081084D01*
X102566080Y-100068216D01*
X102552778Y-100061928D01*
X102527829Y-100048297D01*
X102522565Y-100045421D01*
X102516860Y-100043595D01*
X102516858Y-100043594D01*
X102479759Y-100031719D01*
X102463545Y-100026529D01*
X102454865Y-100023395D01*
X102402959Y-100002476D01*
X102397396Y-100000234D01*
X102391510Y-99999084D01*
X102391508Y-99999084D01*
X102363615Y-99993637D01*
X102349351Y-99989975D01*
X102322273Y-99981307D01*
X102322271Y-99981307D01*
X102316568Y-99979481D01*
X102310619Y-99978766D01*
X102310613Y-99978765D01*
X102255045Y-99972089D01*
X102245925Y-99970653D01*
X102202565Y-99962186D01*
X102185113Y-99958778D01*
X102179429Y-99958500D01*
X102149455Y-99958500D01*
X102134427Y-99957601D01*
X102107767Y-99954398D01*
X102107763Y-99954398D01*
X102101820Y-99953684D01*
X102095844Y-99954107D01*
X102095841Y-99954107D01*
X102038249Y-99958185D01*
X102029350Y-99958500D01*
X101786255Y-99958500D01*
X101718134Y-99938498D01*
X101671641Y-99884842D01*
X101660255Y-99832500D01*
X101660255Y-95788062D01*
X111292493Y-95788062D01*
X111301789Y-95800077D01*
X111352994Y-95835931D01*
X111362489Y-95841414D01*
X111559947Y-95933490D01*
X111570239Y-95937236D01*
X111780688Y-95993625D01*
X111791481Y-95995528D01*
X112008525Y-96014517D01*
X112019475Y-96014517D01*
X112236519Y-95995528D01*
X112247312Y-95993625D01*
X112457761Y-95937236D01*
X112468053Y-95933490D01*
X112665511Y-95841414D01*
X112675006Y-95835931D01*
X112727048Y-95799491D01*
X112735424Y-95789012D01*
X112728356Y-95775566D01*
X112026812Y-95074022D01*
X112012868Y-95066408D01*
X112011035Y-95066539D01*
X112004420Y-95070790D01*
X111298923Y-95776287D01*
X111292493Y-95788062D01*
X101660255Y-95788062D01*
X101660255Y-94707475D01*
X110701483Y-94707475D01*
X110720472Y-94924519D01*
X110722375Y-94935312D01*
X110778764Y-95145761D01*
X110782510Y-95156053D01*
X110874586Y-95353511D01*
X110880069Y-95363006D01*
X110916509Y-95415048D01*
X110926988Y-95423424D01*
X110940434Y-95416356D01*
X111641978Y-94714812D01*
X111648356Y-94703132D01*
X112378408Y-94703132D01*
X112378539Y-94704965D01*
X112382790Y-94711580D01*
X113088287Y-95417077D01*
X113100062Y-95423507D01*
X113112077Y-95414211D01*
X113147931Y-95363006D01*
X113153414Y-95353511D01*
X113245490Y-95156053D01*
X113249236Y-95145761D01*
X113305625Y-94935312D01*
X113307528Y-94924519D01*
X113326517Y-94707475D01*
X113326517Y-94696525D01*
X113307528Y-94479481D01*
X113305625Y-94468688D01*
X113249236Y-94258239D01*
X113245490Y-94247947D01*
X113153414Y-94050489D01*
X113147931Y-94040994D01*
X113111491Y-93988952D01*
X113101012Y-93980576D01*
X113087566Y-93987644D01*
X112386022Y-94689188D01*
X112378408Y-94703132D01*
X111648356Y-94703132D01*
X111649592Y-94700868D01*
X111649461Y-94699035D01*
X111645210Y-94692420D01*
X110939713Y-93986923D01*
X110927938Y-93980493D01*
X110915923Y-93989789D01*
X110880069Y-94040994D01*
X110874586Y-94050489D01*
X110782510Y-94247947D01*
X110778764Y-94258239D01*
X110722375Y-94468688D01*
X110720472Y-94479481D01*
X110701483Y-94696525D01*
X110701483Y-94707475D01*
X101660255Y-94707475D01*
X101660255Y-87906522D01*
X115816273Y-87906522D01*
X115863764Y-88083761D01*
X115867510Y-88094053D01*
X115959586Y-88291511D01*
X115965069Y-88301007D01*
X116090028Y-88479467D01*
X116097084Y-88487875D01*
X116251125Y-88641916D01*
X116259533Y-88648972D01*
X116437993Y-88773931D01*
X116447489Y-88779414D01*
X116644947Y-88871490D01*
X116655239Y-88875236D01*
X116827503Y-88921394D01*
X116841599Y-88921058D01*
X116845000Y-88913116D01*
X116845000Y-87912115D01*
X116840525Y-87896876D01*
X116839135Y-87895671D01*
X116831452Y-87894000D01*
X115831033Y-87894000D01*
X115817502Y-87897973D01*
X115816273Y-87906522D01*
X101660255Y-87906522D01*
X101660255Y-82225854D01*
X101658773Y-82204657D01*
X101645873Y-82020173D01*
X101645872Y-82020168D01*
X101645566Y-82015788D01*
X101587164Y-81741030D01*
X101585660Y-81736897D01*
X101492601Y-81481219D01*
X101492599Y-81481215D01*
X101491092Y-81477074D01*
X101375004Y-81258745D01*
X101360255Y-81199591D01*
X101360255Y-81047866D01*
X101353500Y-80985684D01*
X101302370Y-80849295D01*
X101215016Y-80732739D01*
X101098460Y-80645385D01*
X100962071Y-80594255D01*
X100899889Y-80587500D01*
X100743308Y-80587500D01*
X100680308Y-80570619D01*
X100672237Y-80565959D01*
X100534374Y-80486364D01*
X100273931Y-80381138D01*
X100269656Y-80380072D01*
X100005648Y-80314247D01*
X100005643Y-80314246D01*
X100001379Y-80313183D01*
X99997011Y-80312724D01*
X99997006Y-80312723D01*
X99726391Y-80284281D01*
X99726388Y-80284281D01*
X99722022Y-80283822D01*
X99717634Y-80283975D01*
X99717628Y-80283975D01*
X99445694Y-80293471D01*
X99445688Y-80293472D01*
X99441297Y-80293625D01*
X99436974Y-80294387D01*
X99436967Y-80294388D01*
X99309076Y-80316939D01*
X99164668Y-80342402D01*
X98897520Y-80429203D01*
X98893567Y-80431131D01*
X98893562Y-80431133D01*
X98807881Y-80472923D01*
X98645053Y-80552340D01*
X98641414Y-80554795D01*
X98641408Y-80554798D01*
X98624862Y-80565959D01*
X98554404Y-80587500D01*
X98403621Y-80587500D01*
X98341439Y-80594255D01*
X98205050Y-80645385D01*
X98088494Y-80732739D01*
X98001140Y-80849295D01*
X97950010Y-80985684D01*
X97943255Y-81047866D01*
X97943255Y-81203841D01*
X97924109Y-81270611D01*
X97906410Y-81298935D01*
X97874024Y-81350764D01*
X97759773Y-81607375D01*
X97682348Y-81877390D01*
X97681737Y-81881740D01*
X97681736Y-81881743D01*
X97675672Y-81924893D01*
X97643255Y-82155552D01*
X97643255Y-100499048D01*
X97637749Y-100535887D01*
X97606199Y-100639083D01*
X97604650Y-100648865D01*
X97601320Y-100663879D01*
X97598593Y-100673390D01*
X97597981Y-100677743D01*
X97597980Y-100677749D01*
X97581646Y-100793978D01*
X97581321Y-100796154D01*
X97562256Y-100916520D01*
X97562179Y-100920916D01*
X97562179Y-100920920D01*
X97562083Y-100926430D01*
X97560876Y-100941760D01*
X97559500Y-100951552D01*
X97559500Y-101073312D01*
X97559481Y-101075510D01*
X97557354Y-101197374D01*
X97557889Y-101201730D01*
X97557889Y-101201733D01*
X97558561Y-101207204D01*
X97559500Y-101222560D01*
X97559500Y-119555480D01*
X97539498Y-119623601D01*
X97485842Y-119670094D01*
X97433500Y-119681480D01*
X96944719Y-119681480D01*
X96876598Y-119661478D01*
X96830105Y-119607822D01*
X96820001Y-119537548D01*
X96849495Y-119472968D01*
X96855624Y-119466385D01*
X96864285Y-119457724D01*
X96940786Y-119355649D01*
X96949324Y-119340054D01*
X96994478Y-119219606D01*
X96998105Y-119204351D01*
X97003631Y-119153486D01*
X97004000Y-119146672D01*
X97004000Y-117874115D01*
X96999525Y-117858876D01*
X96998135Y-117857671D01*
X96990452Y-117856000D01*
X93006116Y-117856000D01*
X92990877Y-117860475D01*
X92989672Y-117861865D01*
X92988001Y-117869548D01*
X92988001Y-119146669D01*
X92988371Y-119153490D01*
X92993895Y-119204352D01*
X92997521Y-119219604D01*
X93042676Y-119340054D01*
X93051214Y-119355649D01*
X93127715Y-119457724D01*
X93136376Y-119466385D01*
X93170402Y-119528697D01*
X93165337Y-119599512D01*
X93122790Y-119656348D01*
X93056270Y-119681159D01*
X93047281Y-119681480D01*
X92949118Y-119681480D01*
X92880997Y-119661478D01*
X92860023Y-119644575D01*
X91961405Y-118745957D01*
X91927379Y-118683645D01*
X91924500Y-118656862D01*
X91924500Y-117697403D01*
X91924999Y-117686202D01*
X91928531Y-117646627D01*
X91928531Y-117646625D01*
X91928751Y-117644161D01*
X91928852Y-117634576D01*
X91929167Y-117604484D01*
X91929167Y-117604483D01*
X91929193Y-117602000D01*
X91924792Y-117537442D01*
X91924500Y-117528872D01*
X91924500Y-117329885D01*
X92988000Y-117329885D01*
X92992475Y-117345124D01*
X92993865Y-117346329D01*
X93001548Y-117348000D01*
X94723885Y-117348000D01*
X94739124Y-117343525D01*
X94740329Y-117342135D01*
X94742000Y-117334452D01*
X94742000Y-117329885D01*
X95250000Y-117329885D01*
X95254475Y-117345124D01*
X95255865Y-117346329D01*
X95263548Y-117348000D01*
X96985884Y-117348000D01*
X97001123Y-117343525D01*
X97002328Y-117342135D01*
X97003999Y-117334452D01*
X97003999Y-116057331D01*
X97003629Y-116050510D01*
X96998105Y-115999648D01*
X96994479Y-115984396D01*
X96949324Y-115863946D01*
X96940786Y-115848351D01*
X96864285Y-115746276D01*
X96851724Y-115733715D01*
X96749649Y-115657214D01*
X96734054Y-115648676D01*
X96613606Y-115603522D01*
X96598351Y-115599895D01*
X96547486Y-115594369D01*
X96540672Y-115594000D01*
X95268115Y-115594000D01*
X95252876Y-115598475D01*
X95251671Y-115599865D01*
X95250000Y-115607548D01*
X95250000Y-117329885D01*
X94742000Y-117329885D01*
X94742000Y-115612116D01*
X94737525Y-115596877D01*
X94736135Y-115595672D01*
X94728452Y-115594001D01*
X93451331Y-115594001D01*
X93444510Y-115594371D01*
X93393648Y-115599895D01*
X93378396Y-115603521D01*
X93257946Y-115648676D01*
X93242351Y-115657214D01*
X93140276Y-115733715D01*
X93127715Y-115746276D01*
X93051214Y-115848351D01*
X93042676Y-115863946D01*
X92997522Y-115984394D01*
X92993895Y-115999649D01*
X92988369Y-116050514D01*
X92988000Y-116057328D01*
X92988000Y-117329885D01*
X91924500Y-117329885D01*
X91924500Y-111214896D01*
X91924673Y-111208302D01*
X91928868Y-111128259D01*
X91928868Y-111128253D01*
X91929098Y-111123862D01*
X91928611Y-111118289D01*
X91918479Y-111002486D01*
X91918307Y-111000293D01*
X91910118Y-110883173D01*
X91910117Y-110883167D01*
X91909811Y-110878788D01*
X91907753Y-110869107D01*
X91905481Y-110853900D01*
X91905002Y-110848425D01*
X91905000Y-110848412D01*
X91904617Y-110844034D01*
X91877211Y-110725326D01*
X91876735Y-110723179D01*
X91856960Y-110630146D01*
X91851409Y-110604030D01*
X91849903Y-110599892D01*
X91848024Y-110594728D01*
X91843656Y-110579982D01*
X91842419Y-110574624D01*
X91842418Y-110574619D01*
X91841429Y-110570337D01*
X91797759Y-110456571D01*
X91797000Y-110454542D01*
X91756844Y-110344214D01*
X91756843Y-110344212D01*
X91755337Y-110340074D01*
X91750691Y-110331336D01*
X91744310Y-110317333D01*
X91742344Y-110312210D01*
X91742341Y-110312203D01*
X91740765Y-110308098D01*
X91681664Y-110201479D01*
X91680652Y-110199612D01*
X91625530Y-110095942D01*
X91625524Y-110095933D01*
X91623464Y-110092058D01*
X91620879Y-110088501D01*
X91620876Y-110088495D01*
X91617645Y-110084047D01*
X91609379Y-110071073D01*
X91604583Y-110062421D01*
X91531289Y-109965156D01*
X91529991Y-109963402D01*
X91523893Y-109955008D01*
X91458358Y-109864808D01*
X91451475Y-109857680D01*
X91441490Y-109845988D01*
X91438188Y-109841607D01*
X91438187Y-109841606D01*
X91435536Y-109838088D01*
X91349460Y-109752012D01*
X91347918Y-109750444D01*
X91300348Y-109701184D01*
X91263231Y-109662748D01*
X91255422Y-109656647D01*
X91243900Y-109646452D01*
X87658765Y-106061317D01*
X87654224Y-106056533D01*
X87600566Y-105996940D01*
X87597629Y-105993678D01*
X87504295Y-105915360D01*
X87502642Y-105913949D01*
X87410697Y-105834023D01*
X87407011Y-105831629D01*
X87407004Y-105831624D01*
X87402397Y-105828632D01*
X87390039Y-105819488D01*
X87385826Y-105815953D01*
X87385819Y-105815948D01*
X87382450Y-105813121D01*
X87279162Y-105748580D01*
X87277306Y-105747398D01*
X87178809Y-105683433D01*
X87175118Y-105681036D01*
X87171123Y-105679173D01*
X87166143Y-105676850D01*
X87152637Y-105669518D01*
X87147968Y-105666601D01*
X87144236Y-105664269D01*
X87140224Y-105662483D01*
X87140217Y-105662479D01*
X87032968Y-105614729D01*
X87030967Y-105613817D01*
X86924525Y-105564182D01*
X86924522Y-105564181D01*
X86920540Y-105562324D01*
X86911070Y-105559429D01*
X86896663Y-105554042D01*
X86891650Y-105551810D01*
X86891649Y-105551810D01*
X86887625Y-105550018D01*
X86798701Y-105524520D01*
X86770505Y-105516435D01*
X86768417Y-105515817D01*
X86651917Y-105480199D01*
X86642135Y-105478650D01*
X86627119Y-105475320D01*
X86621843Y-105473807D01*
X86621844Y-105473807D01*
X86617610Y-105472593D01*
X86613257Y-105471981D01*
X86613251Y-105471980D01*
X86497022Y-105455646D01*
X86494845Y-105455321D01*
X86378824Y-105436944D01*
X86378823Y-105436944D01*
X86374480Y-105436256D01*
X86370084Y-105436179D01*
X86370080Y-105436179D01*
X86364570Y-105436083D01*
X86349240Y-105434876D01*
X86339448Y-105433500D01*
X86217688Y-105433500D01*
X86215494Y-105433481D01*
X86213494Y-105433446D01*
X86206305Y-105433321D01*
X86138544Y-105412136D01*
X86092992Y-105357679D01*
X86082500Y-105307340D01*
X86082500Y-102465359D01*
X91059386Y-102465359D01*
X91068099Y-102476879D01*
X91156586Y-102541760D01*
X91164505Y-102546708D01*
X91380877Y-102660547D01*
X91389451Y-102664275D01*
X91620282Y-102744885D01*
X91629291Y-102747299D01*
X91869518Y-102792908D01*
X91878775Y-102793962D01*
X92123107Y-102803563D01*
X92132420Y-102803237D01*
X92375478Y-102776618D01*
X92384655Y-102774917D01*
X92621107Y-102712665D01*
X92629926Y-102709628D01*
X92854584Y-102613107D01*
X92862856Y-102608800D01*
X93070777Y-102480135D01*
X93072620Y-102478796D01*
X93080038Y-102467541D01*
X93073974Y-102457184D01*
X92080812Y-101464022D01*
X92066868Y-101456408D01*
X92065035Y-101456539D01*
X92058420Y-101460790D01*
X91066044Y-102453166D01*
X91059386Y-102465359D01*
X86082500Y-102465359D01*
X86082500Y-101766874D01*
X86102502Y-101698753D01*
X86107661Y-101691327D01*
X86124615Y-101668705D01*
X86175745Y-101532316D01*
X86182500Y-101470134D01*
X86182500Y-101051835D01*
X90356022Y-101051835D01*
X90367754Y-101296064D01*
X90368891Y-101305324D01*
X90416593Y-101545143D01*
X90419082Y-101554118D01*
X90501708Y-101784250D01*
X90505505Y-101792778D01*
X90621234Y-102008160D01*
X90626245Y-102016027D01*
X90683173Y-102092263D01*
X90694431Y-102100712D01*
X90706850Y-102093940D01*
X91695978Y-101104812D01*
X91702356Y-101093132D01*
X92432408Y-101093132D01*
X92432539Y-101094965D01*
X92436790Y-101101580D01*
X93431732Y-102096522D01*
X93444112Y-102103282D01*
X93452453Y-102097038D01*
X93570700Y-101913202D01*
X93575147Y-101905011D01*
X93675572Y-101682076D01*
X93678767Y-101673298D01*
X93745135Y-101437973D01*
X93746993Y-101428844D01*
X93778044Y-101184770D01*
X93778525Y-101178483D01*
X93780706Y-101095160D01*
X93780555Y-101088851D01*
X93762321Y-100843486D01*
X93760944Y-100834280D01*
X93706979Y-100595786D01*
X93704255Y-100586875D01*
X93615633Y-100358983D01*
X93611619Y-100350567D01*
X93490284Y-100138276D01*
X93485074Y-100130553D01*
X93453787Y-100090865D01*
X93441863Y-100082395D01*
X93430328Y-100088882D01*
X92440022Y-101079188D01*
X92432408Y-101093132D01*
X91702356Y-101093132D01*
X91703592Y-101090868D01*
X91703461Y-101089035D01*
X91699210Y-101082420D01*
X90704828Y-100088038D01*
X90691520Y-100080771D01*
X90681481Y-100087893D01*
X90676581Y-100093784D01*
X90671168Y-100101373D01*
X90544322Y-100310409D01*
X90540084Y-100318726D01*
X90445529Y-100544214D01*
X90442572Y-100553052D01*
X90382384Y-100790042D01*
X90380763Y-100799232D01*
X90356267Y-101042510D01*
X90356022Y-101051835D01*
X86182500Y-101051835D01*
X86182500Y-99716917D01*
X91057330Y-99716917D01*
X91061903Y-99726693D01*
X92055188Y-100719978D01*
X92069132Y-100727592D01*
X92070965Y-100727461D01*
X92077580Y-100723210D01*
X93070488Y-99730302D01*
X93076872Y-99718612D01*
X93067460Y-99706502D01*
X92941144Y-99618873D01*
X92933116Y-99614145D01*
X92713810Y-99505995D01*
X92705177Y-99502507D01*
X92472288Y-99427958D01*
X92463238Y-99425785D01*
X92221891Y-99386480D01*
X92212602Y-99385668D01*
X91968114Y-99382467D01*
X91958803Y-99383037D01*
X91716522Y-99416010D01*
X91707403Y-99417948D01*
X91472668Y-99486367D01*
X91463915Y-99489639D01*
X91241869Y-99592004D01*
X91233714Y-99596524D01*
X91066468Y-99706175D01*
X91057330Y-99716917D01*
X86182500Y-99716917D01*
X86182500Y-98173866D01*
X86175745Y-98111684D01*
X86124615Y-97975295D01*
X86037261Y-97858739D01*
X85920705Y-97771385D01*
X85784316Y-97720255D01*
X85722134Y-97713500D01*
X82425866Y-97713500D01*
X82363684Y-97720255D01*
X82227295Y-97771385D01*
X82110739Y-97858739D01*
X82023385Y-97975295D01*
X81972255Y-98111684D01*
X81965500Y-98173866D01*
X81965500Y-101470134D01*
X81972255Y-101532316D01*
X82023385Y-101668705D01*
X82040327Y-101691311D01*
X82065174Y-101757815D01*
X82065500Y-101766874D01*
X82065500Y-105497126D01*
X82045498Y-105565247D01*
X82040339Y-105572673D01*
X82023385Y-105595295D01*
X81972255Y-105731684D01*
X81965500Y-105793866D01*
X81965500Y-109090134D01*
X81972255Y-109152316D01*
X81976441Y-109163482D01*
X81984864Y-109185950D01*
X81990047Y-109256757D01*
X81956126Y-109319126D01*
X81893871Y-109353256D01*
X81823047Y-109348309D01*
X81785891Y-109326702D01*
X81715181Y-109267369D01*
X81697285Y-109252352D01*
X81695642Y-109250949D01*
X81603697Y-109171023D01*
X81600011Y-109168629D01*
X81600004Y-109168624D01*
X81595397Y-109165632D01*
X81583039Y-109156488D01*
X81578826Y-109152953D01*
X81578819Y-109152948D01*
X81575450Y-109150121D01*
X81472162Y-109085580D01*
X81470306Y-109084398D01*
X81468923Y-109083500D01*
X81368118Y-109018036D01*
X81364123Y-109016173D01*
X81359143Y-109013850D01*
X81345637Y-109006518D01*
X81340968Y-109003601D01*
X81337236Y-109001269D01*
X81333224Y-108999483D01*
X81333217Y-108999479D01*
X81225968Y-108951729D01*
X81223967Y-108950817D01*
X81117525Y-108901182D01*
X81117522Y-108901181D01*
X81113540Y-108899324D01*
X81104070Y-108896429D01*
X81089663Y-108891042D01*
X81084650Y-108888810D01*
X81084649Y-108888810D01*
X81080625Y-108887018D01*
X80963505Y-108853435D01*
X80961417Y-108852817D01*
X80844917Y-108817199D01*
X80835135Y-108815650D01*
X80820119Y-108812320D01*
X80814843Y-108810807D01*
X80814844Y-108810807D01*
X80810610Y-108809593D01*
X80806257Y-108808981D01*
X80806251Y-108808980D01*
X80690022Y-108792646D01*
X80687845Y-108792321D01*
X80571824Y-108773944D01*
X80571823Y-108773944D01*
X80567480Y-108773256D01*
X80563084Y-108773179D01*
X80563080Y-108773179D01*
X80557570Y-108773083D01*
X80542240Y-108771876D01*
X80532448Y-108770500D01*
X80410688Y-108770500D01*
X80408489Y-108770481D01*
X80286626Y-108768354D01*
X80282270Y-108768889D01*
X80282267Y-108768889D01*
X80276796Y-108769561D01*
X80261440Y-108770500D01*
X78609138Y-108770500D01*
X78541017Y-108750498D01*
X78520043Y-108733595D01*
X77611405Y-107824957D01*
X77577379Y-107762645D01*
X77574500Y-107735862D01*
X77574500Y-100039909D01*
X77574673Y-100033315D01*
X77578869Y-99953259D01*
X77578869Y-99953253D01*
X77579099Y-99948862D01*
X77578442Y-99941346D01*
X77574979Y-99901771D01*
X77574500Y-99890789D01*
X77574500Y-94197890D01*
X77574673Y-94191296D01*
X77578868Y-94111259D01*
X77578868Y-94111253D01*
X77579098Y-94106862D01*
X77573158Y-94038962D01*
X77568479Y-93985486D01*
X77568307Y-93983293D01*
X77560118Y-93866173D01*
X77560117Y-93866167D01*
X77559811Y-93861788D01*
X77557753Y-93852107D01*
X77555481Y-93836900D01*
X77555002Y-93831425D01*
X77555000Y-93831412D01*
X77554617Y-93827034D01*
X77551122Y-93811895D01*
X77527207Y-93708305D01*
X77526732Y-93706160D01*
X77502325Y-93591337D01*
X77502323Y-93591330D01*
X77501409Y-93587030D01*
X77498020Y-93577719D01*
X77493655Y-93562981D01*
X77491428Y-93553337D01*
X77447769Y-93439600D01*
X77447010Y-93437569D01*
X77406846Y-93327218D01*
X77406842Y-93327209D01*
X77405337Y-93323074D01*
X77400691Y-93314336D01*
X77394317Y-93300348D01*
X77392346Y-93295214D01*
X77392341Y-93295202D01*
X77390765Y-93291098D01*
X77331664Y-93184479D01*
X77330652Y-93182612D01*
X77275530Y-93078942D01*
X77275524Y-93078933D01*
X77273464Y-93075058D01*
X77270879Y-93071501D01*
X77270876Y-93071495D01*
X77267645Y-93067047D01*
X77259379Y-93054073D01*
X77254583Y-93045421D01*
X77181289Y-92948156D01*
X77179991Y-92946402D01*
X77110941Y-92851363D01*
X77110940Y-92851362D01*
X77108358Y-92847808D01*
X77101475Y-92840680D01*
X77091490Y-92828988D01*
X77088188Y-92824607D01*
X77088187Y-92824606D01*
X77085536Y-92821088D01*
X76999460Y-92735012D01*
X76997918Y-92733444D01*
X76978065Y-92712886D01*
X76913231Y-92645748D01*
X76905422Y-92639647D01*
X76893900Y-92629452D01*
X76479877Y-92215429D01*
X81978359Y-92215429D01*
X81978562Y-92217034D01*
X82032246Y-92490664D01*
X82034457Y-92498916D01*
X82124782Y-92762736D01*
X82128097Y-92770621D01*
X82253389Y-93019736D01*
X82257745Y-93027102D01*
X82415687Y-93256907D01*
X82420995Y-93263605D01*
X82608670Y-93469858D01*
X82614841Y-93475775D01*
X82828761Y-93654641D01*
X82835693Y-93659676D01*
X83071895Y-93807846D01*
X83079446Y-93811895D01*
X83333581Y-93926640D01*
X83341612Y-93929627D01*
X83608967Y-94008822D01*
X83617318Y-94010689D01*
X83802090Y-94038962D01*
X83815877Y-94037107D01*
X83820000Y-94023298D01*
X83820000Y-94022560D01*
X84328000Y-94022560D01*
X84332105Y-94036542D01*
X84345271Y-94038585D01*
X84465658Y-94024016D01*
X84474075Y-94022411D01*
X84743786Y-93951654D01*
X84751902Y-93948923D01*
X85009521Y-93842213D01*
X85017183Y-93838410D01*
X85257943Y-93697721D01*
X85265008Y-93692920D01*
X85484451Y-93520854D01*
X85490807Y-93515131D01*
X85684861Y-93314882D01*
X85690381Y-93308351D01*
X85855464Y-93083617D01*
X85860048Y-93076393D01*
X85993099Y-92831346D01*
X85996667Y-92823553D01*
X86095227Y-92562721D01*
X86097704Y-92554515D01*
X86159953Y-92282720D01*
X86161294Y-92274257D01*
X86166132Y-92220044D01*
X86163161Y-92205125D01*
X86151354Y-92202000D01*
X84346115Y-92202000D01*
X84330876Y-92206475D01*
X84329671Y-92207865D01*
X84328000Y-92215548D01*
X84328000Y-94022560D01*
X83820000Y-94022560D01*
X83820000Y-92220115D01*
X83815525Y-92204876D01*
X83814135Y-92203671D01*
X83806452Y-92202000D01*
X81995226Y-92202000D01*
X81980041Y-92206459D01*
X81978359Y-92215429D01*
X76479877Y-92215429D01*
X75940390Y-91675942D01*
X81980860Y-91675942D01*
X81984030Y-91691031D01*
X81995493Y-91694000D01*
X83801885Y-91694000D01*
X83817124Y-91689525D01*
X83818329Y-91688135D01*
X83820000Y-91680452D01*
X83820000Y-91675885D01*
X84328000Y-91675885D01*
X84332475Y-91691124D01*
X84333865Y-91692329D01*
X84341548Y-91694000D01*
X86151495Y-91694000D01*
X86166486Y-91689598D01*
X86168541Y-91678315D01*
X86167669Y-91665519D01*
X86166508Y-91657047D01*
X86109962Y-91383998D01*
X86107658Y-91375744D01*
X86014579Y-91112897D01*
X86011183Y-91105049D01*
X85883286Y-90857254D01*
X85878858Y-90849942D01*
X85718515Y-90621798D01*
X85713133Y-90615152D01*
X85523318Y-90410886D01*
X85517078Y-90405027D01*
X85301296Y-90228411D01*
X85294324Y-90223456D01*
X85056560Y-90077754D01*
X85048990Y-90073796D01*
X84793657Y-89961714D01*
X84785597Y-89958812D01*
X84517432Y-89882424D01*
X84509054Y-89880642D01*
X84345935Y-89857427D01*
X84331949Y-89859458D01*
X84328000Y-89872943D01*
X84328000Y-91675885D01*
X83820000Y-91675885D01*
X83820000Y-89873332D01*
X83815956Y-89859561D01*
X83802417Y-89857532D01*
X83660621Y-89876200D01*
X83652223Y-89877893D01*
X83383274Y-89951469D01*
X83375179Y-89954288D01*
X83118694Y-90063688D01*
X83111071Y-90067572D01*
X82871806Y-90210768D01*
X82864777Y-90215653D01*
X82647153Y-90390004D01*
X82640864Y-90395787D01*
X82448913Y-90598061D01*
X82443460Y-90604654D01*
X82280747Y-90831092D01*
X82276230Y-90838377D01*
X82145757Y-91084799D01*
X82142271Y-91092627D01*
X82046446Y-91354481D01*
X82044057Y-91362704D01*
X81984654Y-91635151D01*
X81983405Y-91643607D01*
X81980860Y-91675942D01*
X75940390Y-91675942D01*
X74739765Y-90475317D01*
X74735224Y-90470533D01*
X74681566Y-90410940D01*
X74678629Y-90407678D01*
X74585295Y-90329360D01*
X74583642Y-90327949D01*
X74491697Y-90248023D01*
X74488011Y-90245629D01*
X74488004Y-90245624D01*
X74483397Y-90242632D01*
X74471039Y-90233488D01*
X74466826Y-90229953D01*
X74466819Y-90229948D01*
X74463450Y-90227121D01*
X74360162Y-90162580D01*
X74358306Y-90161398D01*
X74259809Y-90097433D01*
X74256118Y-90095036D01*
X74252123Y-90093173D01*
X74247143Y-90090850D01*
X74233637Y-90083518D01*
X74228968Y-90080601D01*
X74225236Y-90078269D01*
X74221224Y-90076483D01*
X74221217Y-90076479D01*
X74113968Y-90028729D01*
X74111967Y-90027817D01*
X74005525Y-89978182D01*
X74005522Y-89978181D01*
X74001540Y-89976324D01*
X73992070Y-89973429D01*
X73977663Y-89968042D01*
X73972650Y-89965810D01*
X73972649Y-89965810D01*
X73968625Y-89964018D01*
X73874522Y-89937035D01*
X73851505Y-89930435D01*
X73849417Y-89929817D01*
X73732917Y-89894199D01*
X73723135Y-89892650D01*
X73708119Y-89889320D01*
X73702843Y-89887807D01*
X73702844Y-89887807D01*
X73698610Y-89886593D01*
X73694257Y-89885981D01*
X73694251Y-89885980D01*
X73578022Y-89869646D01*
X73575845Y-89869321D01*
X73459824Y-89850944D01*
X73459823Y-89850944D01*
X73455480Y-89850256D01*
X73451084Y-89850179D01*
X73451080Y-89850179D01*
X73445570Y-89850083D01*
X73430240Y-89848876D01*
X73420448Y-89847500D01*
X73298688Y-89847500D01*
X73296489Y-89847481D01*
X73174626Y-89845354D01*
X73170270Y-89845889D01*
X73170267Y-89845889D01*
X73164796Y-89846561D01*
X73149440Y-89847500D01*
X70560061Y-89847500D01*
X70544380Y-89845662D01*
X70544316Y-89846255D01*
X70485531Y-89839869D01*
X70482134Y-89839500D01*
X67185866Y-89839500D01*
X67148127Y-89843600D01*
X67078246Y-89831072D01*
X67026230Y-89782752D01*
X67008520Y-89718337D01*
X67008520Y-89300118D01*
X67028522Y-89231997D01*
X67045425Y-89211023D01*
X69529043Y-86727405D01*
X69591355Y-86693379D01*
X69618138Y-86690500D01*
X70482134Y-86690500D01*
X70544316Y-86683745D01*
X70680705Y-86632615D01*
X70797261Y-86545261D01*
X70884615Y-86428705D01*
X70935745Y-86292316D01*
X70942500Y-86230134D01*
X70942500Y-84849429D01*
X81978359Y-84849429D01*
X81978562Y-84851034D01*
X82032246Y-85124664D01*
X82034457Y-85132916D01*
X82124782Y-85396736D01*
X82128097Y-85404621D01*
X82253389Y-85653736D01*
X82257745Y-85661102D01*
X82415687Y-85890907D01*
X82420995Y-85897605D01*
X82608670Y-86103858D01*
X82614841Y-86109775D01*
X82828761Y-86288641D01*
X82835693Y-86293676D01*
X83071895Y-86441846D01*
X83079446Y-86445895D01*
X83333581Y-86560640D01*
X83341612Y-86563627D01*
X83608967Y-86642822D01*
X83617318Y-86644689D01*
X83802090Y-86672962D01*
X83815877Y-86671107D01*
X83820000Y-86657298D01*
X83820000Y-86656560D01*
X84328000Y-86656560D01*
X84332105Y-86670542D01*
X84345271Y-86672585D01*
X84465658Y-86658016D01*
X84474075Y-86656411D01*
X84743786Y-86585654D01*
X84751902Y-86582923D01*
X85009521Y-86476213D01*
X85017183Y-86472410D01*
X85257943Y-86331721D01*
X85265008Y-86326920D01*
X85484451Y-86154854D01*
X85490807Y-86149131D01*
X85684861Y-85948882D01*
X85690381Y-85942351D01*
X85855464Y-85717617D01*
X85860048Y-85710393D01*
X85993099Y-85465346D01*
X85996667Y-85457553D01*
X86095227Y-85196721D01*
X86097704Y-85188515D01*
X86159953Y-84916720D01*
X86161294Y-84908257D01*
X86166132Y-84854044D01*
X86163161Y-84839125D01*
X86151354Y-84836000D01*
X84346115Y-84836000D01*
X84330876Y-84840475D01*
X84329671Y-84841865D01*
X84328000Y-84849548D01*
X84328000Y-86656560D01*
X83820000Y-86656560D01*
X83820000Y-84854115D01*
X83815525Y-84838876D01*
X83814135Y-84837671D01*
X83806452Y-84836000D01*
X81995226Y-84836000D01*
X81980041Y-84840459D01*
X81978359Y-84849429D01*
X70942500Y-84849429D01*
X70942500Y-84309942D01*
X81980860Y-84309942D01*
X81984030Y-84325031D01*
X81995493Y-84328000D01*
X83801885Y-84328000D01*
X83817124Y-84323525D01*
X83818329Y-84322135D01*
X83820000Y-84314452D01*
X83820000Y-84309885D01*
X84328000Y-84309885D01*
X84332475Y-84325124D01*
X84333865Y-84326329D01*
X84341548Y-84328000D01*
X86151495Y-84328000D01*
X86166486Y-84323598D01*
X86168541Y-84312315D01*
X86167669Y-84299519D01*
X86166508Y-84291047D01*
X86109962Y-84017998D01*
X86107658Y-84009744D01*
X86014579Y-83746897D01*
X86011183Y-83739049D01*
X85975213Y-83669359D01*
X91143141Y-83669359D01*
X91151854Y-83680879D01*
X91240341Y-83745760D01*
X91248260Y-83750708D01*
X91464632Y-83864547D01*
X91473206Y-83868275D01*
X91704037Y-83948885D01*
X91713046Y-83951299D01*
X91953273Y-83996908D01*
X91962530Y-83997962D01*
X92206862Y-84007563D01*
X92216175Y-84007237D01*
X92459233Y-83980618D01*
X92468410Y-83978917D01*
X92704862Y-83916665D01*
X92713681Y-83913628D01*
X92938339Y-83817107D01*
X92946611Y-83812800D01*
X93154532Y-83684135D01*
X93156375Y-83682796D01*
X93163793Y-83671541D01*
X93157729Y-83661184D01*
X92164567Y-82668022D01*
X92150623Y-82660408D01*
X92148790Y-82660539D01*
X92142175Y-82664790D01*
X91149799Y-83657166D01*
X91143141Y-83669359D01*
X85975213Y-83669359D01*
X85883286Y-83491254D01*
X85878858Y-83483942D01*
X85718515Y-83255798D01*
X85713133Y-83249152D01*
X85523318Y-83044886D01*
X85517078Y-83039027D01*
X85301296Y-82862411D01*
X85294324Y-82857456D01*
X85056560Y-82711754D01*
X85048990Y-82707796D01*
X84793657Y-82595714D01*
X84785597Y-82592812D01*
X84517432Y-82516424D01*
X84509054Y-82514642D01*
X84345935Y-82491427D01*
X84331949Y-82493458D01*
X84328000Y-82506943D01*
X84328000Y-84309885D01*
X83820000Y-84309885D01*
X83820000Y-82507332D01*
X83815956Y-82493561D01*
X83802417Y-82491532D01*
X83660621Y-82510200D01*
X83652223Y-82511893D01*
X83383274Y-82585469D01*
X83375179Y-82588288D01*
X83118694Y-82697688D01*
X83111071Y-82701572D01*
X82871806Y-82844768D01*
X82864777Y-82849653D01*
X82647153Y-83024004D01*
X82640864Y-83029787D01*
X82448913Y-83232061D01*
X82443460Y-83238654D01*
X82280747Y-83465092D01*
X82276230Y-83472377D01*
X82145757Y-83718799D01*
X82142271Y-83726627D01*
X82046446Y-83988481D01*
X82044057Y-83996704D01*
X81984654Y-84269151D01*
X81983405Y-84277607D01*
X81980860Y-84309942D01*
X70942500Y-84309942D01*
X70942500Y-82933866D01*
X70935745Y-82871684D01*
X70884615Y-82735295D01*
X70797261Y-82618739D01*
X70680705Y-82531385D01*
X70544316Y-82480255D01*
X70482134Y-82473500D01*
X67185866Y-82473500D01*
X67123684Y-82480255D01*
X66987295Y-82531385D01*
X66870739Y-82618739D01*
X66783385Y-82735295D01*
X66732255Y-82871684D01*
X66725500Y-82933866D01*
X66725500Y-83797862D01*
X66705498Y-83865983D01*
X66688595Y-83886957D01*
X64223595Y-86351957D01*
X64161283Y-86385983D01*
X64090468Y-86380918D01*
X64033632Y-86338371D01*
X64008821Y-86271851D01*
X64008500Y-86262862D01*
X64008500Y-82255835D01*
X90439777Y-82255835D01*
X90451509Y-82500064D01*
X90452646Y-82509324D01*
X90500348Y-82749143D01*
X90502837Y-82758118D01*
X90585463Y-82988250D01*
X90589260Y-82996778D01*
X90704989Y-83212160D01*
X90710000Y-83220027D01*
X90766928Y-83296263D01*
X90778186Y-83304712D01*
X90790605Y-83297940D01*
X91779733Y-82308812D01*
X91786111Y-82297132D01*
X92516163Y-82297132D01*
X92516294Y-82298965D01*
X92520545Y-82305580D01*
X93515487Y-83300522D01*
X93527867Y-83307282D01*
X93536208Y-83301038D01*
X93654455Y-83117202D01*
X93658902Y-83109011D01*
X93759327Y-82886076D01*
X93762522Y-82877298D01*
X93828890Y-82641973D01*
X93830748Y-82632844D01*
X93861799Y-82388770D01*
X93862280Y-82382483D01*
X93864461Y-82299160D01*
X93864310Y-82292851D01*
X93846076Y-82047486D01*
X93844699Y-82038280D01*
X93790734Y-81799786D01*
X93788010Y-81790875D01*
X93699388Y-81562983D01*
X93695374Y-81554567D01*
X93574039Y-81342276D01*
X93568829Y-81334553D01*
X93537542Y-81294865D01*
X93525618Y-81286395D01*
X93514083Y-81292882D01*
X92523777Y-82283188D01*
X92516163Y-82297132D01*
X91786111Y-82297132D01*
X91787347Y-82294868D01*
X91787216Y-82293035D01*
X91782965Y-82286420D01*
X90788583Y-81292038D01*
X90775275Y-81284771D01*
X90765236Y-81291893D01*
X90760336Y-81297784D01*
X90754923Y-81305373D01*
X90628077Y-81514409D01*
X90623839Y-81522726D01*
X90529284Y-81748214D01*
X90526327Y-81757052D01*
X90466139Y-81994042D01*
X90464518Y-82003232D01*
X90440022Y-82246510D01*
X90439777Y-82255835D01*
X64008500Y-82255835D01*
X64008500Y-80920917D01*
X91141085Y-80920917D01*
X91145658Y-80930693D01*
X92138943Y-81923978D01*
X92152887Y-81931592D01*
X92154720Y-81931461D01*
X92161335Y-81927210D01*
X93154243Y-80934302D01*
X93160627Y-80922612D01*
X93151215Y-80910502D01*
X93024899Y-80822873D01*
X93016871Y-80818145D01*
X92797565Y-80709995D01*
X92788932Y-80706507D01*
X92556043Y-80631958D01*
X92546993Y-80629785D01*
X92305646Y-80590480D01*
X92296357Y-80589668D01*
X92051869Y-80586467D01*
X92042558Y-80587037D01*
X91800277Y-80620010D01*
X91791158Y-80621948D01*
X91556423Y-80690367D01*
X91547670Y-80693639D01*
X91325624Y-80796004D01*
X91317469Y-80800524D01*
X91150223Y-80910175D01*
X91141085Y-80920917D01*
X64008500Y-80920917D01*
X64008500Y-73024500D01*
X64028502Y-72956379D01*
X64082158Y-72909886D01*
X64134500Y-72898500D01*
X70178786Y-72898500D01*
X70246907Y-72918502D01*
G37*
G04 #@! TD.AperFunction*
M02*
