%TF.GenerationSoftware,KiCad,Pcbnew,6.0.4-6f826c9f35~116~ubuntu20.04.1*%
%TF.CreationDate,2022-05-17T20:29:21-03:00*%
%TF.ProjectId,Kicad_Projects,4b696361-645f-4507-926f-6a656374732e,rev?*%
%TF.SameCoordinates,Original*%
%TF.FileFunction,Legend,Top*%
%TF.FilePolarity,Positive*%
%FSLAX46Y46*%
G04 Gerber Fmt 4.6, Leading zero omitted, Abs format (unit mm)*
G04 Created by KiCad (PCBNEW 6.0.4-6f826c9f35~116~ubuntu20.04.1) date 2022-05-17 20:29:21*
%MOMM*%
%LPD*%
G01*
G04 APERTURE LIST*
%ADD10C,0.150000*%
%ADD11C,0.120000*%
%ADD12C,1.600000*%
%ADD13O,1.600000X1.600000*%
%ADD14C,2.340000*%
%ADD15R,1.800000X1.800000*%
%ADD16O,1.800000X1.800000*%
%ADD17R,2.400000X2.400000*%
%ADD18C,2.400000*%
%ADD19R,2.500000X4.500000*%
%ADD20O,2.500000X4.500000*%
%ADD21R,3.200000X3.200000*%
%ADD22O,3.200000X3.200000*%
%ADD23R,2.200000X2.200000*%
%ADD24O,2.200000X2.200000*%
%ADD25C,6.000000*%
%ADD26C,1.440000*%
%ADD27R,3.000000X3.000000*%
%ADD28C,3.000000*%
%ADD29R,1.600000X1.600000*%
%ADD30C,1.800000*%
G04 APERTURE END LIST*
D10*
X138677333Y-76195380D02*
X138677333Y-76909666D01*
X138629714Y-77052523D01*
X138534476Y-77147761D01*
X138391619Y-77195380D01*
X138296380Y-77195380D01*
X139582095Y-76528714D02*
X139582095Y-77195380D01*
X139153523Y-76528714D02*
X139153523Y-77052523D01*
X139201142Y-77147761D01*
X139296380Y-77195380D01*
X139439238Y-77195380D01*
X139534476Y-77147761D01*
X139582095Y-77100142D01*
X140058285Y-77195380D02*
X140058285Y-76528714D01*
X140058285Y-76623952D02*
X140105904Y-76576333D01*
X140201142Y-76528714D01*
X140344000Y-76528714D01*
X140439238Y-76576333D01*
X140486857Y-76671571D01*
X140486857Y-77195380D01*
X140486857Y-76671571D02*
X140534476Y-76576333D01*
X140629714Y-76528714D01*
X140772571Y-76528714D01*
X140867809Y-76576333D01*
X140915428Y-76671571D01*
X140915428Y-77195380D01*
X141391619Y-76528714D02*
X141391619Y-77528714D01*
X141391619Y-76576333D02*
X141486857Y-76528714D01*
X141677333Y-76528714D01*
X141772571Y-76576333D01*
X141820190Y-76623952D01*
X141867809Y-76719190D01*
X141867809Y-77004904D01*
X141820190Y-77100142D01*
X141772571Y-77147761D01*
X141677333Y-77195380D01*
X141486857Y-77195380D01*
X141391619Y-77147761D01*
X142677333Y-77147761D02*
X142582095Y-77195380D01*
X142391619Y-77195380D01*
X142296380Y-77147761D01*
X142248761Y-77052523D01*
X142248761Y-76671571D01*
X142296380Y-76576333D01*
X142391619Y-76528714D01*
X142582095Y-76528714D01*
X142677333Y-76576333D01*
X142724952Y-76671571D01*
X142724952Y-76766809D01*
X142248761Y-76862047D01*
X143153523Y-77195380D02*
X143153523Y-76528714D01*
X143153523Y-76719190D02*
X143201142Y-76623952D01*
X143248761Y-76576333D01*
X143344000Y-76528714D01*
X143439238Y-76528714D01*
X136653000Y-76743000D02*
X145035000Y-76743000D01*
X75312619Y-73834571D02*
X74979285Y-73834571D01*
X74979285Y-74358380D02*
X74979285Y-73358380D01*
X75455476Y-73358380D01*
X76265000Y-73691714D02*
X76265000Y-74358380D01*
X75836428Y-73691714D02*
X75836428Y-74215523D01*
X75884047Y-74310761D01*
X75979285Y-74358380D01*
X76122142Y-74358380D01*
X76217380Y-74310761D01*
X76265000Y-74263142D01*
X77122142Y-74310761D02*
X77026904Y-74358380D01*
X76836428Y-74358380D01*
X76741190Y-74310761D01*
X76693571Y-74215523D01*
X76693571Y-73834571D01*
X76741190Y-73739333D01*
X76836428Y-73691714D01*
X77026904Y-73691714D01*
X77122142Y-73739333D01*
X77169761Y-73834571D01*
X77169761Y-73929809D01*
X76693571Y-74025047D01*
X77598333Y-73691714D02*
X77598333Y-74358380D01*
X77598333Y-73786952D02*
X77645952Y-73739333D01*
X77741190Y-73691714D01*
X77884047Y-73691714D01*
X77979285Y-73739333D01*
X78026904Y-73834571D01*
X78026904Y-74358380D01*
X78360238Y-73691714D02*
X78741190Y-73691714D01*
X78503095Y-73358380D02*
X78503095Y-74215523D01*
X78550714Y-74310761D01*
X78645952Y-74358380D01*
X78741190Y-74358380D01*
X79455476Y-74310761D02*
X79360238Y-74358380D01*
X79169761Y-74358380D01*
X79074523Y-74310761D01*
X79026904Y-74215523D01*
X79026904Y-73834571D01*
X79074523Y-73739333D01*
X79169761Y-73691714D01*
X79360238Y-73691714D01*
X79455476Y-73739333D01*
X79503095Y-73834571D01*
X79503095Y-73929809D01*
X79026904Y-74025047D01*
X81217380Y-74358380D02*
X80645952Y-74358380D01*
X80931666Y-74358380D02*
X80931666Y-73358380D01*
X80836428Y-73501238D01*
X80741190Y-73596476D01*
X80645952Y-73644095D01*
X81788809Y-73786952D02*
X81693571Y-73739333D01*
X81645952Y-73691714D01*
X81598333Y-73596476D01*
X81598333Y-73548857D01*
X81645952Y-73453619D01*
X81693571Y-73406000D01*
X81788809Y-73358380D01*
X81979285Y-73358380D01*
X82074523Y-73406000D01*
X82122142Y-73453619D01*
X82169761Y-73548857D01*
X82169761Y-73596476D01*
X82122142Y-73691714D01*
X82074523Y-73739333D01*
X81979285Y-73786952D01*
X81788809Y-73786952D01*
X81693571Y-73834571D01*
X81645952Y-73882190D01*
X81598333Y-73977428D01*
X81598333Y-74167904D01*
X81645952Y-74263142D01*
X81693571Y-74310761D01*
X81788809Y-74358380D01*
X81979285Y-74358380D01*
X82074523Y-74310761D01*
X82122142Y-74263142D01*
X82169761Y-74167904D01*
X82169761Y-73977428D01*
X82122142Y-73882190D01*
X82074523Y-73834571D01*
X81979285Y-73786952D01*
X82455476Y-73358380D02*
X82788809Y-74358380D01*
X83122142Y-73358380D01*
X84122142Y-73358380D02*
X84741190Y-73358380D01*
X84407857Y-73739333D01*
X84550714Y-73739333D01*
X84645952Y-73786952D01*
X84693571Y-73834571D01*
X84741190Y-73929809D01*
X84741190Y-74167904D01*
X84693571Y-74263142D01*
X84645952Y-74310761D01*
X84550714Y-74358380D01*
X84265000Y-74358380D01*
X84169761Y-74310761D01*
X84122142Y-74263142D01*
X85122142Y-74072666D02*
X85598333Y-74072666D01*
X85026904Y-74358380D02*
X85360238Y-73358380D01*
X85693571Y-74358380D01*
X70288809Y-75968380D02*
X70288809Y-74968380D01*
X70622142Y-75682666D01*
X70955476Y-74968380D01*
X70955476Y-75968380D01*
X71812619Y-75920761D02*
X71717380Y-75968380D01*
X71526904Y-75968380D01*
X71431666Y-75920761D01*
X71384047Y-75825523D01*
X71384047Y-75444571D01*
X71431666Y-75349333D01*
X71526904Y-75301714D01*
X71717380Y-75301714D01*
X71812619Y-75349333D01*
X71860238Y-75444571D01*
X71860238Y-75539809D01*
X71384047Y-75635047D01*
X72717380Y-75920761D02*
X72622142Y-75968380D01*
X72431666Y-75968380D01*
X72336428Y-75920761D01*
X72288809Y-75873142D01*
X72241190Y-75777904D01*
X72241190Y-75492190D01*
X72288809Y-75396952D01*
X72336428Y-75349333D01*
X72431666Y-75301714D01*
X72622142Y-75301714D01*
X72717380Y-75349333D01*
X73574523Y-75968380D02*
X73574523Y-75444571D01*
X73526904Y-75349333D01*
X73431666Y-75301714D01*
X73241190Y-75301714D01*
X73145952Y-75349333D01*
X73574523Y-75920761D02*
X73479285Y-75968380D01*
X73241190Y-75968380D01*
X73145952Y-75920761D01*
X73098333Y-75825523D01*
X73098333Y-75730285D01*
X73145952Y-75635047D01*
X73241190Y-75587428D01*
X73479285Y-75587428D01*
X73574523Y-75539809D01*
X73907857Y-75301714D02*
X74288809Y-75301714D01*
X74050714Y-74968380D02*
X74050714Y-75825523D01*
X74098333Y-75920761D01*
X74193571Y-75968380D01*
X74288809Y-75968380D01*
X74622142Y-75968380D02*
X74622142Y-75301714D01*
X74622142Y-75492190D02*
X74669761Y-75396952D01*
X74717380Y-75349333D01*
X74812619Y-75301714D01*
X74907857Y-75301714D01*
X75384047Y-75968380D02*
X75288809Y-75920761D01*
X75241190Y-75873142D01*
X75193571Y-75777904D01*
X75193571Y-75492190D01*
X75241190Y-75396952D01*
X75288809Y-75349333D01*
X75384047Y-75301714D01*
X75526904Y-75301714D01*
X75622142Y-75349333D01*
X75669761Y-75396952D01*
X75717380Y-75492190D01*
X75717380Y-75777904D01*
X75669761Y-75873142D01*
X75622142Y-75920761D01*
X75526904Y-75968380D01*
X75384047Y-75968380D01*
X76145952Y-75301714D02*
X76145952Y-75968380D01*
X76145952Y-75396952D02*
X76193571Y-75349333D01*
X76288809Y-75301714D01*
X76431666Y-75301714D01*
X76526904Y-75349333D01*
X76574523Y-75444571D01*
X76574523Y-75968380D01*
X77050714Y-75968380D02*
X77050714Y-75301714D01*
X77050714Y-74968380D02*
X77003095Y-75016000D01*
X77050714Y-75063619D01*
X77098333Y-75016000D01*
X77050714Y-74968380D01*
X77050714Y-75063619D01*
X77955476Y-75920761D02*
X77860238Y-75968380D01*
X77669761Y-75968380D01*
X77574523Y-75920761D01*
X77526904Y-75873142D01*
X77479285Y-75777904D01*
X77479285Y-75492190D01*
X77526904Y-75396952D01*
X77574523Y-75349333D01*
X77669761Y-75301714D01*
X77860238Y-75301714D01*
X77955476Y-75349333D01*
X78812619Y-75968380D02*
X78812619Y-75444571D01*
X78765000Y-75349333D01*
X78669761Y-75301714D01*
X78479285Y-75301714D01*
X78384047Y-75349333D01*
X78812619Y-75920761D02*
X78717380Y-75968380D01*
X78479285Y-75968380D01*
X78384047Y-75920761D01*
X78336428Y-75825523D01*
X78336428Y-75730285D01*
X78384047Y-75635047D01*
X78479285Y-75587428D01*
X78717380Y-75587428D01*
X78812619Y-75539809D01*
X80574523Y-75968380D02*
X80003095Y-75968380D01*
X80288809Y-75968380D02*
X80288809Y-74968380D01*
X80193571Y-75111238D01*
X80098333Y-75206476D01*
X80003095Y-75254095D01*
X81765000Y-75587428D02*
X82526904Y-75587428D01*
X83336428Y-75444571D02*
X83003095Y-75444571D01*
X83003095Y-75968380D02*
X83003095Y-74968380D01*
X83479285Y-74968380D01*
X84431666Y-75968380D02*
X84098333Y-75492190D01*
X83860238Y-75968380D02*
X83860238Y-74968380D01*
X84241190Y-74968380D01*
X84336428Y-75016000D01*
X84384047Y-75063619D01*
X84431666Y-75158857D01*
X84431666Y-75301714D01*
X84384047Y-75396952D01*
X84336428Y-75444571D01*
X84241190Y-75492190D01*
X83860238Y-75492190D01*
X85431666Y-75873142D02*
X85384047Y-75920761D01*
X85241190Y-75968380D01*
X85145952Y-75968380D01*
X85003095Y-75920761D01*
X84907857Y-75825523D01*
X84860238Y-75730285D01*
X84812619Y-75539809D01*
X84812619Y-75396952D01*
X84860238Y-75206476D01*
X84907857Y-75111238D01*
X85003095Y-75016000D01*
X85145952Y-74968380D01*
X85241190Y-74968380D01*
X85384047Y-75016000D01*
X85431666Y-75063619D01*
X85860238Y-75587428D02*
X86622142Y-75587428D01*
X87860238Y-74968380D02*
X87860238Y-75777904D01*
X87907857Y-75873142D01*
X87955476Y-75920761D01*
X88050714Y-75968380D01*
X88241190Y-75968380D01*
X88336428Y-75920761D01*
X88384047Y-75873142D01*
X88431666Y-75777904D01*
X88431666Y-74968380D01*
X88765000Y-74968380D02*
X89336428Y-74968380D01*
X89050714Y-75968380D02*
X89050714Y-74968380D01*
X89669761Y-75968380D02*
X89669761Y-74968380D01*
X90241190Y-75968380D01*
X90241190Y-74968380D01*
%TO.C,R4*%
X142074333Y-97896380D02*
X141741000Y-97420190D01*
X141502904Y-97896380D02*
X141502904Y-96896380D01*
X141883857Y-96896380D01*
X141979095Y-96944000D01*
X142026714Y-96991619D01*
X142074333Y-97086857D01*
X142074333Y-97229714D01*
X142026714Y-97324952D01*
X141979095Y-97372571D01*
X141883857Y-97420190D01*
X141502904Y-97420190D01*
X142931476Y-97229714D02*
X142931476Y-97896380D01*
X142693380Y-96848761D02*
X142455285Y-97563047D01*
X143074333Y-97563047D01*
%TO.C,Regulacion_Corriente1*%
X126922571Y-74147380D02*
X126589238Y-73671190D01*
X126351142Y-74147380D02*
X126351142Y-73147380D01*
X126732095Y-73147380D01*
X126827333Y-73195000D01*
X126874952Y-73242619D01*
X126922571Y-73337857D01*
X126922571Y-73480714D01*
X126874952Y-73575952D01*
X126827333Y-73623571D01*
X126732095Y-73671190D01*
X126351142Y-73671190D01*
X127732095Y-74099761D02*
X127636857Y-74147380D01*
X127446380Y-74147380D01*
X127351142Y-74099761D01*
X127303523Y-74004523D01*
X127303523Y-73623571D01*
X127351142Y-73528333D01*
X127446380Y-73480714D01*
X127636857Y-73480714D01*
X127732095Y-73528333D01*
X127779714Y-73623571D01*
X127779714Y-73718809D01*
X127303523Y-73814047D01*
X128636857Y-73480714D02*
X128636857Y-74290238D01*
X128589238Y-74385476D01*
X128541619Y-74433095D01*
X128446380Y-74480714D01*
X128303523Y-74480714D01*
X128208285Y-74433095D01*
X128636857Y-74099761D02*
X128541619Y-74147380D01*
X128351142Y-74147380D01*
X128255904Y-74099761D01*
X128208285Y-74052142D01*
X128160666Y-73956904D01*
X128160666Y-73671190D01*
X128208285Y-73575952D01*
X128255904Y-73528333D01*
X128351142Y-73480714D01*
X128541619Y-73480714D01*
X128636857Y-73528333D01*
X129541619Y-73480714D02*
X129541619Y-74147380D01*
X129113047Y-73480714D02*
X129113047Y-74004523D01*
X129160666Y-74099761D01*
X129255904Y-74147380D01*
X129398761Y-74147380D01*
X129493999Y-74099761D01*
X129541619Y-74052142D01*
X130160666Y-74147380D02*
X130065428Y-74099761D01*
X130017809Y-74004523D01*
X130017809Y-73147380D01*
X130970190Y-74147380D02*
X130970190Y-73623571D01*
X130922571Y-73528333D01*
X130827333Y-73480714D01*
X130636857Y-73480714D01*
X130541619Y-73528333D01*
X130970190Y-74099761D02*
X130874952Y-74147380D01*
X130636857Y-74147380D01*
X130541619Y-74099761D01*
X130494000Y-74004523D01*
X130494000Y-73909285D01*
X130541619Y-73814047D01*
X130636857Y-73766428D01*
X130874952Y-73766428D01*
X130970190Y-73718809D01*
X131874952Y-74099761D02*
X131779714Y-74147380D01*
X131589238Y-74147380D01*
X131493999Y-74099761D01*
X131446380Y-74052142D01*
X131398761Y-73956904D01*
X131398761Y-73671190D01*
X131446380Y-73575952D01*
X131493999Y-73528333D01*
X131589238Y-73480714D01*
X131779714Y-73480714D01*
X131874952Y-73528333D01*
X132303523Y-74147380D02*
X132303523Y-73480714D01*
X132303523Y-73147380D02*
X132255904Y-73195000D01*
X132303523Y-73242619D01*
X132351142Y-73195000D01*
X132303523Y-73147380D01*
X132303523Y-73242619D01*
X132922571Y-74147380D02*
X132827333Y-74099761D01*
X132779714Y-74052142D01*
X132732095Y-73956904D01*
X132732095Y-73671190D01*
X132779714Y-73575952D01*
X132827333Y-73528333D01*
X132922571Y-73480714D01*
X133065428Y-73480714D01*
X133160666Y-73528333D01*
X133208285Y-73575952D01*
X133255904Y-73671190D01*
X133255904Y-73956904D01*
X133208285Y-74052142D01*
X133160666Y-74099761D01*
X133065428Y-74147380D01*
X132922571Y-74147380D01*
X133684476Y-73480714D02*
X133684476Y-74147380D01*
X133684476Y-73575952D02*
X133732095Y-73528333D01*
X133827333Y-73480714D01*
X133970190Y-73480714D01*
X134065428Y-73528333D01*
X134113047Y-73623571D01*
X134113047Y-74147380D01*
X134351142Y-74242619D02*
X135113047Y-74242619D01*
X135922571Y-74052142D02*
X135874952Y-74099761D01*
X135732095Y-74147380D01*
X135636857Y-74147380D01*
X135494000Y-74099761D01*
X135398761Y-74004523D01*
X135351142Y-73909285D01*
X135303523Y-73718809D01*
X135303523Y-73575952D01*
X135351142Y-73385476D01*
X135398761Y-73290238D01*
X135494000Y-73195000D01*
X135636857Y-73147380D01*
X135732095Y-73147380D01*
X135874952Y-73195000D01*
X135922571Y-73242619D01*
X136494000Y-74147380D02*
X136398761Y-74099761D01*
X136351142Y-74052142D01*
X136303523Y-73956904D01*
X136303523Y-73671190D01*
X136351142Y-73575952D01*
X136398761Y-73528333D01*
X136494000Y-73480714D01*
X136636857Y-73480714D01*
X136732095Y-73528333D01*
X136779714Y-73575952D01*
X136827333Y-73671190D01*
X136827333Y-73956904D01*
X136779714Y-74052142D01*
X136732095Y-74099761D01*
X136636857Y-74147380D01*
X136494000Y-74147380D01*
X137255904Y-74147380D02*
X137255904Y-73480714D01*
X137255904Y-73671190D02*
X137303523Y-73575952D01*
X137351142Y-73528333D01*
X137446380Y-73480714D01*
X137541619Y-73480714D01*
X137874952Y-74147380D02*
X137874952Y-73480714D01*
X137874952Y-73671190D02*
X137922571Y-73575952D01*
X137970190Y-73528333D01*
X138065428Y-73480714D01*
X138160666Y-73480714D01*
X138494000Y-74147380D02*
X138494000Y-73480714D01*
X138494000Y-73147380D02*
X138446380Y-73195000D01*
X138494000Y-73242619D01*
X138541619Y-73195000D01*
X138494000Y-73147380D01*
X138494000Y-73242619D01*
X139351142Y-74099761D02*
X139255904Y-74147380D01*
X139065428Y-74147380D01*
X138970190Y-74099761D01*
X138922571Y-74004523D01*
X138922571Y-73623571D01*
X138970190Y-73528333D01*
X139065428Y-73480714D01*
X139255904Y-73480714D01*
X139351142Y-73528333D01*
X139398761Y-73623571D01*
X139398761Y-73718809D01*
X138922571Y-73814047D01*
X139827333Y-73480714D02*
X139827333Y-74147380D01*
X139827333Y-73575952D02*
X139874952Y-73528333D01*
X139970190Y-73480714D01*
X140113047Y-73480714D01*
X140208285Y-73528333D01*
X140255904Y-73623571D01*
X140255904Y-74147380D01*
X140589238Y-73480714D02*
X140970190Y-73480714D01*
X140732095Y-73147380D02*
X140732095Y-74004523D01*
X140779714Y-74099761D01*
X140874952Y-74147380D01*
X140970190Y-74147380D01*
X141684476Y-74099761D02*
X141589238Y-74147380D01*
X141398761Y-74147380D01*
X141303523Y-74099761D01*
X141255904Y-74004523D01*
X141255904Y-73623571D01*
X141303523Y-73528333D01*
X141398761Y-73480714D01*
X141589238Y-73480714D01*
X141684476Y-73528333D01*
X141732095Y-73623571D01*
X141732095Y-73718809D01*
X141255904Y-73814047D01*
X142684476Y-74147380D02*
X142113047Y-74147380D01*
X142398761Y-74147380D02*
X142398761Y-73147380D01*
X142303523Y-73290238D01*
X142208285Y-73385476D01*
X142113047Y-73433095D01*
%TO.C,Q1*%
X124746761Y-102563619D02*
X124651523Y-102516000D01*
X124556285Y-102420761D01*
X124413428Y-102277904D01*
X124318190Y-102230285D01*
X124222952Y-102230285D01*
X124270571Y-102468380D02*
X124175333Y-102420761D01*
X124080095Y-102325523D01*
X124032476Y-102135047D01*
X124032476Y-101801714D01*
X124080095Y-101611238D01*
X124175333Y-101516000D01*
X124270571Y-101468380D01*
X124461047Y-101468380D01*
X124556285Y-101516000D01*
X124651523Y-101611238D01*
X124699142Y-101801714D01*
X124699142Y-102135047D01*
X124651523Y-102325523D01*
X124556285Y-102420761D01*
X124461047Y-102468380D01*
X124270571Y-102468380D01*
X125651523Y-102468380D02*
X125080095Y-102468380D01*
X125365809Y-102468380D02*
X125365809Y-101468380D01*
X125270571Y-101611238D01*
X125175333Y-101706476D01*
X125080095Y-101754095D01*
%TO.C,C2*%
X95651333Y-110699142D02*
X95603714Y-110746761D01*
X95460857Y-110794380D01*
X95365619Y-110794380D01*
X95222761Y-110746761D01*
X95127523Y-110651523D01*
X95079904Y-110556285D01*
X95032285Y-110365809D01*
X95032285Y-110222952D01*
X95079904Y-110032476D01*
X95127523Y-109937238D01*
X95222761Y-109842000D01*
X95365619Y-109794380D01*
X95460857Y-109794380D01*
X95603714Y-109842000D01*
X95651333Y-109889619D01*
X96032285Y-109889619D02*
X96079904Y-109842000D01*
X96175142Y-109794380D01*
X96413238Y-109794380D01*
X96508476Y-109842000D01*
X96556095Y-109889619D01*
X96603714Y-109984857D01*
X96603714Y-110080095D01*
X96556095Y-110222952D01*
X95984666Y-110794380D01*
X96603714Y-110794380D01*
%TO.C,R3*%
X142074333Y-93451380D02*
X141741000Y-92975190D01*
X141502904Y-93451380D02*
X141502904Y-92451380D01*
X141883857Y-92451380D01*
X141979095Y-92499000D01*
X142026714Y-92546619D01*
X142074333Y-92641857D01*
X142074333Y-92784714D01*
X142026714Y-92879952D01*
X141979095Y-92927571D01*
X141883857Y-92975190D01*
X141502904Y-92975190D01*
X142407666Y-92451380D02*
X143026714Y-92451380D01*
X142693380Y-92832333D01*
X142836238Y-92832333D01*
X142931476Y-92879952D01*
X142979095Y-92927571D01*
X143026714Y-93022809D01*
X143026714Y-93260904D01*
X142979095Y-93356142D01*
X142931476Y-93403761D01*
X142836238Y-93451380D01*
X142550523Y-93451380D01*
X142455285Y-93403761D01*
X142407666Y-93356142D01*
%TO.C,Regulacion_Tension1*%
X103387809Y-74020380D02*
X103054476Y-73544190D01*
X102816380Y-74020380D02*
X102816380Y-73020380D01*
X103197333Y-73020380D01*
X103292571Y-73068000D01*
X103340190Y-73115619D01*
X103387809Y-73210857D01*
X103387809Y-73353714D01*
X103340190Y-73448952D01*
X103292571Y-73496571D01*
X103197333Y-73544190D01*
X102816380Y-73544190D01*
X104197333Y-73972761D02*
X104102095Y-74020380D01*
X103911619Y-74020380D01*
X103816380Y-73972761D01*
X103768761Y-73877523D01*
X103768761Y-73496571D01*
X103816380Y-73401333D01*
X103911619Y-73353714D01*
X104102095Y-73353714D01*
X104197333Y-73401333D01*
X104244952Y-73496571D01*
X104244952Y-73591809D01*
X103768761Y-73687047D01*
X105102095Y-73353714D02*
X105102095Y-74163238D01*
X105054476Y-74258476D01*
X105006857Y-74306095D01*
X104911619Y-74353714D01*
X104768761Y-74353714D01*
X104673523Y-74306095D01*
X105102095Y-73972761D02*
X105006857Y-74020380D01*
X104816380Y-74020380D01*
X104721142Y-73972761D01*
X104673523Y-73925142D01*
X104625904Y-73829904D01*
X104625904Y-73544190D01*
X104673523Y-73448952D01*
X104721142Y-73401333D01*
X104816380Y-73353714D01*
X105006857Y-73353714D01*
X105102095Y-73401333D01*
X106006857Y-73353714D02*
X106006857Y-74020380D01*
X105578285Y-73353714D02*
X105578285Y-73877523D01*
X105625904Y-73972761D01*
X105721142Y-74020380D01*
X105864000Y-74020380D01*
X105959238Y-73972761D01*
X106006857Y-73925142D01*
X106625904Y-74020380D02*
X106530666Y-73972761D01*
X106483047Y-73877523D01*
X106483047Y-73020380D01*
X107435428Y-74020380D02*
X107435428Y-73496571D01*
X107387809Y-73401333D01*
X107292571Y-73353714D01*
X107102095Y-73353714D01*
X107006857Y-73401333D01*
X107435428Y-73972761D02*
X107340190Y-74020380D01*
X107102095Y-74020380D01*
X107006857Y-73972761D01*
X106959238Y-73877523D01*
X106959238Y-73782285D01*
X107006857Y-73687047D01*
X107102095Y-73639428D01*
X107340190Y-73639428D01*
X107435428Y-73591809D01*
X108340190Y-73972761D02*
X108244952Y-74020380D01*
X108054476Y-74020380D01*
X107959238Y-73972761D01*
X107911619Y-73925142D01*
X107864000Y-73829904D01*
X107864000Y-73544190D01*
X107911619Y-73448952D01*
X107959238Y-73401333D01*
X108054476Y-73353714D01*
X108244952Y-73353714D01*
X108340190Y-73401333D01*
X108768761Y-74020380D02*
X108768761Y-73353714D01*
X108768761Y-73020380D02*
X108721142Y-73068000D01*
X108768761Y-73115619D01*
X108816380Y-73068000D01*
X108768761Y-73020380D01*
X108768761Y-73115619D01*
X109387809Y-74020380D02*
X109292571Y-73972761D01*
X109244952Y-73925142D01*
X109197333Y-73829904D01*
X109197333Y-73544190D01*
X109244952Y-73448952D01*
X109292571Y-73401333D01*
X109387809Y-73353714D01*
X109530666Y-73353714D01*
X109625904Y-73401333D01*
X109673523Y-73448952D01*
X109721142Y-73544190D01*
X109721142Y-73829904D01*
X109673523Y-73925142D01*
X109625904Y-73972761D01*
X109530666Y-74020380D01*
X109387809Y-74020380D01*
X110149714Y-73353714D02*
X110149714Y-74020380D01*
X110149714Y-73448952D02*
X110197333Y-73401333D01*
X110292571Y-73353714D01*
X110435428Y-73353714D01*
X110530666Y-73401333D01*
X110578285Y-73496571D01*
X110578285Y-74020380D01*
X110816380Y-74115619D02*
X111578285Y-74115619D01*
X111673523Y-73020380D02*
X112244952Y-73020380D01*
X111959238Y-74020380D02*
X111959238Y-73020380D01*
X112959238Y-73972761D02*
X112864000Y-74020380D01*
X112673523Y-74020380D01*
X112578285Y-73972761D01*
X112530666Y-73877523D01*
X112530666Y-73496571D01*
X112578285Y-73401333D01*
X112673523Y-73353714D01*
X112864000Y-73353714D01*
X112959238Y-73401333D01*
X113006857Y-73496571D01*
X113006857Y-73591809D01*
X112530666Y-73687047D01*
X113435428Y-73353714D02*
X113435428Y-74020380D01*
X113435428Y-73448952D02*
X113483047Y-73401333D01*
X113578285Y-73353714D01*
X113721142Y-73353714D01*
X113816380Y-73401333D01*
X113864000Y-73496571D01*
X113864000Y-74020380D01*
X114292571Y-73972761D02*
X114387809Y-74020380D01*
X114578285Y-74020380D01*
X114673523Y-73972761D01*
X114721142Y-73877523D01*
X114721142Y-73829904D01*
X114673523Y-73734666D01*
X114578285Y-73687047D01*
X114435428Y-73687047D01*
X114340190Y-73639428D01*
X114292571Y-73544190D01*
X114292571Y-73496571D01*
X114340190Y-73401333D01*
X114435428Y-73353714D01*
X114578285Y-73353714D01*
X114673523Y-73401333D01*
X115149714Y-74020380D02*
X115149714Y-73353714D01*
X115149714Y-73020380D02*
X115102095Y-73068000D01*
X115149714Y-73115619D01*
X115197333Y-73068000D01*
X115149714Y-73020380D01*
X115149714Y-73115619D01*
X115768761Y-74020380D02*
X115673523Y-73972761D01*
X115625904Y-73925142D01*
X115578285Y-73829904D01*
X115578285Y-73544190D01*
X115625904Y-73448952D01*
X115673523Y-73401333D01*
X115768761Y-73353714D01*
X115911619Y-73353714D01*
X116006857Y-73401333D01*
X116054476Y-73448952D01*
X116102095Y-73544190D01*
X116102095Y-73829904D01*
X116054476Y-73925142D01*
X116006857Y-73972761D01*
X115911619Y-74020380D01*
X115768761Y-74020380D01*
X116530666Y-73353714D02*
X116530666Y-74020380D01*
X116530666Y-73448952D02*
X116578285Y-73401333D01*
X116673523Y-73353714D01*
X116816380Y-73353714D01*
X116911619Y-73401333D01*
X116959238Y-73496571D01*
X116959238Y-74020380D01*
X117959238Y-74020380D02*
X117387809Y-74020380D01*
X117673523Y-74020380D02*
X117673523Y-73020380D01*
X117578285Y-73163238D01*
X117483047Y-73258476D01*
X117387809Y-73306095D01*
%TO.C,Q2*%
X130714761Y-118946619D02*
X130619523Y-118899000D01*
X130524285Y-118803761D01*
X130381428Y-118660904D01*
X130286190Y-118613285D01*
X130190952Y-118613285D01*
X130238571Y-118851380D02*
X130143333Y-118803761D01*
X130048095Y-118708523D01*
X130000476Y-118518047D01*
X130000476Y-118184714D01*
X130048095Y-117994238D01*
X130143333Y-117899000D01*
X130238571Y-117851380D01*
X130429047Y-117851380D01*
X130524285Y-117899000D01*
X130619523Y-117994238D01*
X130667142Y-118184714D01*
X130667142Y-118518047D01*
X130619523Y-118708523D01*
X130524285Y-118803761D01*
X130429047Y-118851380D01*
X130238571Y-118851380D01*
X131048095Y-117946619D02*
X131095714Y-117899000D01*
X131190952Y-117851380D01*
X131429047Y-117851380D01*
X131524285Y-117899000D01*
X131571904Y-117946619D01*
X131619523Y-118041857D01*
X131619523Y-118137095D01*
X131571904Y-118279952D01*
X131000476Y-118851380D01*
X131619523Y-118851380D01*
%TO.C,D3*%
X75715904Y-88680380D02*
X75715904Y-87680380D01*
X75954000Y-87680380D01*
X76096857Y-87728000D01*
X76192095Y-87823238D01*
X76239714Y-87918476D01*
X76287333Y-88108952D01*
X76287333Y-88251809D01*
X76239714Y-88442285D01*
X76192095Y-88537523D01*
X76096857Y-88632761D01*
X75954000Y-88680380D01*
X75715904Y-88680380D01*
X76620666Y-87680380D02*
X77239714Y-87680380D01*
X76906380Y-88061333D01*
X77049238Y-88061333D01*
X77144476Y-88108952D01*
X77192095Y-88156571D01*
X77239714Y-88251809D01*
X77239714Y-88489904D01*
X77192095Y-88585142D01*
X77144476Y-88632761D01*
X77049238Y-88680380D01*
X76763523Y-88680380D01*
X76668285Y-88632761D01*
X76620666Y-88585142D01*
X68572095Y-89800380D02*
X68572095Y-88800380D01*
X69143523Y-89800380D02*
X68714952Y-89228952D01*
X69143523Y-88800380D02*
X68572095Y-89371809D01*
%TO.C,C1*%
X95735088Y-91903142D02*
X95687469Y-91950761D01*
X95544612Y-91998380D01*
X95449374Y-91998380D01*
X95306516Y-91950761D01*
X95211278Y-91855523D01*
X95163659Y-91760285D01*
X95116040Y-91569809D01*
X95116040Y-91426952D01*
X95163659Y-91236476D01*
X95211278Y-91141238D01*
X95306516Y-91046000D01*
X95449374Y-90998380D01*
X95544612Y-90998380D01*
X95687469Y-91046000D01*
X95735088Y-91093619D01*
X96687469Y-91998380D02*
X96116040Y-91998380D01*
X96401755Y-91998380D02*
X96401755Y-90998380D01*
X96306516Y-91141238D01*
X96211278Y-91236476D01*
X96116040Y-91284095D01*
%TO.C,C3*%
X124675333Y-85609142D02*
X124627714Y-85656761D01*
X124484857Y-85704380D01*
X124389619Y-85704380D01*
X124246761Y-85656761D01*
X124151523Y-85561523D01*
X124103904Y-85466285D01*
X124056285Y-85275809D01*
X124056285Y-85132952D01*
X124103904Y-84942476D01*
X124151523Y-84847238D01*
X124246761Y-84752000D01*
X124389619Y-84704380D01*
X124484857Y-84704380D01*
X124627714Y-84752000D01*
X124675333Y-84799619D01*
X125008666Y-84704380D02*
X125627714Y-84704380D01*
X125294380Y-85085333D01*
X125437238Y-85085333D01*
X125532476Y-85132952D01*
X125580095Y-85180571D01*
X125627714Y-85275809D01*
X125627714Y-85513904D01*
X125580095Y-85609142D01*
X125532476Y-85656761D01*
X125437238Y-85704380D01*
X125151523Y-85704380D01*
X125056285Y-85656761D01*
X125008666Y-85609142D01*
%TO.C,D6*%
X129817904Y-104373380D02*
X129817904Y-103373380D01*
X130056000Y-103373380D01*
X130198857Y-103421000D01*
X130294095Y-103516238D01*
X130341714Y-103611476D01*
X130389333Y-103801952D01*
X130389333Y-103944809D01*
X130341714Y-104135285D01*
X130294095Y-104230523D01*
X130198857Y-104325761D01*
X130056000Y-104373380D01*
X129817904Y-104373380D01*
X131246476Y-103373380D02*
X131056000Y-103373380D01*
X130960761Y-103421000D01*
X130913142Y-103468619D01*
X130817904Y-103611476D01*
X130770285Y-103801952D01*
X130770285Y-104182904D01*
X130817904Y-104278142D01*
X130865523Y-104325761D01*
X130960761Y-104373380D01*
X131151238Y-104373380D01*
X131246476Y-104325761D01*
X131294095Y-104278142D01*
X131341714Y-104182904D01*
X131341714Y-103944809D01*
X131294095Y-103849571D01*
X131246476Y-103801952D01*
X131151238Y-103754333D01*
X130960761Y-103754333D01*
X130865523Y-103801952D01*
X130817904Y-103849571D01*
X130770285Y-103944809D01*
X135374095Y-108724380D02*
X135374095Y-107724380D01*
X135945523Y-108724380D02*
X135516952Y-108152952D01*
X135945523Y-107724380D02*
X135374095Y-108295809D01*
%TO.C,D2*%
X75715904Y-103994380D02*
X75715904Y-102994380D01*
X75954000Y-102994380D01*
X76096857Y-103042000D01*
X76192095Y-103137238D01*
X76239714Y-103232476D01*
X76287333Y-103422952D01*
X76287333Y-103565809D01*
X76239714Y-103756285D01*
X76192095Y-103851523D01*
X76096857Y-103946761D01*
X75954000Y-103994380D01*
X75715904Y-103994380D01*
X76668285Y-103089619D02*
X76715904Y-103042000D01*
X76811142Y-102994380D01*
X77049238Y-102994380D01*
X77144476Y-103042000D01*
X77192095Y-103089619D01*
X77239714Y-103184857D01*
X77239714Y-103280095D01*
X77192095Y-103422952D01*
X76620666Y-103994380D01*
X77239714Y-103994380D01*
X83812095Y-102874380D02*
X83812095Y-101874380D01*
X84383523Y-102874380D02*
X83954952Y-102302952D01*
X84383523Y-101874380D02*
X83812095Y-102445809D01*
%TO.C,D1*%
X75715904Y-111614380D02*
X75715904Y-110614380D01*
X75954000Y-110614380D01*
X76096857Y-110662000D01*
X76192095Y-110757238D01*
X76239714Y-110852476D01*
X76287333Y-111042952D01*
X76287333Y-111185809D01*
X76239714Y-111376285D01*
X76192095Y-111471523D01*
X76096857Y-111566761D01*
X75954000Y-111614380D01*
X75715904Y-111614380D01*
X77239714Y-111614380D02*
X76668285Y-111614380D01*
X76954000Y-111614380D02*
X76954000Y-110614380D01*
X76858761Y-110757238D01*
X76763523Y-110852476D01*
X76668285Y-110900095D01*
X83812095Y-110494380D02*
X83812095Y-109494380D01*
X84383523Y-110494380D02*
X83954952Y-109922952D01*
X84383523Y-109494380D02*
X83812095Y-110065809D01*
%TO.C,D7*%
X155556380Y-103608095D02*
X154556380Y-103608095D01*
X154556380Y-103370000D01*
X154604000Y-103227142D01*
X154699238Y-103131904D01*
X154794476Y-103084285D01*
X154984952Y-103036666D01*
X155127809Y-103036666D01*
X155318285Y-103084285D01*
X155413523Y-103131904D01*
X155508761Y-103227142D01*
X155556380Y-103370000D01*
X155556380Y-103608095D01*
X154556380Y-102703333D02*
X154556380Y-102036666D01*
X155556380Y-102465238D01*
X154436380Y-95511904D02*
X153436380Y-95511904D01*
X154436380Y-94940476D02*
X153864952Y-95369047D01*
X153436380Y-94940476D02*
X154007809Y-95511904D01*
%TO.C,HS1*%
X111030904Y-115676380D02*
X111030904Y-114676380D01*
X111030904Y-115152571D02*
X111602333Y-115152571D01*
X111602333Y-115676380D02*
X111602333Y-114676380D01*
X112030904Y-115628761D02*
X112173761Y-115676380D01*
X112411857Y-115676380D01*
X112507095Y-115628761D01*
X112554714Y-115581142D01*
X112602333Y-115485904D01*
X112602333Y-115390666D01*
X112554714Y-115295428D01*
X112507095Y-115247809D01*
X112411857Y-115200190D01*
X112221380Y-115152571D01*
X112126142Y-115104952D01*
X112078523Y-115057333D01*
X112030904Y-114962095D01*
X112030904Y-114866857D01*
X112078523Y-114771619D01*
X112126142Y-114724000D01*
X112221380Y-114676380D01*
X112459476Y-114676380D01*
X112602333Y-114724000D01*
X113554714Y-115676380D02*
X112983285Y-115676380D01*
X113269000Y-115676380D02*
X113269000Y-114676380D01*
X113173761Y-114819238D01*
X113078523Y-114914476D01*
X112983285Y-114962095D01*
%TO.C,Ajuste_Iout_max1*%
X144765904Y-73734666D02*
X145242095Y-73734666D01*
X144670666Y-74020380D02*
X145004000Y-73020380D01*
X145337333Y-74020380D01*
X145670666Y-73353714D02*
X145670666Y-74210857D01*
X145623047Y-74306095D01*
X145527809Y-74353714D01*
X145480190Y-74353714D01*
X145670666Y-73020380D02*
X145623047Y-73068000D01*
X145670666Y-73115619D01*
X145718285Y-73068000D01*
X145670666Y-73020380D01*
X145670666Y-73115619D01*
X146575428Y-73353714D02*
X146575428Y-74020380D01*
X146146857Y-73353714D02*
X146146857Y-73877523D01*
X146194476Y-73972761D01*
X146289714Y-74020380D01*
X146432571Y-74020380D01*
X146527809Y-73972761D01*
X146575428Y-73925142D01*
X147004000Y-73972761D02*
X147099238Y-74020380D01*
X147289714Y-74020380D01*
X147384952Y-73972761D01*
X147432571Y-73877523D01*
X147432571Y-73829904D01*
X147384952Y-73734666D01*
X147289714Y-73687047D01*
X147146857Y-73687047D01*
X147051619Y-73639428D01*
X147004000Y-73544190D01*
X147004000Y-73496571D01*
X147051619Y-73401333D01*
X147146857Y-73353714D01*
X147289714Y-73353714D01*
X147384952Y-73401333D01*
X147718285Y-73353714D02*
X148099238Y-73353714D01*
X147861142Y-73020380D02*
X147861142Y-73877523D01*
X147908761Y-73972761D01*
X148004000Y-74020380D01*
X148099238Y-74020380D01*
X148813523Y-73972761D02*
X148718285Y-74020380D01*
X148527809Y-74020380D01*
X148432571Y-73972761D01*
X148384952Y-73877523D01*
X148384952Y-73496571D01*
X148432571Y-73401333D01*
X148527809Y-73353714D01*
X148718285Y-73353714D01*
X148813523Y-73401333D01*
X148861142Y-73496571D01*
X148861142Y-73591809D01*
X148384952Y-73687047D01*
X149051619Y-74115619D02*
X149813523Y-74115619D01*
X150051619Y-74020380D02*
X150051619Y-73020380D01*
X150670666Y-74020380D02*
X150575428Y-73972761D01*
X150527809Y-73925142D01*
X150480190Y-73829904D01*
X150480190Y-73544190D01*
X150527809Y-73448952D01*
X150575428Y-73401333D01*
X150670666Y-73353714D01*
X150813523Y-73353714D01*
X150908761Y-73401333D01*
X150956380Y-73448952D01*
X151004000Y-73544190D01*
X151004000Y-73829904D01*
X150956380Y-73925142D01*
X150908761Y-73972761D01*
X150813523Y-74020380D01*
X150670666Y-74020380D01*
X151861142Y-73353714D02*
X151861142Y-74020380D01*
X151432571Y-73353714D02*
X151432571Y-73877523D01*
X151480190Y-73972761D01*
X151575428Y-74020380D01*
X151718285Y-74020380D01*
X151813523Y-73972761D01*
X151861142Y-73925142D01*
X152194476Y-73353714D02*
X152575428Y-73353714D01*
X152337333Y-73020380D02*
X152337333Y-73877523D01*
X152384952Y-73972761D01*
X152480190Y-74020380D01*
X152575428Y-74020380D01*
X152670666Y-74115619D02*
X153432571Y-74115619D01*
X153670666Y-74020380D02*
X153670666Y-73353714D01*
X153670666Y-73448952D02*
X153718285Y-73401333D01*
X153813523Y-73353714D01*
X153956380Y-73353714D01*
X154051619Y-73401333D01*
X154099238Y-73496571D01*
X154099238Y-74020380D01*
X154099238Y-73496571D02*
X154146857Y-73401333D01*
X154242095Y-73353714D01*
X154384952Y-73353714D01*
X154480190Y-73401333D01*
X154527809Y-73496571D01*
X154527809Y-74020380D01*
X155432571Y-74020380D02*
X155432571Y-73496571D01*
X155384952Y-73401333D01*
X155289714Y-73353714D01*
X155099238Y-73353714D01*
X155004000Y-73401333D01*
X155432571Y-73972761D02*
X155337333Y-74020380D01*
X155099238Y-74020380D01*
X155004000Y-73972761D01*
X154956380Y-73877523D01*
X154956380Y-73782285D01*
X155004000Y-73687047D01*
X155099238Y-73639428D01*
X155337333Y-73639428D01*
X155432571Y-73591809D01*
X155813523Y-74020380D02*
X156337333Y-73353714D01*
X155813523Y-73353714D02*
X156337333Y-74020380D01*
X157242095Y-74020380D02*
X156670666Y-74020380D01*
X156956380Y-74020380D02*
X156956380Y-73020380D01*
X156861142Y-73163238D01*
X156765904Y-73258476D01*
X156670666Y-73306095D01*
%TO.C,J1*%
X85518666Y-117054380D02*
X85518666Y-117768666D01*
X85471047Y-117911523D01*
X85375809Y-118006761D01*
X85232952Y-118054380D01*
X85137714Y-118054380D01*
X86518666Y-118054380D02*
X85947238Y-118054380D01*
X86232952Y-118054380D02*
X86232952Y-117054380D01*
X86137714Y-117197238D01*
X86042476Y-117292476D01*
X85947238Y-117340095D01*
%TO.C,C7*%
X152087333Y-83845142D02*
X152039714Y-83892761D01*
X151896857Y-83940380D01*
X151801619Y-83940380D01*
X151658761Y-83892761D01*
X151563523Y-83797523D01*
X151515904Y-83702285D01*
X151468285Y-83511809D01*
X151468285Y-83368952D01*
X151515904Y-83178476D01*
X151563523Y-83083238D01*
X151658761Y-82988000D01*
X151801619Y-82940380D01*
X151896857Y-82940380D01*
X152039714Y-82988000D01*
X152087333Y-83035619D01*
X152420666Y-82940380D02*
X153087333Y-82940380D01*
X152658761Y-83940380D01*
%TO.C,U1*%
X134121380Y-92211904D02*
X134930904Y-92211904D01*
X135026142Y-92164285D01*
X135073761Y-92116666D01*
X135121380Y-92021428D01*
X135121380Y-91830952D01*
X135073761Y-91735714D01*
X135026142Y-91688095D01*
X134930904Y-91640476D01*
X134121380Y-91640476D01*
X135121380Y-90640476D02*
X135121380Y-91211904D01*
X135121380Y-90926190D02*
X134121380Y-90926190D01*
X134264238Y-91021428D01*
X134359476Y-91116666D01*
X134407095Y-91211904D01*
%TO.C,R5*%
X142074333Y-89006380D02*
X141741000Y-88530190D01*
X141502904Y-89006380D02*
X141502904Y-88006380D01*
X141883857Y-88006380D01*
X141979095Y-88054000D01*
X142026714Y-88101619D01*
X142074333Y-88196857D01*
X142074333Y-88339714D01*
X142026714Y-88434952D01*
X141979095Y-88482571D01*
X141883857Y-88530190D01*
X141502904Y-88530190D01*
X142979095Y-88006380D02*
X142502904Y-88006380D01*
X142455285Y-88482571D01*
X142502904Y-88434952D01*
X142598142Y-88387333D01*
X142836238Y-88387333D01*
X142931476Y-88434952D01*
X142979095Y-88482571D01*
X143026714Y-88577809D01*
X143026714Y-88815904D01*
X142979095Y-88911142D01*
X142931476Y-88958761D01*
X142836238Y-89006380D01*
X142598142Y-89006380D01*
X142502904Y-88958761D01*
X142455285Y-88911142D01*
%TO.C,D5*%
X112108380Y-107418095D02*
X111108380Y-107418095D01*
X111108380Y-107180000D01*
X111156000Y-107037142D01*
X111251238Y-106941904D01*
X111346476Y-106894285D01*
X111536952Y-106846666D01*
X111679809Y-106846666D01*
X111870285Y-106894285D01*
X111965523Y-106941904D01*
X112060761Y-107037142D01*
X112108380Y-107180000D01*
X112108380Y-107418095D01*
X111108380Y-105941904D02*
X111108380Y-106418095D01*
X111584571Y-106465714D01*
X111536952Y-106418095D01*
X111489333Y-106322857D01*
X111489333Y-106084761D01*
X111536952Y-105989523D01*
X111584571Y-105941904D01*
X111679809Y-105894285D01*
X111917904Y-105894285D01*
X112013142Y-105941904D01*
X112060761Y-105989523D01*
X112108380Y-106084761D01*
X112108380Y-106322857D01*
X112060761Y-106418095D01*
X112013142Y-106465714D01*
%TO.C,C6*%
X157568333Y-83196142D02*
X157520714Y-83243761D01*
X157377857Y-83291380D01*
X157282619Y-83291380D01*
X157139761Y-83243761D01*
X157044523Y-83148523D01*
X156996904Y-83053285D01*
X156949285Y-82862809D01*
X156949285Y-82719952D01*
X156996904Y-82529476D01*
X157044523Y-82434238D01*
X157139761Y-82339000D01*
X157282619Y-82291380D01*
X157377857Y-82291380D01*
X157520714Y-82339000D01*
X157568333Y-82386619D01*
X158425476Y-82291380D02*
X158235000Y-82291380D01*
X158139761Y-82339000D01*
X158092142Y-82386619D01*
X157996904Y-82529476D01*
X157949285Y-82719952D01*
X157949285Y-83100904D01*
X157996904Y-83196142D01*
X158044523Y-83243761D01*
X158139761Y-83291380D01*
X158330238Y-83291380D01*
X158425476Y-83243761D01*
X158473095Y-83196142D01*
X158520714Y-83100904D01*
X158520714Y-82862809D01*
X158473095Y-82767571D01*
X158425476Y-82719952D01*
X158330238Y-82672333D01*
X158139761Y-82672333D01*
X158044523Y-82719952D01*
X157996904Y-82767571D01*
X157949285Y-82862809D01*
%TO.C,D4*%
X75715904Y-81314380D02*
X75715904Y-80314380D01*
X75954000Y-80314380D01*
X76096857Y-80362000D01*
X76192095Y-80457238D01*
X76239714Y-80552476D01*
X76287333Y-80742952D01*
X76287333Y-80885809D01*
X76239714Y-81076285D01*
X76192095Y-81171523D01*
X76096857Y-81266761D01*
X75954000Y-81314380D01*
X75715904Y-81314380D01*
X77144476Y-80647714D02*
X77144476Y-81314380D01*
X76906380Y-80266761D02*
X76668285Y-80981047D01*
X77287333Y-80981047D01*
X68572095Y-82434380D02*
X68572095Y-81434380D01*
X69143523Y-82434380D02*
X68714952Y-81862952D01*
X69143523Y-81434380D02*
X68572095Y-82005809D01*
%TO.C,J3*%
X162013380Y-92062333D02*
X162727666Y-92062333D01*
X162870523Y-92109952D01*
X162965761Y-92205190D01*
X163013380Y-92348047D01*
X163013380Y-92443285D01*
X162013380Y-91681380D02*
X162013380Y-91062333D01*
X162394333Y-91395666D01*
X162394333Y-91252809D01*
X162441952Y-91157571D01*
X162489571Y-91109952D01*
X162584809Y-91062333D01*
X162822904Y-91062333D01*
X162918142Y-91109952D01*
X162965761Y-91157571D01*
X163013380Y-91252809D01*
X163013380Y-91538523D01*
X162965761Y-91633761D01*
X162918142Y-91681380D01*
%TO.C,J4*%
X155663380Y-116319333D02*
X156377666Y-116319333D01*
X156520523Y-116366952D01*
X156615761Y-116462190D01*
X156663380Y-116605047D01*
X156663380Y-116700285D01*
X155996714Y-115414571D02*
X156663380Y-115414571D01*
X155615761Y-115652666D02*
X156330047Y-115890761D01*
X156330047Y-115271714D01*
%TO.C,C5*%
X132548333Y-100324142D02*
X132500714Y-100371761D01*
X132357857Y-100419380D01*
X132262619Y-100419380D01*
X132119761Y-100371761D01*
X132024523Y-100276523D01*
X131976904Y-100181285D01*
X131929285Y-99990809D01*
X131929285Y-99847952D01*
X131976904Y-99657476D01*
X132024523Y-99562238D01*
X132119761Y-99467000D01*
X132262619Y-99419380D01*
X132357857Y-99419380D01*
X132500714Y-99467000D01*
X132548333Y-99514619D01*
X133453095Y-99419380D02*
X132976904Y-99419380D01*
X132929285Y-99895571D01*
X132976904Y-99847952D01*
X133072142Y-99800333D01*
X133310238Y-99800333D01*
X133405476Y-99847952D01*
X133453095Y-99895571D01*
X133500714Y-99990809D01*
X133500714Y-100228904D01*
X133453095Y-100324142D01*
X133405476Y-100371761D01*
X133310238Y-100419380D01*
X133072142Y-100419380D01*
X132976904Y-100371761D01*
X132929285Y-100324142D01*
%TO.C,R1*%
X122373380Y-79703666D02*
X121897190Y-80037000D01*
X122373380Y-80275095D02*
X121373380Y-80275095D01*
X121373380Y-79894142D01*
X121421000Y-79798904D01*
X121468619Y-79751285D01*
X121563857Y-79703666D01*
X121706714Y-79703666D01*
X121801952Y-79751285D01*
X121849571Y-79798904D01*
X121897190Y-79894142D01*
X121897190Y-80275095D01*
X122373380Y-78751285D02*
X122373380Y-79322714D01*
X122373380Y-79037000D02*
X121373380Y-79037000D01*
X121516238Y-79132238D01*
X121611476Y-79227476D01*
X121659095Y-79322714D01*
%TO.C,R2*%
X111213333Y-99166380D02*
X110880000Y-98690190D01*
X110641904Y-99166380D02*
X110641904Y-98166380D01*
X111022857Y-98166380D01*
X111118095Y-98214000D01*
X111165714Y-98261619D01*
X111213333Y-98356857D01*
X111213333Y-98499714D01*
X111165714Y-98594952D01*
X111118095Y-98642571D01*
X111022857Y-98690190D01*
X110641904Y-98690190D01*
X111594285Y-98261619D02*
X111641904Y-98214000D01*
X111737142Y-98166380D01*
X111975238Y-98166380D01*
X112070476Y-98214000D01*
X112118095Y-98261619D01*
X112165714Y-98356857D01*
X112165714Y-98452095D01*
X112118095Y-98594952D01*
X111546666Y-99166380D01*
X112165714Y-99166380D01*
%TO.C,C4*%
X110086142Y-93419666D02*
X110133761Y-93467285D01*
X110181380Y-93610142D01*
X110181380Y-93705380D01*
X110133761Y-93848238D01*
X110038523Y-93943476D01*
X109943285Y-93991095D01*
X109752809Y-94038714D01*
X109609952Y-94038714D01*
X109419476Y-93991095D01*
X109324238Y-93943476D01*
X109229000Y-93848238D01*
X109181380Y-93705380D01*
X109181380Y-93610142D01*
X109229000Y-93467285D01*
X109276619Y-93419666D01*
X109514714Y-92562523D02*
X110181380Y-92562523D01*
X109133761Y-92800619D02*
X109848047Y-93038714D01*
X109848047Y-92419666D01*
%TO.C,J2*%
X98473666Y-117089380D02*
X98473666Y-117803666D01*
X98426047Y-117946523D01*
X98330809Y-118041761D01*
X98187952Y-118089380D01*
X98092714Y-118089380D01*
X98902238Y-117184619D02*
X98949857Y-117137000D01*
X99045095Y-117089380D01*
X99283190Y-117089380D01*
X99378428Y-117137000D01*
X99426047Y-117184619D01*
X99473666Y-117279857D01*
X99473666Y-117375095D01*
X99426047Y-117517952D01*
X98854619Y-118089380D01*
X99473666Y-118089380D01*
D11*
%TO.C,R4*%
X138717000Y-96528000D02*
X145257000Y-96528000D01*
X146027000Y-95158000D02*
X145257000Y-95158000D01*
X145257000Y-93788000D02*
X138717000Y-93788000D01*
X145257000Y-96528000D02*
X145257000Y-93788000D01*
X137947000Y-95158000D02*
X138717000Y-95158000D01*
X138717000Y-93788000D02*
X138717000Y-96528000D01*
%TO.C,Regulacion_Corriente1*%
X135477000Y-83236000D02*
X137626000Y-83236000D01*
X134931000Y-81878000D02*
X134931000Y-78195000D01*
X140476000Y-83236000D02*
X141571000Y-83236000D01*
X135477000Y-83236000D02*
X137626000Y-83236000D01*
X131530000Y-83236000D02*
X131530000Y-78195000D01*
X131530000Y-78195000D02*
X141571000Y-78195000D01*
X131530000Y-83236000D02*
X132625000Y-83236000D01*
X134931000Y-78195000D02*
X138171000Y-78195000D01*
X138171000Y-81878000D02*
X138171000Y-78195000D01*
X141571000Y-83236000D02*
X141571000Y-78195000D01*
%TO.C,Q1*%
X126314000Y-97762000D02*
X126314000Y-97442000D01*
X128834000Y-100932000D02*
X128834000Y-97442000D01*
X120594000Y-100932000D02*
X120594000Y-97442000D01*
X128834000Y-100932000D02*
X120594000Y-100932000D01*
X128834000Y-97442000D02*
X120594000Y-97442000D01*
X123113000Y-100932000D02*
X123113000Y-99352000D01*
X126314000Y-100932000D02*
X126314000Y-99862000D01*
X123113000Y-98272000D02*
X123113000Y-97442000D01*
%TO.C,C2*%
X92177000Y-99652000D02*
X92177000Y-93873000D01*
X90737000Y-99652000D02*
X90737000Y-94797000D01*
X95658000Y-109171000D02*
X95658000Y-93013000D01*
X89537000Y-106200000D02*
X89537000Y-95984000D01*
X93937000Y-108952000D02*
X93937000Y-93232000D01*
X94057000Y-108979000D02*
X94057000Y-93205000D01*
X93217000Y-99652000D02*
X93217000Y-93439000D01*
X92297000Y-108370000D02*
X92297000Y-102532000D01*
X90177000Y-106894000D02*
X90177000Y-95290000D01*
X91457000Y-107903000D02*
X91457000Y-102532000D01*
X91977000Y-108207000D02*
X91977000Y-102532000D01*
X95538000Y-109168000D02*
X95538000Y-93016000D01*
X90617000Y-107289000D02*
X90617000Y-94895000D01*
X92817000Y-108598000D02*
X92817000Y-102532000D01*
X91737000Y-99652000D02*
X91737000Y-94111000D01*
X90777000Y-99652000D02*
X90777000Y-94765000D01*
X93057000Y-108689000D02*
X93057000Y-102532000D01*
X92137000Y-108291000D02*
X92137000Y-102532000D01*
X94457000Y-109058000D02*
X94457000Y-93126000D01*
X93617000Y-108869000D02*
X93617000Y-93315000D01*
X95057000Y-109137000D02*
X95057000Y-93047000D01*
X89137000Y-105669000D02*
X89137000Y-96515000D01*
X89177000Y-105726000D02*
X89177000Y-96458000D01*
X92297000Y-99652000D02*
X92297000Y-93814000D01*
X92377000Y-99652000D02*
X92377000Y-93776000D01*
X93137000Y-99652000D02*
X93137000Y-93467000D01*
X94777000Y-109106000D02*
X94777000Y-93078000D01*
X90057000Y-106776000D02*
X90057000Y-95408000D01*
X92057000Y-108249000D02*
X92057000Y-102532000D01*
X93457000Y-99652000D02*
X93457000Y-93362000D01*
X91137000Y-99652000D02*
X91137000Y-94496000D01*
X93377000Y-99652000D02*
X93377000Y-93387000D01*
X94857000Y-109116000D02*
X94857000Y-93068000D01*
X89017000Y-105490000D02*
X89017000Y-96694000D01*
X89617000Y-106296000D02*
X89617000Y-95888000D01*
X90897000Y-107512000D02*
X90897000Y-102532000D01*
X93217000Y-108745000D02*
X93217000Y-102532000D01*
X89377000Y-105998000D02*
X89377000Y-96186000D01*
X90257000Y-106970000D02*
X90257000Y-95214000D01*
X94697000Y-109095000D02*
X94697000Y-93089000D01*
X93697000Y-108891000D02*
X93697000Y-93293000D01*
X94977000Y-109129000D02*
X94977000Y-93055000D01*
X93017000Y-99652000D02*
X93017000Y-93510000D01*
X89897000Y-106610000D02*
X89897000Y-95574000D01*
X89457000Y-106101000D02*
X89457000Y-96083000D01*
X91737000Y-108073000D02*
X91737000Y-102532000D01*
X90737000Y-107387000D02*
X90737000Y-102532000D01*
X94497000Y-109064000D02*
X94497000Y-93120000D01*
X90977000Y-99652000D02*
X90977000Y-94612000D01*
X92577000Y-99652000D02*
X92577000Y-93686000D01*
X91257000Y-99652000D02*
X91257000Y-94413000D01*
X92617000Y-108515000D02*
X92617000Y-102532000D01*
X104507491Y-105647000D02*
X102907491Y-105647000D01*
X92697000Y-99652000D02*
X92697000Y-93635000D01*
X93417000Y-108810000D02*
X93417000Y-102532000D01*
X93097000Y-108703000D02*
X93097000Y-102532000D01*
X95498000Y-109166000D02*
X95498000Y-93018000D01*
X95017000Y-109133000D02*
X95017000Y-93051000D01*
X93257000Y-99652000D02*
X93257000Y-93426000D01*
X91177000Y-107716000D02*
X91177000Y-102532000D01*
X93497000Y-99652000D02*
X93497000Y-93350000D01*
X90977000Y-107572000D02*
X90977000Y-102532000D01*
X90537000Y-107221000D02*
X90537000Y-94963000D01*
X91697000Y-99652000D02*
X91697000Y-94134000D01*
X91177000Y-99652000D02*
X91177000Y-94468000D01*
X89937000Y-106652000D02*
X89937000Y-95532000D01*
X88897000Y-105301000D02*
X88897000Y-96883000D01*
X93657000Y-108880000D02*
X93657000Y-93304000D01*
X88057000Y-103443000D02*
X88057000Y-98741000D01*
X90417000Y-107117000D02*
X90417000Y-95067000D01*
X93857000Y-108932000D02*
X93857000Y-93252000D01*
X93177000Y-108731000D02*
X93177000Y-102532000D01*
X89817000Y-106524000D02*
X89817000Y-95660000D01*
X94657000Y-109089000D02*
X94657000Y-93095000D01*
X91297000Y-99652000D02*
X91297000Y-94386000D01*
X88017000Y-103310000D02*
X88017000Y-98874000D01*
X87897000Y-102844000D02*
X87897000Y-99340000D01*
X95418000Y-109163000D02*
X95418000Y-93021000D01*
X90137000Y-106855000D02*
X90137000Y-95329000D01*
X91457000Y-99652000D02*
X91457000Y-94281000D01*
X89857000Y-106567000D02*
X89857000Y-95617000D01*
X87817000Y-102443000D02*
X87817000Y-99741000D01*
X88417000Y-104395000D02*
X88417000Y-97789000D01*
X88097000Y-103570000D02*
X88097000Y-98614000D01*
X91377000Y-99652000D02*
X91377000Y-94333000D01*
X93337000Y-99652000D02*
X93337000Y-93399000D01*
X95458000Y-109165000D02*
X95458000Y-93019000D01*
X88297000Y-104116000D02*
X88297000Y-98068000D01*
X92977000Y-99652000D02*
X92977000Y-93524000D01*
X90377000Y-107081000D02*
X90377000Y-95103000D01*
X93097000Y-99652000D02*
X93097000Y-93481000D01*
X91897000Y-99652000D02*
X91897000Y-94020000D01*
X94937000Y-109125000D02*
X94937000Y-93059000D01*
X93297000Y-108772000D02*
X93297000Y-102532000D01*
X91777000Y-99652000D02*
X91777000Y-94088000D01*
X92537000Y-99652000D02*
X92537000Y-93703000D01*
X91697000Y-108050000D02*
X91697000Y-102532000D01*
X92377000Y-108408000D02*
X92377000Y-102532000D01*
X87857000Y-102656000D02*
X87857000Y-99528000D01*
X91937000Y-108186000D02*
X91937000Y-102532000D01*
X95138000Y-109144000D02*
X95138000Y-93040000D01*
X89097000Y-105611000D02*
X89097000Y-96573000D01*
X94737000Y-109100000D02*
X94737000Y-93084000D01*
X92897000Y-99652000D02*
X92897000Y-93555000D01*
X92017000Y-108228000D02*
X92017000Y-102532000D01*
X88497000Y-104567000D02*
X88497000Y-97617000D01*
X91337000Y-99652000D02*
X91337000Y-94359000D01*
X90577000Y-107255000D02*
X90577000Y-94929000D01*
X94537000Y-109071000D02*
X94537000Y-93113000D01*
X92017000Y-99652000D02*
X92017000Y-93956000D01*
X90657000Y-107322000D02*
X90657000Y-102532000D01*
X93297000Y-99652000D02*
X93297000Y-93412000D01*
X93057000Y-99652000D02*
X93057000Y-93495000D01*
X90817000Y-99652000D02*
X90817000Y-94734000D01*
X88617000Y-104807000D02*
X88617000Y-97377000D01*
X94817000Y-109111000D02*
X94817000Y-93073000D01*
X87777000Y-102190000D02*
X87777000Y-99994000D01*
X91657000Y-99652000D02*
X91657000Y-94158000D01*
X92497000Y-108463000D02*
X92497000Y-102532000D01*
X92857000Y-108614000D02*
X92857000Y-102532000D01*
X92097000Y-99652000D02*
X92097000Y-93914000D01*
X92657000Y-99652000D02*
X92657000Y-93652000D01*
X88377000Y-104305000D02*
X88377000Y-97879000D01*
X92417000Y-108426000D02*
X92417000Y-102532000D01*
X95378000Y-109161000D02*
X95378000Y-93023000D01*
X92817000Y-99652000D02*
X92817000Y-93586000D01*
X90817000Y-107450000D02*
X90817000Y-102532000D01*
X91097000Y-107660000D02*
X91097000Y-102532000D01*
X91897000Y-108164000D02*
X91897000Y-102532000D01*
X94577000Y-109077000D02*
X94577000Y-93107000D01*
X91657000Y-108026000D02*
X91657000Y-102532000D01*
X90657000Y-99652000D02*
X90657000Y-94862000D01*
X91497000Y-107928000D02*
X91497000Y-102532000D01*
X92897000Y-108629000D02*
X92897000Y-102532000D01*
X94097000Y-108988000D02*
X94097000Y-93196000D01*
X91857000Y-108141000D02*
X91857000Y-102532000D01*
X92337000Y-108389000D02*
X92337000Y-102532000D01*
X88977000Y-105428000D02*
X88977000Y-96756000D01*
X94297000Y-109029000D02*
X94297000Y-93155000D01*
X88457000Y-104482000D02*
X88457000Y-97702000D01*
X91217000Y-107744000D02*
X91217000Y-102532000D01*
X91017000Y-99652000D02*
X91017000Y-94582000D01*
X95218000Y-109150000D02*
X95218000Y-93034000D01*
X91617000Y-99652000D02*
X91617000Y-94182000D01*
X93897000Y-108942000D02*
X93897000Y-93242000D01*
X91977000Y-99652000D02*
X91977000Y-93977000D01*
X89337000Y-105946000D02*
X89337000Y-96238000D01*
X92097000Y-108270000D02*
X92097000Y-102532000D01*
X87737000Y-101857000D02*
X87737000Y-100327000D01*
X95097000Y-109141000D02*
X95097000Y-93043000D01*
X91097000Y-99652000D02*
X91097000Y-94524000D01*
X87977000Y-103166000D02*
X87977000Y-99018000D01*
X89057000Y-105551000D02*
X89057000Y-96633000D01*
X88777000Y-105099000D02*
X88777000Y-97085000D01*
X91577000Y-99652000D02*
X91577000Y-94206000D01*
X89777000Y-106480000D02*
X89777000Y-95704000D01*
X92937000Y-108645000D02*
X92937000Y-102532000D01*
X93257000Y-108758000D02*
X93257000Y-102532000D01*
X94017000Y-108970000D02*
X94017000Y-93214000D01*
X88257000Y-104016000D02*
X88257000Y-98168000D01*
X92257000Y-108350000D02*
X92257000Y-102532000D01*
X93377000Y-108797000D02*
X93377000Y-102532000D01*
X92697000Y-108549000D02*
X92697000Y-102532000D01*
X90457000Y-107152000D02*
X90457000Y-95032000D01*
X88937000Y-105365000D02*
X88937000Y-96819000D01*
X91137000Y-107688000D02*
X91137000Y-102532000D01*
X90857000Y-99652000D02*
X90857000Y-94702000D01*
X89697000Y-106389000D02*
X89697000Y-95795000D01*
X91057000Y-107631000D02*
X91057000Y-102532000D01*
X90777000Y-107419000D02*
X90777000Y-102532000D01*
X88137000Y-103689000D02*
X88137000Y-98495000D01*
X95778000Y-109172000D02*
X95778000Y-93012000D01*
X92417000Y-99652000D02*
X92417000Y-93758000D01*
X93777000Y-108912000D02*
X93777000Y-93272000D01*
X90297000Y-107008000D02*
X90297000Y-95176000D01*
X93737000Y-108902000D02*
X93737000Y-93282000D01*
X91537000Y-99652000D02*
X91537000Y-94231000D01*
X92497000Y-99652000D02*
X92497000Y-93721000D01*
X91017000Y-107602000D02*
X91017000Y-102532000D01*
X92137000Y-99652000D02*
X92137000Y-93893000D01*
X94417000Y-109051000D02*
X94417000Y-93133000D01*
X92577000Y-108498000D02*
X92577000Y-102532000D01*
X91057000Y-99652000D02*
X91057000Y-94553000D01*
X90697000Y-107355000D02*
X90697000Y-102532000D01*
X94337000Y-109036000D02*
X94337000Y-93148000D01*
X93337000Y-108785000D02*
X93337000Y-102532000D01*
X94377000Y-109044000D02*
X94377000Y-93140000D01*
X91857000Y-99652000D02*
X91857000Y-94043000D01*
X88857000Y-105235000D02*
X88857000Y-96949000D01*
X92457000Y-99652000D02*
X92457000Y-93739000D01*
X94617000Y-109083000D02*
X94617000Y-93101000D01*
X91217000Y-99652000D02*
X91217000Y-94440000D01*
X92777000Y-108582000D02*
X92777000Y-102532000D01*
X91577000Y-107978000D02*
X91577000Y-102532000D01*
X89737000Y-106435000D02*
X89737000Y-95749000D01*
X93497000Y-108834000D02*
X93497000Y-102532000D01*
X89417000Y-106050000D02*
X89417000Y-96134000D01*
X93537000Y-108846000D02*
X93537000Y-93338000D01*
X92977000Y-108660000D02*
X92977000Y-102532000D01*
X88657000Y-104882000D02*
X88657000Y-97302000D01*
X95578000Y-109169000D02*
X95578000Y-93015000D01*
X95258000Y-109153000D02*
X95258000Y-93031000D01*
X91497000Y-99652000D02*
X91497000Y-94256000D01*
X92537000Y-108481000D02*
X92537000Y-102532000D01*
X92737000Y-108566000D02*
X92737000Y-102532000D01*
X90497000Y-107187000D02*
X90497000Y-94997000D01*
X92777000Y-99652000D02*
X92777000Y-93602000D01*
X91937000Y-99652000D02*
X91937000Y-93998000D01*
X95738000Y-109172000D02*
X95738000Y-93012000D01*
X87937000Y-103012000D02*
X87937000Y-99172000D01*
X89977000Y-106694000D02*
X89977000Y-95490000D01*
X91417000Y-99652000D02*
X91417000Y-94307000D01*
X92457000Y-108445000D02*
X92457000Y-102532000D01*
X92857000Y-99652000D02*
X92857000Y-93570000D01*
X92657000Y-108532000D02*
X92657000Y-102532000D01*
X91617000Y-108002000D02*
X91617000Y-102532000D01*
X90937000Y-99652000D02*
X90937000Y-94642000D01*
X92217000Y-99652000D02*
X92217000Y-93853000D01*
X91297000Y-107798000D02*
X91297000Y-102532000D01*
X95618000Y-109170000D02*
X95618000Y-93014000D01*
X93817000Y-108922000D02*
X93817000Y-93262000D01*
X93457000Y-108822000D02*
X93457000Y-102532000D01*
X89497000Y-106151000D02*
X89497000Y-96033000D01*
X90857000Y-107482000D02*
X90857000Y-102532000D01*
X90937000Y-107542000D02*
X90937000Y-102532000D01*
X93977000Y-108961000D02*
X93977000Y-93223000D01*
X91817000Y-99652000D02*
X91817000Y-94065000D01*
X91417000Y-107877000D02*
X91417000Y-102532000D01*
X88697000Y-104956000D02*
X88697000Y-97228000D01*
X92217000Y-108331000D02*
X92217000Y-102532000D01*
X90897000Y-99652000D02*
X90897000Y-94672000D01*
X90217000Y-106932000D02*
X90217000Y-95252000D01*
X91537000Y-107953000D02*
X91537000Y-102532000D01*
X92737000Y-99652000D02*
X92737000Y-93618000D01*
X92257000Y-99652000D02*
X92257000Y-93834000D01*
X88737000Y-105028000D02*
X88737000Y-97156000D01*
X92337000Y-99652000D02*
X92337000Y-93795000D01*
X91257000Y-107771000D02*
X91257000Y-102532000D01*
X90097000Y-106816000D02*
X90097000Y-95368000D01*
X88337000Y-104212000D02*
X88337000Y-97972000D01*
X89577000Y-106248000D02*
X89577000Y-95936000D01*
X89257000Y-105838000D02*
X89257000Y-96346000D01*
X88817000Y-105168000D02*
X88817000Y-97016000D01*
X93417000Y-99652000D02*
X93417000Y-93374000D01*
X94177000Y-109005000D02*
X94177000Y-93179000D01*
X95178000Y-109147000D02*
X95178000Y-93037000D01*
X91777000Y-108096000D02*
X91777000Y-102532000D01*
X90017000Y-106735000D02*
X90017000Y-95449000D01*
X89297000Y-105892000D02*
X89297000Y-96292000D01*
X94217000Y-109013000D02*
X94217000Y-93171000D01*
X91817000Y-108119000D02*
X91817000Y-102532000D01*
X92177000Y-108311000D02*
X92177000Y-102532000D01*
X103707491Y-106447000D02*
X103707491Y-104847000D01*
X94897000Y-109120000D02*
X94897000Y-93064000D01*
X89657000Y-106343000D02*
X89657000Y-95841000D01*
X93577000Y-108857000D02*
X93577000Y-93327000D01*
X90697000Y-99652000D02*
X90697000Y-94829000D01*
X95818000Y-109173000D02*
X95818000Y-93011000D01*
X94257000Y-109021000D02*
X94257000Y-93163000D01*
X92617000Y-99652000D02*
X92617000Y-93669000D01*
X95698000Y-109172000D02*
X95698000Y-93012000D01*
X88537000Y-104649000D02*
X88537000Y-97535000D01*
X95298000Y-109156000D02*
X95298000Y-93028000D01*
X88177000Y-103803000D02*
X88177000Y-98381000D01*
X90337000Y-107044000D02*
X90337000Y-95140000D01*
X92937000Y-99652000D02*
X92937000Y-93539000D01*
X93177000Y-99652000D02*
X93177000Y-93453000D01*
X88577000Y-104729000D02*
X88577000Y-97455000D01*
X94137000Y-108997000D02*
X94137000Y-93187000D01*
X89217000Y-105783000D02*
X89217000Y-96401000D01*
X88217000Y-103912000D02*
X88217000Y-98272000D01*
X93137000Y-108717000D02*
X93137000Y-102532000D01*
X95338000Y-109158000D02*
X95338000Y-93026000D01*
X93017000Y-108674000D02*
X93017000Y-102532000D01*
X91377000Y-107851000D02*
X91377000Y-102532000D01*
X92057000Y-99652000D02*
X92057000Y-93935000D01*
X91337000Y-107825000D02*
X91337000Y-102532000D01*
X103938000Y-101092000D02*
G75*
G03*
X103938000Y-101092000I-8120000J0D01*
G01*
%TO.C,R3*%
X138590000Y-89343000D02*
X138590000Y-92083000D01*
X137820000Y-90713000D02*
X138590000Y-90713000D01*
X145900000Y-90713000D02*
X145130000Y-90713000D01*
X145130000Y-89343000D02*
X138590000Y-89343000D01*
X138590000Y-92083000D02*
X145130000Y-92083000D01*
X145130000Y-92083000D02*
X145130000Y-89343000D01*
%TO.C,Regulacion_Tension1*%
X111055000Y-77941000D02*
X114295000Y-77941000D01*
X111055000Y-81624000D02*
X111055000Y-77941000D01*
X107654000Y-82982000D02*
X107654000Y-77941000D01*
X116600000Y-82982000D02*
X117695000Y-82982000D01*
X107654000Y-77941000D02*
X117695000Y-77941000D01*
X111601000Y-82982000D02*
X113750000Y-82982000D01*
X107654000Y-82982000D02*
X108749000Y-82982000D01*
X117695000Y-82982000D02*
X117695000Y-77941000D01*
X111601000Y-82982000D02*
X113750000Y-82982000D01*
X114295000Y-81624000D02*
X114295000Y-77941000D01*
%TO.C,Q2*%
X122740000Y-114645000D02*
X122740000Y-109374000D01*
X129005000Y-114645000D02*
X129005000Y-109374000D01*
X132614000Y-114645000D02*
X132614000Y-109374000D01*
X138880000Y-114645000D02*
X138880000Y-109374000D01*
X138880000Y-114645000D02*
X122740000Y-114645000D01*
X138880000Y-109374000D02*
X122740000Y-109374000D01*
%TO.C,D3*%
X82234000Y-91948000D02*
X81324000Y-91948000D01*
X81324000Y-89228000D02*
X71584000Y-89228000D01*
X70674000Y-91948000D02*
X71584000Y-91948000D01*
X73129000Y-89228000D02*
X73129000Y-94668000D01*
X71584000Y-94668000D02*
X81324000Y-94668000D01*
X73009000Y-89228000D02*
X73009000Y-94668000D01*
X71584000Y-89228000D02*
X71584000Y-94668000D01*
X81324000Y-94668000D02*
X81324000Y-89228000D01*
X73249000Y-89228000D02*
X73249000Y-94668000D01*
%TO.C,C1*%
X90700755Y-88493000D02*
X90700755Y-76099000D01*
X90420755Y-88248000D02*
X90420755Y-76344000D01*
X88300755Y-85116000D02*
X88300755Y-79476000D01*
X92340755Y-89554000D02*
X92340755Y-83736000D01*
X88780755Y-86160000D02*
X88780755Y-78432000D01*
X94140755Y-90183000D02*
X94140755Y-74409000D01*
X92140755Y-89453000D02*
X92140755Y-83736000D01*
X89380755Y-87096000D02*
X89380755Y-77496000D01*
X93500755Y-80856000D02*
X93500755Y-74578000D01*
X91300755Y-80856000D02*
X91300755Y-75644000D01*
X92580755Y-80856000D02*
X92580755Y-74925000D01*
X87940755Y-83860000D02*
X87940755Y-80732000D01*
X91460755Y-89055000D02*
X91460755Y-83736000D01*
X91020755Y-88746000D02*
X91020755Y-83736000D01*
X91980755Y-80856000D02*
X91980755Y-75224000D01*
X91180755Y-80856000D02*
X91180755Y-75728000D01*
X94980755Y-90324000D02*
X94980755Y-74268000D01*
X92860755Y-89786000D02*
X92860755Y-83736000D01*
X91140755Y-80856000D02*
X91140755Y-75757000D01*
X93780755Y-90095000D02*
X93780755Y-74497000D01*
X91820755Y-89277000D02*
X91820755Y-83736000D01*
X89580755Y-87355000D02*
X89580755Y-77237000D01*
X92900755Y-89802000D02*
X92900755Y-83736000D01*
X92380755Y-89574000D02*
X92380755Y-83736000D01*
X88980755Y-86505000D02*
X88980755Y-78087000D01*
X94180755Y-90192000D02*
X94180755Y-74400000D01*
X88020755Y-84216000D02*
X88020755Y-80376000D01*
X92380755Y-80856000D02*
X92380755Y-75018000D01*
X90380755Y-88212000D02*
X90380755Y-76380000D01*
X93380755Y-80856000D02*
X93380755Y-74616000D01*
X88380755Y-85320000D02*
X88380755Y-79272000D01*
X88500755Y-85599000D02*
X88500755Y-78993000D01*
X93460755Y-80856000D02*
X93460755Y-74591000D01*
X90540755Y-88356000D02*
X90540755Y-76236000D01*
X92460755Y-80856000D02*
X92460755Y-74980000D01*
X90940755Y-88686000D02*
X90940755Y-83736000D01*
X91700755Y-80856000D02*
X91700755Y-75386000D01*
X91540755Y-80856000D02*
X91540755Y-75485000D01*
X91980755Y-89368000D02*
X91980755Y-83736000D01*
X91100755Y-88806000D02*
X91100755Y-83736000D01*
X95140755Y-90341000D02*
X95140755Y-74251000D01*
X91540755Y-89107000D02*
X91540755Y-83736000D01*
X91940755Y-89345000D02*
X91940755Y-83736000D01*
X91180755Y-88864000D02*
X91180755Y-83736000D01*
X93140755Y-89893000D02*
X93140755Y-83736000D01*
X94780755Y-90299000D02*
X94780755Y-74293000D01*
X89100755Y-86694000D02*
X89100755Y-77898000D01*
X92780755Y-89753000D02*
X92780755Y-83736000D01*
X94300755Y-90217000D02*
X94300755Y-74375000D01*
X89660755Y-87452000D02*
X89660755Y-77140000D01*
X92660755Y-89702000D02*
X92660755Y-83736000D01*
X90860755Y-80856000D02*
X90860755Y-75969000D01*
X91300755Y-88948000D02*
X91300755Y-83736000D01*
X94460755Y-90248000D02*
X94460755Y-74344000D01*
X95581755Y-90370000D02*
X95581755Y-74222000D01*
X92180755Y-80856000D02*
X92180755Y-75118000D01*
X95541755Y-90369000D02*
X95541755Y-74223000D01*
X91020755Y-80856000D02*
X91020755Y-75846000D01*
X93300755Y-89949000D02*
X93300755Y-83736000D01*
X90740755Y-88526000D02*
X90740755Y-83736000D01*
X90900755Y-80856000D02*
X90900755Y-75938000D01*
X93220755Y-80856000D02*
X93220755Y-74671000D01*
X91780755Y-80856000D02*
X91780755Y-75338000D01*
X91860755Y-89300000D02*
X91860755Y-83736000D01*
X90020755Y-87856000D02*
X90020755Y-76736000D01*
X91140755Y-88835000D02*
X91140755Y-83736000D01*
X92700755Y-89719000D02*
X92700755Y-83736000D01*
X93180755Y-80856000D02*
X93180755Y-74685000D01*
X95741755Y-90375000D02*
X95741755Y-74217000D01*
X92740755Y-89736000D02*
X92740755Y-83736000D01*
X92300755Y-89535000D02*
X92300755Y-83736000D01*
X93260755Y-89935000D02*
X93260755Y-83736000D01*
X89740755Y-87547000D02*
X89740755Y-77045000D01*
X92620755Y-80856000D02*
X92620755Y-74907000D01*
X90980755Y-80856000D02*
X90980755Y-75876000D01*
X93100755Y-89878000D02*
X93100755Y-83736000D01*
X89620755Y-87404000D02*
X89620755Y-77188000D01*
X93620755Y-90050000D02*
X93620755Y-74542000D01*
X94100755Y-90174000D02*
X94100755Y-74418000D01*
X92460755Y-89612000D02*
X92460755Y-83736000D01*
X90780755Y-88559000D02*
X90780755Y-83736000D01*
X91740755Y-89230000D02*
X91740755Y-83736000D01*
X92060755Y-89411000D02*
X92060755Y-83736000D01*
X95301755Y-90354000D02*
X95301755Y-74238000D01*
X94740755Y-90293000D02*
X94740755Y-74299000D01*
X92540755Y-80856000D02*
X92540755Y-74943000D01*
X93500755Y-90014000D02*
X93500755Y-83736000D01*
X90180755Y-88020000D02*
X90180755Y-76572000D01*
X90940755Y-80856000D02*
X90940755Y-75906000D01*
X93060755Y-89864000D02*
X93060755Y-83736000D01*
X90340755Y-88174000D02*
X90340755Y-76418000D01*
X89020755Y-86569000D02*
X89020755Y-78023000D01*
X91380755Y-80856000D02*
X91380755Y-75590000D01*
X93060755Y-80856000D02*
X93060755Y-74728000D01*
X89700755Y-87500000D02*
X89700755Y-77092000D01*
X93700755Y-90073000D02*
X93700755Y-74519000D01*
X95781755Y-90376000D02*
X95781755Y-74216000D01*
X90060755Y-87898000D02*
X90060755Y-76694000D01*
X91500755Y-80856000D02*
X91500755Y-75511000D01*
X94540755Y-90262000D02*
X94540755Y-74330000D01*
X94340755Y-90225000D02*
X94340755Y-74367000D01*
X89780755Y-87593000D02*
X89780755Y-76999000D01*
X95221755Y-90348000D02*
X95221755Y-74244000D01*
X89460755Y-87202000D02*
X89460755Y-77390000D01*
X89220755Y-86873000D02*
X89220755Y-77719000D01*
X94820755Y-90304000D02*
X94820755Y-74288000D01*
X93580755Y-80856000D02*
X93580755Y-74554000D01*
X87980755Y-84048000D02*
X87980755Y-80544000D01*
X91100755Y-80856000D02*
X91100755Y-75786000D01*
X88220755Y-84893000D02*
X88220755Y-79699000D01*
X92700755Y-80856000D02*
X92700755Y-74873000D01*
X93180755Y-89907000D02*
X93180755Y-83736000D01*
X88860755Y-86303000D02*
X88860755Y-78289000D01*
X93220755Y-89921000D02*
X93220755Y-83736000D01*
X88180755Y-84774000D02*
X88180755Y-79818000D01*
X88540755Y-85686000D02*
X88540755Y-78906000D01*
X95060755Y-90333000D02*
X95060755Y-74259000D01*
X90620755Y-88425000D02*
X90620755Y-76167000D01*
X92980755Y-89833000D02*
X92980755Y-83736000D01*
X90460755Y-88285000D02*
X90460755Y-76307000D01*
X93820755Y-90106000D02*
X93820755Y-74486000D01*
X92300755Y-80856000D02*
X92300755Y-75057000D01*
X88900755Y-86372000D02*
X88900755Y-78220000D01*
X93540755Y-80856000D02*
X93540755Y-74566000D01*
X91900755Y-89323000D02*
X91900755Y-83736000D01*
X103791246Y-87651000D02*
X103791246Y-86051000D01*
X88580755Y-85771000D02*
X88580755Y-78821000D01*
X94660755Y-90281000D02*
X94660755Y-74311000D01*
X89300755Y-86987000D02*
X89300755Y-77605000D01*
X89420755Y-87150000D02*
X89420755Y-77442000D01*
X90260755Y-88098000D02*
X90260755Y-76494000D01*
X89060755Y-86632000D02*
X89060755Y-77960000D01*
X92420755Y-89593000D02*
X92420755Y-83736000D01*
X92900755Y-80856000D02*
X92900755Y-74790000D01*
X92500755Y-80856000D02*
X92500755Y-74962000D01*
X91380755Y-89002000D02*
X91380755Y-83736000D01*
X92060755Y-80856000D02*
X92060755Y-75181000D01*
X91580755Y-80856000D02*
X91580755Y-75460000D01*
X90820755Y-80856000D02*
X90820755Y-76001000D01*
X90900755Y-88654000D02*
X90900755Y-83736000D01*
X89860755Y-87684000D02*
X89860755Y-76908000D01*
X93020755Y-80856000D02*
X93020755Y-74743000D01*
X95661755Y-90373000D02*
X95661755Y-74219000D01*
X95180755Y-90345000D02*
X95180755Y-74247000D01*
X92940755Y-80856000D02*
X92940755Y-74774000D01*
X95100755Y-90337000D02*
X95100755Y-74255000D01*
X93460755Y-90001000D02*
X93460755Y-83736000D01*
X89260755Y-86930000D02*
X89260755Y-77662000D01*
X93900755Y-90126000D02*
X93900755Y-74466000D01*
X91940755Y-80856000D02*
X91940755Y-75247000D01*
X90220755Y-88059000D02*
X90220755Y-76533000D01*
X88940755Y-86439000D02*
X88940755Y-78153000D01*
X89940755Y-87771000D02*
X89940755Y-76821000D01*
X93260755Y-80856000D02*
X93260755Y-74657000D01*
X95461755Y-90365000D02*
X95461755Y-74227000D01*
X92780755Y-80856000D02*
X92780755Y-74839000D01*
X92980755Y-80856000D02*
X92980755Y-74759000D01*
X93340755Y-89962000D02*
X93340755Y-83736000D01*
X90980755Y-88716000D02*
X90980755Y-83736000D01*
X92740755Y-80856000D02*
X92740755Y-74856000D01*
X95621755Y-90372000D02*
X95621755Y-74220000D01*
X90580755Y-88391000D02*
X90580755Y-76201000D01*
X95821755Y-90376000D02*
X95821755Y-74216000D01*
X93940755Y-90136000D02*
X93940755Y-74456000D01*
X88740755Y-86086000D02*
X88740755Y-78506000D01*
X87820755Y-83061000D02*
X87820755Y-81531000D01*
X95701755Y-90374000D02*
X95701755Y-74218000D01*
X89820755Y-87639000D02*
X89820755Y-76953000D01*
X92140755Y-80856000D02*
X92140755Y-75139000D01*
X94420755Y-90240000D02*
X94420755Y-74352000D01*
X94940755Y-90320000D02*
X94940755Y-74272000D01*
X91660755Y-80856000D02*
X91660755Y-75410000D01*
X89900755Y-87728000D02*
X89900755Y-76864000D01*
X94500755Y-90255000D02*
X94500755Y-74337000D01*
X88060755Y-84370000D02*
X88060755Y-80222000D01*
X89540755Y-87305000D02*
X89540755Y-77287000D01*
X90780755Y-80856000D02*
X90780755Y-76033000D01*
X95261755Y-90351000D02*
X95261755Y-74241000D01*
X91780755Y-89254000D02*
X91780755Y-83736000D01*
X91500755Y-89081000D02*
X91500755Y-83736000D01*
X91420755Y-80856000D02*
X91420755Y-75563000D01*
X92860755Y-80856000D02*
X92860755Y-74806000D01*
X95020755Y-90329000D02*
X95020755Y-74263000D01*
X90820755Y-88591000D02*
X90820755Y-83736000D01*
X89340755Y-87042000D02*
X89340755Y-77550000D01*
X93580755Y-90038000D02*
X93580755Y-83736000D01*
X87860755Y-83394000D02*
X87860755Y-81198000D01*
X92340755Y-80856000D02*
X92340755Y-75038000D01*
X90140755Y-87980000D02*
X90140755Y-76612000D01*
X93420755Y-89989000D02*
X93420755Y-83736000D01*
X88620755Y-85853000D02*
X88620755Y-78739000D01*
X88340755Y-85220000D02*
X88340755Y-79372000D01*
X95381755Y-90360000D02*
X95381755Y-74232000D01*
X90660755Y-88459000D02*
X90660755Y-76133000D01*
X91260755Y-80856000D02*
X91260755Y-75672000D01*
X92180755Y-89474000D02*
X92180755Y-83736000D01*
X91420755Y-89029000D02*
X91420755Y-83736000D01*
X92660755Y-80856000D02*
X92660755Y-74890000D01*
X91900755Y-80856000D02*
X91900755Y-75269000D01*
X94860755Y-90310000D02*
X94860755Y-74282000D01*
X93300755Y-80856000D02*
X93300755Y-74643000D01*
X93420755Y-80856000D02*
X93420755Y-74603000D01*
X94060755Y-90165000D02*
X94060755Y-74427000D01*
X92100755Y-80856000D02*
X92100755Y-75160000D01*
X88260755Y-85007000D02*
X88260755Y-79585000D01*
X92940755Y-89818000D02*
X92940755Y-83736000D01*
X91460755Y-80856000D02*
X91460755Y-75537000D01*
X93380755Y-89976000D02*
X93380755Y-83736000D01*
X87900755Y-83647000D02*
X87900755Y-80945000D01*
X89980755Y-87814000D02*
X89980755Y-76778000D01*
X95341755Y-90357000D02*
X95341755Y-74235000D01*
X91060755Y-88776000D02*
X91060755Y-83736000D01*
X95861755Y-90376000D02*
X95861755Y-74216000D01*
X91620755Y-89157000D02*
X91620755Y-83736000D01*
X90860755Y-88623000D02*
X90860755Y-83736000D01*
X92500755Y-89630000D02*
X92500755Y-83736000D01*
X94380755Y-90233000D02*
X94380755Y-74359000D01*
X88420755Y-85416000D02*
X88420755Y-79176000D01*
X91580755Y-89132000D02*
X91580755Y-83736000D01*
X92100755Y-89432000D02*
X92100755Y-83736000D01*
X91820755Y-80856000D02*
X91820755Y-75315000D01*
X95421755Y-90362000D02*
X95421755Y-74230000D01*
X95901755Y-90377000D02*
X95901755Y-74215000D01*
X92620755Y-89685000D02*
X92620755Y-83736000D01*
X91660755Y-89182000D02*
X91660755Y-83736000D01*
X88460755Y-85509000D02*
X88460755Y-79083000D01*
X95501755Y-90367000D02*
X95501755Y-74225000D01*
X89140755Y-86755000D02*
X89140755Y-77837000D01*
X94900755Y-90315000D02*
X94900755Y-74277000D01*
X88140755Y-84647000D02*
X88140755Y-79945000D01*
X88660755Y-85933000D02*
X88660755Y-78659000D01*
X92580755Y-89667000D02*
X92580755Y-83736000D01*
X93140755Y-80856000D02*
X93140755Y-74699000D01*
X92020755Y-89390000D02*
X92020755Y-83736000D01*
X94580755Y-90268000D02*
X94580755Y-74324000D01*
X89180755Y-86815000D02*
X89180755Y-77777000D01*
X92540755Y-89649000D02*
X92540755Y-83736000D01*
X92820755Y-80856000D02*
X92820755Y-74822000D01*
X90500755Y-88321000D02*
X90500755Y-76271000D01*
X90740755Y-80856000D02*
X90740755Y-76066000D01*
X93860755Y-90116000D02*
X93860755Y-74476000D01*
X94700755Y-90287000D02*
X94700755Y-74305000D01*
X91620755Y-80856000D02*
X91620755Y-75435000D01*
X93020755Y-89849000D02*
X93020755Y-83736000D01*
X93540755Y-90026000D02*
X93540755Y-83736000D01*
X93660755Y-90061000D02*
X93660755Y-74531000D01*
X91220755Y-88892000D02*
X91220755Y-83736000D01*
X91740755Y-80856000D02*
X91740755Y-75362000D01*
X91340755Y-88975000D02*
X91340755Y-83736000D01*
X92020755Y-80856000D02*
X92020755Y-75202000D01*
X93100755Y-80856000D02*
X93100755Y-74714000D01*
X91260755Y-88920000D02*
X91260755Y-83736000D01*
X92820755Y-89770000D02*
X92820755Y-83736000D01*
X93340755Y-80856000D02*
X93340755Y-74630000D01*
X93980755Y-90146000D02*
X93980755Y-74446000D01*
X93740755Y-90084000D02*
X93740755Y-74508000D01*
X88820755Y-86232000D02*
X88820755Y-78360000D01*
X92260755Y-89515000D02*
X92260755Y-83736000D01*
X91340755Y-80856000D02*
X91340755Y-75617000D01*
X91700755Y-89206000D02*
X91700755Y-83736000D01*
X90300755Y-88136000D02*
X90300755Y-76456000D01*
X88700755Y-86011000D02*
X88700755Y-78581000D01*
X91060755Y-80856000D02*
X91060755Y-75816000D01*
X92220755Y-89495000D02*
X92220755Y-83736000D01*
X104591246Y-86851000D02*
X102991246Y-86851000D01*
X94220755Y-90201000D02*
X94220755Y-74391000D01*
X92260755Y-80856000D02*
X92260755Y-75077000D01*
X92220755Y-80856000D02*
X92220755Y-75097000D01*
X88100755Y-84514000D02*
X88100755Y-80078000D01*
X90100755Y-87939000D02*
X90100755Y-76653000D01*
X89500755Y-87254000D02*
X89500755Y-77338000D01*
X94620755Y-90275000D02*
X94620755Y-74317000D01*
X91860755Y-80856000D02*
X91860755Y-75292000D01*
X94020755Y-90156000D02*
X94020755Y-74436000D01*
X91220755Y-80856000D02*
X91220755Y-75700000D01*
X94260755Y-90209000D02*
X94260755Y-74383000D01*
X92420755Y-80856000D02*
X92420755Y-74999000D01*
X104021755Y-82296000D02*
G75*
G03*
X104021755Y-82296000I-8120000J0D01*
G01*
%TO.C,C3*%
X125392000Y-83891000D02*
X125392000Y-84136000D01*
X121752000Y-81796000D02*
X121752000Y-82041000D01*
X121752000Y-83891000D02*
X121752000Y-84136000D01*
X121752000Y-84136000D02*
X125392000Y-84136000D01*
X125392000Y-81796000D02*
X125392000Y-82041000D01*
X121752000Y-81796000D02*
X125392000Y-81796000D01*
%TO.C,D6*%
X126816000Y-106172000D02*
X127836000Y-106172000D01*
X134296000Y-106172000D02*
X133276000Y-106172000D01*
X127836000Y-107642000D02*
X133276000Y-107642000D01*
X133276000Y-104702000D02*
X127836000Y-104702000D01*
X132496000Y-107642000D02*
X132496000Y-104702000D01*
X132256000Y-107642000D02*
X132256000Y-104702000D01*
X127836000Y-104702000D02*
X127836000Y-107642000D01*
X133276000Y-107642000D02*
X133276000Y-104702000D01*
X132376000Y-107642000D02*
X132376000Y-104702000D01*
%TO.C,D2*%
X79779000Y-102542000D02*
X79779000Y-97102000D01*
X71584000Y-102542000D02*
X81324000Y-102542000D01*
X70674000Y-99822000D02*
X71584000Y-99822000D01*
X71584000Y-97102000D02*
X71584000Y-102542000D01*
X79899000Y-102542000D02*
X79899000Y-97102000D01*
X81324000Y-97102000D02*
X71584000Y-97102000D01*
X79659000Y-102542000D02*
X79659000Y-97102000D01*
X81324000Y-102542000D02*
X81324000Y-97102000D01*
X82234000Y-99822000D02*
X81324000Y-99822000D01*
%TO.C,D1*%
X79899000Y-110162000D02*
X79899000Y-104722000D01*
X79779000Y-110162000D02*
X79779000Y-104722000D01*
X81324000Y-104722000D02*
X71584000Y-104722000D01*
X71584000Y-104722000D02*
X71584000Y-110162000D01*
X71584000Y-110162000D02*
X81324000Y-110162000D01*
X70674000Y-107442000D02*
X71584000Y-107442000D01*
X81324000Y-110162000D02*
X81324000Y-104722000D01*
X82234000Y-107442000D02*
X81324000Y-107442000D01*
X79659000Y-110162000D02*
X79659000Y-104722000D01*
%TO.C,D7*%
X154104000Y-99545000D02*
X148664000Y-99545000D01*
X151384000Y-97090000D02*
X151384000Y-98000000D01*
X154104000Y-99665000D02*
X148664000Y-99665000D01*
X154104000Y-107740000D02*
X154104000Y-98000000D01*
X148664000Y-107740000D02*
X154104000Y-107740000D01*
X154104000Y-98000000D02*
X148664000Y-98000000D01*
X151384000Y-108650000D02*
X151384000Y-107740000D01*
X148664000Y-98000000D02*
X148664000Y-107740000D01*
X154104000Y-99425000D02*
X148664000Y-99425000D01*
%TO.C,HS1*%
X148320000Y-122200000D02*
X148440000Y-122080000D01*
X130810000Y-116420000D02*
X122910000Y-116420000D01*
X113280000Y-112150000D02*
X113190000Y-112300000D01*
X130810000Y-116420000D02*
X138710000Y-116420000D01*
X148430000Y-118840000D02*
X146470000Y-116950000D01*
X118600000Y-111820000D02*
X113300000Y-108940000D01*
X143020000Y-119320000D02*
X148320000Y-122200000D01*
X113300000Y-108940000D02*
X113180000Y-109060000D01*
X113300000Y-122200000D02*
X113180000Y-122080000D01*
X113190000Y-118840000D02*
X115150000Y-116950000D01*
X118120000Y-122180000D02*
X117940000Y-122120000D01*
X138710000Y-116420000D02*
X138710000Y-122170000D01*
X118600000Y-119320000D02*
X113300000Y-122200000D01*
X146290000Y-118310000D02*
X148340000Y-118990000D01*
X130810000Y-114720000D02*
X122910000Y-114720000D01*
X113280000Y-118990000D02*
X113190000Y-118840000D01*
X120620000Y-112680000D02*
X118120000Y-108960000D01*
X130810000Y-114720000D02*
X138710000Y-114720000D01*
X141000000Y-112680000D02*
X143500000Y-108960000D01*
X120620000Y-118460000D02*
X118120000Y-122180000D01*
X113180000Y-109060000D02*
X115330000Y-112830000D01*
X148430000Y-112300000D02*
X146470000Y-114190000D01*
X122240000Y-122170000D02*
X120630000Y-118460000D01*
X138710000Y-108970000D02*
X139380000Y-108970000D01*
X143500000Y-122180000D02*
X143680000Y-122120000D01*
X122240000Y-108970000D02*
X120630000Y-112680000D01*
X148320000Y-108940000D02*
X148440000Y-109060000D01*
X122910000Y-114720000D02*
X122910000Y-108970000D01*
X115330000Y-112830000D02*
X113280000Y-112150000D01*
X122910000Y-108970000D02*
X122240000Y-108970000D01*
X141000000Y-118460000D02*
X143500000Y-122180000D01*
X113190000Y-112300000D02*
X115150000Y-114190000D01*
X143680000Y-122120000D02*
X143020000Y-119320000D01*
X143680000Y-109020000D02*
X143020000Y-111820000D01*
X113180000Y-122080000D02*
X115330000Y-118310000D01*
X117940000Y-109020000D02*
X118600000Y-111820000D01*
X118120000Y-108960000D02*
X117940000Y-109020000D01*
X148340000Y-118990000D02*
X148430000Y-118840000D01*
X115330000Y-118310000D02*
X113280000Y-118990000D01*
X148340000Y-112150000D02*
X148430000Y-112300000D01*
X122910000Y-116420000D02*
X122910000Y-122170000D01*
X117940000Y-122120000D02*
X118600000Y-119320000D01*
X146290000Y-112830000D02*
X148340000Y-112150000D01*
X143020000Y-111820000D02*
X148320000Y-108940000D01*
X138710000Y-114720000D02*
X138710000Y-108970000D01*
X148440000Y-109060000D02*
X146290000Y-112830000D01*
X139380000Y-122170000D02*
X140990000Y-118460000D01*
X143500000Y-108960000D02*
X143680000Y-109020000D01*
X122910000Y-122170000D02*
X122240000Y-122170000D01*
X139380000Y-108970000D02*
X140990000Y-112680000D01*
X148440000Y-122080000D02*
X146290000Y-118310000D01*
X138710000Y-122170000D02*
X139380000Y-122170000D01*
%TO.C,Ajuste_Iout_max1*%
X154479000Y-76703000D02*
X154479000Y-74739000D01*
X154479000Y-79479000D02*
X147529000Y-79479000D01*
X147529000Y-76703000D02*
X147529000Y-74739000D01*
X154479000Y-74739000D02*
X147529000Y-74739000D01*
X147529000Y-79479000D02*
X147529000Y-77693000D01*
X154479000Y-79479000D02*
X154479000Y-77693000D01*
%TO.C,J1*%
X74422000Y-115062000D02*
X84582000Y-115062000D01*
X84582000Y-121412000D02*
X84582000Y-113792000D01*
X74422000Y-113792000D02*
X74422000Y-121412000D01*
X84582000Y-113792000D02*
X74422000Y-113792000D01*
X74422000Y-121412000D02*
X84582000Y-121412000D01*
%TO.C,C7*%
X150434000Y-80263000D02*
X150434000Y-80018000D01*
X154074000Y-80018000D02*
X150434000Y-80018000D01*
X154074000Y-80263000D02*
X154074000Y-80018000D01*
X150434000Y-82358000D02*
X150434000Y-82113000D01*
X154074000Y-82358000D02*
X150434000Y-82358000D01*
X154074000Y-82358000D02*
X154074000Y-82113000D01*
%TO.C,U1*%
X133669000Y-94100000D02*
X133669000Y-92450000D01*
X115769000Y-94100000D02*
X133669000Y-94100000D01*
X133669000Y-88800000D02*
X115769000Y-88800000D01*
X133669000Y-90450000D02*
X133669000Y-88800000D01*
X115769000Y-88800000D02*
X115769000Y-94100000D01*
X133669000Y-90450000D02*
G75*
G03*
X133669000Y-92450000I0J-1000000D01*
G01*
%TO.C,R5*%
X146027000Y-86268000D02*
X145257000Y-86268000D01*
X137947000Y-86268000D02*
X138717000Y-86268000D01*
X145257000Y-84898000D02*
X138717000Y-84898000D01*
X138717000Y-87638000D02*
X145257000Y-87638000D01*
X145257000Y-87638000D02*
X145257000Y-84898000D01*
X138717000Y-84898000D02*
X138717000Y-87638000D01*
%TO.C,D5*%
X109241000Y-104120000D02*
X106151000Y-104120000D01*
X106151170Y-104120000D02*
G75*
G03*
X107696462Y-109670000I1544830J-2560000D01*
G01*
X107695538Y-109670000D02*
G75*
G03*
X109240830Y-104120000I462J2990000D01*
G01*
X110196000Y-106680000D02*
G75*
G03*
X110196000Y-106680000I-2500000J0D01*
G01*
%TO.C,C6*%
X155435000Y-86752000D02*
X155435000Y-84348000D01*
X156355000Y-86752000D02*
X156355000Y-83915000D01*
X156235000Y-91627000D02*
X156235000Y-88832000D01*
X155555000Y-86752000D02*
X155555000Y-84275000D01*
X155755000Y-86752000D02*
X155755000Y-84165000D01*
X155315000Y-86752000D02*
X155315000Y-84427000D01*
X156075000Y-91566000D02*
X156075000Y-88832000D01*
X156435000Y-86752000D02*
X156435000Y-83890000D01*
X156675000Y-86752000D02*
X156675000Y-83825000D01*
X153995000Y-89682000D02*
X153995000Y-85902000D01*
X155115000Y-86752000D02*
X155115000Y-84572000D01*
X154915000Y-90847000D02*
X154915000Y-88832000D01*
X156915000Y-91809000D02*
X156915000Y-88832000D01*
X155195000Y-86752000D02*
X155195000Y-84512000D01*
X156595000Y-86752000D02*
X156595000Y-83845000D01*
X157476000Y-91869000D02*
X157476000Y-83715000D01*
X161645698Y-90507000D02*
X161645698Y-89707000D01*
X156555000Y-86752000D02*
X156555000Y-83856000D01*
X156996000Y-91822000D02*
X156996000Y-83762000D01*
X157396000Y-91866000D02*
X157396000Y-83718000D01*
X156435000Y-91694000D02*
X156435000Y-88832000D01*
X156195000Y-91613000D02*
X156195000Y-88832000D01*
X153675000Y-88890000D02*
X153675000Y-86694000D01*
X154475000Y-90396000D02*
X154475000Y-85188000D01*
X154955000Y-90882000D02*
X154955000Y-88832000D01*
X154195000Y-90020000D02*
X154195000Y-85564000D01*
X155755000Y-91419000D02*
X155755000Y-88832000D01*
X155235000Y-86752000D02*
X155235000Y-84483000D01*
X154875000Y-90811000D02*
X154875000Y-88832000D01*
X154915000Y-86752000D02*
X154915000Y-84737000D01*
X157356000Y-91863000D02*
X157356000Y-83721000D01*
X156795000Y-91786000D02*
X156795000Y-88832000D01*
X153795000Y-89245000D02*
X153795000Y-86339000D01*
X153595000Y-88560000D02*
X153595000Y-87024000D01*
X153915000Y-89523000D02*
X153915000Y-86061000D01*
X157316000Y-91860000D02*
X157316000Y-83724000D01*
X155355000Y-91184000D02*
X155355000Y-88832000D01*
X155315000Y-91157000D02*
X155315000Y-88832000D01*
X157236000Y-91853000D02*
X157236000Y-83731000D01*
X156395000Y-86752000D02*
X156395000Y-83903000D01*
X155675000Y-86752000D02*
X155675000Y-84208000D01*
X156315000Y-86752000D02*
X156315000Y-83929000D01*
X155195000Y-91072000D02*
X155195000Y-88832000D01*
X154115000Y-89894000D02*
X154115000Y-85690000D01*
X154795000Y-90737000D02*
X154795000Y-84847000D01*
X154155000Y-89958000D02*
X154155000Y-85626000D01*
X154595000Y-90533000D02*
X154595000Y-85051000D01*
X155595000Y-86752000D02*
X155595000Y-84252000D01*
X154435000Y-90348000D02*
X154435000Y-85236000D01*
X154755000Y-90699000D02*
X154755000Y-84885000D01*
X154315000Y-90192000D02*
X154315000Y-85392000D01*
X154715000Y-90659000D02*
X154715000Y-84925000D01*
X155275000Y-86752000D02*
X155275000Y-84454000D01*
X155155000Y-86752000D02*
X155155000Y-84542000D01*
X156875000Y-91802000D02*
X156875000Y-88832000D01*
X154675000Y-90618000D02*
X154675000Y-84966000D01*
X154235000Y-90079000D02*
X154235000Y-85505000D01*
X157436000Y-91868000D02*
X157436000Y-83716000D01*
X155395000Y-86752000D02*
X155395000Y-84374000D01*
X156755000Y-91777000D02*
X156755000Y-88832000D01*
X157036000Y-91829000D02*
X157036000Y-83755000D01*
X155475000Y-91261000D02*
X155475000Y-88832000D01*
X155355000Y-86752000D02*
X155355000Y-84400000D01*
X155275000Y-91130000D02*
X155275000Y-88832000D01*
X153755000Y-89138000D02*
X153755000Y-86446000D01*
X156475000Y-86752000D02*
X156475000Y-83878000D01*
X156155000Y-91597000D02*
X156155000Y-88832000D01*
X157636000Y-91872000D02*
X157636000Y-83712000D01*
X155995000Y-86752000D02*
X155995000Y-84052000D01*
X154835000Y-90775000D02*
X154835000Y-84809000D01*
X156755000Y-86752000D02*
X156755000Y-83807000D01*
X155115000Y-91012000D02*
X155115000Y-88832000D01*
X156235000Y-86752000D02*
X156235000Y-83957000D01*
X156835000Y-86752000D02*
X156835000Y-83790000D01*
X155915000Y-86752000D02*
X155915000Y-84088000D01*
X155835000Y-86752000D02*
X155835000Y-84126000D01*
X156835000Y-91794000D02*
X156835000Y-88832000D01*
X154555000Y-90489000D02*
X154555000Y-85095000D01*
X153635000Y-88740000D02*
X153635000Y-86844000D01*
X154875000Y-86752000D02*
X154875000Y-84773000D01*
X156555000Y-91728000D02*
X156555000Y-88832000D01*
X154355000Y-90246000D02*
X154355000Y-85338000D01*
X154075000Y-89826000D02*
X154075000Y-85758000D01*
X157556000Y-91872000D02*
X157556000Y-83712000D01*
X155555000Y-91309000D02*
X155555000Y-88832000D01*
X155875000Y-86752000D02*
X155875000Y-84106000D01*
X155235000Y-91101000D02*
X155235000Y-88832000D01*
X157596000Y-91872000D02*
X157596000Y-83712000D01*
X156035000Y-91549000D02*
X156035000Y-88832000D01*
X155155000Y-91042000D02*
X155155000Y-88832000D01*
X156635000Y-86752000D02*
X156635000Y-83835000D01*
X156715000Y-86752000D02*
X156715000Y-83816000D01*
X155635000Y-86752000D02*
X155635000Y-84230000D01*
X156155000Y-86752000D02*
X156155000Y-83987000D01*
X154395000Y-90297000D02*
X154395000Y-85287000D01*
X156515000Y-91717000D02*
X156515000Y-88832000D01*
X157276000Y-91857000D02*
X157276000Y-83727000D01*
X155995000Y-91532000D02*
X155995000Y-88832000D01*
X156395000Y-91681000D02*
X156395000Y-88832000D01*
X155475000Y-86752000D02*
X155475000Y-84323000D01*
X155035000Y-86752000D02*
X155035000Y-84636000D01*
X155875000Y-91478000D02*
X155875000Y-88832000D01*
X155035000Y-90948000D02*
X155035000Y-88832000D01*
X156956000Y-91816000D02*
X156956000Y-83768000D01*
X155835000Y-91458000D02*
X155835000Y-88832000D01*
X155715000Y-91398000D02*
X155715000Y-88832000D01*
X157116000Y-91840000D02*
X157116000Y-83744000D01*
X154515000Y-90443000D02*
X154515000Y-85141000D01*
X156595000Y-91739000D02*
X156595000Y-88832000D01*
X156715000Y-91768000D02*
X156715000Y-88832000D01*
X155515000Y-91285000D02*
X155515000Y-88832000D01*
X156035000Y-86752000D02*
X156035000Y-84035000D01*
X155395000Y-91210000D02*
X155395000Y-88832000D01*
X153555000Y-88325000D02*
X153555000Y-87259000D01*
X157156000Y-91844000D02*
X157156000Y-83740000D01*
X154035000Y-89756000D02*
X154035000Y-85828000D01*
X155915000Y-91496000D02*
X155915000Y-88832000D01*
X157516000Y-91871000D02*
X157516000Y-83713000D01*
X155075000Y-90981000D02*
X155075000Y-88832000D01*
X156115000Y-86752000D02*
X156115000Y-84002000D01*
X156515000Y-86752000D02*
X156515000Y-83867000D01*
X155955000Y-91514000D02*
X155955000Y-88832000D01*
X156195000Y-86752000D02*
X156195000Y-83971000D01*
X155635000Y-91354000D02*
X155635000Y-88832000D01*
X154995000Y-90916000D02*
X154995000Y-88832000D01*
X155795000Y-86752000D02*
X155795000Y-84145000D01*
X155075000Y-86752000D02*
X155075000Y-84603000D01*
X156915000Y-86752000D02*
X156915000Y-83775000D01*
X155955000Y-86752000D02*
X155955000Y-84070000D01*
X153955000Y-89605000D02*
X153955000Y-85979000D01*
X156635000Y-91749000D02*
X156635000Y-88832000D01*
X153715000Y-89021000D02*
X153715000Y-86563000D01*
X155675000Y-91376000D02*
X155675000Y-88832000D01*
X157076000Y-91834000D02*
X157076000Y-83750000D01*
X155515000Y-86752000D02*
X155515000Y-84299000D01*
X155795000Y-91439000D02*
X155795000Y-88832000D01*
X155435000Y-91236000D02*
X155435000Y-88832000D01*
X156315000Y-91655000D02*
X156315000Y-88832000D01*
X153835000Y-89344000D02*
X153835000Y-86240000D01*
X157196000Y-91849000D02*
X157196000Y-83735000D01*
X154275000Y-90137000D02*
X154275000Y-85447000D01*
X156275000Y-91642000D02*
X156275000Y-88832000D01*
X156475000Y-91706000D02*
X156475000Y-88832000D01*
X156795000Y-86752000D02*
X156795000Y-83798000D01*
X156675000Y-91759000D02*
X156675000Y-88832000D01*
X154635000Y-90576000D02*
X154635000Y-85008000D01*
X155595000Y-91332000D02*
X155595000Y-88832000D01*
X154995000Y-86752000D02*
X154995000Y-84668000D01*
X155715000Y-86752000D02*
X155715000Y-84186000D01*
X162045698Y-90107000D02*
X161245698Y-90107000D01*
X156275000Y-86752000D02*
X156275000Y-83942000D01*
X156875000Y-86752000D02*
X156875000Y-83782000D01*
X156075000Y-86752000D02*
X156075000Y-84018000D01*
X154955000Y-86752000D02*
X154955000Y-84702000D01*
X156355000Y-91669000D02*
X156355000Y-88832000D01*
X156115000Y-91582000D02*
X156115000Y-88832000D01*
X153875000Y-89437000D02*
X153875000Y-86147000D01*
X161756000Y-87792000D02*
G75*
G03*
X161756000Y-87792000I-4120000J0D01*
G01*
%TO.C,D4*%
X73129000Y-81862000D02*
X73129000Y-87302000D01*
X70674000Y-84582000D02*
X71584000Y-84582000D01*
X73249000Y-81862000D02*
X73249000Y-87302000D01*
X73009000Y-81862000D02*
X73009000Y-87302000D01*
X81324000Y-87302000D02*
X81324000Y-81862000D01*
X71584000Y-81862000D02*
X71584000Y-87302000D01*
X81324000Y-81862000D02*
X71584000Y-81862000D01*
X82234000Y-84582000D02*
X81324000Y-84582000D01*
X71584000Y-87302000D02*
X81324000Y-87302000D01*
%TO.C,J3*%
X163576000Y-102870000D02*
X163576000Y-92710000D01*
X155956000Y-102870000D02*
X163576000Y-102870000D01*
X163576000Y-92710000D02*
X155956000Y-92710000D01*
X157226000Y-102870000D02*
X157226000Y-92710000D01*
X155956000Y-92710000D02*
X155956000Y-102870000D01*
%TO.C,J4*%
X155956000Y-114808000D02*
X163576000Y-114808000D01*
X163576000Y-104648000D02*
X155956000Y-104648000D01*
X155956000Y-104648000D02*
X155956000Y-114808000D01*
X157226000Y-114808000D02*
X157226000Y-104648000D01*
X163576000Y-114808000D02*
X163576000Y-104648000D01*
%TO.C,C5*%
X133344000Y-98837000D02*
X132086000Y-98837000D01*
X133344000Y-96997000D02*
X132086000Y-96997000D01*
%TO.C,R1*%
X118265000Y-76521000D02*
X118265000Y-83061000D01*
X118265000Y-83061000D02*
X121005000Y-83061000D01*
X121005000Y-76521000D02*
X118265000Y-76521000D01*
X119635000Y-75751000D02*
X119635000Y-76521000D01*
X121005000Y-83061000D02*
X121005000Y-76521000D01*
X119635000Y-83831000D02*
X119635000Y-83061000D01*
%TO.C,R2*%
X107982000Y-99722000D02*
X107982000Y-102462000D01*
X115292000Y-101092000D02*
X114522000Y-101092000D01*
X107982000Y-102462000D02*
X114522000Y-102462000D01*
X114522000Y-102462000D02*
X114522000Y-99722000D01*
X114522000Y-99722000D02*
X107982000Y-99722000D01*
X107212000Y-101092000D02*
X107982000Y-101092000D01*
%TO.C,C4*%
X113184000Y-91632000D02*
X112939000Y-91632000D01*
X113184000Y-95272000D02*
X112939000Y-95272000D01*
X111089000Y-91632000D02*
X110844000Y-91632000D01*
X111089000Y-95272000D02*
X110844000Y-95272000D01*
X113184000Y-91632000D02*
X113184000Y-95272000D01*
X110844000Y-91632000D02*
X110844000Y-95272000D01*
%TO.C,J2*%
X97536000Y-113792000D02*
X87376000Y-113792000D01*
X87376000Y-113792000D02*
X87376000Y-121412000D01*
X87376000Y-115062000D02*
X97536000Y-115062000D01*
X87376000Y-121412000D02*
X97536000Y-121412000D01*
X97536000Y-121412000D02*
X97536000Y-113792000D01*
%TD*%
%LPC*%
D12*
%TO.C,R4*%
X136907000Y-95158000D03*
D13*
X147067000Y-95158000D03*
%TD*%
D14*
%TO.C,Regulacion_Corriente1*%
X134051000Y-83115000D03*
X136551000Y-80615000D03*
X139051000Y-83115000D03*
%TD*%
D15*
%TO.C,Q1*%
X127254000Y-98812000D03*
D16*
X124714000Y-98812000D03*
X122174000Y-98812000D03*
%TD*%
D17*
%TO.C,C2*%
X99568000Y-101092000D03*
D18*
X92068000Y-101092000D03*
%TD*%
D12*
%TO.C,R3*%
X146940000Y-90713000D03*
D13*
X136780000Y-90713000D03*
%TD*%
D14*
%TO.C,Regulacion_Tension1*%
X110175000Y-82861000D03*
X112675000Y-80361000D03*
X115175000Y-82861000D03*
%TD*%
D19*
%TO.C,Q2*%
X136260000Y-112194000D03*
D20*
X130810000Y-112194000D03*
X125360000Y-112194000D03*
%TD*%
D21*
%TO.C,D3*%
X68834000Y-91948000D03*
D22*
X84074000Y-91948000D03*
%TD*%
D17*
%TO.C,C1*%
X99651755Y-82296000D03*
D18*
X92151755Y-82296000D03*
%TD*%
D12*
%TO.C,C3*%
X122322000Y-82966000D03*
X124822000Y-82966000D03*
%TD*%
D23*
%TO.C,D6*%
X135636000Y-106172000D03*
D24*
X125476000Y-106172000D03*
%TD*%
D21*
%TO.C,D2*%
X84074000Y-99822000D03*
D22*
X68834000Y-99822000D03*
%TD*%
D21*
%TO.C,D1*%
X84074000Y-107442000D03*
D22*
X68834000Y-107442000D03*
%TD*%
D21*
%TO.C,D7*%
X151384000Y-95250000D03*
D22*
X151384000Y-110490000D03*
%TD*%
D25*
%TO.C,HS1*%
X143510000Y-115570000D03*
X118110000Y-115570000D03*
%TD*%
D26*
%TO.C,Ajuste_Iout_max1*%
X148464000Y-77199000D03*
X151004000Y-77199000D03*
X153544000Y-77199000D03*
%TD*%
D27*
%TO.C,J1*%
X82042000Y-117602000D03*
D28*
X76962000Y-117602000D03*
%TD*%
D12*
%TO.C,C7*%
X153504000Y-81188000D03*
X151004000Y-81188000D03*
%TD*%
D29*
%TO.C,U1*%
X132339000Y-87640000D03*
D13*
X129799000Y-87640000D03*
X127259000Y-87640000D03*
X124719000Y-87640000D03*
X122179000Y-87640000D03*
X119639000Y-87640000D03*
X117099000Y-87640000D03*
X117099000Y-95260000D03*
X119639000Y-95260000D03*
X122179000Y-95260000D03*
X124719000Y-95260000D03*
X127259000Y-95260000D03*
X129799000Y-95260000D03*
X132339000Y-95260000D03*
%TD*%
D12*
%TO.C,R5*%
X136907000Y-86268000D03*
D13*
X147067000Y-86268000D03*
%TD*%
D15*
%TO.C,D5*%
X107696000Y-105410000D03*
D30*
X107696000Y-107950000D03*
%TD*%
D29*
%TO.C,C6*%
X159386000Y-87792000D03*
D12*
X155886000Y-87792000D03*
%TD*%
D21*
%TO.C,D4*%
X68834000Y-84582000D03*
D22*
X84074000Y-84582000D03*
%TD*%
D27*
%TO.C,J3*%
X159766000Y-95250000D03*
D28*
X159766000Y-100330000D03*
%TD*%
D27*
%TO.C,J4*%
X159766000Y-107188000D03*
D28*
X159766000Y-112268000D03*
%TD*%
D12*
%TO.C,C5*%
X133965000Y-97917000D03*
X131465000Y-97917000D03*
%TD*%
%TO.C,R1*%
X119635000Y-84871000D03*
D13*
X119635000Y-74711000D03*
%TD*%
D12*
%TO.C,R2*%
X116332000Y-101092000D03*
D13*
X106172000Y-101092000D03*
%TD*%
D12*
%TO.C,C4*%
X112014000Y-92202000D03*
X112014000Y-94702000D03*
%TD*%
D27*
%TO.C,J2*%
X94996000Y-117602000D03*
D28*
X89916000Y-117602000D03*
%TD*%
M02*
