%FSLAX45Y45*%
G04 Gerber Fmt 4.5, Leading zero omitted, Abs format (unit mm)*
G04 Created by KiCad (PCBNEW 6.0.4-6f826c9f35~116~ubuntu20.04.1) date 2022-05-17 19:46:28*
%MOMM*%
%LPD*%
G01*
G04 APERTURE LIST*
%TA.AperFunction,Profile*%
%ADD10C,0.100000*%
%TD*%
%ADD11C,0.200000*%
G04 APERTURE END LIST*
D10*
X6350000Y-7239000D02*
X6350000Y-12319000D01*
X16383000Y-12319000D02*
X16383000Y-7239000D01*
X6350000Y-12319000D02*
X16383000Y-12319000D01*
X16383000Y-7239000D02*
X6350000Y-7239000D01*
D11*
X6602619Y-12634476D02*
X6602619Y-12434476D01*
X6650238Y-12434476D01*
X6678809Y-12444000D01*
X6697857Y-12463048D01*
X6707381Y-12482095D01*
X6716905Y-12520190D01*
X6716905Y-12548762D01*
X6707381Y-12586857D01*
X6697857Y-12605905D01*
X6678809Y-12624952D01*
X6650238Y-12634476D01*
X6602619Y-12634476D01*
X6802619Y-12634476D02*
X6802619Y-12501143D01*
X6802619Y-12539238D02*
X6812143Y-12520190D01*
X6821667Y-12510667D01*
X6840714Y-12501143D01*
X6859762Y-12501143D01*
X6926428Y-12634476D02*
X6926428Y-12501143D01*
X6926428Y-12434476D02*
X6916905Y-12444000D01*
X6926428Y-12453524D01*
X6935952Y-12444000D01*
X6926428Y-12434476D01*
X6926428Y-12453524D01*
X7050238Y-12634476D02*
X7031190Y-12624952D01*
X7021667Y-12605905D01*
X7021667Y-12434476D01*
X7155000Y-12634476D02*
X7135952Y-12624952D01*
X7126428Y-12605905D01*
X7126428Y-12434476D01*
X7383571Y-12634476D02*
X7383571Y-12434476D01*
X7450238Y-12577333D01*
X7516905Y-12434476D01*
X7516905Y-12634476D01*
X7697857Y-12634476D02*
X7697857Y-12529714D01*
X7688333Y-12510667D01*
X7669286Y-12501143D01*
X7631190Y-12501143D01*
X7612143Y-12510667D01*
X7697857Y-12624952D02*
X7678809Y-12634476D01*
X7631190Y-12634476D01*
X7612143Y-12624952D01*
X7602619Y-12605905D01*
X7602619Y-12586857D01*
X7612143Y-12567809D01*
X7631190Y-12558286D01*
X7678809Y-12558286D01*
X7697857Y-12548762D01*
X7793095Y-12501143D02*
X7793095Y-12701143D01*
X7793095Y-12510667D02*
X7812143Y-12501143D01*
X7850238Y-12501143D01*
X7869286Y-12510667D01*
X7878809Y-12520190D01*
X7888333Y-12539238D01*
X7888333Y-12596381D01*
X7878809Y-12615428D01*
X7869286Y-12624952D01*
X7850238Y-12634476D01*
X7812143Y-12634476D01*
X7793095Y-12624952D01*
X7974048Y-12615428D02*
X7983571Y-12624952D01*
X7974048Y-12634476D01*
X7964524Y-12624952D01*
X7974048Y-12615428D01*
X7974048Y-12634476D01*
X7974048Y-12510667D02*
X7983571Y-12520190D01*
X7974048Y-12529714D01*
X7964524Y-12520190D01*
X7974048Y-12510667D01*
X7974048Y-12529714D01*
M02*
