%FSLAX45Y45*%
G04 Gerber Fmt 4.5, Leading zero omitted, Abs format (unit mm)*
G04 Created by KiCad (PCBNEW 6.0.4-6f826c9f35~116~ubuntu20.04.1) date 2022-05-17 19:46:28*
%MOMM*%
%LPD*%
G01*
G04 APERTURE LIST*
%TA.AperFunction,Profile*%
%ADD10C,0.100000*%
%TD*%
%ADD11C,0.200000*%
%ADD12C,0.080000*%
%ADD13C,0.090000*%
%ADD14C,0.100000*%
%ADD15C,0.110000*%
%ADD16C,0.120000*%
%ADD17C,0.130000*%
%ADD18C,0.150000*%
%ADD19C,0.152000*%
%ADD20C,0.160000*%
%ADD21C,0.250000*%
%ADD22C,0.300000*%
G04 APERTURE END LIST*
D10*
X6350000Y-7239000D02*
X6350000Y-12319000D01*
X16383000Y-12319000D02*
X16383000Y-7239000D01*
X6350000Y-12319000D02*
X16383000Y-12319000D01*
X16383000Y-7239000D02*
X6350000Y-7239000D01*
D11*
D12*
X10577200Y-10069200D02*
X10657200Y-10149200D01*
X10657200Y-10069200D02*
X10577200Y-10149200D01*
X11161400Y-9180200D02*
X11241400Y-9260200D01*
X11241400Y-9180200D02*
X11161400Y-9260200D01*
X11161400Y-9430200D02*
X11241400Y-9510200D01*
X11241400Y-9430200D02*
X11161400Y-9510200D01*
X11593200Y-10069200D02*
X11673200Y-10149200D01*
X11673200Y-10069200D02*
X11593200Y-10149200D01*
X11669900Y-8724000D02*
X11749900Y-8804000D01*
X11749900Y-8724000D02*
X11669900Y-8804000D01*
X11669900Y-9486000D02*
X11749900Y-9566000D01*
X11749900Y-9486000D02*
X11669900Y-9566000D01*
X11923500Y-7431100D02*
X12003500Y-7511100D01*
X12003500Y-7431100D02*
X11923500Y-7511100D01*
X11923500Y-8447100D02*
X12003500Y-8527100D01*
X12003500Y-8447100D02*
X11923500Y-8527100D01*
X11923900Y-8724000D02*
X12003900Y-8804000D01*
X12003900Y-8724000D02*
X11923900Y-8804000D01*
X11923900Y-9486000D02*
X12003900Y-9566000D01*
X12003900Y-9486000D02*
X11923900Y-9566000D01*
X12177900Y-8724000D02*
X12257900Y-8804000D01*
X12257900Y-8724000D02*
X12177900Y-8804000D01*
X12177900Y-9486000D02*
X12257900Y-9566000D01*
X12257900Y-9486000D02*
X12177900Y-9566000D01*
X12192200Y-8256600D02*
X12272200Y-8336600D01*
X12272200Y-8256600D02*
X12192200Y-8336600D01*
X12431900Y-8724000D02*
X12511900Y-8804000D01*
X12511900Y-8724000D02*
X12431900Y-8804000D01*
X12431900Y-9486000D02*
X12511900Y-9566000D01*
X12511900Y-9486000D02*
X12431900Y-9566000D01*
X12442200Y-8256600D02*
X12522200Y-8336600D01*
X12522200Y-8256600D02*
X12442200Y-8336600D01*
X12685900Y-8724000D02*
X12765900Y-8804000D01*
X12765900Y-8724000D02*
X12685900Y-8804000D01*
X12685900Y-9486000D02*
X12765900Y-9566000D01*
X12765900Y-9486000D02*
X12685900Y-9566000D01*
X12939900Y-8724000D02*
X13019900Y-8804000D01*
X13019900Y-8724000D02*
X12939900Y-8804000D01*
X12939900Y-9486000D02*
X13019900Y-9566000D01*
X13019900Y-9486000D02*
X12939900Y-9566000D01*
X13106500Y-9751700D02*
X13186500Y-9831700D01*
X13186500Y-9751700D02*
X13106500Y-9831700D01*
X13193900Y-8724000D02*
X13273900Y-8804000D01*
X13273900Y-8724000D02*
X13193900Y-8804000D01*
X13193900Y-9486000D02*
X13273900Y-9566000D01*
X13273900Y-9486000D02*
X13193900Y-9566000D01*
X13356500Y-9751700D02*
X13436500Y-9831700D01*
X13436500Y-9751700D02*
X13356500Y-9831700D01*
X13638000Y-9031300D02*
X13718000Y-9111300D01*
X13718000Y-9031300D02*
X13638000Y-9111300D01*
X13650700Y-8586800D02*
X13730700Y-8666800D01*
X13730700Y-8586800D02*
X13650700Y-8666800D01*
X13650700Y-9475800D02*
X13730700Y-9555800D01*
X13730700Y-9475800D02*
X13650700Y-9555800D01*
X14654000Y-9031300D02*
X14734000Y-9111300D01*
X14734000Y-9031300D02*
X14654000Y-9111300D01*
X14666700Y-8586800D02*
X14746700Y-8666800D01*
X14746700Y-8586800D02*
X14666700Y-8666800D01*
X14666700Y-9475800D02*
X14746700Y-9555800D01*
X14746700Y-9475800D02*
X14666700Y-9555800D01*
X14806400Y-7679900D02*
X14886400Y-7759900D01*
X14886400Y-7679900D02*
X14806400Y-7759900D01*
X15060400Y-7679900D02*
X15140400Y-7759900D01*
X15140400Y-7679900D02*
X15060400Y-7759900D01*
X15060400Y-8078800D02*
X15140400Y-8158800D01*
X15140400Y-8078800D02*
X15060400Y-8158800D01*
X15310400Y-8078800D02*
X15390400Y-8158800D01*
X15390400Y-8078800D02*
X15310400Y-8158800D01*
X15314400Y-7679900D02*
X15394400Y-7759900D01*
X15394400Y-7679900D02*
X15314400Y-7759900D01*
X15548600Y-8739200D02*
X15628600Y-8819200D01*
X15628600Y-8739200D02*
X15548600Y-8819200D01*
X15898600Y-8739200D02*
X15978600Y-8819200D01*
X15978600Y-8739200D02*
X15898600Y-8819200D01*
D13*
X10814600Y-10541000D02*
G75*
G03*
X10814600Y-10541000I-45000J0D01*
G01*
X10814600Y-10795000D02*
G75*
G03*
X10814600Y-10795000I-45000J0D01*
G01*
D14*
X13665300Y-7637000D02*
X13665300Y-7737000D01*
X13615300Y-7687000D02*
X13715300Y-7687000D01*
X14503500Y-7637000D02*
X14503500Y-7737000D01*
X14453500Y-7687000D02*
X14553500Y-7687000D01*
X12252756Y-9916556D02*
X12252756Y-9845844D01*
X12182044Y-9845844D01*
X12182044Y-9916556D01*
X12252756Y-9916556D01*
X12506756Y-9916556D02*
X12506756Y-9845844D01*
X12436044Y-9845844D01*
X12436044Y-9916556D01*
X12506756Y-9916556D01*
X12760756Y-9916556D02*
X12760756Y-9845844D01*
X12690044Y-9845844D01*
X12690044Y-9916556D01*
X12760756Y-9916556D01*
D15*
X12547600Y-10672200D02*
X12602600Y-10617200D01*
X12547600Y-10562200D01*
X12492600Y-10617200D01*
X12547600Y-10672200D01*
X13563600Y-10672200D02*
X13618600Y-10617200D01*
X13563600Y-10562200D01*
X13508600Y-10617200D01*
X13563600Y-10672200D01*
D16*
X9146800Y-10049200D02*
X9266800Y-10169200D01*
X9266800Y-10049200D02*
X9146800Y-10169200D01*
X9266800Y-10109200D02*
G75*
G03*
X9266800Y-10109200I-60000J0D01*
G01*
X9155176Y-8169600D02*
X9275176Y-8289600D01*
X9275176Y-8169600D02*
X9155176Y-8289600D01*
X9275176Y-8229600D02*
G75*
G03*
X9275176Y-8229600I-60000J0D01*
G01*
X9896800Y-10049200D02*
X10016800Y-10169200D01*
X10016800Y-10049200D02*
X9896800Y-10169200D01*
X10016800Y-10109200D02*
G75*
G03*
X10016800Y-10109200I-60000J0D01*
G01*
X9905176Y-8169600D02*
X10025176Y-8289600D01*
X10025176Y-8169600D02*
X9905176Y-8289600D01*
X10025176Y-8229600D02*
G75*
G03*
X10025176Y-8229600I-60000J0D01*
G01*
D17*
X10952500Y-8221100D02*
X11082500Y-8351100D01*
X11082500Y-8221100D02*
X10952500Y-8351100D01*
X11017500Y-8221100D02*
X11017500Y-8351100D01*
X10952500Y-8286100D02*
X11082500Y-8286100D01*
X11202500Y-7971100D02*
X11332500Y-8101100D01*
X11332500Y-7971100D02*
X11202500Y-8101100D01*
X11267500Y-7971100D02*
X11267500Y-8101100D01*
X11202500Y-8036100D02*
X11332500Y-8036100D01*
X11452500Y-8221100D02*
X11582500Y-8351100D01*
X11582500Y-8221100D02*
X11452500Y-8351100D01*
X11517500Y-8221100D02*
X11517500Y-8351100D01*
X11452500Y-8286100D02*
X11582500Y-8286100D01*
X13340100Y-8246500D02*
X13470100Y-8376500D01*
X13470100Y-8246500D02*
X13340100Y-8376500D01*
X13405100Y-8246500D02*
X13405100Y-8376500D01*
X13340100Y-8311500D02*
X13470100Y-8311500D01*
X13590100Y-7996500D02*
X13720100Y-8126500D01*
X13720100Y-7996500D02*
X13590100Y-8126500D01*
X13655100Y-7996500D02*
X13655100Y-8126500D01*
X13590100Y-8061500D02*
X13720100Y-8061500D01*
X13840100Y-8246500D02*
X13970100Y-8376500D01*
X13970100Y-8246500D02*
X13840100Y-8376500D01*
X13905100Y-8246500D02*
X13905100Y-8376500D01*
X13840100Y-8311500D02*
X13970100Y-8311500D01*
D18*
X12461000Y-11144400D02*
X12611000Y-11294400D01*
X12611000Y-11144400D02*
X12461000Y-11294400D01*
X12589033Y-11272433D02*
X12589033Y-11166367D01*
X12482966Y-11166367D01*
X12482966Y-11272433D01*
X12589033Y-11272433D01*
X13006000Y-11144400D02*
X13156000Y-11294400D01*
X13156000Y-11144400D02*
X13006000Y-11294400D01*
X13134033Y-11272433D02*
X13134033Y-11166367D01*
X13027966Y-11166367D01*
X13027966Y-11272433D01*
X13134033Y-11272433D01*
X13551000Y-11144400D02*
X13701000Y-11294400D01*
X13701000Y-11144400D02*
X13551000Y-11294400D01*
X13679033Y-11272433D02*
X13679033Y-11166367D01*
X13572966Y-11166367D01*
X13572966Y-11272433D01*
X13679033Y-11272433D01*
D19*
X7620200Y-11684200D02*
X7772200Y-11836200D01*
X7772200Y-11684200D02*
X7620200Y-11836200D01*
X7696200Y-11836200D02*
X7772200Y-11760200D01*
X7696200Y-11684200D01*
X7620200Y-11760200D01*
X7696200Y-11836200D01*
X8128200Y-11684200D02*
X8280200Y-11836200D01*
X8280200Y-11684200D02*
X8128200Y-11836200D01*
X8204200Y-11836200D02*
X8280200Y-11760200D01*
X8204200Y-11684200D01*
X8128200Y-11760200D01*
X8204200Y-11836200D01*
X8915600Y-11684200D02*
X9067600Y-11836200D01*
X9067600Y-11684200D02*
X8915600Y-11836200D01*
X8991600Y-11836200D02*
X9067600Y-11760200D01*
X8991600Y-11684200D01*
X8915600Y-11760200D01*
X8991600Y-11836200D01*
X9423600Y-11684200D02*
X9575600Y-11836200D01*
X9575600Y-11684200D02*
X9423600Y-11836200D01*
X9499600Y-11836200D02*
X9575600Y-11760200D01*
X9499600Y-11684200D01*
X9423600Y-11760200D01*
X9499600Y-11836200D01*
X15900600Y-9449000D02*
X16052600Y-9601000D01*
X16052600Y-9449000D02*
X15900600Y-9601000D01*
X15976600Y-9601000D02*
X16052600Y-9525000D01*
X15976600Y-9449000D01*
X15900600Y-9525000D01*
X15976600Y-9601000D01*
X15900600Y-9957000D02*
X16052600Y-10109000D01*
X16052600Y-9957000D02*
X15900600Y-10109000D01*
X15976600Y-10109000D02*
X16052600Y-10033000D01*
X15976600Y-9957000D01*
X15900600Y-10033000D01*
X15976600Y-10109000D01*
X15900600Y-10642800D02*
X16052600Y-10794800D01*
X16052600Y-10642800D02*
X15900600Y-10794800D01*
X15976600Y-10794800D02*
X16052600Y-10718800D01*
X15976600Y-10642800D01*
X15900600Y-10718800D01*
X15976600Y-10794800D01*
X15900600Y-11150800D02*
X16052600Y-11302800D01*
X16052600Y-11150800D02*
X15900600Y-11302800D01*
X15976600Y-11302800D02*
X16052600Y-11226800D01*
X15976600Y-11150800D01*
X15900600Y-11226800D01*
X15976600Y-11302800D01*
D20*
X6883400Y-8378200D02*
X6883400Y-8538200D01*
X6803400Y-8458200D02*
X6963400Y-8458200D01*
X6963400Y-8458200D02*
G75*
G03*
X6963400Y-8458200I-80000J0D01*
G01*
X6883400Y-9114800D02*
X6883400Y-9274800D01*
X6803400Y-9194800D02*
X6963400Y-9194800D01*
X6963400Y-9194800D02*
G75*
G03*
X6963400Y-9194800I-80000J0D01*
G01*
X6883400Y-9902200D02*
X6883400Y-10062200D01*
X6803400Y-9982200D02*
X6963400Y-9982200D01*
X6963400Y-9982200D02*
G75*
G03*
X6963400Y-9982200I-80000J0D01*
G01*
X6883400Y-10664200D02*
X6883400Y-10824200D01*
X6803400Y-10744200D02*
X6963400Y-10744200D01*
X6963400Y-10744200D02*
G75*
G03*
X6963400Y-10744200I-80000J0D01*
G01*
X8407400Y-8378200D02*
X8407400Y-8538200D01*
X8327400Y-8458200D02*
X8487400Y-8458200D01*
X8487400Y-8458200D02*
G75*
G03*
X8487400Y-8458200I-80000J0D01*
G01*
X8407400Y-9114800D02*
X8407400Y-9274800D01*
X8327400Y-9194800D02*
X8487400Y-9194800D01*
X8487400Y-9194800D02*
G75*
G03*
X8487400Y-9194800I-80000J0D01*
G01*
X8407400Y-9902200D02*
X8407400Y-10062200D01*
X8327400Y-9982200D02*
X8487400Y-9982200D01*
X8487400Y-9982200D02*
G75*
G03*
X8487400Y-9982200I-80000J0D01*
G01*
X8407400Y-10664200D02*
X8407400Y-10824200D01*
X8327400Y-10744200D02*
X8487400Y-10744200D01*
X8487400Y-10744200D02*
G75*
G03*
X8487400Y-10744200I-80000J0D01*
G01*
X15138400Y-9445000D02*
X15138400Y-9605000D01*
X15058400Y-9525000D02*
X15218400Y-9525000D01*
X15218400Y-9525000D02*
G75*
G03*
X15218400Y-9525000I-80000J0D01*
G01*
X15138400Y-10969000D02*
X15138400Y-11129000D01*
X15058400Y-11049000D02*
X15218400Y-11049000D01*
X15218400Y-11049000D02*
G75*
G03*
X15218400Y-11049000I-80000J0D01*
G01*
D21*
X11899389Y-11645389D02*
X11899389Y-11468611D01*
X11722611Y-11468611D01*
X11722611Y-11645389D01*
X11899389Y-11645389D01*
X11936000Y-11557000D02*
G75*
G03*
X11936000Y-11557000I-125000J0D01*
G01*
X14439389Y-11645389D02*
X14439389Y-11468611D01*
X14262611Y-11468611D01*
X14262611Y-11645389D01*
X14439389Y-11645389D01*
X14476000Y-11557000D02*
G75*
G03*
X14476000Y-11557000I-125000J0D01*
G01*
D22*
X6731000Y-7770000D02*
X6881000Y-7620000D01*
X6731000Y-7470000D01*
X6581000Y-7620000D01*
X6731000Y-7770000D01*
X6881000Y-7620000D02*
G75*
G03*
X6881000Y-7620000I-150000J0D01*
G01*
X6731000Y-12088000D02*
X6881000Y-11938000D01*
X6731000Y-11788000D01*
X6581000Y-11938000D01*
X6731000Y-12088000D01*
X6881000Y-11938000D02*
G75*
G03*
X6881000Y-11938000I-150000J0D01*
G01*
X15999802Y-12085139D02*
X16149802Y-11935139D01*
X15999802Y-11785139D01*
X15849802Y-11935139D01*
X15999802Y-12085139D01*
X16149802Y-11935139D02*
G75*
G03*
X16149802Y-11935139I-150000J0D01*
G01*
X16002000Y-7770000D02*
X16152000Y-7620000D01*
X16002000Y-7470000D01*
X15852000Y-7620000D01*
X16002000Y-7770000D01*
X16152000Y-7620000D02*
G75*
G03*
X16152000Y-7620000I-150000J0D01*
G01*
D11*
X6602619Y-12634476D02*
X6602619Y-12434476D01*
X6650238Y-12434476D01*
X6678809Y-12444000D01*
X6697857Y-12463048D01*
X6707381Y-12482095D01*
X6716905Y-12520190D01*
X6716905Y-12548762D01*
X6707381Y-12586857D01*
X6697857Y-12605905D01*
X6678809Y-12624952D01*
X6650238Y-12634476D01*
X6602619Y-12634476D01*
X6802619Y-12634476D02*
X6802619Y-12501143D01*
X6802619Y-12539238D02*
X6812143Y-12520190D01*
X6821667Y-12510667D01*
X6840714Y-12501143D01*
X6859762Y-12501143D01*
X6926428Y-12634476D02*
X6926428Y-12501143D01*
X6926428Y-12434476D02*
X6916905Y-12444000D01*
X6926428Y-12453524D01*
X6935952Y-12444000D01*
X6926428Y-12434476D01*
X6926428Y-12453524D01*
X7050238Y-12634476D02*
X7031190Y-12624952D01*
X7021667Y-12605905D01*
X7021667Y-12434476D01*
X7155000Y-12634476D02*
X7135952Y-12624952D01*
X7126428Y-12605905D01*
X7126428Y-12434476D01*
X7383571Y-12634476D02*
X7383571Y-12434476D01*
X7450238Y-12577333D01*
X7516905Y-12434476D01*
X7516905Y-12634476D01*
X7697857Y-12634476D02*
X7697857Y-12529714D01*
X7688333Y-12510667D01*
X7669286Y-12501143D01*
X7631190Y-12501143D01*
X7612143Y-12510667D01*
X7697857Y-12624952D02*
X7678809Y-12634476D01*
X7631190Y-12634476D01*
X7612143Y-12624952D01*
X7602619Y-12605905D01*
X7602619Y-12586857D01*
X7612143Y-12567809D01*
X7631190Y-12558286D01*
X7678809Y-12558286D01*
X7697857Y-12548762D01*
X7793095Y-12501143D02*
X7793095Y-12701143D01*
X7793095Y-12510667D02*
X7812143Y-12501143D01*
X7850238Y-12501143D01*
X7869286Y-12510667D01*
X7878809Y-12520190D01*
X7888333Y-12539238D01*
X7888333Y-12596381D01*
X7878809Y-12615428D01*
X7869286Y-12624952D01*
X7850238Y-12634476D01*
X7812143Y-12634476D01*
X7793095Y-12624952D01*
X7974048Y-12615428D02*
X7983571Y-12624952D01*
X7974048Y-12634476D01*
X7964524Y-12624952D01*
X7974048Y-12615428D01*
X7974048Y-12634476D01*
X7974048Y-12510667D02*
X7983571Y-12520190D01*
X7974048Y-12529714D01*
X7964524Y-12520190D01*
X7974048Y-12510667D01*
X7974048Y-12529714D01*
D12*
X6265000Y-12924000D02*
X6345000Y-13004000D01*
X6345000Y-12924000D02*
X6265000Y-13004000D01*
D11*
X6640714Y-12854476D02*
X6659762Y-12854476D01*
X6678809Y-12864000D01*
X6688333Y-12873524D01*
X6697857Y-12892571D01*
X6707381Y-12930667D01*
X6707381Y-12978286D01*
X6697857Y-13016381D01*
X6688333Y-13035428D01*
X6678809Y-13044952D01*
X6659762Y-13054476D01*
X6640714Y-13054476D01*
X6621667Y-13044952D01*
X6612143Y-13035428D01*
X6602619Y-13016381D01*
X6593095Y-12978286D01*
X6593095Y-12930667D01*
X6602619Y-12892571D01*
X6612143Y-12873524D01*
X6621667Y-12864000D01*
X6640714Y-12854476D01*
X6793095Y-13035428D02*
X6802619Y-13044952D01*
X6793095Y-13054476D01*
X6783571Y-13044952D01*
X6793095Y-13035428D01*
X6793095Y-13054476D01*
X6916905Y-12940190D02*
X6897857Y-12930667D01*
X6888333Y-12921143D01*
X6878809Y-12902095D01*
X6878809Y-12892571D01*
X6888333Y-12873524D01*
X6897857Y-12864000D01*
X6916905Y-12854476D01*
X6955000Y-12854476D01*
X6974048Y-12864000D01*
X6983571Y-12873524D01*
X6993095Y-12892571D01*
X6993095Y-12902095D01*
X6983571Y-12921143D01*
X6974048Y-12930667D01*
X6955000Y-12940190D01*
X6916905Y-12940190D01*
X6897857Y-12949714D01*
X6888333Y-12959238D01*
X6878809Y-12978286D01*
X6878809Y-13016381D01*
X6888333Y-13035428D01*
X6897857Y-13044952D01*
X6916905Y-13054476D01*
X6955000Y-13054476D01*
X6974048Y-13044952D01*
X6983571Y-13035428D01*
X6993095Y-13016381D01*
X6993095Y-12978286D01*
X6983571Y-12959238D01*
X6974048Y-12949714D01*
X6955000Y-12940190D01*
X7116905Y-12854476D02*
X7135952Y-12854476D01*
X7155000Y-12864000D01*
X7164524Y-12873524D01*
X7174048Y-12892571D01*
X7183571Y-12930667D01*
X7183571Y-12978286D01*
X7174048Y-13016381D01*
X7164524Y-13035428D01*
X7155000Y-13044952D01*
X7135952Y-13054476D01*
X7116905Y-13054476D01*
X7097857Y-13044952D01*
X7088333Y-13035428D01*
X7078809Y-13016381D01*
X7069286Y-12978286D01*
X7069286Y-12930667D01*
X7078809Y-12892571D01*
X7088333Y-12873524D01*
X7097857Y-12864000D01*
X7116905Y-12854476D01*
X7307381Y-12854476D02*
X7326428Y-12854476D01*
X7345476Y-12864000D01*
X7355000Y-12873524D01*
X7364524Y-12892571D01*
X7374048Y-12930667D01*
X7374048Y-12978286D01*
X7364524Y-13016381D01*
X7355000Y-13035428D01*
X7345476Y-13044952D01*
X7326428Y-13054476D01*
X7307381Y-13054476D01*
X7288333Y-13044952D01*
X7278809Y-13035428D01*
X7269286Y-13016381D01*
X7259762Y-12978286D01*
X7259762Y-12930667D01*
X7269286Y-12892571D01*
X7278809Y-12873524D01*
X7288333Y-12864000D01*
X7307381Y-12854476D01*
X7459762Y-13054476D02*
X7459762Y-12921143D01*
X7459762Y-12940190D02*
X7469286Y-12930667D01*
X7488333Y-12921143D01*
X7516905Y-12921143D01*
X7535952Y-12930667D01*
X7545476Y-12949714D01*
X7545476Y-13054476D01*
X7545476Y-12949714D02*
X7555000Y-12930667D01*
X7574048Y-12921143D01*
X7602619Y-12921143D01*
X7621667Y-12930667D01*
X7631190Y-12949714D01*
X7631190Y-13054476D01*
X7726428Y-13054476D02*
X7726428Y-12921143D01*
X7726428Y-12940190D02*
X7735952Y-12930667D01*
X7755000Y-12921143D01*
X7783571Y-12921143D01*
X7802619Y-12930667D01*
X7812143Y-12949714D01*
X7812143Y-13054476D01*
X7812143Y-12949714D02*
X7821667Y-12930667D01*
X7840714Y-12921143D01*
X7869286Y-12921143D01*
X7888333Y-12930667D01*
X7897857Y-12949714D01*
X7897857Y-13054476D01*
X8288333Y-12844952D02*
X8116905Y-13102095D01*
X8545476Y-12854476D02*
X8564524Y-12854476D01*
X8583571Y-12864000D01*
X8593095Y-12873524D01*
X8602619Y-12892571D01*
X8612143Y-12930667D01*
X8612143Y-12978286D01*
X8602619Y-13016381D01*
X8593095Y-13035428D01*
X8583571Y-13044952D01*
X8564524Y-13054476D01*
X8545476Y-13054476D01*
X8526429Y-13044952D01*
X8516905Y-13035428D01*
X8507381Y-13016381D01*
X8497857Y-12978286D01*
X8497857Y-12930667D01*
X8507381Y-12892571D01*
X8516905Y-12873524D01*
X8526429Y-12864000D01*
X8545476Y-12854476D01*
X8697857Y-13035428D02*
X8707381Y-13044952D01*
X8697857Y-13054476D01*
X8688333Y-13044952D01*
X8697857Y-13035428D01*
X8697857Y-13054476D01*
X8831190Y-12854476D02*
X8850238Y-12854476D01*
X8869286Y-12864000D01*
X8878810Y-12873524D01*
X8888333Y-12892571D01*
X8897857Y-12930667D01*
X8897857Y-12978286D01*
X8888333Y-13016381D01*
X8878810Y-13035428D01*
X8869286Y-13044952D01*
X8850238Y-13054476D01*
X8831190Y-13054476D01*
X8812143Y-13044952D01*
X8802619Y-13035428D01*
X8793095Y-13016381D01*
X8783571Y-12978286D01*
X8783571Y-12930667D01*
X8793095Y-12892571D01*
X8802619Y-12873524D01*
X8812143Y-12864000D01*
X8831190Y-12854476D01*
X8964524Y-12854476D02*
X9088333Y-12854476D01*
X9021667Y-12930667D01*
X9050238Y-12930667D01*
X9069286Y-12940190D01*
X9078810Y-12949714D01*
X9088333Y-12968762D01*
X9088333Y-13016381D01*
X9078810Y-13035428D01*
X9069286Y-13044952D01*
X9050238Y-13054476D01*
X8993095Y-13054476D01*
X8974048Y-13044952D01*
X8964524Y-13035428D01*
X9278810Y-13054476D02*
X9164524Y-13054476D01*
X9221667Y-13054476D02*
X9221667Y-12854476D01*
X9202619Y-12883048D01*
X9183571Y-12902095D01*
X9164524Y-12911619D01*
X9459762Y-12854476D02*
X9364524Y-12854476D01*
X9355000Y-12949714D01*
X9364524Y-12940190D01*
X9383571Y-12930667D01*
X9431190Y-12930667D01*
X9450238Y-12940190D01*
X9459762Y-12949714D01*
X9469286Y-12968762D01*
X9469286Y-13016381D01*
X9459762Y-13035428D01*
X9450238Y-13044952D01*
X9431190Y-13054476D01*
X9383571Y-13054476D01*
X9364524Y-13044952D01*
X9355000Y-13035428D01*
X9545476Y-12854476D02*
X9545476Y-12892571D01*
X9621667Y-12854476D02*
X9621667Y-12892571D01*
X9916905Y-13130667D02*
X9907381Y-13121143D01*
X9888333Y-13092571D01*
X9878810Y-13073524D01*
X9869286Y-13044952D01*
X9859762Y-12997333D01*
X9859762Y-12959238D01*
X9869286Y-12911619D01*
X9878810Y-12883048D01*
X9888333Y-12864000D01*
X9907381Y-12835428D01*
X9916905Y-12825905D01*
X9974048Y-12854476D02*
X10097857Y-12854476D01*
X10031190Y-12930667D01*
X10059762Y-12930667D01*
X10078810Y-12940190D01*
X10088333Y-12949714D01*
X10097857Y-12968762D01*
X10097857Y-13016381D01*
X10088333Y-13035428D01*
X10078810Y-13044952D01*
X10059762Y-13054476D01*
X10002619Y-13054476D01*
X9983571Y-13044952D01*
X9974048Y-13035428D01*
X10164524Y-12854476D02*
X10297857Y-12854476D01*
X10212143Y-13054476D01*
X10526429Y-13054476D02*
X10526429Y-12854476D01*
X10612143Y-13054476D02*
X10612143Y-12949714D01*
X10602619Y-12930667D01*
X10583571Y-12921143D01*
X10555000Y-12921143D01*
X10535952Y-12930667D01*
X10526429Y-12940190D01*
X10735952Y-13054476D02*
X10716905Y-13044952D01*
X10707381Y-13035428D01*
X10697857Y-13016381D01*
X10697857Y-12959238D01*
X10707381Y-12940190D01*
X10716905Y-12930667D01*
X10735952Y-12921143D01*
X10764524Y-12921143D01*
X10783571Y-12930667D01*
X10793095Y-12940190D01*
X10802619Y-12959238D01*
X10802619Y-13016381D01*
X10793095Y-13035428D01*
X10783571Y-13044952D01*
X10764524Y-13054476D01*
X10735952Y-13054476D01*
X10916905Y-13054476D02*
X10897857Y-13044952D01*
X10888333Y-13025905D01*
X10888333Y-12854476D01*
X11069286Y-13044952D02*
X11050238Y-13054476D01*
X11012143Y-13054476D01*
X10993095Y-13044952D01*
X10983571Y-13025905D01*
X10983571Y-12949714D01*
X10993095Y-12930667D01*
X11012143Y-12921143D01*
X11050238Y-12921143D01*
X11069286Y-12930667D01*
X11078810Y-12949714D01*
X11078810Y-12968762D01*
X10983571Y-12987809D01*
X11155000Y-13044952D02*
X11174048Y-13054476D01*
X11212143Y-13054476D01*
X11231190Y-13044952D01*
X11240714Y-13025905D01*
X11240714Y-13016381D01*
X11231190Y-12997333D01*
X11212143Y-12987809D01*
X11183571Y-12987809D01*
X11164524Y-12978286D01*
X11155000Y-12959238D01*
X11155000Y-12949714D01*
X11164524Y-12930667D01*
X11183571Y-12921143D01*
X11212143Y-12921143D01*
X11231190Y-12930667D01*
X11307381Y-13130667D02*
X11316905Y-13121143D01*
X11335952Y-13092571D01*
X11345476Y-13073524D01*
X11355000Y-13044952D01*
X11364524Y-12997333D01*
X11364524Y-12959238D01*
X11355000Y-12911619D01*
X11345476Y-12883048D01*
X11335952Y-12864000D01*
X11316905Y-12835428D01*
X11307381Y-12825905D01*
D13*
X6345000Y-13228000D02*
G75*
G03*
X6345000Y-13228000I-45000J0D01*
G01*
D11*
X6640714Y-13118476D02*
X6659762Y-13118476D01*
X6678809Y-13128000D01*
X6688333Y-13137524D01*
X6697857Y-13156571D01*
X6707381Y-13194667D01*
X6707381Y-13242286D01*
X6697857Y-13280381D01*
X6688333Y-13299428D01*
X6678809Y-13308952D01*
X6659762Y-13318476D01*
X6640714Y-13318476D01*
X6621667Y-13308952D01*
X6612143Y-13299428D01*
X6602619Y-13280381D01*
X6593095Y-13242286D01*
X6593095Y-13194667D01*
X6602619Y-13156571D01*
X6612143Y-13137524D01*
X6621667Y-13128000D01*
X6640714Y-13118476D01*
X6793095Y-13299428D02*
X6802619Y-13308952D01*
X6793095Y-13318476D01*
X6783571Y-13308952D01*
X6793095Y-13299428D01*
X6793095Y-13318476D01*
X6897857Y-13318476D02*
X6935952Y-13318476D01*
X6955000Y-13308952D01*
X6964524Y-13299428D01*
X6983571Y-13270857D01*
X6993095Y-13232762D01*
X6993095Y-13156571D01*
X6983571Y-13137524D01*
X6974048Y-13128000D01*
X6955000Y-13118476D01*
X6916905Y-13118476D01*
X6897857Y-13128000D01*
X6888333Y-13137524D01*
X6878809Y-13156571D01*
X6878809Y-13204190D01*
X6888333Y-13223238D01*
X6897857Y-13232762D01*
X6916905Y-13242286D01*
X6955000Y-13242286D01*
X6974048Y-13232762D01*
X6983571Y-13223238D01*
X6993095Y-13204190D01*
X7116905Y-13118476D02*
X7135952Y-13118476D01*
X7155000Y-13128000D01*
X7164524Y-13137524D01*
X7174048Y-13156571D01*
X7183571Y-13194667D01*
X7183571Y-13242286D01*
X7174048Y-13280381D01*
X7164524Y-13299428D01*
X7155000Y-13308952D01*
X7135952Y-13318476D01*
X7116905Y-13318476D01*
X7097857Y-13308952D01*
X7088333Y-13299428D01*
X7078809Y-13280381D01*
X7069286Y-13242286D01*
X7069286Y-13194667D01*
X7078809Y-13156571D01*
X7088333Y-13137524D01*
X7097857Y-13128000D01*
X7116905Y-13118476D01*
X7307381Y-13118476D02*
X7326428Y-13118476D01*
X7345476Y-13128000D01*
X7355000Y-13137524D01*
X7364524Y-13156571D01*
X7374048Y-13194667D01*
X7374048Y-13242286D01*
X7364524Y-13280381D01*
X7355000Y-13299428D01*
X7345476Y-13308952D01*
X7326428Y-13318476D01*
X7307381Y-13318476D01*
X7288333Y-13308952D01*
X7278809Y-13299428D01*
X7269286Y-13280381D01*
X7259762Y-13242286D01*
X7259762Y-13194667D01*
X7269286Y-13156571D01*
X7278809Y-13137524D01*
X7288333Y-13128000D01*
X7307381Y-13118476D01*
X7459762Y-13318476D02*
X7459762Y-13185143D01*
X7459762Y-13204190D02*
X7469286Y-13194667D01*
X7488333Y-13185143D01*
X7516905Y-13185143D01*
X7535952Y-13194667D01*
X7545476Y-13213714D01*
X7545476Y-13318476D01*
X7545476Y-13213714D02*
X7555000Y-13194667D01*
X7574048Y-13185143D01*
X7602619Y-13185143D01*
X7621667Y-13194667D01*
X7631190Y-13213714D01*
X7631190Y-13318476D01*
X7726428Y-13318476D02*
X7726428Y-13185143D01*
X7726428Y-13204190D02*
X7735952Y-13194667D01*
X7755000Y-13185143D01*
X7783571Y-13185143D01*
X7802619Y-13194667D01*
X7812143Y-13213714D01*
X7812143Y-13318476D01*
X7812143Y-13213714D02*
X7821667Y-13194667D01*
X7840714Y-13185143D01*
X7869286Y-13185143D01*
X7888333Y-13194667D01*
X7897857Y-13213714D01*
X7897857Y-13318476D01*
X8288333Y-13108952D02*
X8116905Y-13366095D01*
X8545476Y-13118476D02*
X8564524Y-13118476D01*
X8583571Y-13128000D01*
X8593095Y-13137524D01*
X8602619Y-13156571D01*
X8612143Y-13194667D01*
X8612143Y-13242286D01*
X8602619Y-13280381D01*
X8593095Y-13299428D01*
X8583571Y-13308952D01*
X8564524Y-13318476D01*
X8545476Y-13318476D01*
X8526429Y-13308952D01*
X8516905Y-13299428D01*
X8507381Y-13280381D01*
X8497857Y-13242286D01*
X8497857Y-13194667D01*
X8507381Y-13156571D01*
X8516905Y-13137524D01*
X8526429Y-13128000D01*
X8545476Y-13118476D01*
X8697857Y-13299428D02*
X8707381Y-13308952D01*
X8697857Y-13318476D01*
X8688333Y-13308952D01*
X8697857Y-13299428D01*
X8697857Y-13318476D01*
X8831190Y-13118476D02*
X8850238Y-13118476D01*
X8869286Y-13128000D01*
X8878810Y-13137524D01*
X8888333Y-13156571D01*
X8897857Y-13194667D01*
X8897857Y-13242286D01*
X8888333Y-13280381D01*
X8878810Y-13299428D01*
X8869286Y-13308952D01*
X8850238Y-13318476D01*
X8831190Y-13318476D01*
X8812143Y-13308952D01*
X8802619Y-13299428D01*
X8793095Y-13280381D01*
X8783571Y-13242286D01*
X8783571Y-13194667D01*
X8793095Y-13156571D01*
X8802619Y-13137524D01*
X8812143Y-13128000D01*
X8831190Y-13118476D01*
X8964524Y-13118476D02*
X9088333Y-13118476D01*
X9021667Y-13194667D01*
X9050238Y-13194667D01*
X9069286Y-13204190D01*
X9078810Y-13213714D01*
X9088333Y-13232762D01*
X9088333Y-13280381D01*
X9078810Y-13299428D01*
X9069286Y-13308952D01*
X9050238Y-13318476D01*
X8993095Y-13318476D01*
X8974048Y-13308952D01*
X8964524Y-13299428D01*
X9269286Y-13118476D02*
X9174048Y-13118476D01*
X9164524Y-13213714D01*
X9174048Y-13204190D01*
X9193095Y-13194667D01*
X9240714Y-13194667D01*
X9259762Y-13204190D01*
X9269286Y-13213714D01*
X9278810Y-13232762D01*
X9278810Y-13280381D01*
X9269286Y-13299428D01*
X9259762Y-13308952D01*
X9240714Y-13318476D01*
X9193095Y-13318476D01*
X9174048Y-13308952D01*
X9164524Y-13299428D01*
X9450238Y-13185143D02*
X9450238Y-13318476D01*
X9402619Y-13108952D02*
X9355000Y-13251809D01*
X9478810Y-13251809D01*
X9545476Y-13118476D02*
X9545476Y-13156571D01*
X9621667Y-13118476D02*
X9621667Y-13156571D01*
X9916905Y-13394667D02*
X9907381Y-13385143D01*
X9888333Y-13356571D01*
X9878810Y-13337524D01*
X9869286Y-13308952D01*
X9859762Y-13261333D01*
X9859762Y-13223238D01*
X9869286Y-13175619D01*
X9878810Y-13147048D01*
X9888333Y-13128000D01*
X9907381Y-13099428D01*
X9916905Y-13089905D01*
X9983571Y-13137524D02*
X9993095Y-13128000D01*
X10012143Y-13118476D01*
X10059762Y-13118476D01*
X10078810Y-13128000D01*
X10088333Y-13137524D01*
X10097857Y-13156571D01*
X10097857Y-13175619D01*
X10088333Y-13204190D01*
X9974048Y-13318476D01*
X10097857Y-13318476D01*
X10335952Y-13318476D02*
X10335952Y-13118476D01*
X10421667Y-13318476D02*
X10421667Y-13213714D01*
X10412143Y-13194667D01*
X10393095Y-13185143D01*
X10364524Y-13185143D01*
X10345476Y-13194667D01*
X10335952Y-13204190D01*
X10545476Y-13318476D02*
X10526429Y-13308952D01*
X10516905Y-13299428D01*
X10507381Y-13280381D01*
X10507381Y-13223238D01*
X10516905Y-13204190D01*
X10526429Y-13194667D01*
X10545476Y-13185143D01*
X10574048Y-13185143D01*
X10593095Y-13194667D01*
X10602619Y-13204190D01*
X10612143Y-13223238D01*
X10612143Y-13280381D01*
X10602619Y-13299428D01*
X10593095Y-13308952D01*
X10574048Y-13318476D01*
X10545476Y-13318476D01*
X10726429Y-13318476D02*
X10707381Y-13308952D01*
X10697857Y-13289905D01*
X10697857Y-13118476D01*
X10878810Y-13308952D02*
X10859762Y-13318476D01*
X10821667Y-13318476D01*
X10802619Y-13308952D01*
X10793095Y-13289905D01*
X10793095Y-13213714D01*
X10802619Y-13194667D01*
X10821667Y-13185143D01*
X10859762Y-13185143D01*
X10878810Y-13194667D01*
X10888333Y-13213714D01*
X10888333Y-13232762D01*
X10793095Y-13251809D01*
X10964524Y-13308952D02*
X10983571Y-13318476D01*
X11021667Y-13318476D01*
X11040714Y-13308952D01*
X11050238Y-13289905D01*
X11050238Y-13280381D01*
X11040714Y-13261333D01*
X11021667Y-13251809D01*
X10993095Y-13251809D01*
X10974048Y-13242286D01*
X10964524Y-13223238D01*
X10964524Y-13213714D01*
X10974048Y-13194667D01*
X10993095Y-13185143D01*
X11021667Y-13185143D01*
X11040714Y-13194667D01*
X11116905Y-13394667D02*
X11126429Y-13385143D01*
X11145476Y-13356571D01*
X11155000Y-13337524D01*
X11164524Y-13308952D01*
X11174048Y-13261333D01*
X11174048Y-13223238D01*
X11164524Y-13175619D01*
X11155000Y-13147048D01*
X11145476Y-13128000D01*
X11126429Y-13099428D01*
X11116905Y-13089905D01*
D14*
X6295000Y-13442000D02*
X6295000Y-13542000D01*
X6245000Y-13492000D02*
X6345000Y-13492000D01*
D11*
X6707381Y-13582476D02*
X6593095Y-13582476D01*
X6650238Y-13582476D02*
X6650238Y-13382476D01*
X6631190Y-13411048D01*
X6612143Y-13430095D01*
X6593095Y-13439619D01*
X6793095Y-13563428D02*
X6802619Y-13572952D01*
X6793095Y-13582476D01*
X6783571Y-13572952D01*
X6793095Y-13563428D01*
X6793095Y-13582476D01*
X6926428Y-13382476D02*
X6945476Y-13382476D01*
X6964524Y-13392000D01*
X6974048Y-13401524D01*
X6983571Y-13420571D01*
X6993095Y-13458667D01*
X6993095Y-13506286D01*
X6983571Y-13544381D01*
X6974048Y-13563428D01*
X6964524Y-13572952D01*
X6945476Y-13582476D01*
X6926428Y-13582476D01*
X6907381Y-13572952D01*
X6897857Y-13563428D01*
X6888333Y-13544381D01*
X6878809Y-13506286D01*
X6878809Y-13458667D01*
X6888333Y-13420571D01*
X6897857Y-13401524D01*
X6907381Y-13392000D01*
X6926428Y-13382476D01*
X7116905Y-13382476D02*
X7135952Y-13382476D01*
X7155000Y-13392000D01*
X7164524Y-13401524D01*
X7174048Y-13420571D01*
X7183571Y-13458667D01*
X7183571Y-13506286D01*
X7174048Y-13544381D01*
X7164524Y-13563428D01*
X7155000Y-13572952D01*
X7135952Y-13582476D01*
X7116905Y-13582476D01*
X7097857Y-13572952D01*
X7088333Y-13563428D01*
X7078809Y-13544381D01*
X7069286Y-13506286D01*
X7069286Y-13458667D01*
X7078809Y-13420571D01*
X7088333Y-13401524D01*
X7097857Y-13392000D01*
X7116905Y-13382476D01*
X7307381Y-13382476D02*
X7326428Y-13382476D01*
X7345476Y-13392000D01*
X7355000Y-13401524D01*
X7364524Y-13420571D01*
X7374048Y-13458667D01*
X7374048Y-13506286D01*
X7364524Y-13544381D01*
X7355000Y-13563428D01*
X7345476Y-13572952D01*
X7326428Y-13582476D01*
X7307381Y-13582476D01*
X7288333Y-13572952D01*
X7278809Y-13563428D01*
X7269286Y-13544381D01*
X7259762Y-13506286D01*
X7259762Y-13458667D01*
X7269286Y-13420571D01*
X7278809Y-13401524D01*
X7288333Y-13392000D01*
X7307381Y-13382476D01*
X7459762Y-13582476D02*
X7459762Y-13449143D01*
X7459762Y-13468190D02*
X7469286Y-13458667D01*
X7488333Y-13449143D01*
X7516905Y-13449143D01*
X7535952Y-13458667D01*
X7545476Y-13477714D01*
X7545476Y-13582476D01*
X7545476Y-13477714D02*
X7555000Y-13458667D01*
X7574048Y-13449143D01*
X7602619Y-13449143D01*
X7621667Y-13458667D01*
X7631190Y-13477714D01*
X7631190Y-13582476D01*
X7726428Y-13582476D02*
X7726428Y-13449143D01*
X7726428Y-13468190D02*
X7735952Y-13458667D01*
X7755000Y-13449143D01*
X7783571Y-13449143D01*
X7802619Y-13458667D01*
X7812143Y-13477714D01*
X7812143Y-13582476D01*
X7812143Y-13477714D02*
X7821667Y-13458667D01*
X7840714Y-13449143D01*
X7869286Y-13449143D01*
X7888333Y-13458667D01*
X7897857Y-13477714D01*
X7897857Y-13582476D01*
X8288333Y-13372952D02*
X8116905Y-13630095D01*
X8545476Y-13382476D02*
X8564524Y-13382476D01*
X8583571Y-13392000D01*
X8593095Y-13401524D01*
X8602619Y-13420571D01*
X8612143Y-13458667D01*
X8612143Y-13506286D01*
X8602619Y-13544381D01*
X8593095Y-13563428D01*
X8583571Y-13572952D01*
X8564524Y-13582476D01*
X8545476Y-13582476D01*
X8526429Y-13572952D01*
X8516905Y-13563428D01*
X8507381Y-13544381D01*
X8497857Y-13506286D01*
X8497857Y-13458667D01*
X8507381Y-13420571D01*
X8516905Y-13401524D01*
X8526429Y-13392000D01*
X8545476Y-13382476D01*
X8697857Y-13563428D02*
X8707381Y-13572952D01*
X8697857Y-13582476D01*
X8688333Y-13572952D01*
X8697857Y-13563428D01*
X8697857Y-13582476D01*
X8831190Y-13382476D02*
X8850238Y-13382476D01*
X8869286Y-13392000D01*
X8878810Y-13401524D01*
X8888333Y-13420571D01*
X8897857Y-13458667D01*
X8897857Y-13506286D01*
X8888333Y-13544381D01*
X8878810Y-13563428D01*
X8869286Y-13572952D01*
X8850238Y-13582476D01*
X8831190Y-13582476D01*
X8812143Y-13572952D01*
X8802619Y-13563428D01*
X8793095Y-13544381D01*
X8783571Y-13506286D01*
X8783571Y-13458667D01*
X8793095Y-13420571D01*
X8802619Y-13401524D01*
X8812143Y-13392000D01*
X8831190Y-13382476D01*
X8964524Y-13382476D02*
X9088333Y-13382476D01*
X9021667Y-13458667D01*
X9050238Y-13458667D01*
X9069286Y-13468190D01*
X9078810Y-13477714D01*
X9088333Y-13496762D01*
X9088333Y-13544381D01*
X9078810Y-13563428D01*
X9069286Y-13572952D01*
X9050238Y-13582476D01*
X8993095Y-13582476D01*
X8974048Y-13572952D01*
X8964524Y-13563428D01*
X9183571Y-13582476D02*
X9221667Y-13582476D01*
X9240714Y-13572952D01*
X9250238Y-13563428D01*
X9269286Y-13534857D01*
X9278810Y-13496762D01*
X9278810Y-13420571D01*
X9269286Y-13401524D01*
X9259762Y-13392000D01*
X9240714Y-13382476D01*
X9202619Y-13382476D01*
X9183571Y-13392000D01*
X9174048Y-13401524D01*
X9164524Y-13420571D01*
X9164524Y-13468190D01*
X9174048Y-13487238D01*
X9183571Y-13496762D01*
X9202619Y-13506286D01*
X9240714Y-13506286D01*
X9259762Y-13496762D01*
X9269286Y-13487238D01*
X9278810Y-13468190D01*
X9450238Y-13449143D02*
X9450238Y-13582476D01*
X9402619Y-13372952D02*
X9355000Y-13515809D01*
X9478810Y-13515809D01*
X9545476Y-13382476D02*
X9545476Y-13420571D01*
X9621667Y-13382476D02*
X9621667Y-13420571D01*
X9916905Y-13658667D02*
X9907381Y-13649143D01*
X9888333Y-13620571D01*
X9878810Y-13601524D01*
X9869286Y-13572952D01*
X9859762Y-13525333D01*
X9859762Y-13487238D01*
X9869286Y-13439619D01*
X9878810Y-13411048D01*
X9888333Y-13392000D01*
X9907381Y-13363428D01*
X9916905Y-13353905D01*
X9983571Y-13401524D02*
X9993095Y-13392000D01*
X10012143Y-13382476D01*
X10059762Y-13382476D01*
X10078810Y-13392000D01*
X10088333Y-13401524D01*
X10097857Y-13420571D01*
X10097857Y-13439619D01*
X10088333Y-13468190D01*
X9974048Y-13582476D01*
X10097857Y-13582476D01*
X10335952Y-13582476D02*
X10335952Y-13382476D01*
X10421667Y-13582476D02*
X10421667Y-13477714D01*
X10412143Y-13458667D01*
X10393095Y-13449143D01*
X10364524Y-13449143D01*
X10345476Y-13458667D01*
X10335952Y-13468190D01*
X10545476Y-13582476D02*
X10526429Y-13572952D01*
X10516905Y-13563428D01*
X10507381Y-13544381D01*
X10507381Y-13487238D01*
X10516905Y-13468190D01*
X10526429Y-13458667D01*
X10545476Y-13449143D01*
X10574048Y-13449143D01*
X10593095Y-13458667D01*
X10602619Y-13468190D01*
X10612143Y-13487238D01*
X10612143Y-13544381D01*
X10602619Y-13563428D01*
X10593095Y-13572952D01*
X10574048Y-13582476D01*
X10545476Y-13582476D01*
X10726429Y-13582476D02*
X10707381Y-13572952D01*
X10697857Y-13553905D01*
X10697857Y-13382476D01*
X10878810Y-13572952D02*
X10859762Y-13582476D01*
X10821667Y-13582476D01*
X10802619Y-13572952D01*
X10793095Y-13553905D01*
X10793095Y-13477714D01*
X10802619Y-13458667D01*
X10821667Y-13449143D01*
X10859762Y-13449143D01*
X10878810Y-13458667D01*
X10888333Y-13477714D01*
X10888333Y-13496762D01*
X10793095Y-13515809D01*
X10964524Y-13572952D02*
X10983571Y-13582476D01*
X11021667Y-13582476D01*
X11040714Y-13572952D01*
X11050238Y-13553905D01*
X11050238Y-13544381D01*
X11040714Y-13525333D01*
X11021667Y-13515809D01*
X10993095Y-13515809D01*
X10974048Y-13506286D01*
X10964524Y-13487238D01*
X10964524Y-13477714D01*
X10974048Y-13458667D01*
X10993095Y-13449143D01*
X11021667Y-13449143D01*
X11040714Y-13458667D01*
X11116905Y-13658667D02*
X11126429Y-13649143D01*
X11145476Y-13620571D01*
X11155000Y-13601524D01*
X11164524Y-13572952D01*
X11174048Y-13525333D01*
X11174048Y-13487238D01*
X11164524Y-13439619D01*
X11155000Y-13411048D01*
X11145476Y-13392000D01*
X11126429Y-13363428D01*
X11116905Y-13353905D01*
D14*
X6330356Y-13791356D02*
X6330356Y-13720644D01*
X6259644Y-13720644D01*
X6259644Y-13791356D01*
X6330356Y-13791356D01*
D11*
X6707381Y-13846476D02*
X6593095Y-13846476D01*
X6650238Y-13846476D02*
X6650238Y-13646476D01*
X6631190Y-13675048D01*
X6612143Y-13694095D01*
X6593095Y-13703619D01*
X6793095Y-13827428D02*
X6802619Y-13836952D01*
X6793095Y-13846476D01*
X6783571Y-13836952D01*
X6793095Y-13827428D01*
X6793095Y-13846476D01*
X6926428Y-13646476D02*
X6945476Y-13646476D01*
X6964524Y-13656000D01*
X6974048Y-13665524D01*
X6983571Y-13684571D01*
X6993095Y-13722667D01*
X6993095Y-13770286D01*
X6983571Y-13808381D01*
X6974048Y-13827428D01*
X6964524Y-13836952D01*
X6945476Y-13846476D01*
X6926428Y-13846476D01*
X6907381Y-13836952D01*
X6897857Y-13827428D01*
X6888333Y-13808381D01*
X6878809Y-13770286D01*
X6878809Y-13722667D01*
X6888333Y-13684571D01*
X6897857Y-13665524D01*
X6907381Y-13656000D01*
X6926428Y-13646476D01*
X7116905Y-13646476D02*
X7135952Y-13646476D01*
X7155000Y-13656000D01*
X7164524Y-13665524D01*
X7174048Y-13684571D01*
X7183571Y-13722667D01*
X7183571Y-13770286D01*
X7174048Y-13808381D01*
X7164524Y-13827428D01*
X7155000Y-13836952D01*
X7135952Y-13846476D01*
X7116905Y-13846476D01*
X7097857Y-13836952D01*
X7088333Y-13827428D01*
X7078809Y-13808381D01*
X7069286Y-13770286D01*
X7069286Y-13722667D01*
X7078809Y-13684571D01*
X7088333Y-13665524D01*
X7097857Y-13656000D01*
X7116905Y-13646476D01*
X7307381Y-13646476D02*
X7326428Y-13646476D01*
X7345476Y-13656000D01*
X7355000Y-13665524D01*
X7364524Y-13684571D01*
X7374048Y-13722667D01*
X7374048Y-13770286D01*
X7364524Y-13808381D01*
X7355000Y-13827428D01*
X7345476Y-13836952D01*
X7326428Y-13846476D01*
X7307381Y-13846476D01*
X7288333Y-13836952D01*
X7278809Y-13827428D01*
X7269286Y-13808381D01*
X7259762Y-13770286D01*
X7259762Y-13722667D01*
X7269286Y-13684571D01*
X7278809Y-13665524D01*
X7288333Y-13656000D01*
X7307381Y-13646476D01*
X7459762Y-13846476D02*
X7459762Y-13713143D01*
X7459762Y-13732190D02*
X7469286Y-13722667D01*
X7488333Y-13713143D01*
X7516905Y-13713143D01*
X7535952Y-13722667D01*
X7545476Y-13741714D01*
X7545476Y-13846476D01*
X7545476Y-13741714D02*
X7555000Y-13722667D01*
X7574048Y-13713143D01*
X7602619Y-13713143D01*
X7621667Y-13722667D01*
X7631190Y-13741714D01*
X7631190Y-13846476D01*
X7726428Y-13846476D02*
X7726428Y-13713143D01*
X7726428Y-13732190D02*
X7735952Y-13722667D01*
X7755000Y-13713143D01*
X7783571Y-13713143D01*
X7802619Y-13722667D01*
X7812143Y-13741714D01*
X7812143Y-13846476D01*
X7812143Y-13741714D02*
X7821667Y-13722667D01*
X7840714Y-13713143D01*
X7869286Y-13713143D01*
X7888333Y-13722667D01*
X7897857Y-13741714D01*
X7897857Y-13846476D01*
X8288333Y-13636952D02*
X8116905Y-13894095D01*
X8545476Y-13646476D02*
X8564524Y-13646476D01*
X8583571Y-13656000D01*
X8593095Y-13665524D01*
X8602619Y-13684571D01*
X8612143Y-13722667D01*
X8612143Y-13770286D01*
X8602619Y-13808381D01*
X8593095Y-13827428D01*
X8583571Y-13836952D01*
X8564524Y-13846476D01*
X8545476Y-13846476D01*
X8526429Y-13836952D01*
X8516905Y-13827428D01*
X8507381Y-13808381D01*
X8497857Y-13770286D01*
X8497857Y-13722667D01*
X8507381Y-13684571D01*
X8516905Y-13665524D01*
X8526429Y-13656000D01*
X8545476Y-13646476D01*
X8697857Y-13827428D02*
X8707381Y-13836952D01*
X8697857Y-13846476D01*
X8688333Y-13836952D01*
X8697857Y-13827428D01*
X8697857Y-13846476D01*
X8831190Y-13646476D02*
X8850238Y-13646476D01*
X8869286Y-13656000D01*
X8878810Y-13665524D01*
X8888333Y-13684571D01*
X8897857Y-13722667D01*
X8897857Y-13770286D01*
X8888333Y-13808381D01*
X8878810Y-13827428D01*
X8869286Y-13836952D01*
X8850238Y-13846476D01*
X8831190Y-13846476D01*
X8812143Y-13836952D01*
X8802619Y-13827428D01*
X8793095Y-13808381D01*
X8783571Y-13770286D01*
X8783571Y-13722667D01*
X8793095Y-13684571D01*
X8802619Y-13665524D01*
X8812143Y-13656000D01*
X8831190Y-13646476D01*
X8964524Y-13646476D02*
X9088333Y-13646476D01*
X9021667Y-13722667D01*
X9050238Y-13722667D01*
X9069286Y-13732190D01*
X9078810Y-13741714D01*
X9088333Y-13760762D01*
X9088333Y-13808381D01*
X9078810Y-13827428D01*
X9069286Y-13836952D01*
X9050238Y-13846476D01*
X8993095Y-13846476D01*
X8974048Y-13836952D01*
X8964524Y-13827428D01*
X9183571Y-13846476D02*
X9221667Y-13846476D01*
X9240714Y-13836952D01*
X9250238Y-13827428D01*
X9269286Y-13798857D01*
X9278810Y-13760762D01*
X9278810Y-13684571D01*
X9269286Y-13665524D01*
X9259762Y-13656000D01*
X9240714Y-13646476D01*
X9202619Y-13646476D01*
X9183571Y-13656000D01*
X9174048Y-13665524D01*
X9164524Y-13684571D01*
X9164524Y-13732190D01*
X9174048Y-13751238D01*
X9183571Y-13760762D01*
X9202619Y-13770286D01*
X9240714Y-13770286D01*
X9259762Y-13760762D01*
X9269286Y-13751238D01*
X9278810Y-13732190D01*
X9450238Y-13713143D02*
X9450238Y-13846476D01*
X9402619Y-13636952D02*
X9355000Y-13779809D01*
X9478810Y-13779809D01*
X9545476Y-13646476D02*
X9545476Y-13684571D01*
X9621667Y-13646476D02*
X9621667Y-13684571D01*
X9916905Y-13922667D02*
X9907381Y-13913143D01*
X9888333Y-13884571D01*
X9878810Y-13865524D01*
X9869286Y-13836952D01*
X9859762Y-13789333D01*
X9859762Y-13751238D01*
X9869286Y-13703619D01*
X9878810Y-13675048D01*
X9888333Y-13656000D01*
X9907381Y-13627428D01*
X9916905Y-13617905D01*
X9974048Y-13646476D02*
X10097857Y-13646476D01*
X10031190Y-13722667D01*
X10059762Y-13722667D01*
X10078810Y-13732190D01*
X10088333Y-13741714D01*
X10097857Y-13760762D01*
X10097857Y-13808381D01*
X10088333Y-13827428D01*
X10078810Y-13836952D01*
X10059762Y-13846476D01*
X10002619Y-13846476D01*
X9983571Y-13836952D01*
X9974048Y-13827428D01*
X10335952Y-13846476D02*
X10335952Y-13646476D01*
X10421667Y-13846476D02*
X10421667Y-13741714D01*
X10412143Y-13722667D01*
X10393095Y-13713143D01*
X10364524Y-13713143D01*
X10345476Y-13722667D01*
X10335952Y-13732190D01*
X10545476Y-13846476D02*
X10526429Y-13836952D01*
X10516905Y-13827428D01*
X10507381Y-13808381D01*
X10507381Y-13751238D01*
X10516905Y-13732190D01*
X10526429Y-13722667D01*
X10545476Y-13713143D01*
X10574048Y-13713143D01*
X10593095Y-13722667D01*
X10602619Y-13732190D01*
X10612143Y-13751238D01*
X10612143Y-13808381D01*
X10602619Y-13827428D01*
X10593095Y-13836952D01*
X10574048Y-13846476D01*
X10545476Y-13846476D01*
X10726429Y-13846476D02*
X10707381Y-13836952D01*
X10697857Y-13817905D01*
X10697857Y-13646476D01*
X10878810Y-13836952D02*
X10859762Y-13846476D01*
X10821667Y-13846476D01*
X10802619Y-13836952D01*
X10793095Y-13817905D01*
X10793095Y-13741714D01*
X10802619Y-13722667D01*
X10821667Y-13713143D01*
X10859762Y-13713143D01*
X10878810Y-13722667D01*
X10888333Y-13741714D01*
X10888333Y-13760762D01*
X10793095Y-13779809D01*
X10964524Y-13836952D02*
X10983571Y-13846476D01*
X11021667Y-13846476D01*
X11040714Y-13836952D01*
X11050238Y-13817905D01*
X11050238Y-13808381D01*
X11040714Y-13789333D01*
X11021667Y-13779809D01*
X10993095Y-13779809D01*
X10974048Y-13770286D01*
X10964524Y-13751238D01*
X10964524Y-13741714D01*
X10974048Y-13722667D01*
X10993095Y-13713143D01*
X11021667Y-13713143D01*
X11040714Y-13722667D01*
X11116905Y-13922667D02*
X11126429Y-13913143D01*
X11145476Y-13884571D01*
X11155000Y-13865524D01*
X11164524Y-13836952D01*
X11174048Y-13789333D01*
X11174048Y-13751238D01*
X11164524Y-13703619D01*
X11155000Y-13675048D01*
X11145476Y-13656000D01*
X11126429Y-13627428D01*
X11116905Y-13617905D01*
D15*
X6290000Y-14075000D02*
X6345000Y-14020000D01*
X6290000Y-13965000D01*
X6235000Y-14020000D01*
X6290000Y-14075000D01*
D11*
X6707381Y-14110476D02*
X6593095Y-14110476D01*
X6650238Y-14110476D02*
X6650238Y-13910476D01*
X6631190Y-13939048D01*
X6612143Y-13958095D01*
X6593095Y-13967619D01*
X6793095Y-14091428D02*
X6802619Y-14100952D01*
X6793095Y-14110476D01*
X6783571Y-14100952D01*
X6793095Y-14091428D01*
X6793095Y-14110476D01*
X6993095Y-14110476D02*
X6878809Y-14110476D01*
X6935952Y-14110476D02*
X6935952Y-13910476D01*
X6916905Y-13939048D01*
X6897857Y-13958095D01*
X6878809Y-13967619D01*
X7116905Y-13910476D02*
X7135952Y-13910476D01*
X7155000Y-13920000D01*
X7164524Y-13929524D01*
X7174048Y-13948571D01*
X7183571Y-13986667D01*
X7183571Y-14034286D01*
X7174048Y-14072381D01*
X7164524Y-14091428D01*
X7155000Y-14100952D01*
X7135952Y-14110476D01*
X7116905Y-14110476D01*
X7097857Y-14100952D01*
X7088333Y-14091428D01*
X7078809Y-14072381D01*
X7069286Y-14034286D01*
X7069286Y-13986667D01*
X7078809Y-13948571D01*
X7088333Y-13929524D01*
X7097857Y-13920000D01*
X7116905Y-13910476D01*
X7307381Y-13910476D02*
X7326428Y-13910476D01*
X7345476Y-13920000D01*
X7355000Y-13929524D01*
X7364524Y-13948571D01*
X7374048Y-13986667D01*
X7374048Y-14034286D01*
X7364524Y-14072381D01*
X7355000Y-14091428D01*
X7345476Y-14100952D01*
X7326428Y-14110476D01*
X7307381Y-14110476D01*
X7288333Y-14100952D01*
X7278809Y-14091428D01*
X7269286Y-14072381D01*
X7259762Y-14034286D01*
X7259762Y-13986667D01*
X7269286Y-13948571D01*
X7278809Y-13929524D01*
X7288333Y-13920000D01*
X7307381Y-13910476D01*
X7459762Y-14110476D02*
X7459762Y-13977143D01*
X7459762Y-13996190D02*
X7469286Y-13986667D01*
X7488333Y-13977143D01*
X7516905Y-13977143D01*
X7535952Y-13986667D01*
X7545476Y-14005714D01*
X7545476Y-14110476D01*
X7545476Y-14005714D02*
X7555000Y-13986667D01*
X7574048Y-13977143D01*
X7602619Y-13977143D01*
X7621667Y-13986667D01*
X7631190Y-14005714D01*
X7631190Y-14110476D01*
X7726428Y-14110476D02*
X7726428Y-13977143D01*
X7726428Y-13996190D02*
X7735952Y-13986667D01*
X7755000Y-13977143D01*
X7783571Y-13977143D01*
X7802619Y-13986667D01*
X7812143Y-14005714D01*
X7812143Y-14110476D01*
X7812143Y-14005714D02*
X7821667Y-13986667D01*
X7840714Y-13977143D01*
X7869286Y-13977143D01*
X7888333Y-13986667D01*
X7897857Y-14005714D01*
X7897857Y-14110476D01*
X8288333Y-13900952D02*
X8116905Y-14158095D01*
X8545476Y-13910476D02*
X8564524Y-13910476D01*
X8583571Y-13920000D01*
X8593095Y-13929524D01*
X8602619Y-13948571D01*
X8612143Y-13986667D01*
X8612143Y-14034286D01*
X8602619Y-14072381D01*
X8593095Y-14091428D01*
X8583571Y-14100952D01*
X8564524Y-14110476D01*
X8545476Y-14110476D01*
X8526429Y-14100952D01*
X8516905Y-14091428D01*
X8507381Y-14072381D01*
X8497857Y-14034286D01*
X8497857Y-13986667D01*
X8507381Y-13948571D01*
X8516905Y-13929524D01*
X8526429Y-13920000D01*
X8545476Y-13910476D01*
X8697857Y-14091428D02*
X8707381Y-14100952D01*
X8697857Y-14110476D01*
X8688333Y-14100952D01*
X8697857Y-14091428D01*
X8697857Y-14110476D01*
X8831190Y-13910476D02*
X8850238Y-13910476D01*
X8869286Y-13920000D01*
X8878810Y-13929524D01*
X8888333Y-13948571D01*
X8897857Y-13986667D01*
X8897857Y-14034286D01*
X8888333Y-14072381D01*
X8878810Y-14091428D01*
X8869286Y-14100952D01*
X8850238Y-14110476D01*
X8831190Y-14110476D01*
X8812143Y-14100952D01*
X8802619Y-14091428D01*
X8793095Y-14072381D01*
X8783571Y-14034286D01*
X8783571Y-13986667D01*
X8793095Y-13948571D01*
X8802619Y-13929524D01*
X8812143Y-13920000D01*
X8831190Y-13910476D01*
X9069286Y-13977143D02*
X9069286Y-14110476D01*
X9021667Y-13900952D02*
X8974048Y-14043809D01*
X9097857Y-14043809D01*
X9155000Y-13910476D02*
X9278810Y-13910476D01*
X9212143Y-13986667D01*
X9240714Y-13986667D01*
X9259762Y-13996190D01*
X9269286Y-14005714D01*
X9278810Y-14024762D01*
X9278810Y-14072381D01*
X9269286Y-14091428D01*
X9259762Y-14100952D01*
X9240714Y-14110476D01*
X9183571Y-14110476D01*
X9164524Y-14100952D01*
X9155000Y-14091428D01*
X9345476Y-13910476D02*
X9469286Y-13910476D01*
X9402619Y-13986667D01*
X9431190Y-13986667D01*
X9450238Y-13996190D01*
X9459762Y-14005714D01*
X9469286Y-14024762D01*
X9469286Y-14072381D01*
X9459762Y-14091428D01*
X9450238Y-14100952D01*
X9431190Y-14110476D01*
X9374048Y-14110476D01*
X9355000Y-14100952D01*
X9345476Y-14091428D01*
X9545476Y-13910476D02*
X9545476Y-13948571D01*
X9621667Y-13910476D02*
X9621667Y-13948571D01*
X9916905Y-14186667D02*
X9907381Y-14177143D01*
X9888333Y-14148571D01*
X9878810Y-14129524D01*
X9869286Y-14100952D01*
X9859762Y-14053333D01*
X9859762Y-14015238D01*
X9869286Y-13967619D01*
X9878810Y-13939048D01*
X9888333Y-13920000D01*
X9907381Y-13891428D01*
X9916905Y-13881905D01*
X9983571Y-13929524D02*
X9993095Y-13920000D01*
X10012143Y-13910476D01*
X10059762Y-13910476D01*
X10078810Y-13920000D01*
X10088333Y-13929524D01*
X10097857Y-13948571D01*
X10097857Y-13967619D01*
X10088333Y-13996190D01*
X9974048Y-14110476D01*
X10097857Y-14110476D01*
X10335952Y-14110476D02*
X10335952Y-13910476D01*
X10421667Y-14110476D02*
X10421667Y-14005714D01*
X10412143Y-13986667D01*
X10393095Y-13977143D01*
X10364524Y-13977143D01*
X10345476Y-13986667D01*
X10335952Y-13996190D01*
X10545476Y-14110476D02*
X10526429Y-14100952D01*
X10516905Y-14091428D01*
X10507381Y-14072381D01*
X10507381Y-14015238D01*
X10516905Y-13996190D01*
X10526429Y-13986667D01*
X10545476Y-13977143D01*
X10574048Y-13977143D01*
X10593095Y-13986667D01*
X10602619Y-13996190D01*
X10612143Y-14015238D01*
X10612143Y-14072381D01*
X10602619Y-14091428D01*
X10593095Y-14100952D01*
X10574048Y-14110476D01*
X10545476Y-14110476D01*
X10726429Y-14110476D02*
X10707381Y-14100952D01*
X10697857Y-14081905D01*
X10697857Y-13910476D01*
X10878810Y-14100952D02*
X10859762Y-14110476D01*
X10821667Y-14110476D01*
X10802619Y-14100952D01*
X10793095Y-14081905D01*
X10793095Y-14005714D01*
X10802619Y-13986667D01*
X10821667Y-13977143D01*
X10859762Y-13977143D01*
X10878810Y-13986667D01*
X10888333Y-14005714D01*
X10888333Y-14024762D01*
X10793095Y-14043809D01*
X10964524Y-14100952D02*
X10983571Y-14110476D01*
X11021667Y-14110476D01*
X11040714Y-14100952D01*
X11050238Y-14081905D01*
X11050238Y-14072381D01*
X11040714Y-14053333D01*
X11021667Y-14043809D01*
X10993095Y-14043809D01*
X10974048Y-14034286D01*
X10964524Y-14015238D01*
X10964524Y-14005714D01*
X10974048Y-13986667D01*
X10993095Y-13977143D01*
X11021667Y-13977143D01*
X11040714Y-13986667D01*
X11116905Y-14186667D02*
X11126429Y-14177143D01*
X11145476Y-14148571D01*
X11155000Y-14129524D01*
X11164524Y-14100952D01*
X11174048Y-14053333D01*
X11174048Y-14015238D01*
X11164524Y-13967619D01*
X11155000Y-13939048D01*
X11145476Y-13920000D01*
X11126429Y-13891428D01*
X11116905Y-13881905D01*
D16*
X6225000Y-14224000D02*
X6345000Y-14344000D01*
X6345000Y-14224000D02*
X6225000Y-14344000D01*
X6345000Y-14284000D02*
G75*
G03*
X6345000Y-14284000I-60000J0D01*
G01*
D11*
X6707381Y-14374476D02*
X6593095Y-14374476D01*
X6650238Y-14374476D02*
X6650238Y-14174476D01*
X6631190Y-14203048D01*
X6612143Y-14222095D01*
X6593095Y-14231619D01*
X6793095Y-14355428D02*
X6802619Y-14364952D01*
X6793095Y-14374476D01*
X6783571Y-14364952D01*
X6793095Y-14355428D01*
X6793095Y-14374476D01*
X6878809Y-14193524D02*
X6888333Y-14184000D01*
X6907381Y-14174476D01*
X6955000Y-14174476D01*
X6974048Y-14184000D01*
X6983571Y-14193524D01*
X6993095Y-14212571D01*
X6993095Y-14231619D01*
X6983571Y-14260190D01*
X6869286Y-14374476D01*
X6993095Y-14374476D01*
X7116905Y-14174476D02*
X7135952Y-14174476D01*
X7155000Y-14184000D01*
X7164524Y-14193524D01*
X7174048Y-14212571D01*
X7183571Y-14250667D01*
X7183571Y-14298286D01*
X7174048Y-14336381D01*
X7164524Y-14355428D01*
X7155000Y-14364952D01*
X7135952Y-14374476D01*
X7116905Y-14374476D01*
X7097857Y-14364952D01*
X7088333Y-14355428D01*
X7078809Y-14336381D01*
X7069286Y-14298286D01*
X7069286Y-14250667D01*
X7078809Y-14212571D01*
X7088333Y-14193524D01*
X7097857Y-14184000D01*
X7116905Y-14174476D01*
X7307381Y-14174476D02*
X7326428Y-14174476D01*
X7345476Y-14184000D01*
X7355000Y-14193524D01*
X7364524Y-14212571D01*
X7374048Y-14250667D01*
X7374048Y-14298286D01*
X7364524Y-14336381D01*
X7355000Y-14355428D01*
X7345476Y-14364952D01*
X7326428Y-14374476D01*
X7307381Y-14374476D01*
X7288333Y-14364952D01*
X7278809Y-14355428D01*
X7269286Y-14336381D01*
X7259762Y-14298286D01*
X7259762Y-14250667D01*
X7269286Y-14212571D01*
X7278809Y-14193524D01*
X7288333Y-14184000D01*
X7307381Y-14174476D01*
X7459762Y-14374476D02*
X7459762Y-14241143D01*
X7459762Y-14260190D02*
X7469286Y-14250667D01*
X7488333Y-14241143D01*
X7516905Y-14241143D01*
X7535952Y-14250667D01*
X7545476Y-14269714D01*
X7545476Y-14374476D01*
X7545476Y-14269714D02*
X7555000Y-14250667D01*
X7574048Y-14241143D01*
X7602619Y-14241143D01*
X7621667Y-14250667D01*
X7631190Y-14269714D01*
X7631190Y-14374476D01*
X7726428Y-14374476D02*
X7726428Y-14241143D01*
X7726428Y-14260190D02*
X7735952Y-14250667D01*
X7755000Y-14241143D01*
X7783571Y-14241143D01*
X7802619Y-14250667D01*
X7812143Y-14269714D01*
X7812143Y-14374476D01*
X7812143Y-14269714D02*
X7821667Y-14250667D01*
X7840714Y-14241143D01*
X7869286Y-14241143D01*
X7888333Y-14250667D01*
X7897857Y-14269714D01*
X7897857Y-14374476D01*
X8288333Y-14164952D02*
X8116905Y-14422095D01*
X8545476Y-14174476D02*
X8564524Y-14174476D01*
X8583571Y-14184000D01*
X8593095Y-14193524D01*
X8602619Y-14212571D01*
X8612143Y-14250667D01*
X8612143Y-14298286D01*
X8602619Y-14336381D01*
X8593095Y-14355428D01*
X8583571Y-14364952D01*
X8564524Y-14374476D01*
X8545476Y-14374476D01*
X8526429Y-14364952D01*
X8516905Y-14355428D01*
X8507381Y-14336381D01*
X8497857Y-14298286D01*
X8497857Y-14250667D01*
X8507381Y-14212571D01*
X8516905Y-14193524D01*
X8526429Y-14184000D01*
X8545476Y-14174476D01*
X8697857Y-14355428D02*
X8707381Y-14364952D01*
X8697857Y-14374476D01*
X8688333Y-14364952D01*
X8697857Y-14355428D01*
X8697857Y-14374476D01*
X8831190Y-14174476D02*
X8850238Y-14174476D01*
X8869286Y-14184000D01*
X8878810Y-14193524D01*
X8888333Y-14212571D01*
X8897857Y-14250667D01*
X8897857Y-14298286D01*
X8888333Y-14336381D01*
X8878810Y-14355428D01*
X8869286Y-14364952D01*
X8850238Y-14374476D01*
X8831190Y-14374476D01*
X8812143Y-14364952D01*
X8802619Y-14355428D01*
X8793095Y-14336381D01*
X8783571Y-14298286D01*
X8783571Y-14250667D01*
X8793095Y-14212571D01*
X8802619Y-14193524D01*
X8812143Y-14184000D01*
X8831190Y-14174476D01*
X9069286Y-14241143D02*
X9069286Y-14374476D01*
X9021667Y-14164952D02*
X8974048Y-14307809D01*
X9097857Y-14307809D01*
X9155000Y-14174476D02*
X9288333Y-14174476D01*
X9202619Y-14374476D01*
X9355000Y-14193524D02*
X9364524Y-14184000D01*
X9383571Y-14174476D01*
X9431190Y-14174476D01*
X9450238Y-14184000D01*
X9459762Y-14193524D01*
X9469286Y-14212571D01*
X9469286Y-14231619D01*
X9459762Y-14260190D01*
X9345476Y-14374476D01*
X9469286Y-14374476D01*
X9545476Y-14174476D02*
X9545476Y-14212571D01*
X9621667Y-14174476D02*
X9621667Y-14212571D01*
X9916905Y-14450667D02*
X9907381Y-14441143D01*
X9888333Y-14412571D01*
X9878810Y-14393524D01*
X9869286Y-14364952D01*
X9859762Y-14317333D01*
X9859762Y-14279238D01*
X9869286Y-14231619D01*
X9878810Y-14203048D01*
X9888333Y-14184000D01*
X9907381Y-14155428D01*
X9916905Y-14145905D01*
X10078810Y-14241143D02*
X10078810Y-14374476D01*
X10031190Y-14164952D02*
X9983571Y-14307809D01*
X10107381Y-14307809D01*
X10335952Y-14374476D02*
X10335952Y-14174476D01*
X10421667Y-14374476D02*
X10421667Y-14269714D01*
X10412143Y-14250667D01*
X10393095Y-14241143D01*
X10364524Y-14241143D01*
X10345476Y-14250667D01*
X10335952Y-14260190D01*
X10545476Y-14374476D02*
X10526429Y-14364952D01*
X10516905Y-14355428D01*
X10507381Y-14336381D01*
X10507381Y-14279238D01*
X10516905Y-14260190D01*
X10526429Y-14250667D01*
X10545476Y-14241143D01*
X10574048Y-14241143D01*
X10593095Y-14250667D01*
X10602619Y-14260190D01*
X10612143Y-14279238D01*
X10612143Y-14336381D01*
X10602619Y-14355428D01*
X10593095Y-14364952D01*
X10574048Y-14374476D01*
X10545476Y-14374476D01*
X10726429Y-14374476D02*
X10707381Y-14364952D01*
X10697857Y-14345905D01*
X10697857Y-14174476D01*
X10878810Y-14364952D02*
X10859762Y-14374476D01*
X10821667Y-14374476D01*
X10802619Y-14364952D01*
X10793095Y-14345905D01*
X10793095Y-14269714D01*
X10802619Y-14250667D01*
X10821667Y-14241143D01*
X10859762Y-14241143D01*
X10878810Y-14250667D01*
X10888333Y-14269714D01*
X10888333Y-14288762D01*
X10793095Y-14307809D01*
X10964524Y-14364952D02*
X10983571Y-14374476D01*
X11021667Y-14374476D01*
X11040714Y-14364952D01*
X11050238Y-14345905D01*
X11050238Y-14336381D01*
X11040714Y-14317333D01*
X11021667Y-14307809D01*
X10993095Y-14307809D01*
X10974048Y-14298286D01*
X10964524Y-14279238D01*
X10964524Y-14269714D01*
X10974048Y-14250667D01*
X10993095Y-14241143D01*
X11021667Y-14241143D01*
X11040714Y-14250667D01*
X11116905Y-14450667D02*
X11126429Y-14441143D01*
X11145476Y-14412571D01*
X11155000Y-14393524D01*
X11164524Y-14364952D01*
X11174048Y-14317333D01*
X11174048Y-14279238D01*
X11164524Y-14231619D01*
X11155000Y-14203048D01*
X11145476Y-14184000D01*
X11126429Y-14155428D01*
X11116905Y-14145905D01*
D17*
X6215000Y-14483000D02*
X6345000Y-14613000D01*
X6345000Y-14483000D02*
X6215000Y-14613000D01*
X6280000Y-14483000D02*
X6280000Y-14613000D01*
X6215000Y-14548000D02*
X6345000Y-14548000D01*
D11*
X6707381Y-14638476D02*
X6593095Y-14638476D01*
X6650238Y-14638476D02*
X6650238Y-14438476D01*
X6631190Y-14467048D01*
X6612143Y-14486095D01*
X6593095Y-14495619D01*
X6793095Y-14619428D02*
X6802619Y-14628952D01*
X6793095Y-14638476D01*
X6783571Y-14628952D01*
X6793095Y-14619428D01*
X6793095Y-14638476D01*
X6869286Y-14438476D02*
X6993095Y-14438476D01*
X6926428Y-14514667D01*
X6955000Y-14514667D01*
X6974048Y-14524190D01*
X6983571Y-14533714D01*
X6993095Y-14552762D01*
X6993095Y-14600381D01*
X6983571Y-14619428D01*
X6974048Y-14628952D01*
X6955000Y-14638476D01*
X6897857Y-14638476D01*
X6878809Y-14628952D01*
X6869286Y-14619428D01*
X7116905Y-14438476D02*
X7135952Y-14438476D01*
X7155000Y-14448000D01*
X7164524Y-14457524D01*
X7174048Y-14476571D01*
X7183571Y-14514667D01*
X7183571Y-14562286D01*
X7174048Y-14600381D01*
X7164524Y-14619428D01*
X7155000Y-14628952D01*
X7135952Y-14638476D01*
X7116905Y-14638476D01*
X7097857Y-14628952D01*
X7088333Y-14619428D01*
X7078809Y-14600381D01*
X7069286Y-14562286D01*
X7069286Y-14514667D01*
X7078809Y-14476571D01*
X7088333Y-14457524D01*
X7097857Y-14448000D01*
X7116905Y-14438476D01*
X7307381Y-14438476D02*
X7326428Y-14438476D01*
X7345476Y-14448000D01*
X7355000Y-14457524D01*
X7364524Y-14476571D01*
X7374048Y-14514667D01*
X7374048Y-14562286D01*
X7364524Y-14600381D01*
X7355000Y-14619428D01*
X7345476Y-14628952D01*
X7326428Y-14638476D01*
X7307381Y-14638476D01*
X7288333Y-14628952D01*
X7278809Y-14619428D01*
X7269286Y-14600381D01*
X7259762Y-14562286D01*
X7259762Y-14514667D01*
X7269286Y-14476571D01*
X7278809Y-14457524D01*
X7288333Y-14448000D01*
X7307381Y-14438476D01*
X7459762Y-14638476D02*
X7459762Y-14505143D01*
X7459762Y-14524190D02*
X7469286Y-14514667D01*
X7488333Y-14505143D01*
X7516905Y-14505143D01*
X7535952Y-14514667D01*
X7545476Y-14533714D01*
X7545476Y-14638476D01*
X7545476Y-14533714D02*
X7555000Y-14514667D01*
X7574048Y-14505143D01*
X7602619Y-14505143D01*
X7621667Y-14514667D01*
X7631190Y-14533714D01*
X7631190Y-14638476D01*
X7726428Y-14638476D02*
X7726428Y-14505143D01*
X7726428Y-14524190D02*
X7735952Y-14514667D01*
X7755000Y-14505143D01*
X7783571Y-14505143D01*
X7802619Y-14514667D01*
X7812143Y-14533714D01*
X7812143Y-14638476D01*
X7812143Y-14533714D02*
X7821667Y-14514667D01*
X7840714Y-14505143D01*
X7869286Y-14505143D01*
X7888333Y-14514667D01*
X7897857Y-14533714D01*
X7897857Y-14638476D01*
X8288333Y-14428952D02*
X8116905Y-14686095D01*
X8545476Y-14438476D02*
X8564524Y-14438476D01*
X8583571Y-14448000D01*
X8593095Y-14457524D01*
X8602619Y-14476571D01*
X8612143Y-14514667D01*
X8612143Y-14562286D01*
X8602619Y-14600381D01*
X8593095Y-14619428D01*
X8583571Y-14628952D01*
X8564524Y-14638476D01*
X8545476Y-14638476D01*
X8526429Y-14628952D01*
X8516905Y-14619428D01*
X8507381Y-14600381D01*
X8497857Y-14562286D01*
X8497857Y-14514667D01*
X8507381Y-14476571D01*
X8516905Y-14457524D01*
X8526429Y-14448000D01*
X8545476Y-14438476D01*
X8697857Y-14619428D02*
X8707381Y-14628952D01*
X8697857Y-14638476D01*
X8688333Y-14628952D01*
X8697857Y-14619428D01*
X8697857Y-14638476D01*
X8831190Y-14438476D02*
X8850238Y-14438476D01*
X8869286Y-14448000D01*
X8878810Y-14457524D01*
X8888333Y-14476571D01*
X8897857Y-14514667D01*
X8897857Y-14562286D01*
X8888333Y-14600381D01*
X8878810Y-14619428D01*
X8869286Y-14628952D01*
X8850238Y-14638476D01*
X8831190Y-14638476D01*
X8812143Y-14628952D01*
X8802619Y-14619428D01*
X8793095Y-14600381D01*
X8783571Y-14562286D01*
X8783571Y-14514667D01*
X8793095Y-14476571D01*
X8802619Y-14457524D01*
X8812143Y-14448000D01*
X8831190Y-14438476D01*
X9078810Y-14438476D02*
X8983571Y-14438476D01*
X8974048Y-14533714D01*
X8983571Y-14524190D01*
X9002619Y-14514667D01*
X9050238Y-14514667D01*
X9069286Y-14524190D01*
X9078810Y-14533714D01*
X9088333Y-14552762D01*
X9088333Y-14600381D01*
X9078810Y-14619428D01*
X9069286Y-14628952D01*
X9050238Y-14638476D01*
X9002619Y-14638476D01*
X8983571Y-14628952D01*
X8974048Y-14619428D01*
X9278810Y-14638476D02*
X9164524Y-14638476D01*
X9221667Y-14638476D02*
X9221667Y-14438476D01*
X9202619Y-14467048D01*
X9183571Y-14486095D01*
X9164524Y-14495619D01*
X9355000Y-14457524D02*
X9364524Y-14448000D01*
X9383571Y-14438476D01*
X9431190Y-14438476D01*
X9450238Y-14448000D01*
X9459762Y-14457524D01*
X9469286Y-14476571D01*
X9469286Y-14495619D01*
X9459762Y-14524190D01*
X9345476Y-14638476D01*
X9469286Y-14638476D01*
X9545476Y-14438476D02*
X9545476Y-14476571D01*
X9621667Y-14438476D02*
X9621667Y-14476571D01*
X9916905Y-14714667D02*
X9907381Y-14705143D01*
X9888333Y-14676571D01*
X9878810Y-14657524D01*
X9869286Y-14628952D01*
X9859762Y-14581333D01*
X9859762Y-14543238D01*
X9869286Y-14495619D01*
X9878810Y-14467048D01*
X9888333Y-14448000D01*
X9907381Y-14419428D01*
X9916905Y-14409905D01*
X10078810Y-14438476D02*
X10040714Y-14438476D01*
X10021667Y-14448000D01*
X10012143Y-14457524D01*
X9993095Y-14486095D01*
X9983571Y-14524190D01*
X9983571Y-14600381D01*
X9993095Y-14619428D01*
X10002619Y-14628952D01*
X10021667Y-14638476D01*
X10059762Y-14638476D01*
X10078810Y-14628952D01*
X10088333Y-14619428D01*
X10097857Y-14600381D01*
X10097857Y-14552762D01*
X10088333Y-14533714D01*
X10078810Y-14524190D01*
X10059762Y-14514667D01*
X10021667Y-14514667D01*
X10002619Y-14524190D01*
X9993095Y-14533714D01*
X9983571Y-14552762D01*
X10335952Y-14638476D02*
X10335952Y-14438476D01*
X10421667Y-14638476D02*
X10421667Y-14533714D01*
X10412143Y-14514667D01*
X10393095Y-14505143D01*
X10364524Y-14505143D01*
X10345476Y-14514667D01*
X10335952Y-14524190D01*
X10545476Y-14638476D02*
X10526429Y-14628952D01*
X10516905Y-14619428D01*
X10507381Y-14600381D01*
X10507381Y-14543238D01*
X10516905Y-14524190D01*
X10526429Y-14514667D01*
X10545476Y-14505143D01*
X10574048Y-14505143D01*
X10593095Y-14514667D01*
X10602619Y-14524190D01*
X10612143Y-14543238D01*
X10612143Y-14600381D01*
X10602619Y-14619428D01*
X10593095Y-14628952D01*
X10574048Y-14638476D01*
X10545476Y-14638476D01*
X10726429Y-14638476D02*
X10707381Y-14628952D01*
X10697857Y-14609905D01*
X10697857Y-14438476D01*
X10878810Y-14628952D02*
X10859762Y-14638476D01*
X10821667Y-14638476D01*
X10802619Y-14628952D01*
X10793095Y-14609905D01*
X10793095Y-14533714D01*
X10802619Y-14514667D01*
X10821667Y-14505143D01*
X10859762Y-14505143D01*
X10878810Y-14514667D01*
X10888333Y-14533714D01*
X10888333Y-14552762D01*
X10793095Y-14571809D01*
X10964524Y-14628952D02*
X10983571Y-14638476D01*
X11021667Y-14638476D01*
X11040714Y-14628952D01*
X11050238Y-14609905D01*
X11050238Y-14600381D01*
X11040714Y-14581333D01*
X11021667Y-14571809D01*
X10993095Y-14571809D01*
X10974048Y-14562286D01*
X10964524Y-14543238D01*
X10964524Y-14533714D01*
X10974048Y-14514667D01*
X10993095Y-14505143D01*
X11021667Y-14505143D01*
X11040714Y-14514667D01*
X11116905Y-14714667D02*
X11126429Y-14705143D01*
X11145476Y-14676571D01*
X11155000Y-14657524D01*
X11164524Y-14628952D01*
X11174048Y-14581333D01*
X11174048Y-14543238D01*
X11164524Y-14495619D01*
X11155000Y-14467048D01*
X11145476Y-14448000D01*
X11126429Y-14419428D01*
X11116905Y-14409905D01*
D18*
X6195000Y-14737000D02*
X6345000Y-14887000D01*
X6345000Y-14737000D02*
X6195000Y-14887000D01*
X6323033Y-14865033D02*
X6323033Y-14758966D01*
X6216966Y-14758966D01*
X6216966Y-14865033D01*
X6323033Y-14865033D01*
D11*
X6707381Y-14902476D02*
X6593095Y-14902476D01*
X6650238Y-14902476D02*
X6650238Y-14702476D01*
X6631190Y-14731048D01*
X6612143Y-14750095D01*
X6593095Y-14759619D01*
X6793095Y-14883428D02*
X6802619Y-14892952D01*
X6793095Y-14902476D01*
X6783571Y-14892952D01*
X6793095Y-14883428D01*
X6793095Y-14902476D01*
X6983571Y-14702476D02*
X6888333Y-14702476D01*
X6878809Y-14797714D01*
X6888333Y-14788190D01*
X6907381Y-14778667D01*
X6955000Y-14778667D01*
X6974048Y-14788190D01*
X6983571Y-14797714D01*
X6993095Y-14816762D01*
X6993095Y-14864381D01*
X6983571Y-14883428D01*
X6974048Y-14892952D01*
X6955000Y-14902476D01*
X6907381Y-14902476D01*
X6888333Y-14892952D01*
X6878809Y-14883428D01*
X7116905Y-14702476D02*
X7135952Y-14702476D01*
X7155000Y-14712000D01*
X7164524Y-14721524D01*
X7174048Y-14740571D01*
X7183571Y-14778667D01*
X7183571Y-14826286D01*
X7174048Y-14864381D01*
X7164524Y-14883428D01*
X7155000Y-14892952D01*
X7135952Y-14902476D01*
X7116905Y-14902476D01*
X7097857Y-14892952D01*
X7088333Y-14883428D01*
X7078809Y-14864381D01*
X7069286Y-14826286D01*
X7069286Y-14778667D01*
X7078809Y-14740571D01*
X7088333Y-14721524D01*
X7097857Y-14712000D01*
X7116905Y-14702476D01*
X7307381Y-14702476D02*
X7326428Y-14702476D01*
X7345476Y-14712000D01*
X7355000Y-14721524D01*
X7364524Y-14740571D01*
X7374048Y-14778667D01*
X7374048Y-14826286D01*
X7364524Y-14864381D01*
X7355000Y-14883428D01*
X7345476Y-14892952D01*
X7326428Y-14902476D01*
X7307381Y-14902476D01*
X7288333Y-14892952D01*
X7278809Y-14883428D01*
X7269286Y-14864381D01*
X7259762Y-14826286D01*
X7259762Y-14778667D01*
X7269286Y-14740571D01*
X7278809Y-14721524D01*
X7288333Y-14712000D01*
X7307381Y-14702476D01*
X7459762Y-14902476D02*
X7459762Y-14769143D01*
X7459762Y-14788190D02*
X7469286Y-14778667D01*
X7488333Y-14769143D01*
X7516905Y-14769143D01*
X7535952Y-14778667D01*
X7545476Y-14797714D01*
X7545476Y-14902476D01*
X7545476Y-14797714D02*
X7555000Y-14778667D01*
X7574048Y-14769143D01*
X7602619Y-14769143D01*
X7621667Y-14778667D01*
X7631190Y-14797714D01*
X7631190Y-14902476D01*
X7726428Y-14902476D02*
X7726428Y-14769143D01*
X7726428Y-14788190D02*
X7735952Y-14778667D01*
X7755000Y-14769143D01*
X7783571Y-14769143D01*
X7802619Y-14778667D01*
X7812143Y-14797714D01*
X7812143Y-14902476D01*
X7812143Y-14797714D02*
X7821667Y-14778667D01*
X7840714Y-14769143D01*
X7869286Y-14769143D01*
X7888333Y-14778667D01*
X7897857Y-14797714D01*
X7897857Y-14902476D01*
X8288333Y-14692952D02*
X8116905Y-14950095D01*
X8545476Y-14702476D02*
X8564524Y-14702476D01*
X8583571Y-14712000D01*
X8593095Y-14721524D01*
X8602619Y-14740571D01*
X8612143Y-14778667D01*
X8612143Y-14826286D01*
X8602619Y-14864381D01*
X8593095Y-14883428D01*
X8583571Y-14892952D01*
X8564524Y-14902476D01*
X8545476Y-14902476D01*
X8526429Y-14892952D01*
X8516905Y-14883428D01*
X8507381Y-14864381D01*
X8497857Y-14826286D01*
X8497857Y-14778667D01*
X8507381Y-14740571D01*
X8516905Y-14721524D01*
X8526429Y-14712000D01*
X8545476Y-14702476D01*
X8697857Y-14883428D02*
X8707381Y-14892952D01*
X8697857Y-14902476D01*
X8688333Y-14892952D01*
X8697857Y-14883428D01*
X8697857Y-14902476D01*
X8831190Y-14702476D02*
X8850238Y-14702476D01*
X8869286Y-14712000D01*
X8878810Y-14721524D01*
X8888333Y-14740571D01*
X8897857Y-14778667D01*
X8897857Y-14826286D01*
X8888333Y-14864381D01*
X8878810Y-14883428D01*
X8869286Y-14892952D01*
X8850238Y-14902476D01*
X8831190Y-14902476D01*
X8812143Y-14892952D01*
X8802619Y-14883428D01*
X8793095Y-14864381D01*
X8783571Y-14826286D01*
X8783571Y-14778667D01*
X8793095Y-14740571D01*
X8802619Y-14721524D01*
X8812143Y-14712000D01*
X8831190Y-14702476D01*
X9078810Y-14702476D02*
X8983571Y-14702476D01*
X8974048Y-14797714D01*
X8983571Y-14788190D01*
X9002619Y-14778667D01*
X9050238Y-14778667D01*
X9069286Y-14788190D01*
X9078810Y-14797714D01*
X9088333Y-14816762D01*
X9088333Y-14864381D01*
X9078810Y-14883428D01*
X9069286Y-14892952D01*
X9050238Y-14902476D01*
X9002619Y-14902476D01*
X8983571Y-14892952D01*
X8974048Y-14883428D01*
X9183571Y-14902476D02*
X9221667Y-14902476D01*
X9240714Y-14892952D01*
X9250238Y-14883428D01*
X9269286Y-14854857D01*
X9278810Y-14816762D01*
X9278810Y-14740571D01*
X9269286Y-14721524D01*
X9259762Y-14712000D01*
X9240714Y-14702476D01*
X9202619Y-14702476D01*
X9183571Y-14712000D01*
X9174048Y-14721524D01*
X9164524Y-14740571D01*
X9164524Y-14788190D01*
X9174048Y-14807238D01*
X9183571Y-14816762D01*
X9202619Y-14826286D01*
X9240714Y-14826286D01*
X9259762Y-14816762D01*
X9269286Y-14807238D01*
X9278810Y-14788190D01*
X9469286Y-14902476D02*
X9355000Y-14902476D01*
X9412143Y-14902476D02*
X9412143Y-14702476D01*
X9393095Y-14731048D01*
X9374048Y-14750095D01*
X9355000Y-14759619D01*
X9545476Y-14702476D02*
X9545476Y-14740571D01*
X9621667Y-14702476D02*
X9621667Y-14740571D01*
X9916905Y-14978667D02*
X9907381Y-14969143D01*
X9888333Y-14940571D01*
X9878810Y-14921524D01*
X9869286Y-14892952D01*
X9859762Y-14845333D01*
X9859762Y-14807238D01*
X9869286Y-14759619D01*
X9878810Y-14731048D01*
X9888333Y-14712000D01*
X9907381Y-14683428D01*
X9916905Y-14673905D01*
X9974048Y-14702476D02*
X10097857Y-14702476D01*
X10031190Y-14778667D01*
X10059762Y-14778667D01*
X10078810Y-14788190D01*
X10088333Y-14797714D01*
X10097857Y-14816762D01*
X10097857Y-14864381D01*
X10088333Y-14883428D01*
X10078810Y-14892952D01*
X10059762Y-14902476D01*
X10002619Y-14902476D01*
X9983571Y-14892952D01*
X9974048Y-14883428D01*
X10335952Y-14902476D02*
X10335952Y-14702476D01*
X10421667Y-14902476D02*
X10421667Y-14797714D01*
X10412143Y-14778667D01*
X10393095Y-14769143D01*
X10364524Y-14769143D01*
X10345476Y-14778667D01*
X10335952Y-14788190D01*
X10545476Y-14902476D02*
X10526429Y-14892952D01*
X10516905Y-14883428D01*
X10507381Y-14864381D01*
X10507381Y-14807238D01*
X10516905Y-14788190D01*
X10526429Y-14778667D01*
X10545476Y-14769143D01*
X10574048Y-14769143D01*
X10593095Y-14778667D01*
X10602619Y-14788190D01*
X10612143Y-14807238D01*
X10612143Y-14864381D01*
X10602619Y-14883428D01*
X10593095Y-14892952D01*
X10574048Y-14902476D01*
X10545476Y-14902476D01*
X10726429Y-14902476D02*
X10707381Y-14892952D01*
X10697857Y-14873905D01*
X10697857Y-14702476D01*
X10878810Y-14892952D02*
X10859762Y-14902476D01*
X10821667Y-14902476D01*
X10802619Y-14892952D01*
X10793095Y-14873905D01*
X10793095Y-14797714D01*
X10802619Y-14778667D01*
X10821667Y-14769143D01*
X10859762Y-14769143D01*
X10878810Y-14778667D01*
X10888333Y-14797714D01*
X10888333Y-14816762D01*
X10793095Y-14835809D01*
X10964524Y-14892952D02*
X10983571Y-14902476D01*
X11021667Y-14902476D01*
X11040714Y-14892952D01*
X11050238Y-14873905D01*
X11050238Y-14864381D01*
X11040714Y-14845333D01*
X11021667Y-14835809D01*
X10993095Y-14835809D01*
X10974048Y-14826286D01*
X10964524Y-14807238D01*
X10964524Y-14797714D01*
X10974048Y-14778667D01*
X10993095Y-14769143D01*
X11021667Y-14769143D01*
X11040714Y-14778667D01*
X11116905Y-14978667D02*
X11126429Y-14969143D01*
X11145476Y-14940571D01*
X11155000Y-14921524D01*
X11164524Y-14892952D01*
X11174048Y-14845333D01*
X11174048Y-14807238D01*
X11164524Y-14759619D01*
X11155000Y-14731048D01*
X11145476Y-14712000D01*
X11126429Y-14683428D01*
X11116905Y-14673905D01*
D19*
X6193000Y-15006000D02*
X6345000Y-15158000D01*
X6345000Y-15006000D02*
X6193000Y-15158000D01*
X6269000Y-15158000D02*
X6345000Y-15082000D01*
X6269000Y-15006000D01*
X6193000Y-15082000D01*
X6269000Y-15158000D01*
D11*
X6707381Y-15172476D02*
X6593095Y-15172476D01*
X6650238Y-15172476D02*
X6650238Y-14972476D01*
X6631190Y-15001048D01*
X6612143Y-15020095D01*
X6593095Y-15029619D01*
X6793095Y-15153428D02*
X6802619Y-15162952D01*
X6793095Y-15172476D01*
X6783571Y-15162952D01*
X6793095Y-15153428D01*
X6793095Y-15172476D01*
X6983571Y-14972476D02*
X6888333Y-14972476D01*
X6878809Y-15067714D01*
X6888333Y-15058190D01*
X6907381Y-15048667D01*
X6955000Y-15048667D01*
X6974048Y-15058190D01*
X6983571Y-15067714D01*
X6993095Y-15086762D01*
X6993095Y-15134381D01*
X6983571Y-15153428D01*
X6974048Y-15162952D01*
X6955000Y-15172476D01*
X6907381Y-15172476D01*
X6888333Y-15162952D01*
X6878809Y-15153428D01*
X7069286Y-14991524D02*
X7078809Y-14982000D01*
X7097857Y-14972476D01*
X7145476Y-14972476D01*
X7164524Y-14982000D01*
X7174048Y-14991524D01*
X7183571Y-15010571D01*
X7183571Y-15029619D01*
X7174048Y-15058190D01*
X7059762Y-15172476D01*
X7183571Y-15172476D01*
X7307381Y-14972476D02*
X7326428Y-14972476D01*
X7345476Y-14982000D01*
X7355000Y-14991524D01*
X7364524Y-15010571D01*
X7374048Y-15048667D01*
X7374048Y-15096286D01*
X7364524Y-15134381D01*
X7355000Y-15153428D01*
X7345476Y-15162952D01*
X7326428Y-15172476D01*
X7307381Y-15172476D01*
X7288333Y-15162952D01*
X7278809Y-15153428D01*
X7269286Y-15134381D01*
X7259762Y-15096286D01*
X7259762Y-15048667D01*
X7269286Y-15010571D01*
X7278809Y-14991524D01*
X7288333Y-14982000D01*
X7307381Y-14972476D01*
X7459762Y-15172476D02*
X7459762Y-15039143D01*
X7459762Y-15058190D02*
X7469286Y-15048667D01*
X7488333Y-15039143D01*
X7516905Y-15039143D01*
X7535952Y-15048667D01*
X7545476Y-15067714D01*
X7545476Y-15172476D01*
X7545476Y-15067714D02*
X7555000Y-15048667D01*
X7574048Y-15039143D01*
X7602619Y-15039143D01*
X7621667Y-15048667D01*
X7631190Y-15067714D01*
X7631190Y-15172476D01*
X7726428Y-15172476D02*
X7726428Y-15039143D01*
X7726428Y-15058190D02*
X7735952Y-15048667D01*
X7755000Y-15039143D01*
X7783571Y-15039143D01*
X7802619Y-15048667D01*
X7812143Y-15067714D01*
X7812143Y-15172476D01*
X7812143Y-15067714D02*
X7821667Y-15048667D01*
X7840714Y-15039143D01*
X7869286Y-15039143D01*
X7888333Y-15048667D01*
X7897857Y-15067714D01*
X7897857Y-15172476D01*
X8288333Y-14962952D02*
X8116905Y-15220095D01*
X8545476Y-14972476D02*
X8564524Y-14972476D01*
X8583571Y-14982000D01*
X8593095Y-14991524D01*
X8602619Y-15010571D01*
X8612143Y-15048667D01*
X8612143Y-15096286D01*
X8602619Y-15134381D01*
X8593095Y-15153428D01*
X8583571Y-15162952D01*
X8564524Y-15172476D01*
X8545476Y-15172476D01*
X8526429Y-15162952D01*
X8516905Y-15153428D01*
X8507381Y-15134381D01*
X8497857Y-15096286D01*
X8497857Y-15048667D01*
X8507381Y-15010571D01*
X8516905Y-14991524D01*
X8526429Y-14982000D01*
X8545476Y-14972476D01*
X8697857Y-15153428D02*
X8707381Y-15162952D01*
X8697857Y-15172476D01*
X8688333Y-15162952D01*
X8697857Y-15153428D01*
X8697857Y-15172476D01*
X8831190Y-14972476D02*
X8850238Y-14972476D01*
X8869286Y-14982000D01*
X8878810Y-14991524D01*
X8888333Y-15010571D01*
X8897857Y-15048667D01*
X8897857Y-15096286D01*
X8888333Y-15134381D01*
X8878810Y-15153428D01*
X8869286Y-15162952D01*
X8850238Y-15172476D01*
X8831190Y-15172476D01*
X8812143Y-15162952D01*
X8802619Y-15153428D01*
X8793095Y-15134381D01*
X8783571Y-15096286D01*
X8783571Y-15048667D01*
X8793095Y-15010571D01*
X8802619Y-14991524D01*
X8812143Y-14982000D01*
X8831190Y-14972476D01*
X9078810Y-14972476D02*
X8983571Y-14972476D01*
X8974048Y-15067714D01*
X8983571Y-15058190D01*
X9002619Y-15048667D01*
X9050238Y-15048667D01*
X9069286Y-15058190D01*
X9078810Y-15067714D01*
X9088333Y-15086762D01*
X9088333Y-15134381D01*
X9078810Y-15153428D01*
X9069286Y-15162952D01*
X9050238Y-15172476D01*
X9002619Y-15172476D01*
X8983571Y-15162952D01*
X8974048Y-15153428D01*
X9183571Y-15172476D02*
X9221667Y-15172476D01*
X9240714Y-15162952D01*
X9250238Y-15153428D01*
X9269286Y-15124857D01*
X9278810Y-15086762D01*
X9278810Y-15010571D01*
X9269286Y-14991524D01*
X9259762Y-14982000D01*
X9240714Y-14972476D01*
X9202619Y-14972476D01*
X9183571Y-14982000D01*
X9174048Y-14991524D01*
X9164524Y-15010571D01*
X9164524Y-15058190D01*
X9174048Y-15077238D01*
X9183571Y-15086762D01*
X9202619Y-15096286D01*
X9240714Y-15096286D01*
X9259762Y-15086762D01*
X9269286Y-15077238D01*
X9278810Y-15058190D01*
X9393095Y-15058190D02*
X9374048Y-15048667D01*
X9364524Y-15039143D01*
X9355000Y-15020095D01*
X9355000Y-15010571D01*
X9364524Y-14991524D01*
X9374048Y-14982000D01*
X9393095Y-14972476D01*
X9431190Y-14972476D01*
X9450238Y-14982000D01*
X9459762Y-14991524D01*
X9469286Y-15010571D01*
X9469286Y-15020095D01*
X9459762Y-15039143D01*
X9450238Y-15048667D01*
X9431190Y-15058190D01*
X9393095Y-15058190D01*
X9374048Y-15067714D01*
X9364524Y-15077238D01*
X9355000Y-15096286D01*
X9355000Y-15134381D01*
X9364524Y-15153428D01*
X9374048Y-15162952D01*
X9393095Y-15172476D01*
X9431190Y-15172476D01*
X9450238Y-15162952D01*
X9459762Y-15153428D01*
X9469286Y-15134381D01*
X9469286Y-15096286D01*
X9459762Y-15077238D01*
X9450238Y-15067714D01*
X9431190Y-15058190D01*
X9545476Y-14972476D02*
X9545476Y-15010571D01*
X9621667Y-14972476D02*
X9621667Y-15010571D01*
X9916905Y-15248667D02*
X9907381Y-15239143D01*
X9888333Y-15210571D01*
X9878810Y-15191524D01*
X9869286Y-15162952D01*
X9859762Y-15115333D01*
X9859762Y-15077238D01*
X9869286Y-15029619D01*
X9878810Y-15001048D01*
X9888333Y-14982000D01*
X9907381Y-14953428D01*
X9916905Y-14943905D01*
X10021667Y-15058190D02*
X10002619Y-15048667D01*
X9993095Y-15039143D01*
X9983571Y-15020095D01*
X9983571Y-15010571D01*
X9993095Y-14991524D01*
X10002619Y-14982000D01*
X10021667Y-14972476D01*
X10059762Y-14972476D01*
X10078810Y-14982000D01*
X10088333Y-14991524D01*
X10097857Y-15010571D01*
X10097857Y-15020095D01*
X10088333Y-15039143D01*
X10078810Y-15048667D01*
X10059762Y-15058190D01*
X10021667Y-15058190D01*
X10002619Y-15067714D01*
X9993095Y-15077238D01*
X9983571Y-15096286D01*
X9983571Y-15134381D01*
X9993095Y-15153428D01*
X10002619Y-15162952D01*
X10021667Y-15172476D01*
X10059762Y-15172476D01*
X10078810Y-15162952D01*
X10088333Y-15153428D01*
X10097857Y-15134381D01*
X10097857Y-15096286D01*
X10088333Y-15077238D01*
X10078810Y-15067714D01*
X10059762Y-15058190D01*
X10335952Y-15172476D02*
X10335952Y-14972476D01*
X10421667Y-15172476D02*
X10421667Y-15067714D01*
X10412143Y-15048667D01*
X10393095Y-15039143D01*
X10364524Y-15039143D01*
X10345476Y-15048667D01*
X10335952Y-15058190D01*
X10545476Y-15172476D02*
X10526429Y-15162952D01*
X10516905Y-15153428D01*
X10507381Y-15134381D01*
X10507381Y-15077238D01*
X10516905Y-15058190D01*
X10526429Y-15048667D01*
X10545476Y-15039143D01*
X10574048Y-15039143D01*
X10593095Y-15048667D01*
X10602619Y-15058190D01*
X10612143Y-15077238D01*
X10612143Y-15134381D01*
X10602619Y-15153428D01*
X10593095Y-15162952D01*
X10574048Y-15172476D01*
X10545476Y-15172476D01*
X10726429Y-15172476D02*
X10707381Y-15162952D01*
X10697857Y-15143905D01*
X10697857Y-14972476D01*
X10878810Y-15162952D02*
X10859762Y-15172476D01*
X10821667Y-15172476D01*
X10802619Y-15162952D01*
X10793095Y-15143905D01*
X10793095Y-15067714D01*
X10802619Y-15048667D01*
X10821667Y-15039143D01*
X10859762Y-15039143D01*
X10878810Y-15048667D01*
X10888333Y-15067714D01*
X10888333Y-15086762D01*
X10793095Y-15105809D01*
X10964524Y-15162952D02*
X10983571Y-15172476D01*
X11021667Y-15172476D01*
X11040714Y-15162952D01*
X11050238Y-15143905D01*
X11050238Y-15134381D01*
X11040714Y-15115333D01*
X11021667Y-15105809D01*
X10993095Y-15105809D01*
X10974048Y-15096286D01*
X10964524Y-15077238D01*
X10964524Y-15067714D01*
X10974048Y-15048667D01*
X10993095Y-15039143D01*
X11021667Y-15039143D01*
X11040714Y-15048667D01*
X11116905Y-15248667D02*
X11126429Y-15239143D01*
X11145476Y-15210571D01*
X11155000Y-15191524D01*
X11164524Y-15162952D01*
X11174048Y-15115333D01*
X11174048Y-15077238D01*
X11164524Y-15029619D01*
X11155000Y-15001048D01*
X11145476Y-14982000D01*
X11126429Y-14953428D01*
X11116905Y-14943905D01*
D20*
X6265000Y-15274000D02*
X6265000Y-15434000D01*
X6185000Y-15354000D02*
X6345000Y-15354000D01*
X6345000Y-15354000D02*
G75*
G03*
X6345000Y-15354000I-80000J0D01*
G01*
D11*
X6707381Y-15444476D02*
X6593095Y-15444476D01*
X6650238Y-15444476D02*
X6650238Y-15244476D01*
X6631190Y-15273048D01*
X6612143Y-15292095D01*
X6593095Y-15301619D01*
X6793095Y-15425428D02*
X6802619Y-15434952D01*
X6793095Y-15444476D01*
X6783571Y-15434952D01*
X6793095Y-15425428D01*
X6793095Y-15444476D01*
X6974048Y-15244476D02*
X6935952Y-15244476D01*
X6916905Y-15254000D01*
X6907381Y-15263524D01*
X6888333Y-15292095D01*
X6878809Y-15330190D01*
X6878809Y-15406381D01*
X6888333Y-15425428D01*
X6897857Y-15434952D01*
X6916905Y-15444476D01*
X6955000Y-15444476D01*
X6974048Y-15434952D01*
X6983571Y-15425428D01*
X6993095Y-15406381D01*
X6993095Y-15358762D01*
X6983571Y-15339714D01*
X6974048Y-15330190D01*
X6955000Y-15320667D01*
X6916905Y-15320667D01*
X6897857Y-15330190D01*
X6888333Y-15339714D01*
X6878809Y-15358762D01*
X7116905Y-15244476D02*
X7135952Y-15244476D01*
X7155000Y-15254000D01*
X7164524Y-15263524D01*
X7174048Y-15282571D01*
X7183571Y-15320667D01*
X7183571Y-15368286D01*
X7174048Y-15406381D01*
X7164524Y-15425428D01*
X7155000Y-15434952D01*
X7135952Y-15444476D01*
X7116905Y-15444476D01*
X7097857Y-15434952D01*
X7088333Y-15425428D01*
X7078809Y-15406381D01*
X7069286Y-15368286D01*
X7069286Y-15320667D01*
X7078809Y-15282571D01*
X7088333Y-15263524D01*
X7097857Y-15254000D01*
X7116905Y-15244476D01*
X7307381Y-15244476D02*
X7326428Y-15244476D01*
X7345476Y-15254000D01*
X7355000Y-15263524D01*
X7364524Y-15282571D01*
X7374048Y-15320667D01*
X7374048Y-15368286D01*
X7364524Y-15406381D01*
X7355000Y-15425428D01*
X7345476Y-15434952D01*
X7326428Y-15444476D01*
X7307381Y-15444476D01*
X7288333Y-15434952D01*
X7278809Y-15425428D01*
X7269286Y-15406381D01*
X7259762Y-15368286D01*
X7259762Y-15320667D01*
X7269286Y-15282571D01*
X7278809Y-15263524D01*
X7288333Y-15254000D01*
X7307381Y-15244476D01*
X7459762Y-15444476D02*
X7459762Y-15311143D01*
X7459762Y-15330190D02*
X7469286Y-15320667D01*
X7488333Y-15311143D01*
X7516905Y-15311143D01*
X7535952Y-15320667D01*
X7545476Y-15339714D01*
X7545476Y-15444476D01*
X7545476Y-15339714D02*
X7555000Y-15320667D01*
X7574048Y-15311143D01*
X7602619Y-15311143D01*
X7621667Y-15320667D01*
X7631190Y-15339714D01*
X7631190Y-15444476D01*
X7726428Y-15444476D02*
X7726428Y-15311143D01*
X7726428Y-15330190D02*
X7735952Y-15320667D01*
X7755000Y-15311143D01*
X7783571Y-15311143D01*
X7802619Y-15320667D01*
X7812143Y-15339714D01*
X7812143Y-15444476D01*
X7812143Y-15339714D02*
X7821667Y-15320667D01*
X7840714Y-15311143D01*
X7869286Y-15311143D01*
X7888333Y-15320667D01*
X7897857Y-15339714D01*
X7897857Y-15444476D01*
X8288333Y-15234952D02*
X8116905Y-15492095D01*
X8545476Y-15244476D02*
X8564524Y-15244476D01*
X8583571Y-15254000D01*
X8593095Y-15263524D01*
X8602619Y-15282571D01*
X8612143Y-15320667D01*
X8612143Y-15368286D01*
X8602619Y-15406381D01*
X8593095Y-15425428D01*
X8583571Y-15434952D01*
X8564524Y-15444476D01*
X8545476Y-15444476D01*
X8526429Y-15434952D01*
X8516905Y-15425428D01*
X8507381Y-15406381D01*
X8497857Y-15368286D01*
X8497857Y-15320667D01*
X8507381Y-15282571D01*
X8516905Y-15263524D01*
X8526429Y-15254000D01*
X8545476Y-15244476D01*
X8697857Y-15425428D02*
X8707381Y-15434952D01*
X8697857Y-15444476D01*
X8688333Y-15434952D01*
X8697857Y-15425428D01*
X8697857Y-15444476D01*
X8831190Y-15244476D02*
X8850238Y-15244476D01*
X8869286Y-15254000D01*
X8878810Y-15263524D01*
X8888333Y-15282571D01*
X8897857Y-15320667D01*
X8897857Y-15368286D01*
X8888333Y-15406381D01*
X8878810Y-15425428D01*
X8869286Y-15434952D01*
X8850238Y-15444476D01*
X8831190Y-15444476D01*
X8812143Y-15434952D01*
X8802619Y-15425428D01*
X8793095Y-15406381D01*
X8783571Y-15368286D01*
X8783571Y-15320667D01*
X8793095Y-15282571D01*
X8802619Y-15263524D01*
X8812143Y-15254000D01*
X8831190Y-15244476D01*
X9069286Y-15244476D02*
X9031190Y-15244476D01*
X9012143Y-15254000D01*
X9002619Y-15263524D01*
X8983571Y-15292095D01*
X8974048Y-15330190D01*
X8974048Y-15406381D01*
X8983571Y-15425428D01*
X8993095Y-15434952D01*
X9012143Y-15444476D01*
X9050238Y-15444476D01*
X9069286Y-15434952D01*
X9078810Y-15425428D01*
X9088333Y-15406381D01*
X9088333Y-15358762D01*
X9078810Y-15339714D01*
X9069286Y-15330190D01*
X9050238Y-15320667D01*
X9012143Y-15320667D01*
X8993095Y-15330190D01*
X8983571Y-15339714D01*
X8974048Y-15358762D01*
X9155000Y-15244476D02*
X9278810Y-15244476D01*
X9212143Y-15320667D01*
X9240714Y-15320667D01*
X9259762Y-15330190D01*
X9269286Y-15339714D01*
X9278810Y-15358762D01*
X9278810Y-15406381D01*
X9269286Y-15425428D01*
X9259762Y-15434952D01*
X9240714Y-15444476D01*
X9183571Y-15444476D01*
X9164524Y-15434952D01*
X9155000Y-15425428D01*
X9402619Y-15244476D02*
X9421667Y-15244476D01*
X9440714Y-15254000D01*
X9450238Y-15263524D01*
X9459762Y-15282571D01*
X9469286Y-15320667D01*
X9469286Y-15368286D01*
X9459762Y-15406381D01*
X9450238Y-15425428D01*
X9440714Y-15434952D01*
X9421667Y-15444476D01*
X9402619Y-15444476D01*
X9383571Y-15434952D01*
X9374048Y-15425428D01*
X9364524Y-15406381D01*
X9355000Y-15368286D01*
X9355000Y-15320667D01*
X9364524Y-15282571D01*
X9374048Y-15263524D01*
X9383571Y-15254000D01*
X9402619Y-15244476D01*
X9545476Y-15244476D02*
X9545476Y-15282571D01*
X9621667Y-15244476D02*
X9621667Y-15282571D01*
X9916905Y-15520667D02*
X9907381Y-15511143D01*
X9888333Y-15482571D01*
X9878810Y-15463524D01*
X9869286Y-15434952D01*
X9859762Y-15387333D01*
X9859762Y-15349238D01*
X9869286Y-15301619D01*
X9878810Y-15273048D01*
X9888333Y-15254000D01*
X9907381Y-15225428D01*
X9916905Y-15215905D01*
X10097857Y-15444476D02*
X9983571Y-15444476D01*
X10040714Y-15444476D02*
X10040714Y-15244476D01*
X10021667Y-15273048D01*
X10002619Y-15292095D01*
X9983571Y-15301619D01*
X10221667Y-15244476D02*
X10240714Y-15244476D01*
X10259762Y-15254000D01*
X10269286Y-15263524D01*
X10278810Y-15282571D01*
X10288333Y-15320667D01*
X10288333Y-15368286D01*
X10278810Y-15406381D01*
X10269286Y-15425428D01*
X10259762Y-15434952D01*
X10240714Y-15444476D01*
X10221667Y-15444476D01*
X10202619Y-15434952D01*
X10193095Y-15425428D01*
X10183571Y-15406381D01*
X10174048Y-15368286D01*
X10174048Y-15320667D01*
X10183571Y-15282571D01*
X10193095Y-15263524D01*
X10202619Y-15254000D01*
X10221667Y-15244476D01*
X10526429Y-15444476D02*
X10526429Y-15244476D01*
X10612143Y-15444476D02*
X10612143Y-15339714D01*
X10602619Y-15320667D01*
X10583571Y-15311143D01*
X10555000Y-15311143D01*
X10535952Y-15320667D01*
X10526429Y-15330190D01*
X10735952Y-15444476D02*
X10716905Y-15434952D01*
X10707381Y-15425428D01*
X10697857Y-15406381D01*
X10697857Y-15349238D01*
X10707381Y-15330190D01*
X10716905Y-15320667D01*
X10735952Y-15311143D01*
X10764524Y-15311143D01*
X10783571Y-15320667D01*
X10793095Y-15330190D01*
X10802619Y-15349238D01*
X10802619Y-15406381D01*
X10793095Y-15425428D01*
X10783571Y-15434952D01*
X10764524Y-15444476D01*
X10735952Y-15444476D01*
X10916905Y-15444476D02*
X10897857Y-15434952D01*
X10888333Y-15415905D01*
X10888333Y-15244476D01*
X11069286Y-15434952D02*
X11050238Y-15444476D01*
X11012143Y-15444476D01*
X10993095Y-15434952D01*
X10983571Y-15415905D01*
X10983571Y-15339714D01*
X10993095Y-15320667D01*
X11012143Y-15311143D01*
X11050238Y-15311143D01*
X11069286Y-15320667D01*
X11078810Y-15339714D01*
X11078810Y-15358762D01*
X10983571Y-15377809D01*
X11155000Y-15434952D02*
X11174048Y-15444476D01*
X11212143Y-15444476D01*
X11231190Y-15434952D01*
X11240714Y-15415905D01*
X11240714Y-15406381D01*
X11231190Y-15387333D01*
X11212143Y-15377809D01*
X11183571Y-15377809D01*
X11164524Y-15368286D01*
X11155000Y-15349238D01*
X11155000Y-15339714D01*
X11164524Y-15320667D01*
X11183571Y-15311143D01*
X11212143Y-15311143D01*
X11231190Y-15320667D01*
X11307381Y-15520667D02*
X11316905Y-15511143D01*
X11335952Y-15482571D01*
X11345476Y-15463524D01*
X11355000Y-15434952D01*
X11364524Y-15387333D01*
X11364524Y-15349238D01*
X11355000Y-15301619D01*
X11345476Y-15273048D01*
X11335952Y-15254000D01*
X11316905Y-15225428D01*
X11307381Y-15215905D01*
X6315711Y-15704711D02*
X6315711Y-15563289D01*
X6174289Y-15563289D01*
X6174289Y-15704711D01*
X6315711Y-15704711D01*
X6345000Y-15634000D02*
G75*
G03*
X6345000Y-15634000I-100000J0D01*
G01*
X6593095Y-15543524D02*
X6602619Y-15534000D01*
X6621667Y-15524476D01*
X6669286Y-15524476D01*
X6688333Y-15534000D01*
X6697857Y-15543524D01*
X6707381Y-15562571D01*
X6707381Y-15581619D01*
X6697857Y-15610190D01*
X6583571Y-15724476D01*
X6707381Y-15724476D01*
X6793095Y-15705428D02*
X6802619Y-15714952D01*
X6793095Y-15724476D01*
X6783571Y-15714952D01*
X6793095Y-15705428D01*
X6793095Y-15724476D01*
X6983571Y-15524476D02*
X6888333Y-15524476D01*
X6878809Y-15619714D01*
X6888333Y-15610190D01*
X6907381Y-15600667D01*
X6955000Y-15600667D01*
X6974048Y-15610190D01*
X6983571Y-15619714D01*
X6993095Y-15638762D01*
X6993095Y-15686381D01*
X6983571Y-15705428D01*
X6974048Y-15714952D01*
X6955000Y-15724476D01*
X6907381Y-15724476D01*
X6888333Y-15714952D01*
X6878809Y-15705428D01*
X7116905Y-15524476D02*
X7135952Y-15524476D01*
X7155000Y-15534000D01*
X7164524Y-15543524D01*
X7174048Y-15562571D01*
X7183571Y-15600667D01*
X7183571Y-15648286D01*
X7174048Y-15686381D01*
X7164524Y-15705428D01*
X7155000Y-15714952D01*
X7135952Y-15724476D01*
X7116905Y-15724476D01*
X7097857Y-15714952D01*
X7088333Y-15705428D01*
X7078809Y-15686381D01*
X7069286Y-15648286D01*
X7069286Y-15600667D01*
X7078809Y-15562571D01*
X7088333Y-15543524D01*
X7097857Y-15534000D01*
X7116905Y-15524476D01*
X7307381Y-15524476D02*
X7326428Y-15524476D01*
X7345476Y-15534000D01*
X7355000Y-15543524D01*
X7364524Y-15562571D01*
X7374048Y-15600667D01*
X7374048Y-15648286D01*
X7364524Y-15686381D01*
X7355000Y-15705428D01*
X7345476Y-15714952D01*
X7326428Y-15724476D01*
X7307381Y-15724476D01*
X7288333Y-15714952D01*
X7278809Y-15705428D01*
X7269286Y-15686381D01*
X7259762Y-15648286D01*
X7259762Y-15600667D01*
X7269286Y-15562571D01*
X7278809Y-15543524D01*
X7288333Y-15534000D01*
X7307381Y-15524476D01*
X7459762Y-15724476D02*
X7459762Y-15591143D01*
X7459762Y-15610190D02*
X7469286Y-15600667D01*
X7488333Y-15591143D01*
X7516905Y-15591143D01*
X7535952Y-15600667D01*
X7545476Y-15619714D01*
X7545476Y-15724476D01*
X7545476Y-15619714D02*
X7555000Y-15600667D01*
X7574048Y-15591143D01*
X7602619Y-15591143D01*
X7621667Y-15600667D01*
X7631190Y-15619714D01*
X7631190Y-15724476D01*
X7726428Y-15724476D02*
X7726428Y-15591143D01*
X7726428Y-15610190D02*
X7735952Y-15600667D01*
X7755000Y-15591143D01*
X7783571Y-15591143D01*
X7802619Y-15600667D01*
X7812143Y-15619714D01*
X7812143Y-15724476D01*
X7812143Y-15619714D02*
X7821667Y-15600667D01*
X7840714Y-15591143D01*
X7869286Y-15591143D01*
X7888333Y-15600667D01*
X7897857Y-15619714D01*
X7897857Y-15724476D01*
X8288333Y-15514952D02*
X8116905Y-15772095D01*
X8545476Y-15524476D02*
X8564524Y-15524476D01*
X8583571Y-15534000D01*
X8593095Y-15543524D01*
X8602619Y-15562571D01*
X8612143Y-15600667D01*
X8612143Y-15648286D01*
X8602619Y-15686381D01*
X8593095Y-15705428D01*
X8583571Y-15714952D01*
X8564524Y-15724476D01*
X8545476Y-15724476D01*
X8526429Y-15714952D01*
X8516905Y-15705428D01*
X8507381Y-15686381D01*
X8497857Y-15648286D01*
X8497857Y-15600667D01*
X8507381Y-15562571D01*
X8516905Y-15543524D01*
X8526429Y-15534000D01*
X8545476Y-15524476D01*
X8697857Y-15705428D02*
X8707381Y-15714952D01*
X8697857Y-15724476D01*
X8688333Y-15714952D01*
X8697857Y-15705428D01*
X8697857Y-15724476D01*
X8831190Y-15524476D02*
X8850238Y-15524476D01*
X8869286Y-15534000D01*
X8878810Y-15543524D01*
X8888333Y-15562571D01*
X8897857Y-15600667D01*
X8897857Y-15648286D01*
X8888333Y-15686381D01*
X8878810Y-15705428D01*
X8869286Y-15714952D01*
X8850238Y-15724476D01*
X8831190Y-15724476D01*
X8812143Y-15714952D01*
X8802619Y-15705428D01*
X8793095Y-15686381D01*
X8783571Y-15648286D01*
X8783571Y-15600667D01*
X8793095Y-15562571D01*
X8802619Y-15543524D01*
X8812143Y-15534000D01*
X8831190Y-15524476D01*
X8993095Y-15724476D02*
X9031190Y-15724476D01*
X9050238Y-15714952D01*
X9059762Y-15705428D01*
X9078810Y-15676857D01*
X9088333Y-15638762D01*
X9088333Y-15562571D01*
X9078810Y-15543524D01*
X9069286Y-15534000D01*
X9050238Y-15524476D01*
X9012143Y-15524476D01*
X8993095Y-15534000D01*
X8983571Y-15543524D01*
X8974048Y-15562571D01*
X8974048Y-15610190D01*
X8983571Y-15629238D01*
X8993095Y-15638762D01*
X9012143Y-15648286D01*
X9050238Y-15648286D01*
X9069286Y-15638762D01*
X9078810Y-15629238D01*
X9088333Y-15610190D01*
X9202619Y-15610190D02*
X9183571Y-15600667D01*
X9174048Y-15591143D01*
X9164524Y-15572095D01*
X9164524Y-15562571D01*
X9174048Y-15543524D01*
X9183571Y-15534000D01*
X9202619Y-15524476D01*
X9240714Y-15524476D01*
X9259762Y-15534000D01*
X9269286Y-15543524D01*
X9278810Y-15562571D01*
X9278810Y-15572095D01*
X9269286Y-15591143D01*
X9259762Y-15600667D01*
X9240714Y-15610190D01*
X9202619Y-15610190D01*
X9183571Y-15619714D01*
X9174048Y-15629238D01*
X9164524Y-15648286D01*
X9164524Y-15686381D01*
X9174048Y-15705428D01*
X9183571Y-15714952D01*
X9202619Y-15724476D01*
X9240714Y-15724476D01*
X9259762Y-15714952D01*
X9269286Y-15705428D01*
X9278810Y-15686381D01*
X9278810Y-15648286D01*
X9269286Y-15629238D01*
X9259762Y-15619714D01*
X9240714Y-15610190D01*
X9450238Y-15591143D02*
X9450238Y-15724476D01*
X9402619Y-15514952D02*
X9355000Y-15657809D01*
X9478810Y-15657809D01*
X9545476Y-15524476D02*
X9545476Y-15562571D01*
X9621667Y-15524476D02*
X9621667Y-15562571D01*
X9916905Y-15800667D02*
X9907381Y-15791143D01*
X9888333Y-15762571D01*
X9878810Y-15743524D01*
X9869286Y-15714952D01*
X9859762Y-15667333D01*
X9859762Y-15629238D01*
X9869286Y-15581619D01*
X9878810Y-15553048D01*
X9888333Y-15534000D01*
X9907381Y-15505428D01*
X9916905Y-15495905D01*
X9983571Y-15543524D02*
X9993095Y-15534000D01*
X10012143Y-15524476D01*
X10059762Y-15524476D01*
X10078810Y-15534000D01*
X10088333Y-15543524D01*
X10097857Y-15562571D01*
X10097857Y-15581619D01*
X10088333Y-15610190D01*
X9974048Y-15724476D01*
X10097857Y-15724476D01*
X10335952Y-15724476D02*
X10335952Y-15524476D01*
X10421667Y-15724476D02*
X10421667Y-15619714D01*
X10412143Y-15600667D01*
X10393095Y-15591143D01*
X10364524Y-15591143D01*
X10345476Y-15600667D01*
X10335952Y-15610190D01*
X10545476Y-15724476D02*
X10526429Y-15714952D01*
X10516905Y-15705428D01*
X10507381Y-15686381D01*
X10507381Y-15629238D01*
X10516905Y-15610190D01*
X10526429Y-15600667D01*
X10545476Y-15591143D01*
X10574048Y-15591143D01*
X10593095Y-15600667D01*
X10602619Y-15610190D01*
X10612143Y-15629238D01*
X10612143Y-15686381D01*
X10602619Y-15705428D01*
X10593095Y-15714952D01*
X10574048Y-15724476D01*
X10545476Y-15724476D01*
X10726429Y-15724476D02*
X10707381Y-15714952D01*
X10697857Y-15695905D01*
X10697857Y-15524476D01*
X10878810Y-15714952D02*
X10859762Y-15724476D01*
X10821667Y-15724476D01*
X10802619Y-15714952D01*
X10793095Y-15695905D01*
X10793095Y-15619714D01*
X10802619Y-15600667D01*
X10821667Y-15591143D01*
X10859762Y-15591143D01*
X10878810Y-15600667D01*
X10888333Y-15619714D01*
X10888333Y-15638762D01*
X10793095Y-15657809D01*
X10964524Y-15714952D02*
X10983571Y-15724476D01*
X11021667Y-15724476D01*
X11040714Y-15714952D01*
X11050238Y-15695905D01*
X11050238Y-15686381D01*
X11040714Y-15667333D01*
X11021667Y-15657809D01*
X10993095Y-15657809D01*
X10974048Y-15648286D01*
X10964524Y-15629238D01*
X10964524Y-15619714D01*
X10974048Y-15600667D01*
X10993095Y-15591143D01*
X11021667Y-15591143D01*
X11040714Y-15600667D01*
X11116905Y-15800667D02*
X11126429Y-15791143D01*
X11145476Y-15762571D01*
X11155000Y-15743524D01*
X11164524Y-15714952D01*
X11174048Y-15667333D01*
X11174048Y-15629238D01*
X11164524Y-15581619D01*
X11155000Y-15553048D01*
X11145476Y-15534000D01*
X11126429Y-15505428D01*
X11116905Y-15495905D01*
X6245000Y-16054000D02*
X6345000Y-15954000D01*
X6245000Y-15854000D01*
X6145000Y-15954000D01*
X6245000Y-16054000D01*
X6345000Y-15954000D02*
G75*
G03*
X6345000Y-15954000I-100000J0D01*
G01*
X6583571Y-15844476D02*
X6707381Y-15844476D01*
X6640714Y-15920667D01*
X6669286Y-15920667D01*
X6688333Y-15930190D01*
X6697857Y-15939714D01*
X6707381Y-15958762D01*
X6707381Y-16006381D01*
X6697857Y-16025428D01*
X6688333Y-16034952D01*
X6669286Y-16044476D01*
X6612143Y-16044476D01*
X6593095Y-16034952D01*
X6583571Y-16025428D01*
X6793095Y-16025428D02*
X6802619Y-16034952D01*
X6793095Y-16044476D01*
X6783571Y-16034952D01*
X6793095Y-16025428D01*
X6793095Y-16044476D01*
X6926428Y-15844476D02*
X6945476Y-15844476D01*
X6964524Y-15854000D01*
X6974048Y-15863524D01*
X6983571Y-15882571D01*
X6993095Y-15920667D01*
X6993095Y-15968286D01*
X6983571Y-16006381D01*
X6974048Y-16025428D01*
X6964524Y-16034952D01*
X6945476Y-16044476D01*
X6926428Y-16044476D01*
X6907381Y-16034952D01*
X6897857Y-16025428D01*
X6888333Y-16006381D01*
X6878809Y-15968286D01*
X6878809Y-15920667D01*
X6888333Y-15882571D01*
X6897857Y-15863524D01*
X6907381Y-15854000D01*
X6926428Y-15844476D01*
X7116905Y-15844476D02*
X7135952Y-15844476D01*
X7155000Y-15854000D01*
X7164524Y-15863524D01*
X7174048Y-15882571D01*
X7183571Y-15920667D01*
X7183571Y-15968286D01*
X7174048Y-16006381D01*
X7164524Y-16025428D01*
X7155000Y-16034952D01*
X7135952Y-16044476D01*
X7116905Y-16044476D01*
X7097857Y-16034952D01*
X7088333Y-16025428D01*
X7078809Y-16006381D01*
X7069286Y-15968286D01*
X7069286Y-15920667D01*
X7078809Y-15882571D01*
X7088333Y-15863524D01*
X7097857Y-15854000D01*
X7116905Y-15844476D01*
X7307381Y-15844476D02*
X7326428Y-15844476D01*
X7345476Y-15854000D01*
X7355000Y-15863524D01*
X7364524Y-15882571D01*
X7374048Y-15920667D01*
X7374048Y-15968286D01*
X7364524Y-16006381D01*
X7355000Y-16025428D01*
X7345476Y-16034952D01*
X7326428Y-16044476D01*
X7307381Y-16044476D01*
X7288333Y-16034952D01*
X7278809Y-16025428D01*
X7269286Y-16006381D01*
X7259762Y-15968286D01*
X7259762Y-15920667D01*
X7269286Y-15882571D01*
X7278809Y-15863524D01*
X7288333Y-15854000D01*
X7307381Y-15844476D01*
X7459762Y-16044476D02*
X7459762Y-15911143D01*
X7459762Y-15930190D02*
X7469286Y-15920667D01*
X7488333Y-15911143D01*
X7516905Y-15911143D01*
X7535952Y-15920667D01*
X7545476Y-15939714D01*
X7545476Y-16044476D01*
X7545476Y-15939714D02*
X7555000Y-15920667D01*
X7574048Y-15911143D01*
X7602619Y-15911143D01*
X7621667Y-15920667D01*
X7631190Y-15939714D01*
X7631190Y-16044476D01*
X7726428Y-16044476D02*
X7726428Y-15911143D01*
X7726428Y-15930190D02*
X7735952Y-15920667D01*
X7755000Y-15911143D01*
X7783571Y-15911143D01*
X7802619Y-15920667D01*
X7812143Y-15939714D01*
X7812143Y-16044476D01*
X7812143Y-15939714D02*
X7821667Y-15920667D01*
X7840714Y-15911143D01*
X7869286Y-15911143D01*
X7888333Y-15920667D01*
X7897857Y-15939714D01*
X7897857Y-16044476D01*
X8288333Y-15834952D02*
X8116905Y-16092095D01*
X8545476Y-15844476D02*
X8564524Y-15844476D01*
X8583571Y-15854000D01*
X8593095Y-15863524D01*
X8602619Y-15882571D01*
X8612143Y-15920667D01*
X8612143Y-15968286D01*
X8602619Y-16006381D01*
X8593095Y-16025428D01*
X8583571Y-16034952D01*
X8564524Y-16044476D01*
X8545476Y-16044476D01*
X8526429Y-16034952D01*
X8516905Y-16025428D01*
X8507381Y-16006381D01*
X8497857Y-15968286D01*
X8497857Y-15920667D01*
X8507381Y-15882571D01*
X8516905Y-15863524D01*
X8526429Y-15854000D01*
X8545476Y-15844476D01*
X8697857Y-16025428D02*
X8707381Y-16034952D01*
X8697857Y-16044476D01*
X8688333Y-16034952D01*
X8697857Y-16025428D01*
X8697857Y-16044476D01*
X8897857Y-16044476D02*
X8783571Y-16044476D01*
X8840714Y-16044476D02*
X8840714Y-15844476D01*
X8821667Y-15873048D01*
X8802619Y-15892095D01*
X8783571Y-15901619D01*
X9088333Y-16044476D02*
X8974048Y-16044476D01*
X9031190Y-16044476D02*
X9031190Y-15844476D01*
X9012143Y-15873048D01*
X8993095Y-15892095D01*
X8974048Y-15901619D01*
X9202619Y-15930190D02*
X9183571Y-15920667D01*
X9174048Y-15911143D01*
X9164524Y-15892095D01*
X9164524Y-15882571D01*
X9174048Y-15863524D01*
X9183571Y-15854000D01*
X9202619Y-15844476D01*
X9240714Y-15844476D01*
X9259762Y-15854000D01*
X9269286Y-15863524D01*
X9278810Y-15882571D01*
X9278810Y-15892095D01*
X9269286Y-15911143D01*
X9259762Y-15920667D01*
X9240714Y-15930190D01*
X9202619Y-15930190D01*
X9183571Y-15939714D01*
X9174048Y-15949238D01*
X9164524Y-15968286D01*
X9164524Y-16006381D01*
X9174048Y-16025428D01*
X9183571Y-16034952D01*
X9202619Y-16044476D01*
X9240714Y-16044476D01*
X9259762Y-16034952D01*
X9269286Y-16025428D01*
X9278810Y-16006381D01*
X9278810Y-15968286D01*
X9269286Y-15949238D01*
X9259762Y-15939714D01*
X9240714Y-15930190D01*
X9469286Y-16044476D02*
X9355000Y-16044476D01*
X9412143Y-16044476D02*
X9412143Y-15844476D01*
X9393095Y-15873048D01*
X9374048Y-15892095D01*
X9355000Y-15901619D01*
X9545476Y-15844476D02*
X9545476Y-15882571D01*
X9621667Y-15844476D02*
X9621667Y-15882571D01*
X9916905Y-16120667D02*
X9907381Y-16111143D01*
X9888333Y-16082571D01*
X9878810Y-16063524D01*
X9869286Y-16034952D01*
X9859762Y-15987333D01*
X9859762Y-15949238D01*
X9869286Y-15901619D01*
X9878810Y-15873048D01*
X9888333Y-15854000D01*
X9907381Y-15825428D01*
X9916905Y-15815905D01*
X10078810Y-15911143D02*
X10078810Y-16044476D01*
X10031190Y-15834952D02*
X9983571Y-15977809D01*
X10107381Y-15977809D01*
X10335952Y-16044476D02*
X10335952Y-15844476D01*
X10421667Y-16044476D02*
X10421667Y-15939714D01*
X10412143Y-15920667D01*
X10393095Y-15911143D01*
X10364524Y-15911143D01*
X10345476Y-15920667D01*
X10335952Y-15930190D01*
X10545476Y-16044476D02*
X10526429Y-16034952D01*
X10516905Y-16025428D01*
X10507381Y-16006381D01*
X10507381Y-15949238D01*
X10516905Y-15930190D01*
X10526429Y-15920667D01*
X10545476Y-15911143D01*
X10574048Y-15911143D01*
X10593095Y-15920667D01*
X10602619Y-15930190D01*
X10612143Y-15949238D01*
X10612143Y-16006381D01*
X10602619Y-16025428D01*
X10593095Y-16034952D01*
X10574048Y-16044476D01*
X10545476Y-16044476D01*
X10726429Y-16044476D02*
X10707381Y-16034952D01*
X10697857Y-16015905D01*
X10697857Y-15844476D01*
X10878810Y-16034952D02*
X10859762Y-16044476D01*
X10821667Y-16044476D01*
X10802619Y-16034952D01*
X10793095Y-16015905D01*
X10793095Y-15939714D01*
X10802619Y-15920667D01*
X10821667Y-15911143D01*
X10859762Y-15911143D01*
X10878810Y-15920667D01*
X10888333Y-15939714D01*
X10888333Y-15958762D01*
X10793095Y-15977809D01*
X10964524Y-16034952D02*
X10983571Y-16044476D01*
X11021667Y-16044476D01*
X11040714Y-16034952D01*
X11050238Y-16015905D01*
X11050238Y-16006381D01*
X11040714Y-15987333D01*
X11021667Y-15977809D01*
X10993095Y-15977809D01*
X10974048Y-15968286D01*
X10964524Y-15949238D01*
X10964524Y-15939714D01*
X10974048Y-15920667D01*
X10993095Y-15911143D01*
X11021667Y-15911143D01*
X11040714Y-15920667D01*
X11116905Y-16120667D02*
X11126429Y-16111143D01*
X11145476Y-16082571D01*
X11155000Y-16063524D01*
X11164524Y-16034952D01*
X11174048Y-15987333D01*
X11174048Y-15949238D01*
X11164524Y-15901619D01*
X11155000Y-15873048D01*
X11145476Y-15854000D01*
X11126429Y-15825428D01*
X11116905Y-15815905D01*
M02*
